<?xml version="1.0" encoding="UTF-8" standalone="no"?>
<!DOCTYPE svg PUBLIC "-//W3C//DTD SVG 1.1//EN"
 "http://www.w3.org/Graphics/SVG/1.1/DTD/svg11.dtd">
<!-- Generated by graphviz version 2.40.1 (20161225.0304)
 -->
<!-- Title: oneapi::vpl::decoder_process_list::add_buffer Pages: 1 -->
<svg width="413pt" height="61pt"
 viewBox="0.00 0.00 413.00 61.00" xmlns="http://www.w3.org/2000/svg" xmlns:xlink="http://www.w3.org/1999/xlink">
<g id="graph0" class="graph" transform="scale(1 1) rotate(0) translate(4 57)">
<title>oneapi::vpl::decoder_process_list::add_buffer</title>
<polygon fill="#ffffff" stroke="transparent" points="-4,4 -4,-57 409,-57 409,4 -4,4"/>
<!-- Node6 -->
<g id="node1" class="node">
<title>Node6</title>
<polygon fill="#bfbfbf" stroke="#000000" points="0,-22.5 0,-52.5 126,-52.5 126,-22.5 0,-22.5"/>
<text text-anchor="start" x="8" y="-40.5" font-family="Helvetica,sans-Serif" font-size="10.00" fill="#000000">oneapi::vpl::decoder</text>
<text text-anchor="middle" x="63" y="-29.5" font-family="Helvetica,sans-Serif" font-size="10.00" fill="#000000">_process_list::add_buffer</text>
</g>
<!-- Node7 -->
<g id="node2" class="node">
<title>Node7</title>
<g id="a_node2"><a xlink:href="classoneapi_1_1vpl_1_1extension__buffer__base.html#a05f42bf8ebbeb7f697eb53a17a465c73" target="_top" xlink:title="Interface to retieve extension buffer ID in a form of FourCC code. ">
<polygon fill="#ffffff" stroke="#000000" points="293,-22.5 293,-52.5 405,-52.5 405,-22.5 293,-22.5"/>
<text text-anchor="start" x="301" y="-40.5" font-family="Helvetica,sans-Serif" font-size="10.00" fill="#000000">oneapi::vpl::extension</text>
<text text-anchor="middle" x="349" y="-29.5" font-family="Helvetica,sans-Serif" font-size="10.00" fill="#000000">_buffer_base::get_ID</text>
</a>
</g>
</g>
<!-- Node6&#45;&gt;Node7 -->
<g id="edge1" class="edge">
<title>Node6&#45;&gt;Node7</title>
<path fill="none" stroke="#191970" d="M126.1044,-39.6983C138.0262,-40.0325 150.3944,-40.3242 162,-40.5 204.2174,-41.1395 214.7834,-41.1881 257,-40.5 265.2689,-40.3652 273.9542,-40.1623 282.5497,-39.9244"/>
<polygon fill="#191970" stroke="#191970" points="282.6752,-43.4223 292.5684,-39.6309 282.4702,-36.4253 282.6752,-43.4223"/>
</g>
<!-- Node8 -->
<g id="node3" class="node">
<title>Node8</title>
<g id="a_node3"><a xlink:href="classoneapi_1_1vpl_1_1buffer__list.html#aa156fcbd0cd65808fb14ffc2a3ebda5a" target="_top" xlink:title="adds extension buffer pointer to the map ">
<polygon fill="#ffffff" stroke="#000000" points="162,-.5 162,-30.5 257,-30.5 257,-.5 162,-.5"/>
<text text-anchor="start" x="170" y="-18.5" font-family="Helvetica,sans-Serif" font-size="10.00" fill="#000000">oneapi::vpl::buffer</text>
<text text-anchor="middle" x="209.5" y="-7.5" font-family="Helvetica,sans-Serif" font-size="10.00" fill="#000000">_list::add_buffer</text>
</a>
</g>
</g>
<!-- Node6&#45;&gt;Node8 -->
<g id="edge2" class="edge">
<title>Node6&#45;&gt;Node8</title>
<path fill="none" stroke="#191970" d="M126.405,-27.9784C134.8715,-26.707 143.5167,-25.4088 151.8771,-24.1533"/>
<polygon fill="#191970" stroke="#191970" points="152.5331,-27.5941 161.9024,-22.6478 151.4935,-20.6717 152.5331,-27.5941"/>
</g>
<!-- Node8&#45;&gt;Node7 -->
<g id="edge3" class="edge">
<title>Node8&#45;&gt;Node7</title>
<path fill="none" stroke="#191970" d="M257.1178,-23.0096C265.4005,-24.3159 274.1477,-25.6953 282.8211,-27.0632"/>
<polygon fill="#191970" stroke="#191970" points="282.5136,-30.5579 292.9368,-28.6585 283.6041,-23.6433 282.5136,-30.5579"/>
</g>
</g>
</svg>
