<?xml version="1.0" encoding="UTF-8" standalone="no"?>
<!DOCTYPE svg PUBLIC "-//W3C//DTD SVG 1.1//EN"
 "http://www.w3.org/Graphics/SVG/1.1/DTD/svg11.dtd">
<!-- Generated by graphviz version 2.40.1 (20161225.0304)
 -->
<!-- Title: oneapi::vpl::decode_stat Pages: 1 -->
<svg width="198pt" height="95pt"
 viewBox="0.00 0.00 197.50 95.00" xmlns="http://www.w3.org/2000/svg" xmlns:xlink="http://www.w3.org/1999/xlink">
<g id="graph0" class="graph" transform="scale(1 1) rotate(0) translate(4 91)">
<title>oneapi::vpl::decode_stat</title>
<polygon fill="#ffffff" stroke="transparent" points="-4,4 -4,-91 193.5,-91 193.5,4 -4,4"/>
<!-- Node2 -->
<g id="node1" class="node">
<title>Node2</title>
<polygon fill="#bfbfbf" stroke="#000000" points="33.5,-.5 33.5,-19.5 156.5,-19.5 156.5,-.5 33.5,-.5"/>
<text text-anchor="middle" x="95" y="-7.5" font-family="Helvetica,sans-Serif" font-size="10.00" fill="#000000">oneapi::vpl::decode_stat</text>
</g>
<!-- Node3 -->
<g id="node2" class="node">
<title>Node3</title>
<g id="a_node2"><a xlink:href="classoneapi_1_1vpl_1_1stat.html" target="_top" xlink:title="Interface for the component&#39;s (session) run&#45;time statistic. ">
<polygon fill="#ffffff" stroke="#000000" points="0,-67.5 0,-86.5 86,-86.5 86,-67.5 0,-67.5"/>
<text text-anchor="middle" x="43" y="-74.5" font-family="Helvetica,sans-Serif" font-size="10.00" fill="#000000">oneapi::vpl::stat</text>
</a>
</g>
</g>
<!-- Node3&#45;&gt;Node2 -->
<g id="edge1" class="edge">
<title>Node3&#45;&gt;Node2</title>
<path fill="none" stroke="#191970" d="M56.6996,-59.3486C66.579,-46.6194 79.5374,-29.9229 87.5635,-19.5817"/>
<polygon fill="#191970" stroke="#191970" points="53.8166,-57.3547 50.4503,-67.4005 59.3466,-61.6466 53.8166,-57.3547"/>
</g>
<!-- Node4 -->
<g id="node3" class="node">
<title>Node4</title>
<g id="a_node3"><a xlink:href="structmfxDecodeStat.html" target="_top" xlink:title="mfxDecodeStat">
<polygon fill="#ffffff" stroke="#000000" points="104.5,-67.5 104.5,-86.5 189.5,-86.5 189.5,-67.5 104.5,-67.5"/>
<text text-anchor="middle" x="147" y="-74.5" font-family="Helvetica,sans-Serif" font-size="10.00" fill="#000000">mfxDecodeStat</text>
</a>
</g>
</g>
<!-- Node4&#45;&gt;Node2 -->
<g id="edge2" class="edge">
<title>Node4&#45;&gt;Node2</title>
<path fill="none" stroke="#9a32cd" stroke-dasharray="5,2" d="M133.3004,-59.3486C123.421,-46.6194 110.4626,-29.9229 102.4365,-19.5817"/>
<polygon fill="#9a32cd" stroke="#9a32cd" points="130.6534,-61.6466 139.5497,-67.4005 136.1834,-57.3547 130.6534,-61.6466"/>
<text text-anchor="middle" x="136.5" y="-41" font-family="Helvetica,sans-Serif" font-size="10.00" fill="#000000"> stat_</text>
</g>
</g>
</svg>
