<?xml version="1.0" encoding="UTF-8" standalone="no"?>
<!DOCTYPE svg PUBLIC "-//W3C//DTD SVG 1.1//EN"
 "http://www.w3.org/Graphics/SVG/1.1/DTD/svg11.dtd">
<!-- Generated by graphviz version 2.40.1 (20161225.0304)
 -->
<!-- Title: oneapi::vpl::ExtInsertHeaders Pages: 1 -->
<svg width="758pt" height="78pt"
 viewBox="0.00 0.00 758.00 77.50" xmlns="http://www.w3.org/2000/svg" xmlns:xlink="http://www.w3.org/1999/xlink">
<g id="graph0" class="graph" transform="scale(1 1) rotate(0) translate(4 73.5)">
<title>oneapi::vpl::ExtInsertHeaders</title>
<polygon fill="#ffffff" stroke="transparent" points="-4,4 -4,-73.5 754,-73.5 754,4 -4,4"/>
<!-- Node4 -->
<g id="node1" class="node">
<title>Node4</title>
<polygon fill="#bfbfbf" stroke="#000000" points="604,-22.5 604,-41.5 750,-41.5 750,-22.5 604,-22.5"/>
<text text-anchor="middle" x="677" y="-29.5" font-family="Helvetica,sans-Serif" font-size="10.00" fill="#000000">oneapi::vpl::ExtInsertHeaders</text>
</g>
<!-- Node5 -->
<g id="node2" class="node">
<title>Node5</title>
<g id="a_node2"><a xlink:href="classoneapi_1_1vpl_1_1extension__buffer__trival.html" target="_top" xlink:title="oneapi::vpl::extension\l_buffer_trival\&lt; mfxExtInsert\lHeaders, MFX_EXTBUFF_INSERT\l_HEADERS \&gt;">
<polygon fill="#ffffff" stroke="#000000" points="393,-6 393,-58 567,-58 567,-6 393,-6"/>
<text text-anchor="start" x="401" y="-46" font-family="Helvetica,sans-Serif" font-size="10.00" fill="#000000">oneapi::vpl::extension</text>
<text text-anchor="start" x="401" y="-35" font-family="Helvetica,sans-Serif" font-size="10.00" fill="#000000">_buffer_trival&lt; mfxExtInsert</text>
<text text-anchor="start" x="401" y="-24" font-family="Helvetica,sans-Serif" font-size="10.00" fill="#000000">Headers, MFX_EXTBUFF_INSERT</text>
<text text-anchor="middle" x="480" y="-13" font-family="Helvetica,sans-Serif" font-size="10.00" fill="#000000">_HEADERS &gt;</text>
</a>
</g>
</g>
<!-- Node5&#45;&gt;Node4 -->
<g id="edge1" class="edge">
<title>Node5&#45;&gt;Node4</title>
<path fill="none" stroke="#191970" d="M577.3508,-32C586.3006,-32 595.263,-32 603.9425,-32"/>
<polygon fill="#191970" stroke="#191970" points="577.2674,-28.5001 567.2674,-32 577.2673,-35.5001 577.2674,-28.5001"/>
</g>
<!-- Node6 -->
<g id="node3" class="node">
<title>Node6</title>
<g id="a_node3"><a xlink:href="classoneapi_1_1vpl_1_1extension__buffer.html" target="_top" xlink:title="oneapi::vpl::extension\l_buffer\&lt; mfxExtInsertHeaders, ID \&gt;">
<polygon fill="#ffffff" stroke="#000000" points="182,-17 182,-47 356,-47 356,-17 182,-17"/>
<text text-anchor="start" x="190" y="-35" font-family="Helvetica,sans-Serif" font-size="10.00" fill="#000000">oneapi::vpl::extension</text>
<text text-anchor="middle" x="269" y="-24" font-family="Helvetica,sans-Serif" font-size="10.00" fill="#000000">_buffer&lt; mfxExtInsertHeaders, ID &gt;</text>
</a>
</g>
</g>
<!-- Node6&#45;&gt;Node5 -->
<g id="edge2" class="edge">
<title>Node6&#45;&gt;Node5</title>
<path fill="none" stroke="#191970" d="M366.0659,-32C374.9886,-32 383.9923,-32 392.8195,-32"/>
<polygon fill="#191970" stroke="#191970" points="366.04,-28.5001 356.04,-32 366.0399,-35.5001 366.04,-28.5001"/>
</g>
<!-- Node7 -->
<g id="node4" class="node">
<title>Node7</title>
<g id="a_node4"><a xlink:href="classoneapi_1_1vpl_1_1extension__buffer__base.html" target="_top" xlink:title="Interface definition for extension buffers. Extension buffers are used to provide additional data for...">
<polygon fill="#ffffff" stroke="#000000" points="0,-39 0,-69 112,-69 112,-39 0,-39"/>
<text text-anchor="start" x="8" y="-57" font-family="Helvetica,sans-Serif" font-size="10.00" fill="#000000">oneapi::vpl::extension</text>
<text text-anchor="middle" x="56" y="-46" font-family="Helvetica,sans-Serif" font-size="10.00" fill="#000000">_buffer_base</text>
</a>
</g>
</g>
<!-- Node7&#45;&gt;Node6 -->
<g id="edge3" class="edge">
<title>Node7&#45;&gt;Node6</title>
<path fill="none" stroke="#191970" d="M122.2129,-47.1611C141.0938,-45.211 161.9561,-43.0562 181.8817,-40.9981"/>
<polygon fill="#191970" stroke="#191970" points="121.8293,-43.682 112.2419,-48.191 122.5486,-50.645 121.8293,-43.682"/>
</g>
<!-- Node8 -->
<g id="node5" class="node">
<title>Node8</title>
<g id="a_node5"><a xlink:href="structmfxExtInsertHeaders.html" target="_top" xlink:title="mfxExtInsertHeaders">
<polygon fill="#ffffff" stroke="#000000" points="1,-.5 1,-19.5 111,-19.5 111,-.5 1,-.5"/>
<text text-anchor="middle" x="56" y="-7.5" font-family="Helvetica,sans-Serif" font-size="10.00" fill="#000000">mfxExtInsertHeaders</text>
</a>
</g>
</g>
<!-- Node8&#45;&gt;Node6 -->
<g id="edge4" class="edge">
<title>Node8&#45;&gt;Node6</title>
<path fill="none" stroke="#9a32cd" stroke-dasharray="5,2" d="M121.2281,-16.7372C140.3686,-18.7141 161.6132,-20.9084 181.8877,-23.0025"/>
<polygon fill="#9a32cd" stroke="#9a32cd" points="121.4365,-13.2402 111.1298,-15.6942 120.7173,-20.2031 121.4365,-13.2402"/>
<text text-anchor="middle" x="147" y="-24" font-family="Helvetica,sans-Serif" font-size="10.00" fill="#000000"> buffer_</text>
</g>
</g>
</svg>
