<?xml version="1.0" encoding="UTF-8" standalone="no"?>
<!DOCTYPE svg PUBLIC "-//W3C//DTD SVG 1.1//EN"
 "http://www.w3.org/Graphics/SVG/1.1/DTD/svg11.dtd">
<!-- Generated by graphviz version 2.40.1 (20161225.0304)
 -->
<!-- Title: oneapi::vpl::property::GetValue Pages: 1 -->
<svg width="255pt" height="39pt"
 viewBox="0.00 0.00 255.00 39.00" xmlns="http://www.w3.org/2000/svg" xmlns:xlink="http://www.w3.org/1999/xlink">
<g id="graph0" class="graph" transform="scale(1 1) rotate(0) translate(4 35)">
<title>oneapi::vpl::property::GetValue</title>
<polygon fill="#ffffff" stroke="transparent" points="-4,4 -4,-35 251,-35 251,4 -4,4"/>
<!-- Node15 -->
<g id="node1" class="node">
<title>Node15</title>
<polygon fill="#bfbfbf" stroke="#000000" points="0,-.5 0,-30.5 105,-30.5 105,-.5 0,-.5"/>
<text text-anchor="start" x="8" y="-18.5" font-family="Helvetica,sans-Serif" font-size="10.00" fill="#000000">oneapi::vpl::property</text>
<text text-anchor="middle" x="52.5" y="-7.5" font-family="Helvetica,sans-Serif" font-size="10.00" fill="#000000">::GetValue</text>
</g>
<!-- Node16 -->
<g id="node2" class="node">
<title>Node16</title>
<g id="a_node2"><a xlink:href="classoneapi_1_1vpl_1_1detail_1_1variant.html#a3ebcf1a053780f50c175170889ee06bb" target="_top" xlink:title="Returns instance of mfxVariant C type. ">
<polygon fill="#ffffff" stroke="#000000" points="141,-.5 141,-30.5 247,-30.5 247,-.5 141,-.5"/>
<text text-anchor="start" x="149" y="-18.5" font-family="Helvetica,sans-Serif" font-size="10.00" fill="#000000">oneapi::vpl::detail</text>
<text text-anchor="middle" x="194" y="-7.5" font-family="Helvetica,sans-Serif" font-size="10.00" fill="#000000">::variant::get_variant</text>
</a>
</g>
</g>
<!-- Node15&#45;&gt;Node16 -->
<g id="edge1" class="edge">
<title>Node15&#45;&gt;Node16</title>
<path fill="none" stroke="#191970" d="M105.1894,-15.5C113.457,-15.5 122.0772,-15.5 130.5559,-15.5"/>
<polygon fill="#191970" stroke="#191970" points="130.7948,-19.0001 140.7947,-15.5 130.7947,-12.0001 130.7948,-19.0001"/>
</g>
</g>
</svg>
