<?xml version="1.0" encoding="UTF-8" standalone="no"?>
<!DOCTYPE svg PUBLIC "-//W3C//DTD SVG 1.1//EN"
 "http://www.w3.org/Graphics/SVG/1.1/DTD/svg11.dtd">
<!-- Generated by graphviz version 2.40.1 (20161225.0304)
 -->
<!-- Title: oneapi::vpl::detail::variant::get_variant Pages: 1 -->
<svg width="255pt" height="137pt"
 viewBox="0.00 0.00 255.00 137.00" xmlns="http://www.w3.org/2000/svg" xmlns:xlink="http://www.w3.org/1999/xlink">
<g id="graph0" class="graph" transform="scale(1 1) rotate(0) translate(4 133)">
<title>oneapi::vpl::detail::variant::get_variant</title>
<polygon fill="#ffffff" stroke="transparent" points="-4,4 -4,-133 251,-133 251,4 -4,4"/>
<!-- Node3 -->
<g id="node1" class="node">
<title>Node3</title>
<polygon fill="#bfbfbf" stroke="#000000" points="0,-49.5 0,-79.5 106,-79.5 106,-49.5 0,-49.5"/>
<text text-anchor="start" x="8" y="-67.5" font-family="Helvetica,sans-Serif" font-size="10.00" fill="#000000">oneapi::vpl::detail</text>
<text text-anchor="middle" x="53" y="-56.5" font-family="Helvetica,sans-Serif" font-size="10.00" fill="#000000">::variant::get_variant</text>
</g>
<!-- Node4 -->
<g id="node2" class="node">
<title>Node4</title>
<g id="a_node2"><a xlink:href="classoneapi_1_1vpl_1_1property.html#a20980451fd20039edca811975bf98944" target="_top" xlink:title="Returns type of the property&#39;s value. ">
<polygon fill="#ffffff" stroke="#000000" points="142,-98.5 142,-128.5 247,-128.5 247,-98.5 142,-98.5"/>
<text text-anchor="start" x="150" y="-116.5" font-family="Helvetica,sans-Serif" font-size="10.00" fill="#000000">oneapi::vpl::property</text>
<text text-anchor="middle" x="194.5" y="-105.5" font-family="Helvetica,sans-Serif" font-size="10.00" fill="#000000">::get_type</text>
</a>
</g>
</g>
<!-- Node3&#45;&gt;Node4 -->
<g id="edge1" class="edge">
<title>Node3&#45;&gt;Node4</title>
<path fill="none" stroke="#191970" d="M106.1048,-82.8896C120.8379,-87.9916 136.6614,-93.4711 150.7912,-98.3641"/>
<polygon fill="#191970" stroke="#191970" points="107.204,-79.5664 96.6093,-79.6014 104.9134,-86.1811 107.204,-79.5664"/>
</g>
<!-- Node5 -->
<g id="node3" class="node">
<title>Node5</title>
<g id="a_node3"><a xlink:href="classoneapi_1_1vpl_1_1property.html#a598214aa52e234da63c08c5402f35b2c" target="_top" xlink:title="Returns property&#39;s value. ">
<polygon fill="#ffffff" stroke="#000000" points="142,-49.5 142,-79.5 247,-79.5 247,-49.5 142,-49.5"/>
<text text-anchor="start" x="150" y="-67.5" font-family="Helvetica,sans-Serif" font-size="10.00" fill="#000000">oneapi::vpl::property</text>
<text text-anchor="middle" x="194.5" y="-56.5" font-family="Helvetica,sans-Serif" font-size="10.00" fill="#000000">::get_data</text>
</a>
</g>
</g>
<!-- Node3&#45;&gt;Node5 -->
<g id="edge2" class="edge">
<title>Node3&#45;&gt;Node5</title>
<path fill="none" stroke="#191970" d="M116.2936,-64.5C124.7424,-64.5 133.3346,-64.5 141.5811,-64.5"/>
<polygon fill="#191970" stroke="#191970" points="116.092,-61.0001 106.092,-64.5 116.0919,-68.0001 116.092,-61.0001"/>
</g>
<!-- Node6 -->
<g id="node4" class="node">
<title>Node6</title>
<g id="a_node4"><a xlink:href="classoneapi_1_1vpl_1_1property.html#afcf0564731cb42e6178a66a66cf78512" target="_top" xlink:title="Converts propery into mfxVariant type. ">
<polygon fill="#ffffff" stroke="#000000" points="142,-.5 142,-30.5 247,-30.5 247,-.5 142,-.5"/>
<text text-anchor="start" x="150" y="-18.5" font-family="Helvetica,sans-Serif" font-size="10.00" fill="#000000">oneapi::vpl::property</text>
<text text-anchor="middle" x="194.5" y="-7.5" font-family="Helvetica,sans-Serif" font-size="10.00" fill="#000000">::GetValue</text>
</a>
</g>
</g>
<!-- Node3&#45;&gt;Node6 -->
<g id="edge3" class="edge">
<title>Node3&#45;&gt;Node6</title>
<path fill="none" stroke="#191970" d="M106.1048,-46.1104C120.8379,-41.0084 136.6614,-35.5289 150.7912,-30.6359"/>
<polygon fill="#191970" stroke="#191970" points="104.9134,-42.8189 96.6093,-49.3986 107.204,-49.4336 104.9134,-42.8189"/>
</g>
</g>
</svg>
