<?xml version="1.0" encoding="UTF-8" standalone="no"?>
<!DOCTYPE svg PUBLIC "-//W3C//DTD SVG 1.1//EN"
 "http://www.w3.org/Graphics/SVG/1.1/DTD/svg11.dtd">
<!-- Generated by graphviz version 2.40.1 (20161225.0304)
 -->
<!-- Title: oneapi::vpl::ExtPredWeightTable Pages: 1 -->
<svg width="843pt" height="78pt"
 viewBox="0.00 0.00 843.00 77.50" xmlns="http://www.w3.org/2000/svg" xmlns:xlink="http://www.w3.org/1999/xlink">
<g id="graph0" class="graph" transform="scale(1 1) rotate(0) translate(4 73.5)">
<title>oneapi::vpl::ExtPredWeightTable</title>
<polygon fill="#ffffff" stroke="transparent" points="-4,4 -4,-73.5 839,-73.5 839,4 -4,4"/>
<!-- Node4 -->
<g id="node1" class="node">
<title>Node4</title>
<polygon fill="#bfbfbf" stroke="#000000" points="699,-17 699,-47 835,-47 835,-17 699,-17"/>
<text text-anchor="start" x="707" y="-35" font-family="Helvetica,sans-Serif" font-size="10.00" fill="#000000">oneapi::vpl::ExtPredWeight</text>
<text text-anchor="middle" x="767" y="-24" font-family="Helvetica,sans-Serif" font-size="10.00" fill="#000000">Table</text>
</g>
<!-- Node5 -->
<g id="node2" class="node">
<title>Node5</title>
<g id="a_node2"><a xlink:href="classoneapi_1_1vpl_1_1extension__buffer__trival.html" target="_top" xlink:title="oneapi::vpl::extension\l_buffer_trival\&lt; mfxExtPredWeight\lTable, MFX_EXTBUFF_PRED_WEIGHT_TABLE \&gt;">
<polygon fill="#ffffff" stroke="#000000" points="418,-11.5 418,-52.5 662,-52.5 662,-11.5 418,-11.5"/>
<text text-anchor="start" x="426" y="-40.5" font-family="Helvetica,sans-Serif" font-size="10.00" fill="#000000">oneapi::vpl::extension</text>
<text text-anchor="start" x="426" y="-29.5" font-family="Helvetica,sans-Serif" font-size="10.00" fill="#000000">_buffer_trival&lt; mfxExtPredWeight</text>
<text text-anchor="middle" x="540" y="-18.5" font-family="Helvetica,sans-Serif" font-size="10.00" fill="#000000">Table, MFX_EXTBUFF_PRED_WEIGHT_TABLE &gt;</text>
</a>
</g>
</g>
<!-- Node5&#45;&gt;Node4 -->
<g id="edge1" class="edge">
<title>Node5&#45;&gt;Node4</title>
<path fill="none" stroke="#191970" d="M672.4233,-32C681.4822,-32 690.3755,-32 698.8637,-32"/>
<polygon fill="#191970" stroke="#191970" points="672.1381,-28.5001 662.1381,-32 672.138,-35.5001 672.1381,-28.5001"/>
</g>
<!-- Node6 -->
<g id="node3" class="node">
<title>Node6</title>
<g id="a_node3"><a xlink:href="classoneapi_1_1vpl_1_1extension__buffer.html" target="_top" xlink:title="oneapi::vpl::extension\l_buffer\&lt; mfxExtPredWeightTable, ID \&gt;">
<polygon fill="#ffffff" stroke="#000000" points="193,-17 193,-47 381,-47 381,-17 193,-17"/>
<text text-anchor="start" x="201" y="-35" font-family="Helvetica,sans-Serif" font-size="10.00" fill="#000000">oneapi::vpl::extension</text>
<text text-anchor="middle" x="287" y="-24" font-family="Helvetica,sans-Serif" font-size="10.00" fill="#000000">_buffer&lt; mfxExtPredWeightTable, ID &gt;</text>
</a>
</g>
</g>
<!-- Node6&#45;&gt;Node5 -->
<g id="edge2" class="edge">
<title>Node6&#45;&gt;Node5</title>
<path fill="none" stroke="#191970" d="M391.371,-32C400.094,-32 408.9619,-32 417.8018,-32"/>
<polygon fill="#191970" stroke="#191970" points="391.2079,-28.5001 381.2079,-32 391.2078,-35.5001 391.2079,-28.5001"/>
</g>
<!-- Node7 -->
<g id="node4" class="node">
<title>Node7</title>
<g id="a_node4"><a xlink:href="classoneapi_1_1vpl_1_1extension__buffer__base.html" target="_top" xlink:title="Interface definition for extension buffers. Extension buffers are used to provide additional data for...">
<polygon fill="#ffffff" stroke="#000000" points="5.5,-39 5.5,-69 117.5,-69 117.5,-39 5.5,-39"/>
<text text-anchor="start" x="13.5" y="-57" font-family="Helvetica,sans-Serif" font-size="10.00" fill="#000000">oneapi::vpl::extension</text>
<text text-anchor="middle" x="61.5" y="-46" font-family="Helvetica,sans-Serif" font-size="10.00" fill="#000000">_buffer_base</text>
</a>
</g>
</g>
<!-- Node7&#45;&gt;Node6 -->
<g id="edge3" class="edge">
<title>Node7&#45;&gt;Node6</title>
<path fill="none" stroke="#191970" d="M127.6157,-47.5497C147.9598,-45.5649 170.7629,-43.3402 192.6195,-41.2079"/>
<polygon fill="#191970" stroke="#191970" points="127.1442,-44.079 117.5313,-48.5335 127.8239,-51.0459 127.1442,-44.079"/>
</g>
<!-- Node8 -->
<g id="node5" class="node">
<title>Node8</title>
<g id="a_node5"><a xlink:href="structmfxExtPredWeightTable.html" target="_top" xlink:title="mfxExtPredWeightTable">
<polygon fill="#ffffff" stroke="#000000" points="0,-.5 0,-19.5 123,-19.5 123,-.5 0,-.5"/>
<text text-anchor="middle" x="61.5" y="-7.5" font-family="Helvetica,sans-Serif" font-size="10.00" fill="#000000">mfxExtPredWeightTable</text>
</a>
</g>
</g>
<!-- Node8&#45;&gt;Node6 -->
<g id="edge4" class="edge">
<title>Node8&#45;&gt;Node6</title>
<path fill="none" stroke="#9a32cd" stroke-dasharray="5,2" d="M133.1569,-16.9909C152.1257,-18.8415 172.892,-20.8675 192.8578,-22.8154"/>
<polygon fill="#9a32cd" stroke="#9a32cd" points="133.4115,-13.4992 123.1189,-16.0116 132.7317,-20.4661 133.4115,-13.4992"/>
<text text-anchor="middle" x="158" y="-24" font-family="Helvetica,sans-Serif" font-size="10.00" fill="#000000"> buffer_</text>
</g>
</g>
</svg>
