<?xml version="1.0" encoding="UTF-8" standalone="no"?>
<!DOCTYPE svg PUBLIC "-//W3C//DTD SVG 1.1//EN"
 "http://www.w3.org/Graphics/SVG/1.1/DTD/svg11.dtd">
<!-- Generated by graphviz version 2.40.1 (20161225.0304)
 -->
<!-- Title: oneapi::vpl::ExtVPPFrameRateConversion Pages: 1 -->
<svg width="789pt" height="61pt"
 viewBox="0.00 0.00 789.00 61.00" xmlns="http://www.w3.org/2000/svg" xmlns:xlink="http://www.w3.org/1999/xlink">
<g id="graph0" class="graph" transform="scale(1 1) rotate(0) translate(4 57)">
<title>oneapi::vpl::ExtVPPFrameRateConversion</title>
<polygon fill="#ffffff" stroke="transparent" points="-4,4 -4,-57 785,-57 785,4 -4,4"/>
<!-- Node0 -->
<g id="node1" class="node">
<title>Node0</title>
<polygon fill="#bfbfbf" stroke="#000000" points="648,-11.5 648,-41.5 781,-41.5 781,-11.5 648,-11.5"/>
<text text-anchor="start" x="656" y="-29.5" font-family="Helvetica,sans-Serif" font-size="10.00" fill="#000000">oneapi::vpl::ExtVPPFrame</text>
<text text-anchor="middle" x="714.5" y="-18.5" font-family="Helvetica,sans-Serif" font-size="10.00" fill="#000000">RateConversion</text>
</g>
<!-- Node1 -->
<g id="node2" class="node">
<title>Node1</title>
<g id="a_node2"><a xlink:href="classoneapi_1_1vpl_1_1extension__buffer__trival.html" target="_top" xlink:title="oneapi::vpl::extension\l_buffer_trival\&lt; mfxExtVPPFrame\lRateConversion, MFX_EXTBUFF\l_VPP_FRAME_RATE_CONVERSION \&gt;">
<polygon fill="#ffffff" stroke="#000000" points="415,-.5 415,-52.5 612,-52.5 612,-.5 415,-.5"/>
<text text-anchor="start" x="423" y="-40.5" font-family="Helvetica,sans-Serif" font-size="10.00" fill="#000000">oneapi::vpl::extension</text>
<text text-anchor="start" x="423" y="-29.5" font-family="Helvetica,sans-Serif" font-size="10.00" fill="#000000">_buffer_trival&lt; mfxExtVPPFrame</text>
<text text-anchor="start" x="423" y="-18.5" font-family="Helvetica,sans-Serif" font-size="10.00" fill="#000000">RateConversion, MFX_EXTBUFF</text>
<text text-anchor="middle" x="513.5" y="-7.5" font-family="Helvetica,sans-Serif" font-size="10.00" fill="#000000">_VPP_FRAME_RATE_CONVERSION &gt;</text>
</a>
</g>
</g>
<!-- Node1&#45;&gt;Node0 -->
<g id="edge1" class="edge">
<title>Node1&#45;&gt;Node0</title>
<path fill="none" stroke="#191970" d="M622.4457,-26.5C631.1252,-26.5 639.7201,-26.5 647.969,-26.5"/>
<polygon fill="#191970" stroke="#191970" points="622.2335,-23.0001 612.2335,-26.5 622.2334,-30.0001 622.2335,-23.0001"/>
</g>
<!-- Node2 -->
<g id="node3" class="node">
<title>Node2</title>
<g id="a_node3"><a xlink:href="classoneapi_1_1vpl_1_1extension__buffer.html" target="_top" xlink:title="oneapi::vpl::extension\l_buffer\&lt; mfxExtVPPFrameRateConversion, ID \&gt;">
<polygon fill="#ffffff" stroke="#000000" points="148,-11.5 148,-41.5 379,-41.5 379,-11.5 148,-11.5"/>
<text text-anchor="start" x="156" y="-29.5" font-family="Helvetica,sans-Serif" font-size="10.00" fill="#000000">oneapi::vpl::extension</text>
<text text-anchor="middle" x="263.5" y="-18.5" font-family="Helvetica,sans-Serif" font-size="10.00" fill="#000000">_buffer&lt; mfxExtVPPFrameRateConversion, ID &gt;</text>
</a>
</g>
</g>
<!-- Node2&#45;&gt;Node1 -->
<g id="edge2" class="edge">
<title>Node2&#45;&gt;Node1</title>
<path fill="none" stroke="#191970" d="M389.3911,-26.5C397.949,-26.5 406.5013,-26.5 414.8876,-26.5"/>
<polygon fill="#191970" stroke="#191970" points="389.352,-23.0001 379.352,-26.5 389.352,-30.0001 389.352,-23.0001"/>
</g>
<!-- Node3 -->
<g id="node4" class="node">
<title>Node3</title>
<g id="a_node4"><a xlink:href="classoneapi_1_1vpl_1_1extension__buffer__base.html" target="_top" xlink:title="Interface definition for extension buffers. Extension buffers are used to provide additional data for...">
<polygon fill="#ffffff" stroke="#000000" points="0,-11.5 0,-41.5 112,-41.5 112,-11.5 0,-11.5"/>
<text text-anchor="start" x="8" y="-29.5" font-family="Helvetica,sans-Serif" font-size="10.00" fill="#000000">oneapi::vpl::extension</text>
<text text-anchor="middle" x="56" y="-18.5" font-family="Helvetica,sans-Serif" font-size="10.00" fill="#000000">_buffer_base</text>
</a>
</g>
</g>
<!-- Node3&#45;&gt;Node2 -->
<g id="edge3" class="edge">
<title>Node3&#45;&gt;Node2</title>
<path fill="none" stroke="#191970" d="M122.3234,-26.5C130.5196,-26.5 139.0757,-26.5 147.7452,-26.5"/>
<polygon fill="#191970" stroke="#191970" points="122.1525,-23.0001 112.1525,-26.5 122.1525,-30.0001 122.1525,-23.0001"/>
</g>
</g>
</svg>
