<?xml version="1.0" encoding="UTF-8" standalone="no"?>
<!DOCTYPE svg PUBLIC "-//W3C//DTD SVG 1.1//EN"
 "http://www.w3.org/Graphics/SVG/1.1/DTD/svg11.dtd">
<!-- Generated by graphviz version 2.40.1 (20161225.0304)
 -->
<!-- Title: oneapi::vpl::ExtAVCEncodedFrameInfo Pages: 1 -->
<svg width="741pt" height="61pt"
 viewBox="0.00 0.00 741.00 61.00" xmlns="http://www.w3.org/2000/svg" xmlns:xlink="http://www.w3.org/1999/xlink">
<g id="graph0" class="graph" transform="scale(1 1) rotate(0) translate(4 57)">
<title>oneapi::vpl::ExtAVCEncodedFrameInfo</title>
<polygon fill="#ffffff" stroke="transparent" points="-4,4 -4,-57 737,-57 737,4 -4,4"/>
<!-- Node0 -->
<g id="node1" class="node">
<title>Node0</title>
<polygon fill="#bfbfbf" stroke="#000000" points="589,-11.5 589,-41.5 733,-41.5 733,-11.5 589,-11.5"/>
<text text-anchor="start" x="597" y="-29.5" font-family="Helvetica,sans-Serif" font-size="10.00" fill="#000000">oneapi::vpl::ExtAVCEncoded</text>
<text text-anchor="middle" x="661" y="-18.5" font-family="Helvetica,sans-Serif" font-size="10.00" fill="#000000">FrameInfo</text>
</g>
<!-- Node1 -->
<g id="node2" class="node">
<title>Node1</title>
<g id="a_node2"><a xlink:href="classoneapi_1_1vpl_1_1extension__buffer__trival.html" target="_top" xlink:title="oneapi::vpl::extension\l_buffer_trival\&lt; mfxExtAVCEncoded\lFrameInfo, MFX_EXTBUFF_ENCODED\l_FRAME_INFO \&gt;">
<polygon fill="#ffffff" stroke="#000000" points="358,-.5 358,-52.5 553,-52.5 553,-.5 358,-.5"/>
<text text-anchor="start" x="366" y="-40.5" font-family="Helvetica,sans-Serif" font-size="10.00" fill="#000000">oneapi::vpl::extension</text>
<text text-anchor="start" x="366" y="-29.5" font-family="Helvetica,sans-Serif" font-size="10.00" fill="#000000">_buffer_trival&lt; mfxExtAVCEncoded</text>
<text text-anchor="start" x="366" y="-18.5" font-family="Helvetica,sans-Serif" font-size="10.00" fill="#000000">FrameInfo, MFX_EXTBUFF_ENCODED</text>
<text text-anchor="middle" x="455.5" y="-7.5" font-family="Helvetica,sans-Serif" font-size="10.00" fill="#000000">_FRAME_INFO &gt;</text>
</a>
</g>
</g>
<!-- Node1&#45;&gt;Node0 -->
<g id="edge1" class="edge">
<title>Node1&#45;&gt;Node0</title>
<path fill="none" stroke="#191970" d="M563.2778,-26.5C571.9124,-26.5 580.4995,-26.5 588.7945,-26.5"/>
<polygon fill="#191970" stroke="#191970" points="563.1345,-23.0001 553.1344,-26.5 563.1344,-30.0001 563.1345,-23.0001"/>
</g>
<!-- Node2 -->
<g id="node3" class="node">
<title>Node2</title>
<g id="a_node3"><a xlink:href="classoneapi_1_1vpl_1_1extension__buffer.html" target="_top" xlink:title="oneapi::vpl::extension\l_buffer\&lt; mfxExtAVCEncodedFrame\lInfo, ID \&gt;">
<polygon fill="#ffffff" stroke="#000000" points="148,-6 148,-47 322,-47 322,-6 148,-6"/>
<text text-anchor="start" x="156" y="-35" font-family="Helvetica,sans-Serif" font-size="10.00" fill="#000000">oneapi::vpl::extension</text>
<text text-anchor="start" x="156" y="-24" font-family="Helvetica,sans-Serif" font-size="10.00" fill="#000000">_buffer&lt; mfxExtAVCEncodedFrame</text>
<text text-anchor="middle" x="235" y="-13" font-family="Helvetica,sans-Serif" font-size="10.00" fill="#000000">Info, ID &gt;</text>
</a>
</g>
</g>
<!-- Node2&#45;&gt;Node1 -->
<g id="edge2" class="edge">
<title>Node2&#45;&gt;Node1</title>
<path fill="none" stroke="#191970" d="M332.3506,-26.5C340.7677,-26.5 349.2865,-26.5 357.7072,-26.5"/>
<polygon fill="#191970" stroke="#191970" points="332.1475,-23.0001 322.1474,-26.5 332.1474,-30.0001 332.1475,-23.0001"/>
</g>
<!-- Node3 -->
<g id="node4" class="node">
<title>Node3</title>
<g id="a_node4"><a xlink:href="classoneapi_1_1vpl_1_1extension__buffer__base.html" target="_top" xlink:title="Interface definition for extension buffers. Extension buffers are used to provide additional data for...">
<polygon fill="#ffffff" stroke="#000000" points="0,-11.5 0,-41.5 112,-41.5 112,-11.5 0,-11.5"/>
<text text-anchor="start" x="8" y="-29.5" font-family="Helvetica,sans-Serif" font-size="10.00" fill="#000000">oneapi::vpl::extension</text>
<text text-anchor="middle" x="56" y="-18.5" font-family="Helvetica,sans-Serif" font-size="10.00" fill="#000000">_buffer_base</text>
</a>
</g>
</g>
<!-- Node3&#45;&gt;Node2 -->
<g id="edge3" class="edge">
<title>Node3&#45;&gt;Node2</title>
<path fill="none" stroke="#191970" d="M122.2036,-26.5C130.5863,-26.5 139.262,-26.5 147.9077,-26.5"/>
<polygon fill="#191970" stroke="#191970" points="122.1456,-23.0001 112.1456,-26.5 122.1456,-30.0001 122.1456,-23.0001"/>
</g>
</g>
</svg>
