<?xml version="1.0" encoding="UTF-8" standalone="no"?>
<!DOCTYPE svg PUBLIC "-//W3C//DTD SVG 1.1//EN"
 "http://www.w3.org/Graphics/SVG/1.1/DTD/svg11.dtd">
<!-- Generated by graphviz version 2.40.1 (20161225.0304)
 -->
<!-- Title: oneapi::vpl::codec_video_param Pages: 1 -->
<svg width="104pt" height="106pt"
 viewBox="0.00 0.00 104.00 106.00" xmlns="http://www.w3.org/2000/svg" xmlns:xlink="http://www.w3.org/1999/xlink">
<g id="graph0" class="graph" transform="scale(1 1) rotate(0) translate(4 102)">
<title>oneapi::vpl::codec_video_param</title>
<polygon fill="#ffffff" stroke="transparent" points="-4,4 -4,-102 100,-102 100,4 -4,4"/>
<!-- Node6 -->
<g id="node1" class="node">
<title>Node6</title>
<polygon fill="#bfbfbf" stroke="#000000" points="0,-.5 0,-30.5 96,-30.5 96,-.5 0,-.5"/>
<text text-anchor="start" x="8" y="-18.5" font-family="Helvetica,sans-Serif" font-size="10.00" fill="#000000">oneapi::vpl::codec</text>
<text text-anchor="middle" x="48" y="-7.5" font-family="Helvetica,sans-Serif" font-size="10.00" fill="#000000">_video_param</text>
</g>
<!-- Node7 -->
<g id="node2" class="node">
<title>Node7</title>
<g id="a_node2"><a xlink:href="classoneapi_1_1vpl_1_1video__param.html" target="_top" xlink:title="Holds general video params applicable for all kind of sessions. ">
<polygon fill="#ffffff" stroke="#000000" points="1.5,-67.5 1.5,-97.5 94.5,-97.5 94.5,-67.5 1.5,-67.5"/>
<text text-anchor="start" x="9.5" y="-85.5" font-family="Helvetica,sans-Serif" font-size="10.00" fill="#000000">oneapi::vpl::video</text>
<text text-anchor="middle" x="48" y="-74.5" font-family="Helvetica,sans-Serif" font-size="10.00" fill="#000000">_param</text>
</a>
</g>
</g>
<!-- Node7&#45;&gt;Node6 -->
<g id="edge1" class="edge">
<title>Node7&#45;&gt;Node6</title>
<path fill="none" stroke="#191970" d="M48,-57.0249C48,-48.128 48,-38.4287 48,-30.6432"/>
<polygon fill="#191970" stroke="#191970" points="44.5001,-57.2966 48,-67.2967 51.5001,-57.2967 44.5001,-57.2966"/>
</g>
</g>
</svg>
