<?xml version="1.0" encoding="UTF-8" standalone="no"?>
<!DOCTYPE svg PUBLIC "-//W3C//DTD SVG 1.1//EN"
 "http://www.w3.org/Graphics/SVG/1.1/DTD/svg11.dtd">
<!-- Generated by graphviz version 2.40.1 (20161225.0304)
 -->
<!-- Title: oneapi::vpl::ExtContentLightLevelInfo Pages: 1 -->
<svg width="713pt" height="61pt"
 viewBox="0.00 0.00 713.00 61.00" xmlns="http://www.w3.org/2000/svg" xmlns:xlink="http://www.w3.org/1999/xlink">
<g id="graph0" class="graph" transform="scale(1 1) rotate(0) translate(4 57)">
<title>oneapi::vpl::ExtContentLightLevelInfo</title>
<polygon fill="#ffffff" stroke="transparent" points="-4,4 -4,-57 709,-57 709,4 -4,4"/>
<!-- Node0 -->
<g id="node1" class="node">
<title>Node0</title>
<polygon fill="#bfbfbf" stroke="#000000" points="565,-11.5 565,-41.5 705,-41.5 705,-11.5 565,-11.5"/>
<text text-anchor="start" x="573" y="-29.5" font-family="Helvetica,sans-Serif" font-size="10.00" fill="#000000">oneapi::vpl::ExtContentLight</text>
<text text-anchor="middle" x="635" y="-18.5" font-family="Helvetica,sans-Serif" font-size="10.00" fill="#000000">LevelInfo</text>
</g>
<!-- Node1 -->
<g id="node2" class="node">
<title>Node1</title>
<g id="a_node2"><a xlink:href="classoneapi_1_1vpl_1_1extension__buffer__trival.html" target="_top" xlink:title="oneapi::vpl::extension\l_buffer_trival\&lt; mfxExtContent\lLightLevelInfo, MFX_EXTBUFF\l_CONTENT_LIGHT_LEVEL_INFO \&gt;">
<polygon fill="#ffffff" stroke="#000000" points="350,-.5 350,-52.5 529,-52.5 529,-.5 350,-.5"/>
<text text-anchor="start" x="358" y="-40.5" font-family="Helvetica,sans-Serif" font-size="10.00" fill="#000000">oneapi::vpl::extension</text>
<text text-anchor="start" x="358" y="-29.5" font-family="Helvetica,sans-Serif" font-size="10.00" fill="#000000">_buffer_trival&lt; mfxExtContent</text>
<text text-anchor="start" x="358" y="-18.5" font-family="Helvetica,sans-Serif" font-size="10.00" fill="#000000">LightLevelInfo, MFX_EXTBUFF</text>
<text text-anchor="middle" x="439.5" y="-7.5" font-family="Helvetica,sans-Serif" font-size="10.00" fill="#000000">_CONTENT_LIGHT_LEVEL_INFO &gt;</text>
</a>
</g>
</g>
<!-- Node1&#45;&gt;Node0 -->
<g id="edge1" class="edge">
<title>Node1&#45;&gt;Node0</title>
<path fill="none" stroke="#191970" d="M539.3401,-26.5C547.9496,-26.5 556.5375,-26.5 564.8364,-26.5"/>
<polygon fill="#191970" stroke="#191970" points="539.2395,-23.0001 529.2394,-26.5 539.2394,-30.0001 539.2395,-23.0001"/>
</g>
<!-- Node2 -->
<g id="node3" class="node">
<title>Node2</title>
<g id="a_node3"><a xlink:href="classoneapi_1_1vpl_1_1extension__buffer.html" target="_top" xlink:title="oneapi::vpl::extension\l_buffer\&lt; mfxExtContentLightLevel\lInfo, ID \&gt;">
<polygon fill="#ffffff" stroke="#000000" points="148,-6 148,-47 314,-47 314,-6 148,-6"/>
<text text-anchor="start" x="156" y="-35" font-family="Helvetica,sans-Serif" font-size="10.00" fill="#000000">oneapi::vpl::extension</text>
<text text-anchor="start" x="156" y="-24" font-family="Helvetica,sans-Serif" font-size="10.00" fill="#000000">_buffer&lt; mfxExtContentLightLevel</text>
<text text-anchor="middle" x="231" y="-13" font-family="Helvetica,sans-Serif" font-size="10.00" fill="#000000">Info, ID &gt;</text>
</a>
</g>
</g>
<!-- Node2&#45;&gt;Node1 -->
<g id="edge2" class="edge">
<title>Node2&#45;&gt;Node1</title>
<path fill="none" stroke="#191970" d="M324.0448,-26.5C332.6507,-26.5 341.3597,-26.5 349.9334,-26.5"/>
<polygon fill="#191970" stroke="#191970" points="324.0038,-23.0001 314.0038,-26.5 324.0038,-30.0001 324.0038,-23.0001"/>
</g>
<!-- Node3 -->
<g id="node4" class="node">
<title>Node3</title>
<g id="a_node4"><a xlink:href="classoneapi_1_1vpl_1_1extension__buffer__base.html" target="_top" xlink:title="Interface definition for extension buffers. Extension buffers are used to provide additional data for...">
<polygon fill="#ffffff" stroke="#000000" points="0,-11.5 0,-41.5 112,-41.5 112,-11.5 0,-11.5"/>
<text text-anchor="start" x="8" y="-29.5" font-family="Helvetica,sans-Serif" font-size="10.00" fill="#000000">oneapi::vpl::extension</text>
<text text-anchor="middle" x="56" y="-18.5" font-family="Helvetica,sans-Serif" font-size="10.00" fill="#000000">_buffer_base</text>
</a>
</g>
</g>
<!-- Node3&#45;&gt;Node2 -->
<g id="edge3" class="edge">
<title>Node3&#45;&gt;Node2</title>
<path fill="none" stroke="#191970" d="M122.5772,-26.5C130.7926,-26.5 139.2694,-26.5 147.6943,-26.5"/>
<polygon fill="#191970" stroke="#191970" points="122.3344,-23.0001 112.3344,-26.5 122.3343,-30.0001 122.3344,-23.0001"/>
</g>
</g>
</svg>
