<?xml version="1.0" encoding="UTF-8" standalone="no"?>
<!DOCTYPE svg PUBLIC "-//W3C//DTD SVG 1.1//EN"
 "http://www.w3.org/Graphics/SVG/1.1/DTD/svg11.dtd">
<!-- Generated by graphviz version 2.40.1 (20161225.0304)
 -->
<!-- Title: oneapi::vpl::encoder_init_list::ctor_helper Pages: 1 -->
<svg width="394pt" height="39pt"
 viewBox="0.00 0.00 394.00 39.00" xmlns="http://www.w3.org/2000/svg" xmlns:xlink="http://www.w3.org/1999/xlink">
<g id="graph0" class="graph" transform="scale(1 1) rotate(0) translate(4 35)">
<title>oneapi::vpl::encoder_init_list::ctor_helper</title>
<polygon fill="#ffffff" stroke="transparent" points="-4,4 -4,-35 390,-35 390,4 -4,4"/>
<!-- Node10 -->
<g id="node1" class="node">
<title>Node10</title>
<polygon fill="#bfbfbf" stroke="#000000" points="0,-.5 0,-30.5 107,-30.5 107,-.5 0,-.5"/>
<text text-anchor="start" x="8" y="-18.5" font-family="Helvetica,sans-Serif" font-size="10.00" fill="#000000">oneapi::vpl::encoder</text>
<text text-anchor="middle" x="53.5" y="-7.5" font-family="Helvetica,sans-Serif" font-size="10.00" fill="#000000">_init_list::ctor_helper</text>
</g>
<!-- Node11 -->
<g id="node2" class="node">
<title>Node11</title>
<g id="a_node2"><a xlink:href="classoneapi_1_1vpl_1_1buffer__list.html#aa156fcbd0cd65808fb14ffc2a3ebda5a" target="_top" xlink:title="adds extension buffer pointer to the map ">
<polygon fill="#ffffff" stroke="#000000" points="143,-.5 143,-30.5 238,-30.5 238,-.5 143,-.5"/>
<text text-anchor="start" x="151" y="-18.5" font-family="Helvetica,sans-Serif" font-size="10.00" fill="#000000">oneapi::vpl::buffer</text>
<text text-anchor="middle" x="190.5" y="-7.5" font-family="Helvetica,sans-Serif" font-size="10.00" fill="#000000">_list::add_buffer</text>
</a>
</g>
</g>
<!-- Node10&#45;&gt;Node11 -->
<g id="edge1" class="edge">
<title>Node10&#45;&gt;Node11</title>
<path fill="none" stroke="#191970" d="M107.2528,-15.5C115.5667,-15.5 124.1849,-15.5 132.5855,-15.5"/>
<polygon fill="#191970" stroke="#191970" points="132.6893,-19.0001 142.6892,-15.5 132.6892,-12.0001 132.6893,-19.0001"/>
</g>
<!-- Node12 -->
<g id="node3" class="node">
<title>Node12</title>
<g id="a_node3"><a xlink:href="classoneapi_1_1vpl_1_1extension__buffer__base.html#a05f42bf8ebbeb7f697eb53a17a465c73" target="_top" xlink:title="Interface to retieve extension buffer ID in a form of FourCC code. ">
<polygon fill="#ffffff" stroke="#000000" points="274,-.5 274,-30.5 386,-30.5 386,-.5 274,-.5"/>
<text text-anchor="start" x="282" y="-18.5" font-family="Helvetica,sans-Serif" font-size="10.00" fill="#000000">oneapi::vpl::extension</text>
<text text-anchor="middle" x="330" y="-7.5" font-family="Helvetica,sans-Serif" font-size="10.00" fill="#000000">_buffer_base::get_ID</text>
</a>
</g>
</g>
<!-- Node11&#45;&gt;Node12 -->
<g id="edge2" class="edge">
<title>Node11&#45;&gt;Node12</title>
<path fill="none" stroke="#191970" d="M238.1178,-15.5C246.4005,-15.5 255.1477,-15.5 263.8211,-15.5"/>
<polygon fill="#191970" stroke="#191970" points="263.9368,-19.0001 273.9368,-15.5 263.9367,-12.0001 263.9368,-19.0001"/>
</g>
</g>
</svg>
