<?xml version="1.0" encoding="UTF-8" standalone="no"?>
<!DOCTYPE svg PUBLIC "-//W3C//DTD SVG 1.1//EN"
 "http://www.w3.org/Graphics/SVG/1.1/DTD/svg11.dtd">
<!-- Generated by graphviz version 2.40.1 (20161225.0304)
 -->
<!-- Title: oneapi::vpl::buffer_list::add_buffer Pages: 1 -->
<svg width="251pt" height="39pt"
 viewBox="0.00 0.00 251.00 39.00" xmlns="http://www.w3.org/2000/svg" xmlns:xlink="http://www.w3.org/1999/xlink">
<g id="graph0" class="graph" transform="scale(1 1) rotate(0) translate(4 35)">
<title>oneapi::vpl::buffer_list::add_buffer</title>
<polygon fill="#ffffff" stroke="transparent" points="-4,4 -4,-35 247,-35 247,4 -4,4"/>
<!-- Node0 -->
<g id="node1" class="node">
<title>Node0</title>
<polygon fill="#bfbfbf" stroke="#000000" points="0,-.5 0,-30.5 95,-30.5 95,-.5 0,-.5"/>
<text text-anchor="start" x="8" y="-18.5" font-family="Helvetica,sans-Serif" font-size="10.00" fill="#000000">oneapi::vpl::buffer</text>
<text text-anchor="middle" x="47.5" y="-7.5" font-family="Helvetica,sans-Serif" font-size="10.00" fill="#000000">_list::add_buffer</text>
</g>
<!-- Node1 -->
<g id="node2" class="node">
<title>Node1</title>
<g id="a_node2"><a xlink:href="classoneapi_1_1vpl_1_1extension__buffer__base.html#a05f42bf8ebbeb7f697eb53a17a465c73" target="_top" xlink:title="Interface to retieve extension buffer ID in a form of FourCC code. ">
<polygon fill="#ffffff" stroke="#000000" points="131,-.5 131,-30.5 243,-30.5 243,-.5 131,-.5"/>
<text text-anchor="start" x="139" y="-18.5" font-family="Helvetica,sans-Serif" font-size="10.00" fill="#000000">oneapi::vpl::extension</text>
<text text-anchor="middle" x="187" y="-7.5" font-family="Helvetica,sans-Serif" font-size="10.00" fill="#000000">_buffer_base::get_ID</text>
</a>
</g>
</g>
<!-- Node0&#45;&gt;Node1 -->
<g id="edge1" class="edge">
<title>Node0&#45;&gt;Node1</title>
<path fill="none" stroke="#191970" d="M95.1178,-15.5C103.4005,-15.5 112.1477,-15.5 120.8211,-15.5"/>
<polygon fill="#191970" stroke="#191970" points="120.9368,-19.0001 130.9368,-15.5 120.9367,-12.0001 120.9368,-19.0001"/>
</g>
</g>
</svg>
