<?xml version="1.0" encoding="UTF-8" standalone="no"?>
<!DOCTYPE svg PUBLIC "-//W3C//DTD SVG 1.1//EN"
 "http://www.w3.org/Graphics/SVG/1.1/DTD/svg11.dtd">
<!-- Generated by graphviz version 2.40.1 (20161225.0304)
 -->
<!-- Title: oneapi::vpl::bitstream_as_src::pull_in Pages: 1 -->
<svg width="294pt" height="88pt"
 viewBox="0.00 0.00 294.00 88.00" xmlns="http://www.w3.org/2000/svg" xmlns:xlink="http://www.w3.org/1999/xlink">
<g id="graph0" class="graph" transform="scale(1 1) rotate(0) translate(4 84)">
<title>oneapi::vpl::bitstream_as_src::pull_in</title>
<polygon fill="#ffffff" stroke="transparent" points="-4,4 -4,-84 290,-84 290,4 -4,4"/>
<!-- Node5 -->
<g id="node1" class="node">
<title>Node5</title>
<polygon fill="#bfbfbf" stroke="#000000" points="0,-24.5 0,-54.5 110,-54.5 110,-24.5 0,-24.5"/>
<text text-anchor="start" x="8" y="-42.5" font-family="Helvetica,sans-Serif" font-size="10.00" fill="#000000">oneapi::vpl::bitstream</text>
<text text-anchor="middle" x="55" y="-31.5" font-family="Helvetica,sans-Serif" font-size="10.00" fill="#000000">_as_src::pull_in</text>
</g>
<!-- Node6 -->
<g id="node2" class="node">
<title>Node6</title>
<g id="a_node2"><a xlink:href="classoneapi_1_1vpl_1_1bitstream__file__reader.html#afc8653e779dd34b8a3ca75c608f18045" target="_top" xlink:title="Read and store portion of data into the bitstream object. ">
<polygon fill="#ffffff" stroke="#000000" points="161,-49.5 161,-79.5 271,-79.5 271,-49.5 161,-49.5"/>
<text text-anchor="start" x="169" y="-67.5" font-family="Helvetica,sans-Serif" font-size="10.00" fill="#000000">oneapi::vpl::bitstream</text>
<text text-anchor="middle" x="216" y="-56.5" font-family="Helvetica,sans-Serif" font-size="10.00" fill="#000000">_file_reader::get_data</text>
</a>
</g>
</g>
<!-- Node5&#45;&gt;Node6 -->
<g id="edge1" class="edge">
<title>Node5&#45;&gt;Node6</title>
<path fill="none" stroke="#191970" d="M120.4916,-49.6695C133.8584,-51.7451 147.7976,-53.9096 160.7636,-55.9229"/>
<polygon fill="#191970" stroke="#191970" points="120.8257,-46.1795 110.4071,-48.1036 119.7516,-53.0966 120.8257,-46.1795"/>
</g>
<!-- Node7 -->
<g id="node3" class="node">
<title>Node7</title>
<g id="a_node3"><a xlink:href="classoneapi_1_1vpl_1_1bitstream__file__reader__name.html#a2212cbbe35d6a7fab548444220614617" target="_top" xlink:title="Read and store portion of data into the bitstream object. ">
<polygon fill="#ffffff" stroke="#000000" points="146,-.5 146,-30.5 286,-30.5 286,-.5 146,-.5"/>
<text text-anchor="start" x="154" y="-18.5" font-family="Helvetica,sans-Serif" font-size="10.00" fill="#000000">oneapi::vpl::bitstream</text>
<text text-anchor="middle" x="216" y="-7.5" font-family="Helvetica,sans-Serif" font-size="10.00" fill="#000000">_file_reader_name::get_data</text>
</a>
</g>
</g>
<!-- Node5&#45;&gt;Node7 -->
<g id="edge2" class="edge">
<title>Node5&#45;&gt;Node7</title>
<path fill="none" stroke="#191970" d="M120.5092,-29.7347C128.9038,-28.4833 137.5239,-27.1983 145.9867,-25.9368"/>
<polygon fill="#191970" stroke="#191970" points="119.7817,-26.3043 110.4071,-31.2406 120.8138,-33.2278 119.7817,-26.3043"/>
</g>
</g>
</svg>
