<?xml version="1.0" encoding="UTF-8" standalone="no"?>
<!DOCTYPE svg PUBLIC "-//W3C//DTD SVG 1.1//EN"
 "http://www.w3.org/Graphics/SVG/1.1/DTD/svg11.dtd">
<!-- Generated by graphviz version 2.40.1 (20161225.0304)
 -->
<!-- Title: oneapi::vpl::ExtMoveRect Pages: 1 -->
<svg width="772pt" height="78pt"
 viewBox="0.00 0.00 772.00 77.50" xmlns="http://www.w3.org/2000/svg" xmlns:xlink="http://www.w3.org/1999/xlink">
<g id="graph0" class="graph" transform="scale(1 1) rotate(0) translate(4 73.5)">
<title>oneapi::vpl::ExtMoveRect</title>
<polygon fill="#ffffff" stroke="transparent" points="-4,4 -4,-73.5 768,-73.5 768,4 -4,4"/>
<!-- Node4 -->
<g id="node1" class="node">
<title>Node4</title>
<polygon fill="#bfbfbf" stroke="#000000" points="634,-22.5 634,-41.5 764,-41.5 764,-22.5 634,-22.5"/>
<text text-anchor="middle" x="699" y="-29.5" font-family="Helvetica,sans-Serif" font-size="10.00" fill="#000000">oneapi::vpl::ExtMoveRect</text>
</g>
<!-- Node5 -->
<g id="node2" class="node">
<title>Node5</title>
<g id="a_node2"><a xlink:href="classoneapi_1_1vpl_1_1extension__buffer__trival.html" target="_top" xlink:title="oneapi::vpl::extension\l_buffer_trival\&lt; mfxExtMoveRect,\l MFX_EXTBUFF_MOVING_RECTANGLES \&gt;">
<polygon fill="#ffffff" stroke="#000000" points="377,-11.5 377,-52.5 597,-52.5 597,-11.5 377,-11.5"/>
<text text-anchor="start" x="385" y="-40.5" font-family="Helvetica,sans-Serif" font-size="10.00" fill="#000000">oneapi::vpl::extension</text>
<text text-anchor="start" x="385" y="-29.5" font-family="Helvetica,sans-Serif" font-size="10.00" fill="#000000">_buffer_trival&lt; mfxExtMoveRect,</text>
<text text-anchor="middle" x="487" y="-18.5" font-family="Helvetica,sans-Serif" font-size="10.00" fill="#000000"> MFX_EXTBUFF_MOVING_RECTANGLES &gt;</text>
</a>
</g>
</g>
<!-- Node5&#45;&gt;Node4 -->
<g id="edge1" class="edge">
<title>Node5&#45;&gt;Node4</title>
<path fill="none" stroke="#191970" d="M607.0496,-32C616.238,-32 625.2831,-32 633.902,-32"/>
<polygon fill="#191970" stroke="#191970" points="607.0363,-28.5001 597.0362,-32 607.0362,-35.5001 607.0363,-28.5001"/>
</g>
<!-- Node6 -->
<g id="node3" class="node">
<title>Node6</title>
<g id="a_node3"><a xlink:href="classoneapi_1_1vpl_1_1extension__buffer.html" target="_top" xlink:title="oneapi::vpl::extension\l_buffer\&lt; mfxExtMoveRect, ID \&gt;">
<polygon fill="#ffffff" stroke="#000000" points="182,-17 182,-47 340,-47 340,-17 182,-17"/>
<text text-anchor="start" x="190" y="-35" font-family="Helvetica,sans-Serif" font-size="10.00" fill="#000000">oneapi::vpl::extension</text>
<text text-anchor="middle" x="261" y="-24" font-family="Helvetica,sans-Serif" font-size="10.00" fill="#000000">_buffer&lt; mfxExtMoveRect, ID &gt;</text>
</a>
</g>
</g>
<!-- Node6&#45;&gt;Node5 -->
<g id="edge2" class="edge">
<title>Node6&#45;&gt;Node5</title>
<path fill="none" stroke="#191970" d="M350.149,-32C358.8455,-32 367.7395,-32 376.612,-32"/>
<polygon fill="#191970" stroke="#191970" points="350.0439,-28.5001 340.0438,-32 350.0438,-35.5001 350.0439,-28.5001"/>
</g>
<!-- Node7 -->
<g id="node4" class="node">
<title>Node7</title>
<g id="a_node4"><a xlink:href="classoneapi_1_1vpl_1_1extension__buffer__base.html" target="_top" xlink:title="Interface definition for extension buffers. Extension buffers are used to provide additional data for...">
<polygon fill="#ffffff" stroke="#000000" points="0,-39 0,-69 112,-69 112,-39 0,-39"/>
<text text-anchor="start" x="8" y="-57" font-family="Helvetica,sans-Serif" font-size="10.00" fill="#000000">oneapi::vpl::extension</text>
<text text-anchor="middle" x="56" y="-46" font-family="Helvetica,sans-Serif" font-size="10.00" fill="#000000">_buffer_base</text>
</a>
</g>
</g>
<!-- Node7&#45;&gt;Node6 -->
<g id="edge3" class="edge">
<title>Node7&#45;&gt;Node6</title>
<path fill="none" stroke="#191970" d="M122.1023,-46.9061C141.1891,-44.8578 162.2111,-42.6017 181.9982,-40.4782"/>
<polygon fill="#191970" stroke="#191970" points="121.5866,-43.4413 112.0172,-47.9884 122.3336,-50.4013 121.5866,-43.4413"/>
</g>
<!-- Node8 -->
<g id="node5" class="node">
<title>Node8</title>
<g id="a_node5"><a xlink:href="structmfxExtMoveRect.html" target="_top" xlink:title="mfxExtMoveRect">
<polygon fill="#ffffff" stroke="#000000" points="9.5,-.5 9.5,-19.5 102.5,-19.5 102.5,-.5 9.5,-.5"/>
<text text-anchor="middle" x="56" y="-7.5" font-family="Helvetica,sans-Serif" font-size="10.00" fill="#000000">mfxExtMoveRect</text>
</a>
</g>
</g>
<!-- Node8&#45;&gt;Node6 -->
<g id="edge4" class="edge">
<title>Node8&#45;&gt;Node6</title>
<path fill="none" stroke="#9a32cd" stroke-dasharray="5,2" d="M112.6964,-16.0845C134.0202,-18.3729 158.6734,-21.0186 181.6821,-23.4878"/>
<polygon fill="#9a32cd" stroke="#9a32cd" points="112.8341,-12.5793 102.5177,-14.9921 112.0871,-19.5393 112.8341,-12.5793"/>
<text text-anchor="middle" x="147" y="-24" font-family="Helvetica,sans-Serif" font-size="10.00" fill="#000000"> buffer_</text>
</g>
</g>
</svg>
