<?xml version="1.0" encoding="UTF-8" standalone="no"?>
<!DOCTYPE svg PUBLIC "-//W3C//DTD SVG 1.1//EN"
 "http://www.w3.org/Graphics/SVG/1.1/DTD/svg11.dtd">
<!-- Generated by graphviz version 2.40.1 (20161225.0304)
 -->
<!-- Title: oneapi::vpl::stat::get_num_cached_frame Pages: 1 -->
<svg width="257pt" height="39pt"
 viewBox="0.00 0.00 257.00 39.00" xmlns="http://www.w3.org/2000/svg" xmlns:xlink="http://www.w3.org/1999/xlink">
<g id="graph0" class="graph" transform="scale(1 1) rotate(0) translate(4 35)">
<title>oneapi::vpl::stat::get_num_cached_frame</title>
<polygon fill="#ffffff" stroke="transparent" points="-4,4 -4,-35 253,-35 253,4 -4,4"/>
<!-- Node1 -->
<g id="node1" class="node">
<title>Node1</title>
<polygon fill="#bfbfbf" stroke="#000000" points="0,-.5 0,-30.5 121,-30.5 121,-.5 0,-.5"/>
<text text-anchor="start" x="8" y="-18.5" font-family="Helvetica,sans-Serif" font-size="10.00" fill="#000000">oneapi::vpl::stat::</text>
<text text-anchor="middle" x="60.5" y="-7.5" font-family="Helvetica,sans-Serif" font-size="10.00" fill="#000000">get_num_cached_frame</text>
</g>
<!-- Node2 -->
<g id="node2" class="node">
<title>Node2</title>
<g id="a_node2"><a xlink:href="classoneapi_1_1vpl_1_1stat.html#a430297f57c9b3c41065a0d7abfbe2fe7" target="_top" xlink:title="Default dtor. ">
<polygon fill="#ffffff" stroke="#000000" points="157,-.5 157,-30.5 249,-30.5 249,-.5 157,-.5"/>
<text text-anchor="start" x="165" y="-18.5" font-family="Helvetica,sans-Serif" font-size="10.00" fill="#000000">oneapi::vpl::stat::</text>
<text text-anchor="middle" x="203" y="-7.5" font-family="Helvetica,sans-Serif" font-size="10.00" fill="#000000">~stat</text>
</a>
</g>
</g>
<!-- Node1&#45;&gt;Node2 -->
<g id="edge1" class="edge">
<title>Node1&#45;&gt;Node2</title>
<path fill="none" stroke="#191970" d="M131.3659,-15.5C139.9293,-15.5 148.5001,-15.5 156.5835,-15.5"/>
<polygon fill="#191970" stroke="#191970" points="131.3462,-12.0001 121.3462,-15.5 131.3461,-19.0001 131.3462,-12.0001"/>
</g>
</g>
</svg>
