<?xml version="1.0" encoding="UTF-8" standalone="no"?>
<!DOCTYPE svg PUBLIC "-//W3C//DTD SVG 1.1//EN"
 "http://www.w3.org/Graphics/SVG/1.1/DTD/svg11.dtd">
<!-- Generated by graphviz version 2.40.1 (20161225.0304)
 -->
<!-- Title: oneapi::vpl::encode_session Pages: 1 -->
<svg width="276pt" height="61pt"
 viewBox="0.00 0.00 276.00 61.00" xmlns="http://www.w3.org/2000/svg" xmlns:xlink="http://www.w3.org/1999/xlink">
<g id="graph0" class="graph" transform="scale(1 1) rotate(0) translate(4 57)">
<title>oneapi::vpl::encode_session</title>
<polygon fill="#ffffff" stroke="transparent" points="-4,4 -4,-57 272,-57 272,4 -4,4"/>
<!-- Node0 -->
<g id="node1" class="node">
<title>Node0</title>
<polygon fill="#bfbfbf" stroke="#000000" points="167,-11.5 167,-41.5 268,-41.5 268,-11.5 167,-11.5"/>
<text text-anchor="start" x="175" y="-29.5" font-family="Helvetica,sans-Serif" font-size="10.00" fill="#000000">oneapi::vpl::encode</text>
<text text-anchor="middle" x="217.5" y="-18.5" font-family="Helvetica,sans-Serif" font-size="10.00" fill="#000000">_session</text>
</g>
<!-- Node1 -->
<g id="node2" class="node">
<title>Node1</title>
<g id="a_node2"><a xlink:href="classoneapi_1_1vpl_1_1session.html" target="_top" xlink:title="oneapi::vpl::session\l\&lt; encoder_video_param,\l encoder_init_list, encoder\l_reset_list \&gt;">
<polygon fill="#ffffff" stroke="#000000" points="0,-.5 0,-52.5 131,-52.5 131,-.5 0,-.5"/>
<text text-anchor="start" x="8" y="-40.5" font-family="Helvetica,sans-Serif" font-size="10.00" fill="#000000">oneapi::vpl::session</text>
<text text-anchor="start" x="8" y="-29.5" font-family="Helvetica,sans-Serif" font-size="10.00" fill="#000000">&lt; encoder_video_param,</text>
<text text-anchor="start" x="8" y="-18.5" font-family="Helvetica,sans-Serif" font-size="10.00" fill="#000000"> encoder_init_list, encoder</text>
<text text-anchor="middle" x="65.5" y="-7.5" font-family="Helvetica,sans-Serif" font-size="10.00" fill="#000000">_reset_list &gt;</text>
</a>
</g>
</g>
<!-- Node1&#45;&gt;Node0 -->
<g id="edge1" class="edge">
<title>Node1&#45;&gt;Node0</title>
<path fill="none" stroke="#191970" d="M141.3586,-26.5C149.9629,-26.5 158.5696,-26.5 166.7376,-26.5"/>
<polygon fill="#191970" stroke="#191970" points="141.2854,-23.0001 131.2854,-26.5 141.2853,-30.0001 141.2854,-23.0001"/>
</g>
</g>
</svg>
