<?xml version="1.0" encoding="UTF-8" standalone="no"?>
<!DOCTYPE svg PUBLIC "-//W3C//DTD SVG 1.1//EN"
 "http://www.w3.org/Graphics/SVG/1.1/DTD/svg11.dtd">
<!-- Generated by graphviz version 2.40.1 (20161225.0304)
 -->
<!-- Title: oneapi::vpl::ExtPartialBitstreamParam Pages: 1 -->
<svg width="717pt" height="61pt"
 viewBox="0.00 0.00 717.00 61.00" xmlns="http://www.w3.org/2000/svg" xmlns:xlink="http://www.w3.org/1999/xlink">
<g id="graph0" class="graph" transform="scale(1 1) rotate(0) translate(4 57)">
<title>oneapi::vpl::ExtPartialBitstreamParam</title>
<polygon fill="#ffffff" stroke="transparent" points="-4,4 -4,-57 713,-57 713,4 -4,4"/>
<!-- Node0 -->
<g id="node1" class="node">
<title>Node0</title>
<polygon fill="#bfbfbf" stroke="#000000" points="554,-11.5 554,-41.5 709,-41.5 709,-11.5 554,-11.5"/>
<text text-anchor="start" x="562" y="-29.5" font-family="Helvetica,sans-Serif" font-size="10.00" fill="#000000">oneapi::vpl::ExtPartialBitstream</text>
<text text-anchor="middle" x="631.5" y="-18.5" font-family="Helvetica,sans-Serif" font-size="10.00" fill="#000000">Param</text>
</g>
<!-- Node1 -->
<g id="node2" class="node">
<title>Node1</title>
<g id="a_node2"><a xlink:href="classoneapi_1_1vpl_1_1extension__buffer__trival.html" target="_top" xlink:title="oneapi::vpl::extension\l_buffer_trival\&lt; mfxExtPartial\lBitstreamParam, MFX_EXTBUFF\l_PARTIAL_BITSTREAM_PARAM \&gt;">
<polygon fill="#ffffff" stroke="#000000" points="341,-.5 341,-52.5 518,-52.5 518,-.5 341,-.5"/>
<text text-anchor="start" x="349" y="-40.5" font-family="Helvetica,sans-Serif" font-size="10.00" fill="#000000">oneapi::vpl::extension</text>
<text text-anchor="start" x="349" y="-29.5" font-family="Helvetica,sans-Serif" font-size="10.00" fill="#000000">_buffer_trival&lt; mfxExtPartial</text>
<text text-anchor="start" x="349" y="-18.5" font-family="Helvetica,sans-Serif" font-size="10.00" fill="#000000">BitstreamParam, MFX_EXTBUFF</text>
<text text-anchor="middle" x="429.5" y="-7.5" font-family="Helvetica,sans-Serif" font-size="10.00" fill="#000000">_PARTIAL_BITSTREAM_PARAM &gt;</text>
</a>
</g>
</g>
<!-- Node1&#45;&gt;Node0 -->
<g id="edge1" class="edge">
<title>Node1&#45;&gt;Node0</title>
<path fill="none" stroke="#191970" d="M528.1578,-26.5C536.7471,-26.5 545.3589,-26.5 553.7446,-26.5"/>
<polygon fill="#191970" stroke="#191970" points="528.1002,-23.0001 518.1001,-26.5 528.1001,-30.0001 528.1002,-23.0001"/>
</g>
<!-- Node2 -->
<g id="node3" class="node">
<title>Node2</title>
<g id="a_node3"><a xlink:href="classoneapi_1_1vpl_1_1extension__buffer.html" target="_top" xlink:title="oneapi::vpl::extension\l_buffer\&lt; mfxExtPartialBitstream\lParam, ID \&gt;">
<polygon fill="#ffffff" stroke="#000000" points="148,-6 148,-47 305,-47 305,-6 148,-6"/>
<text text-anchor="start" x="156" y="-35" font-family="Helvetica,sans-Serif" font-size="10.00" fill="#000000">oneapi::vpl::extension</text>
<text text-anchor="start" x="156" y="-24" font-family="Helvetica,sans-Serif" font-size="10.00" fill="#000000">_buffer&lt; mfxExtPartialBitstream</text>
<text text-anchor="middle" x="226.5" y="-13" font-family="Helvetica,sans-Serif" font-size="10.00" fill="#000000">Param, ID &gt;</text>
</a>
</g>
</g>
<!-- Node2&#45;&gt;Node1 -->
<g id="edge2" class="edge">
<title>Node2&#45;&gt;Node1</title>
<path fill="none" stroke="#191970" d="M315.514,-26.5C323.9685,-26.5 332.5403,-26.5 340.9901,-26.5"/>
<polygon fill="#191970" stroke="#191970" points="315.2757,-23.0001 305.2757,-26.5 315.2756,-30.0001 315.2757,-23.0001"/>
</g>
<!-- Node3 -->
<g id="node4" class="node">
<title>Node3</title>
<g id="a_node4"><a xlink:href="classoneapi_1_1vpl_1_1extension__buffer__base.html" target="_top" xlink:title="Interface definition for extension buffers. Extension buffers are used to provide additional data for...">
<polygon fill="#ffffff" stroke="#000000" points="0,-11.5 0,-41.5 112,-41.5 112,-11.5 0,-11.5"/>
<text text-anchor="start" x="8" y="-29.5" font-family="Helvetica,sans-Serif" font-size="10.00" fill="#000000">oneapi::vpl::extension</text>
<text text-anchor="middle" x="56" y="-18.5" font-family="Helvetica,sans-Serif" font-size="10.00" fill="#000000">_buffer_base</text>
</a>
</g>
</g>
<!-- Node3&#45;&gt;Node2 -->
<g id="edge3" class="edge">
<title>Node3&#45;&gt;Node2</title>
<path fill="none" stroke="#191970" d="M122.3139,-26.5C130.6451,-26.5 139.2304,-26.5 147.7293,-26.5"/>
<polygon fill="#191970" stroke="#191970" points="122.3006,-23.0001 112.3006,-26.5 122.3006,-30.0001 122.3006,-23.0001"/>
</g>
</g>
</svg>
