<?xml version="1.0" encoding="UTF-8" standalone="no"?>
<!DOCTYPE svg PUBLIC "-//W3C//DTD SVG 1.1//EN"
 "http://www.w3.org/Graphics/SVG/1.1/DTD/svg11.dtd">
<!-- Generated by graphviz version 2.40.1 (20161225.0304)
 -->
<!-- Title: oneapi::vpl::ExtAVCRefListCtrl Pages: 1 -->
<svg width="754pt" height="78pt"
 viewBox="0.00 0.00 754.00 77.50" xmlns="http://www.w3.org/2000/svg" xmlns:xlink="http://www.w3.org/1999/xlink">
<g id="graph0" class="graph" transform="scale(1 1) rotate(0) translate(4 73.5)">
<title>oneapi::vpl::ExtAVCRefListCtrl</title>
<polygon fill="#ffffff" stroke="transparent" points="-4,4 -4,-73.5 750,-73.5 750,4 -4,4"/>
<!-- Node4 -->
<g id="node1" class="node">
<title>Node4</title>
<polygon fill="#bfbfbf" stroke="#000000" points="593,-22.5 593,-41.5 746,-41.5 746,-22.5 593,-22.5"/>
<text text-anchor="middle" x="669.5" y="-29.5" font-family="Helvetica,sans-Serif" font-size="10.00" fill="#000000">oneapi::vpl::ExtAVCRefListCtrl</text>
</g>
<!-- Node5 -->
<g id="node2" class="node">
<title>Node5</title>
<g id="a_node2"><a xlink:href="classoneapi_1_1vpl_1_1extension__buffer__trival.html" target="_top" xlink:title="oneapi::vpl::extension\l_buffer_trival\&lt; mfxExtAVCRef\lListCtrl, MFX_EXTBUFF_AVC\l_REFLIST_CTRL \&gt;">
<polygon fill="#ffffff" stroke="#000000" points="404,-6 404,-58 556,-58 556,-6 404,-6"/>
<text text-anchor="start" x="412" y="-46" font-family="Helvetica,sans-Serif" font-size="10.00" fill="#000000">oneapi::vpl::extension</text>
<text text-anchor="start" x="412" y="-35" font-family="Helvetica,sans-Serif" font-size="10.00" fill="#000000">_buffer_trival&lt; mfxExtAVCRef</text>
<text text-anchor="start" x="412" y="-24" font-family="Helvetica,sans-Serif" font-size="10.00" fill="#000000">ListCtrl, MFX_EXTBUFF_AVC</text>
<text text-anchor="middle" x="480" y="-13" font-family="Helvetica,sans-Serif" font-size="10.00" fill="#000000">_REFLIST_CTRL &gt;</text>
</a>
</g>
</g>
<!-- Node5&#45;&gt;Node4 -->
<g id="edge1" class="edge">
<title>Node5&#45;&gt;Node4</title>
<path fill="none" stroke="#191970" d="M566.4906,-32C575.2602,-32 584.1249,-32 592.7811,-32"/>
<polygon fill="#191970" stroke="#191970" points="566.2578,-28.5001 556.2578,-32 566.2577,-35.5001 566.2578,-28.5001"/>
</g>
<!-- Node6 -->
<g id="node3" class="node">
<title>Node6</title>
<g id="a_node3"><a xlink:href="classoneapi_1_1vpl_1_1extension__buffer.html" target="_top" xlink:title="oneapi::vpl::extension\l_buffer\&lt; mfxExtAVCRefListCtrl, ID \&gt;">
<polygon fill="#ffffff" stroke="#000000" points="186,-17 186,-47 367,-47 367,-17 186,-17"/>
<text text-anchor="start" x="194" y="-35" font-family="Helvetica,sans-Serif" font-size="10.00" fill="#000000">oneapi::vpl::extension</text>
<text text-anchor="middle" x="276.5" y="-24" font-family="Helvetica,sans-Serif" font-size="10.00" fill="#000000">_buffer&lt; mfxExtAVCRefListCtrl, ID &gt;</text>
</a>
</g>
</g>
<!-- Node6&#45;&gt;Node5 -->
<g id="edge2" class="edge">
<title>Node6&#45;&gt;Node5</title>
<path fill="none" stroke="#191970" d="M377.2716,-32C386.1736,-32 395.0857,-32 403.7351,-32"/>
<polygon fill="#191970" stroke="#191970" points="377.2397,-28.5001 367.2397,-32 377.2396,-35.5001 377.2397,-28.5001"/>
</g>
<!-- Node7 -->
<g id="node4" class="node">
<title>Node7</title>
<g id="a_node4"><a xlink:href="classoneapi_1_1vpl_1_1extension__buffer__base.html" target="_top" xlink:title="Interface definition for extension buffers. Extension buffers are used to provide additional data for...">
<polygon fill="#ffffff" stroke="#000000" points="2,-39 2,-69 114,-69 114,-39 2,-39"/>
<text text-anchor="start" x="10" y="-57" font-family="Helvetica,sans-Serif" font-size="10.00" fill="#000000">oneapi::vpl::extension</text>
<text text-anchor="middle" x="58" y="-46" font-family="Helvetica,sans-Serif" font-size="10.00" fill="#000000">_buffer_base</text>
</a>
</g>
</g>
<!-- Node7&#45;&gt;Node6 -->
<g id="edge3" class="edge">
<title>Node7&#45;&gt;Node6</title>
<path fill="none" stroke="#191970" d="M124.4488,-47.3095C143.7416,-45.367 165.1496,-43.2115 185.6654,-41.1458"/>
<polygon fill="#191970" stroke="#191970" points="123.8682,-43.8502 114.2692,-48.3345 124.5695,-50.815 123.8682,-43.8502"/>
</g>
<!-- Node8 -->
<g id="node5" class="node">
<title>Node8</title>
<g id="a_node5"><a xlink:href="structmfxExtAVCRefListCtrl.html" target="_top" xlink:title="mfxExtAVCRefListCtrl">
<polygon fill="#ffffff" stroke="#000000" points="0,-.5 0,-19.5 116,-19.5 116,-.5 0,-.5"/>
<text text-anchor="middle" x="58" y="-7.5" font-family="Helvetica,sans-Serif" font-size="10.00" fill="#000000">mfxExtAVCRefListCtrl</text>
</a>
</g>
</g>
<!-- Node8&#45;&gt;Node6 -->
<g id="edge4" class="edge">
<title>Node8&#45;&gt;Node6</title>
<path fill="none" stroke="#9a32cd" stroke-dasharray="5,2" d="M126.2489,-16.8717C145.1359,-18.7734 165.9352,-20.8676 185.8808,-22.8759"/>
<polygon fill="#9a32cd" stroke="#9a32cd" points="126.5673,-13.3862 116.267,-15.8667 125.866,-20.351 126.5673,-13.3862"/>
<text text-anchor="middle" x="151" y="-24" font-family="Helvetica,sans-Serif" font-size="10.00" fill="#000000"> buffer_</text>
</g>
</g>
</svg>
