<?xml version="1.0" encoding="UTF-8" standalone="no"?>
<!DOCTYPE svg PUBLIC "-//W3C//DTD SVG 1.1//EN"
 "http://www.w3.org/Graphics/SVG/1.1/DTD/svg11.dtd">
<!-- Generated by graphviz version 2.40.1 (20161225.0304)
 -->
<!-- Title: oneapi::vpl::decode_session&lt; Reader &gt; Pages: 1 -->
<svg width="689pt" height="208pt"
 viewBox="0.00 0.00 689.00 208.00" xmlns="http://www.w3.org/2000/svg" xmlns:xlink="http://www.w3.org/1999/xlink">
<g id="graph0" class="graph" transform="scale(1 1) rotate(0) translate(4 204)">
<title>oneapi::vpl::decode_session&lt; Reader &gt;</title>
<polygon fill="#ffffff" stroke="transparent" points="-4,4 -4,-204 685,-204 685,4 -4,4"/>
<!-- Node2 -->
<g id="node1" class="node">
<title>Node2</title>
<polygon fill="#bfbfbf" stroke="#000000" points="576,-70.5 576,-100.5 681,-100.5 681,-70.5 576,-70.5"/>
<text text-anchor="start" x="584" y="-88.5" font-family="Helvetica,sans-Serif" font-size="10.00" fill="#000000">oneapi::vpl::decode</text>
<text text-anchor="middle" x="628.5" y="-77.5" font-family="Helvetica,sans-Serif" font-size="10.00" fill="#000000">_session&lt; Reader &gt;</text>
</g>
<!-- Node3 -->
<g id="node2" class="node">
<title>Node3</title>
<g id="a_node2"><a xlink:href="classoneapi_1_1vpl_1_1session.html" target="_top" xlink:title="oneapi::vpl::session\l\&lt; decoder_video_param,\l decoder_init_reset_list,\l decoder_init_reset_list \&gt;">
<polygon fill="#ffffff" stroke="#000000" points="373,-147.5 373,-199.5 499,-199.5 499,-147.5 373,-147.5"/>
<text text-anchor="start" x="381" y="-187.5" font-family="Helvetica,sans-Serif" font-size="10.00" fill="#000000">oneapi::vpl::session</text>
<text text-anchor="start" x="381" y="-176.5" font-family="Helvetica,sans-Serif" font-size="10.00" fill="#000000">&lt; decoder_video_param,</text>
<text text-anchor="start" x="381" y="-165.5" font-family="Helvetica,sans-Serif" font-size="10.00" fill="#000000"> decoder_init_reset_list,</text>
<text text-anchor="middle" x="436" y="-154.5" font-family="Helvetica,sans-Serif" font-size="10.00" fill="#000000"> decoder_init_reset_list &gt;</text>
</a>
</g>
</g>
<!-- Node3&#45;&gt;Node2 -->
<g id="edge1" class="edge">
<title>Node3&#45;&gt;Node2</title>
<path fill="none" stroke="#191970" d="M502.1387,-143.2651C533.6043,-128.8809 569.8443,-112.314 595.423,-100.6209"/>
<polygon fill="#191970" stroke="#191970" points="500.6146,-140.1135 492.975,-147.4543 503.5249,-146.4798 500.6146,-140.1135"/>
</g>
<!-- Node4 -->
<g id="node3" class="node">
<title>Node4</title>
<g id="a_node3"><a xlink:href="structoneapi_1_1vpl_1_1detail_1_1sdk__c__api.html" target="_top" xlink:title="Underlying C API Functions table. It is initialized either for encoder or foe decoder or forVPP...">
<polygon fill="#ffffff" stroke="#000000" points="164,-158.5 164,-188.5 257,-188.5 257,-158.5 164,-158.5"/>
<text text-anchor="start" x="172" y="-176.5" font-family="Helvetica,sans-Serif" font-size="10.00" fill="#000000">oneapi::vpl::detail</text>
<text text-anchor="middle" x="210.5" y="-165.5" font-family="Helvetica,sans-Serif" font-size="10.00" fill="#000000">::sdk_c_api</text>
</a>
</g>
</g>
<!-- Node4&#45;&gt;Node3 -->
<g id="edge2" class="edge">
<title>Node4&#45;&gt;Node3</title>
<path fill="none" stroke="#9a32cd" stroke-dasharray="5,2" d="M267.335,-173.5C299.4117,-173.5 339.5728,-173.5 372.6583,-173.5"/>
<polygon fill="#9a32cd" stroke="#9a32cd" points="267.2238,-170.0001 257.2237,-173.5 267.2237,-177.0001 267.2238,-170.0001"/>
<text text-anchor="middle" x="320" y="-176.5" font-family="Helvetica,sans-Serif" font-size="10.00" fill="#000000"> c_api_callable_</text>
</g>
<!-- Node5 -->
<g id="node4" class="node">
<title>Node5</title>
<g id="a_node4"><a xlink:href="classoneapi_1_1vpl_1_1bitstream__as__src.html" target="_top" xlink:title="Defines the circular buffer that holds compressed video data. Used as the input to decoder...">
<polygon fill="#ffffff" stroke="#000000" points="381,-98.5 381,-128.5 491,-128.5 491,-98.5 381,-98.5"/>
<text text-anchor="start" x="389" y="-116.5" font-family="Helvetica,sans-Serif" font-size="10.00" fill="#000000">oneapi::vpl::bitstream</text>
<text text-anchor="middle" x="436" y="-105.5" font-family="Helvetica,sans-Serif" font-size="10.00" fill="#000000">_as_src</text>
</a>
</g>
</g>
<!-- Node5&#45;&gt;Node2 -->
<g id="edge3" class="edge">
<title>Node5&#45;&gt;Node2</title>
<path fill="none" stroke="#9a32cd" stroke-dasharray="5,2" d="M501.3836,-103.9897C525.7012,-100.4526 552.9585,-96.4879 575.978,-93.1396"/>
<polygon fill="#9a32cd" stroke="#9a32cd" points="500.5548,-100.5733 491.1628,-105.4763 501.5625,-107.5004 500.5548,-100.5733"/>
<text text-anchor="middle" x="537.5" y="-103.5" font-family="Helvetica,sans-Serif" font-size="10.00" fill="#000000"> bits_</text>
</g>
<!-- Node6 -->
<g id="node5" class="node">
<title>Node6</title>
<g id="a_node5"><a xlink:href="classoneapi_1_1vpl_1_1bitstream.html" target="_top" xlink:title="Defines the circlular buffer that holds compressed video data. ">
<polygon fill="#ffffff" stroke="#000000" points="155.5,-104 155.5,-123 265.5,-123 265.5,-104 155.5,-104"/>
<text text-anchor="middle" x="210.5" y="-111" font-family="Helvetica,sans-Serif" font-size="10.00" fill="#000000">oneapi::vpl::bitstream</text>
</a>
</g>
</g>
<!-- Node6&#45;&gt;Node5 -->
<g id="edge4" class="edge">
<title>Node6&#45;&gt;Node5</title>
<path fill="none" stroke="#191970" d="M275.7409,-113.5C308.9628,-113.5 348.9194,-113.5 380.6244,-113.5"/>
<polygon fill="#191970" stroke="#191970" points="275.6635,-110.0001 265.6635,-113.5 275.6635,-117.0001 275.6635,-110.0001"/>
</g>
<!-- Node7 -->
<g id="node6" class="node">
<title>Node7</title>
<g id="a_node6"><a xlink:href="structmfxBitstream.html" target="_top" xlink:title="mfxBitstream">
<polygon fill="#ffffff" stroke="#000000" points="9,-104 9,-123 84,-123 84,-104 9,-104"/>
<text text-anchor="middle" x="46.5" y="-111" font-family="Helvetica,sans-Serif" font-size="10.00" fill="#000000">mfxBitstream</text>
</a>
</g>
</g>
<!-- Node7&#45;&gt;Node6 -->
<g id="edge5" class="edge">
<title>Node7&#45;&gt;Node6</title>
<path fill="none" stroke="#9a32cd" stroke-dasharray="5,2" d="M94.3867,-113.5C113.4746,-113.5 135.5637,-113.5 155.3191,-113.5"/>
<polygon fill="#9a32cd" stroke="#9a32cd" points="94.1249,-110.0001 84.1249,-113.5 94.1249,-117.0001 94.1249,-110.0001"/>
<text text-anchor="middle" x="123.5" y="-116.5" font-family="Helvetica,sans-Serif" font-size="10.00" fill="#000000"> bits_</text>
</g>
<!-- Node8 -->
<g id="node7" class="node">
<title>Node8</title>
<g id="a_node7"><a xlink:href="classoneapi_1_1vpl_1_1decoder__video__param.html" target="_top" xlink:title="Holds decoder specific params. ">
<polygon fill="#ffffff" stroke="#000000" points="384,-49.5 384,-79.5 488,-79.5 488,-49.5 384,-49.5"/>
<text text-anchor="start" x="392" y="-67.5" font-family="Helvetica,sans-Serif" font-size="10.00" fill="#000000">oneapi::vpl::decoder</text>
<text text-anchor="middle" x="436" y="-56.5" font-family="Helvetica,sans-Serif" font-size="10.00" fill="#000000">_video_param</text>
</a>
</g>
</g>
<!-- Node8&#45;&gt;Node2 -->
<g id="edge6" class="edge">
<title>Node8&#45;&gt;Node2</title>
<path fill="none" stroke="#9a32cd" stroke-dasharray="5,2" d="M498.3852,-70.2857C517.5243,-72.155 538.6395,-74.3125 558,-76.5 563.7626,-77.1511 569.7856,-77.8665 575.7791,-78.6006"/>
<polygon fill="#9a32cd" stroke="#9a32cd" points="498.5699,-66.7873 488.2791,-69.3073 497.8953,-73.7547 498.5699,-66.7873"/>
<text text-anchor="middle" x="537.5" y="-79.5" font-family="Helvetica,sans-Serif" font-size="10.00" fill="#000000"> params_</text>
</g>
<!-- Node9 -->
<g id="node8" class="node">
<title>Node9</title>
<g id="a_node8"><a xlink:href="classoneapi_1_1vpl_1_1codec__video__param.html" target="_top" xlink:title="Holds general codec&#45;specific params applicable for any decoder and encoder. ">
<polygon fill="#ffffff" stroke="#000000" points="162.5,-49.5 162.5,-79.5 258.5,-79.5 258.5,-49.5 162.5,-49.5"/>
<text text-anchor="start" x="170.5" y="-67.5" font-family="Helvetica,sans-Serif" font-size="10.00" fill="#000000">oneapi::vpl::codec</text>
<text text-anchor="middle" x="210.5" y="-56.5" font-family="Helvetica,sans-Serif" font-size="10.00" fill="#000000">_video_param</text>
</a>
</g>
</g>
<!-- Node9&#45;&gt;Node8 -->
<g id="edge7" class="edge">
<title>Node9&#45;&gt;Node8</title>
<path fill="none" stroke="#191970" d="M268.8157,-64.5C304.3164,-64.5 349.2901,-64.5 383.648,-64.5"/>
<polygon fill="#191970" stroke="#191970" points="268.5989,-61.0001 258.5988,-64.5 268.5988,-68.0001 268.5989,-61.0001"/>
</g>
<!-- Node10 -->
<g id="node9" class="node">
<title>Node10</title>
<g id="a_node9"><a xlink:href="classoneapi_1_1vpl_1_1video__param.html" target="_top" xlink:title="Holds general video params applicable for all kind of sessions. ">
<polygon fill="#ffffff" stroke="#000000" points="0,-49.5 0,-79.5 93,-79.5 93,-49.5 0,-49.5"/>
<text text-anchor="start" x="8" y="-67.5" font-family="Helvetica,sans-Serif" font-size="10.00" fill="#000000">oneapi::vpl::video</text>
<text text-anchor="middle" x="46.5" y="-56.5" font-family="Helvetica,sans-Serif" font-size="10.00" fill="#000000">_param</text>
</a>
</g>
</g>
<!-- Node10&#45;&gt;Node9 -->
<g id="edge8" class="edge">
<title>Node10&#45;&gt;Node9</title>
<path fill="none" stroke="#191970" d="M103.2251,-64.5C122.5076,-64.5 143.8568,-64.5 162.3993,-64.5"/>
<polygon fill="#191970" stroke="#191970" points="103.0572,-61.0001 93.0571,-64.5 103.0571,-68.0001 103.0572,-61.0001"/>
</g>
<!-- Node11 -->
<g id="node10" class="node">
<title>Node11</title>
<g id="a_node10"><a xlink:href="classoneapi_1_1vpl_1_1decoder__process__list.html" target="_top" xlink:title="This class hold list of extension buffers used during decoder&#39;s processing stage Those buffers are at...">
<polygon fill="#ffffff" stroke="#000000" points="384,-.5 384,-30.5 488,-30.5 488,-.5 384,-.5"/>
<text text-anchor="start" x="392" y="-18.5" font-family="Helvetica,sans-Serif" font-size="10.00" fill="#000000">oneapi::vpl::decoder</text>
<text text-anchor="middle" x="436" y="-7.5" font-family="Helvetica,sans-Serif" font-size="10.00" fill="#000000">_process_list</text>
</a>
</g>
</g>
<!-- Node11&#45;&gt;Node2 -->
<g id="edge9" class="edge">
<title>Node11&#45;&gt;Node2</title>
<path fill="none" stroke="#9a32cd" stroke-dasharray="5,2" d="M492.7592,-33.7103C513.405,-40.5613 536.8558,-48.6081 558,-56.5 569.5312,-60.8039 581.9884,-65.808 593.1769,-70.4355"/>
<polygon fill="#9a32cd" stroke="#9a32cd" points="493.7745,-30.3598 483.1814,-30.5507 491.5815,-37.0074 493.7745,-30.3598"/>
<text text-anchor="middle" x="537.5" y="-59.5" font-family="Helvetica,sans-Serif" font-size="10.00" fill="#000000"> list_</text>
</g>
<!-- Node12 -->
<g id="node11" class="node">
<title>Node12</title>
<g id="a_node11"><a xlink:href="classoneapi_1_1vpl_1_1buffer__list.html" target="_top" xlink:title="Base class to replerent list of extension buffers. Buffer pointers are stored as a map...">
<polygon fill="#ffffff" stroke="#000000" points="154,-6 154,-25 267,-25 267,-6 154,-6"/>
<text text-anchor="middle" x="210.5" y="-13" font-family="Helvetica,sans-Serif" font-size="10.00" fill="#000000">oneapi::vpl::buffer_list</text>
</a>
</g>
</g>
<!-- Node12&#45;&gt;Node11 -->
<g id="edge10" class="edge">
<title>Node12&#45;&gt;Node11</title>
<path fill="none" stroke="#191970" d="M277.4151,-15.5C311.3607,-15.5 351.9864,-15.5 383.6202,-15.5"/>
<polygon fill="#191970" stroke="#191970" points="277.1121,-12.0001 267.1121,-15.5 277.1121,-19.0001 277.1121,-12.0001"/>
</g>
</g>
</svg>
