<?xml version="1.0" encoding="UTF-8" standalone="no"?>
<!DOCTYPE svg PUBLIC "-//W3C//DTD SVG 1.1//EN"
 "http://www.w3.org/Graphics/SVG/1.1/DTD/svg11.dtd">
<!-- Generated by graphviz version 2.40.1 (20161225.0304)
 -->
<!-- Title: oneapi::vpl::extension_buffer_base::operator= Pages: 1 -->
<svg width="373pt" height="274pt"
 viewBox="0.00 0.00 373.00 274.00" xmlns="http://www.w3.org/2000/svg" xmlns:xlink="http://www.w3.org/1999/xlink">
<g id="graph0" class="graph" transform="scale(1 1) rotate(0) translate(4 270)">
<title>oneapi::vpl::extension_buffer_base::operator=</title>
<polygon fill="#ffffff" stroke="transparent" points="-4,4 -4,-270 369,-270 369,4 -4,4"/>
<!-- Node34 -->
<g id="node1" class="node">
<title>Node34</title>
<polygon fill="#bfbfbf" stroke="#000000" points="0,-134 0,-164 120,-164 120,-134 0,-134"/>
<text text-anchor="start" x="8" y="-152" font-family="Helvetica,sans-Serif" font-size="10.00" fill="#000000">oneapi::vpl::extension</text>
<text text-anchor="middle" x="60" y="-141" font-family="Helvetica,sans-Serif" font-size="10.00" fill="#000000">_buffer_base::operator=</text>
</g>
<!-- Node35 -->
<g id="node2" class="node">
<title>Node35</title>
<g id="a_node2"><a xlink:href="classoneapi_1_1vpl_1_1extension__buffer__base.html#a5932fc8f620a742c9e14167dc3235e21" target="_top" xlink:title="Default ctor. ">
<polygon fill="#ffffff" stroke="#000000" points="200,-224.5 200,-265.5 321,-265.5 321,-224.5 200,-224.5"/>
<text text-anchor="start" x="208" y="-253.5" font-family="Helvetica,sans-Serif" font-size="10.00" fill="#000000">oneapi::vpl::extension</text>
<text text-anchor="start" x="208" y="-242.5" font-family="Helvetica,sans-Serif" font-size="10.00" fill="#000000">_buffer_base::extension</text>
<text text-anchor="middle" x="260.5" y="-231.5" font-family="Helvetica,sans-Serif" font-size="10.00" fill="#000000">_buffer_base</text>
</a>
</g>
</g>
<!-- Node34&#45;&gt;Node35 -->
<g id="edge1" class="edge">
<title>Node34&#45;&gt;Node35</title>
<path fill="none" stroke="#191970" d="M85.9961,-170.3155C104.552,-184.6414 130.6211,-203.0234 156,-215 169.7413,-221.4847 185.1736,-226.8575 199.8747,-231.1765"/>
<polygon fill="#191970" stroke="#191970" points="88.0544,-167.4817 78.0285,-164.0564 83.7301,-172.9863 88.0544,-167.4817"/>
</g>
<!-- Node36 -->
<g id="node3" class="node">
<title>Node36</title>
<g id="a_node3"><a xlink:href="classoneapi_1_1vpl_1_1extension__buffer.html#a5eb6df79e578690670522d6593f6d7e3" target="_top" xlink:title="Default ctor. ">
<polygon fill="#ffffff" stroke="#000000" points="186.5,-164.5 186.5,-205.5 334.5,-205.5 334.5,-164.5 186.5,-164.5"/>
<text text-anchor="start" x="194.5" y="-193.5" font-family="Helvetica,sans-Serif" font-size="10.00" fill="#000000">oneapi::vpl::extension</text>
<text text-anchor="start" x="194.5" y="-182.5" font-family="Helvetica,sans-Serif" font-size="10.00" fill="#000000">_buffer&lt; mfxExtAVCRefLists,</text>
<text text-anchor="middle" x="260.5" y="-171.5" font-family="Helvetica,sans-Serif" font-size="10.00" fill="#000000"> ID &gt;::extension_buffer</text>
</a>
</g>
</g>
<!-- Node34&#45;&gt;Node36 -->
<g id="edge2" class="edge">
<title>Node34&#45;&gt;Node36</title>
<path fill="none" stroke="#191970" d="M130.0732,-161.5817C148.2235,-164.8406 167.8291,-168.3608 186.1884,-171.6573"/>
<polygon fill="#191970" stroke="#191970" points="130.6178,-158.1236 120.1566,-159.8012 129.3806,-165.0134 130.6178,-158.1236"/>
</g>
<!-- Node37 -->
<g id="node4" class="node">
<title>Node37</title>
<g id="a_node4"><a xlink:href="classoneapi_1_1vpl_1_1extension__buffer__trival.html#ac365402d897850ff219993bdf9d16f75" target="_top" xlink:title="Default ctor. ">
<polygon fill="#ffffff" stroke="#000000" points="171.5,-82.5 171.5,-145.5 349.5,-145.5 349.5,-82.5 171.5,-82.5"/>
<text text-anchor="start" x="179.5" y="-133.5" font-family="Helvetica,sans-Serif" font-size="10.00" fill="#000000">oneapi::vpl::extension</text>
<text text-anchor="start" x="179.5" y="-122.5" font-family="Helvetica,sans-Serif" font-size="10.00" fill="#000000">_buffer_trival&lt; mfxExtVPPImage</text>
<text text-anchor="start" x="179.5" y="-111.5" font-family="Helvetica,sans-Serif" font-size="10.00" fill="#000000">Stab, MFX_EXTBUFF_VPP_IMAGE</text>
<text text-anchor="start" x="179.5" y="-100.5" font-family="Helvetica,sans-Serif" font-size="10.00" fill="#000000">_STABILIZATION &gt;::extension</text>
<text text-anchor="middle" x="260.5" y="-89.5" font-family="Helvetica,sans-Serif" font-size="10.00" fill="#000000">_buffer_trival</text>
</a>
</g>
</g>
<!-- Node34&#45;&gt;Node37 -->
<g id="edge3" class="edge">
<title>Node34&#45;&gt;Node37</title>
<path fill="none" stroke="#191970" d="M130.1853,-136.7482C143.5223,-134.4201 157.6415,-131.9553 171.4723,-129.541"/>
<polygon fill="#191970" stroke="#191970" points="129.4057,-133.3313 120.1566,-138.4988 130.6095,-140.227 129.4057,-133.3313"/>
</g>
<!-- Node38 -->
<g id="node5" class="node">
<title>Node38</title>
<g id="a_node5"><a xlink:href="classoneapi_1_1vpl_1_1extension__buffer__with__ptrs.html#a74405fdddc05546a1e2384862313caee" target="_top" xlink:title="Default ctor. ">
<polygon fill="#ffffff" stroke="#000000" points="156,-.5 156,-63.5 365,-63.5 365,-.5 156,-.5"/>
<text text-anchor="start" x="164" y="-51.5" font-family="Helvetica,sans-Serif" font-size="10.00" fill="#000000">oneapi::vpl::extension</text>
<text text-anchor="start" x="164" y="-40.5" font-family="Helvetica,sans-Serif" font-size="10.00" fill="#000000">_buffer_with_ptrs&lt; mfxExtCoding</text>
<text text-anchor="start" x="164" y="-29.5" font-family="Helvetica,sans-Serif" font-size="10.00" fill="#000000">OptionSPSPPS, MFX_EXTBUFF_CODING</text>
<text text-anchor="start" x="164" y="-18.5" font-family="Helvetica,sans-Serif" font-size="10.00" fill="#000000">_OPTION_SPSPPS &gt;::extension_buffer</text>
<text text-anchor="middle" x="260.5" y="-7.5" font-family="Helvetica,sans-Serif" font-size="10.00" fill="#000000">_with_ptrs</text>
</a>
</g>
</g>
<!-- Node34&#45;&gt;Node38 -->
<g id="edge4" class="edge">
<title>Node34&#45;&gt;Node38</title>
<path fill="none" stroke="#191970" d="M83.576,-127.0544C102.1786,-110.5815 129.3517,-88.3203 156,-73 161.7445,-69.6974 167.8064,-66.5489 174.0001,-63.5718"/>
<polygon fill="#191970" stroke="#191970" points="81.0067,-124.6576 75.9099,-133.946 85.6866,-129.8634 81.0067,-124.6576"/>
</g>
</g>
</svg>
