<?xml version="1.0" encoding="UTF-8" standalone="no"?>
<!DOCTYPE svg PUBLIC "-//W3C//DTD SVG 1.1//EN"
 "http://www.w3.org/Graphics/SVG/1.1/DTD/svg11.dtd">
<!-- Generated by graphviz version 2.40.1 (20161225.0304)
 -->
<!-- Title: oneapi::vpl::frame_surface Pages: 1 -->
<svg width="270pt" height="184pt"
 viewBox="0.00 0.00 269.50 184.00" xmlns="http://www.w3.org/2000/svg" xmlns:xlink="http://www.w3.org/1999/xlink">
<g id="graph0" class="graph" transform="scale(1 1) rotate(0) translate(4 180)">
<title>oneapi::vpl::frame_surface</title>
<polygon fill="#ffffff" stroke="transparent" points="-4,4 -4,-180 265.5,-180 265.5,4 -4,4"/>
<!-- Node2 -->
<g id="node1" class="node">
<title>Node2</title>
<polygon fill="#bfbfbf" stroke="#000000" points="40,-.5 40,-30.5 135,-30.5 135,-.5 40,-.5"/>
<text text-anchor="start" x="48" y="-18.5" font-family="Helvetica,sans-Serif" font-size="10.00" fill="#000000">oneapi::vpl::frame</text>
<text text-anchor="middle" x="87.5" y="-7.5" font-family="Helvetica,sans-Serif" font-size="10.00" fill="#000000">_surface</text>
</g>
<!-- Node3 -->
<g id="node2" class="node">
<title>Node3</title>
<polygon fill="#ffffff" stroke="#bfbfbf" points="0,-78.5 0,-108.5 143,-108.5 143,-78.5 0,-78.5"/>
<text text-anchor="start" x="8" y="-96.5" font-family="Helvetica,sans-Serif" font-size="10.00" fill="#000000">std::enable_shared</text>
<text text-anchor="middle" x="71.5" y="-85.5" font-family="Helvetica,sans-Serif" font-size="10.00" fill="#000000">_from_this&lt; frame_surface &gt;</text>
</g>
<!-- Node3&#45;&gt;Node2 -->
<g id="edge1" class="edge">
<title>Node3&#45;&gt;Node2</title>
<path fill="none" stroke="#191970" d="M76.5951,-68.6616C79.1489,-56.2119 82.1597,-41.5342 84.3699,-30.7592"/>
<polygon fill="#191970" stroke="#191970" points="73.1659,-67.9615 74.585,-78.4608 80.0231,-69.3681 73.1659,-67.9615"/>
</g>
<!-- Node4 -->
<g id="node3" class="node">
<title>Node4</title>
<g id="a_node3"><a xlink:href="structmfxFrameSurface1.html" target="_top" xlink:title="mfxFrameSurface1">
<polygon fill="#ffffff" stroke="#000000" points="161.5,-84 161.5,-103 261.5,-103 261.5,-84 161.5,-84"/>
<text text-anchor="middle" x="211.5" y="-91" font-family="Helvetica,sans-Serif" font-size="10.00" fill="#000000">mfxFrameSurface1</text>
</a>
</g>
</g>
<!-- Node4&#45;&gt;Node2 -->
<g id="edge2" class="edge">
<title>Node4&#45;&gt;Node2</title>
<path fill="none" stroke="#9a32cd" stroke-dasharray="5,2" d="M187.6397,-78.4911C165.8342,-64.7747 133.7361,-44.584 111.7951,-30.7824"/>
<polygon fill="#9a32cd" stroke="#9a32cd" points="185.9669,-81.5737 196.2952,-83.9357 189.6941,-75.6485 185.9669,-81.5737"/>
<text text-anchor="middle" x="177" y="-52" font-family="Helvetica,sans-Serif" font-size="10.00" fill="#000000"> surface_</text>
</g>
<!-- Node5 -->
<g id="node4" class="node">
<title>Node5</title>
<g id="a_node4"><a xlink:href="structmfxFrameInfo.html" target="_top" xlink:title="mfxFrameInfo">
<polygon fill="#ffffff" stroke="#000000" points="173,-156.5 173,-175.5 250,-175.5 250,-156.5 173,-156.5"/>
<text text-anchor="middle" x="211.5" y="-163.5" font-family="Helvetica,sans-Serif" font-size="10.00" fill="#000000">mfxFrameInfo</text>
</a>
</g>
</g>
<!-- Node5&#45;&gt;Node4 -->
<g id="edge3" class="edge">
<title>Node5&#45;&gt;Node4</title>
<path fill="none" stroke="#9a32cd" stroke-dasharray="5,2" d="M211.5,-146.1054C211.5,-132.1237 211.5,-114.0346 211.5,-103.1228"/>
<polygon fill="#9a32cd" stroke="#9a32cd" points="208.0001,-146.2223 211.5,-156.2223 215.0001,-146.2224 208.0001,-146.2223"/>
<text text-anchor="middle" x="221.5" y="-130" font-family="Helvetica,sans-Serif" font-size="10.00" fill="#000000"> Info</text>
</g>
</g>
</svg>
