<?xml version="1.0" encoding="UTF-8" standalone="no"?>
<!DOCTYPE svg PUBLIC "-//W3C//DTD SVG 1.1//EN"
 "http://www.w3.org/Graphics/SVG/1.1/DTD/svg11.dtd">
<!-- Generated by graphviz version 2.40.1 (20161225.0304)
 -->
<!-- Title: oneapi::vpl::decode_session&lt; Reader &gt; Pages: 1 -->
<svg width="275pt" height="61pt"
 viewBox="0.00 0.00 275.00 61.00" xmlns="http://www.w3.org/2000/svg" xmlns:xlink="http://www.w3.org/1999/xlink">
<g id="graph0" class="graph" transform="scale(1 1) rotate(0) translate(4 57)">
<title>oneapi::vpl::decode_session&lt; Reader &gt;</title>
<polygon fill="#ffffff" stroke="transparent" points="-4,4 -4,-57 271,-57 271,4 -4,4"/>
<!-- Node0 -->
<g id="node1" class="node">
<title>Node0</title>
<polygon fill="#bfbfbf" stroke="#000000" points="162,-11.5 162,-41.5 267,-41.5 267,-11.5 162,-11.5"/>
<text text-anchor="start" x="170" y="-29.5" font-family="Helvetica,sans-Serif" font-size="10.00" fill="#000000">oneapi::vpl::decode</text>
<text text-anchor="middle" x="214.5" y="-18.5" font-family="Helvetica,sans-Serif" font-size="10.00" fill="#000000">_session&lt; Reader &gt;</text>
</g>
<!-- Node1 -->
<g id="node2" class="node">
<title>Node1</title>
<g id="a_node2"><a xlink:href="classoneapi_1_1vpl_1_1session.html" target="_top" xlink:title="oneapi::vpl::session\l\&lt; decoder_video_param,\l decoder_init_reset_list,\l decoder_init_reset_list \&gt;">
<polygon fill="#ffffff" stroke="#000000" points="0,-.5 0,-52.5 126,-52.5 126,-.5 0,-.5"/>
<text text-anchor="start" x="8" y="-40.5" font-family="Helvetica,sans-Serif" font-size="10.00" fill="#000000">oneapi::vpl::session</text>
<text text-anchor="start" x="8" y="-29.5" font-family="Helvetica,sans-Serif" font-size="10.00" fill="#000000">&lt; decoder_video_param,</text>
<text text-anchor="start" x="8" y="-18.5" font-family="Helvetica,sans-Serif" font-size="10.00" fill="#000000"> decoder_init_reset_list,</text>
<text text-anchor="middle" x="63" y="-7.5" font-family="Helvetica,sans-Serif" font-size="10.00" fill="#000000"> decoder_init_reset_list &gt;</text>
</a>
</g>
</g>
<!-- Node1&#45;&gt;Node0 -->
<g id="edge1" class="edge">
<title>Node1&#45;&gt;Node0</title>
<path fill="none" stroke="#191970" d="M136.432,-26.5C145.0402,-26.5 153.6883,-26.5 161.9312,-26.5"/>
<polygon fill="#191970" stroke="#191970" points="136.3719,-23.0001 126.3718,-26.5 136.3718,-30.0001 136.3719,-23.0001"/>
</g>
</g>
</svg>
