<?xml version="1.0" encoding="UTF-8" standalone="no"?>
<!DOCTYPE svg PUBLIC "-//W3C//DTD SVG 1.1//EN"
 "http://www.w3.org/Graphics/SVG/1.1/DTD/svg11.dtd">
<!-- Generated by graphviz version 2.40.1 (20161225.0304)
 -->
<!-- Title: oneapi::vpl::base_exception::status_to_string Pages: 1 -->
<svg width="494pt" height="39pt"
 viewBox="0.00 0.00 494.00 39.00" xmlns="http://www.w3.org/2000/svg" xmlns:xlink="http://www.w3.org/1999/xlink">
<g id="graph0" class="graph" transform="scale(1 1) rotate(0) translate(4 35)">
<title>oneapi::vpl::base_exception::status_to_string</title>
<polygon fill="#ffffff" stroke="transparent" points="-4,4 -4,-35 490,-35 490,4 -4,4"/>
<!-- Node21 -->
<g id="node1" class="node">
<title>Node21</title>
<polygon fill="#bfbfbf" stroke="#000000" points="0,-.5 0,-30.5 138,-30.5 138,-.5 0,-.5"/>
<text text-anchor="start" x="8" y="-18.5" font-family="Helvetica,sans-Serif" font-size="10.00" fill="#000000">oneapi::vpl::base_exception</text>
<text text-anchor="middle" x="69" y="-7.5" font-family="Helvetica,sans-Serif" font-size="10.00" fill="#000000">::status_to_string</text>
</g>
<!-- Node22 -->
<g id="node2" class="node">
<title>Node22</title>
<g id="a_node2"><a xlink:href="classoneapi_1_1vpl_1_1base__exception.html#a138a1ac40ec8869b379031ee15b9da42" target="_top" xlink:title="Default ctor. ">
<polygon fill="#ffffff" stroke="#000000" points="174,-.5 174,-30.5 312,-30.5 312,-.5 174,-.5"/>
<text text-anchor="start" x="182" y="-18.5" font-family="Helvetica,sans-Serif" font-size="10.00" fill="#000000">oneapi::vpl::base_exception</text>
<text text-anchor="middle" x="243" y="-7.5" font-family="Helvetica,sans-Serif" font-size="10.00" fill="#000000">::base_exception</text>
</a>
</g>
</g>
<!-- Node21&#45;&gt;Node22 -->
<g id="edge1" class="edge">
<title>Node21&#45;&gt;Node22</title>
<path fill="none" stroke="#191970" d="M148.0349,-15.5C156.6249,-15.5 165.3194,-15.5 173.7795,-15.5"/>
<polygon fill="#191970" stroke="#191970" points="148.0194,-12.0001 138.0193,-15.5 148.0193,-19.0001 148.0194,-12.0001"/>
</g>
<!-- Node23 -->
<g id="node3" class="node">
<title>Node23</title>
<g id="a_node3"><a xlink:href="classoneapi_1_1vpl_1_1base__exception.html#a733b8da1ac5e4901c5359700133291d6" target="_top" xlink:title="Default ctor. ">
<polygon fill="#ffffff" stroke="#000000" points="348,-.5 348,-30.5 486,-30.5 486,-.5 348,-.5"/>
<text text-anchor="start" x="356" y="-18.5" font-family="Helvetica,sans-Serif" font-size="10.00" fill="#000000">oneapi::vpl::base_exception</text>
<text text-anchor="middle" x="417" y="-7.5" font-family="Helvetica,sans-Serif" font-size="10.00" fill="#000000">::base_exception</text>
</a>
</g>
</g>
<!-- Node22&#45;&gt;Node23 -->
<g id="edge2" class="edge">
<title>Node22&#45;&gt;Node23</title>
<path fill="none" stroke="#191970" d="M322.0349,-15.5C330.6249,-15.5 339.3194,-15.5 347.7795,-15.5"/>
<polygon fill="#191970" stroke="#191970" points="322.0194,-12.0001 312.0193,-15.5 322.0193,-19.0001 322.0194,-12.0001"/>
</g>
</g>
</svg>
