<?xml version="1.0" encoding="UTF-8" standalone="no"?>
<!DOCTYPE svg PUBLIC "-//W3C//DTD SVG 1.1//EN"
 "http://www.w3.org/Graphics/SVG/1.1/DTD/svg11.dtd">
<!-- Generated by graphviz version 2.40.1 (20161225.0304)
 -->
<!-- Title: oneapi::vpl::detail::variant Pages: 1 -->
<svg width="101pt" height="173pt"
 viewBox="0.00 0.00 101.00 173.00" xmlns="http://www.w3.org/2000/svg" xmlns:xlink="http://www.w3.org/1999/xlink">
<g id="graph0" class="graph" transform="scale(1 1) rotate(0) translate(4 169)">
<title>oneapi::vpl::detail::variant</title>
<polygon fill="#ffffff" stroke="transparent" points="-4,4 -4,-169 97,-169 97,4 -4,4"/>
<!-- Node1 -->
<g id="node1" class="node">
<title>Node1</title>
<polygon fill="#bfbfbf" stroke="#000000" points="0,-.5 0,-30.5 93,-30.5 93,-.5 0,-.5"/>
<text text-anchor="start" x="8" y="-18.5" font-family="Helvetica,sans-Serif" font-size="10.00" fill="#000000">oneapi::vpl::detail</text>
<text text-anchor="middle" x="46.5" y="-7.5" font-family="Helvetica,sans-Serif" font-size="10.00" fill="#000000">::variant</text>
</g>
<!-- Node2 -->
<g id="node2" class="node">
<title>Node2</title>
<g id="a_node2"><a xlink:href="structmfxVariant.html" target="_top" xlink:title="mfxVariant">
<polygon fill="#ffffff" stroke="#000000" points="14.5,-78.5 14.5,-97.5 78.5,-97.5 78.5,-78.5 14.5,-78.5"/>
<text text-anchor="middle" x="46.5" y="-85.5" font-family="Helvetica,sans-Serif" font-size="10.00" fill="#000000">mfxVariant</text>
</a>
</g>
</g>
<!-- Node2&#45;&gt;Node1 -->
<g id="edge1" class="edge">
<title>Node2&#45;&gt;Node1</title>
<path fill="none" stroke="#9a32cd" stroke-dasharray="5,2" d="M46.5,-68.0177C46.5,-56.2164 46.5,-41.513 46.5,-30.668"/>
<polygon fill="#9a32cd" stroke="#9a32cd" points="43.0001,-68.2223 46.5,-78.2223 50.0001,-68.2224 43.0001,-68.2223"/>
<text text-anchor="middle" x="53.5" y="-52" font-family="Helvetica,sans-Serif" font-size="10.00" fill="#000000"> v_</text>
</g>
<!-- Node3 -->
<g id="node3" class="node">
<title>Node3</title>
<g id="a_node3"><a xlink:href="unionmfxVariant_1_1data.html" target="_top" xlink:title="mfxVariant::data">
<polygon fill="#ffffff" stroke="#000000" points="2,-145.5 2,-164.5 91,-164.5 91,-145.5 2,-145.5"/>
<text text-anchor="middle" x="46.5" y="-152.5" font-family="Helvetica,sans-Serif" font-size="10.00" fill="#000000">mfxVariant::data</text>
</a>
</g>
</g>
<!-- Node3&#45;&gt;Node2 -->
<g id="edge2" class="edge">
<title>Node3&#45;&gt;Node2</title>
<path fill="none" stroke="#9a32cd" stroke-dasharray="5,2" d="M46.5,-135.1079C46.5,-122.714 46.5,-107.3263 46.5,-97.5817"/>
<polygon fill="#9a32cd" stroke="#9a32cd" points="43.0001,-135.4005 46.5,-145.4005 50.0001,-135.4006 43.0001,-135.4005"/>
<text text-anchor="middle" x="59" y="-119" font-family="Helvetica,sans-Serif" font-size="10.00" fill="#000000"> Data</text>
</g>
</g>
</svg>
