<?xml version="1.0" encoding="UTF-8" standalone="no"?>
<!DOCTYPE svg PUBLIC "-//W3C//DTD SVG 1.1//EN"
 "http://www.w3.org/Graphics/SVG/1.1/DTD/svg11.dtd">
<!-- Generated by graphviz version 2.40.1 (20161225.0304)
 -->
<!-- Title: oneapi::vpl::ExtVPPImageStab Pages: 1 -->
<svg width="738pt" height="61pt"
 viewBox="0.00 0.00 738.00 61.00" xmlns="http://www.w3.org/2000/svg" xmlns:xlink="http://www.w3.org/1999/xlink">
<g id="graph0" class="graph" transform="scale(1 1) rotate(0) translate(4 57)">
<title>oneapi::vpl::ExtVPPImageStab</title>
<polygon fill="#ffffff" stroke="transparent" points="-4,4 -4,-57 734,-57 734,4 -4,4"/>
<!-- Node0 -->
<g id="node1" class="node">
<title>Node0</title>
<polygon fill="#bfbfbf" stroke="#000000" points="578,-17 578,-36 730,-36 730,-17 578,-17"/>
<text text-anchor="middle" x="654" y="-24" font-family="Helvetica,sans-Serif" font-size="10.00" fill="#000000">oneapi::vpl::ExtVPPImageStab</text>
</g>
<!-- Node1 -->
<g id="node2" class="node">
<title>Node1</title>
<g id="a_node2"><a xlink:href="classoneapi_1_1vpl_1_1extension__buffer__trival.html" target="_top" xlink:title="oneapi::vpl::extension\l_buffer_trival\&lt; mfxExtVPPImage\lStab, MFX_EXTBUFF_VPP_IMAGE\l_STABILIZATION \&gt;">
<polygon fill="#ffffff" stroke="#000000" points="364,-.5 364,-52.5 542,-52.5 542,-.5 364,-.5"/>
<text text-anchor="start" x="372" y="-40.5" font-family="Helvetica,sans-Serif" font-size="10.00" fill="#000000">oneapi::vpl::extension</text>
<text text-anchor="start" x="372" y="-29.5" font-family="Helvetica,sans-Serif" font-size="10.00" fill="#000000">_buffer_trival&lt; mfxExtVPPImage</text>
<text text-anchor="start" x="372" y="-18.5" font-family="Helvetica,sans-Serif" font-size="10.00" fill="#000000">Stab, MFX_EXTBUFF_VPP_IMAGE</text>
<text text-anchor="middle" x="453" y="-7.5" font-family="Helvetica,sans-Serif" font-size="10.00" fill="#000000">_STABILIZATION &gt;</text>
</a>
</g>
</g>
<!-- Node1&#45;&gt;Node0 -->
<g id="edge1" class="edge">
<title>Node1&#45;&gt;Node0</title>
<path fill="none" stroke="#191970" d="M552.1765,-26.5C560.8301,-26.5 569.4968,-26.5 577.9199,-26.5"/>
<polygon fill="#191970" stroke="#191970" points="552.0393,-23.0001 542.0393,-26.5 552.0393,-30.0001 552.0393,-23.0001"/>
</g>
<!-- Node2 -->
<g id="node3" class="node">
<title>Node2</title>
<g id="a_node3"><a xlink:href="classoneapi_1_1vpl_1_1extension__buffer.html" target="_top" xlink:title="oneapi::vpl::extension\l_buffer\&lt; mfxExtVPPImageStab, ID \&gt;">
<polygon fill="#ffffff" stroke="#000000" points="148,-11.5 148,-41.5 328,-41.5 328,-11.5 148,-11.5"/>
<text text-anchor="start" x="156" y="-29.5" font-family="Helvetica,sans-Serif" font-size="10.00" fill="#000000">oneapi::vpl::extension</text>
<text text-anchor="middle" x="238" y="-18.5" font-family="Helvetica,sans-Serif" font-size="10.00" fill="#000000">_buffer&lt; mfxExtVPPImageStab, ID &gt;</text>
</a>
</g>
</g>
<!-- Node2&#45;&gt;Node1 -->
<g id="edge2" class="edge">
<title>Node2&#45;&gt;Node1</title>
<path fill="none" stroke="#191970" d="M338.466,-26.5C346.8805,-26.5 355.3526,-26.5 363.6751,-26.5"/>
<polygon fill="#191970" stroke="#191970" points="338.2449,-23.0001 328.2449,-26.5 338.2448,-30.0001 338.2449,-23.0001"/>
</g>
<!-- Node3 -->
<g id="node4" class="node">
<title>Node3</title>
<g id="a_node4"><a xlink:href="classoneapi_1_1vpl_1_1extension__buffer__base.html" target="_top" xlink:title="Interface definition for extension buffers. Extension buffers are used to provide additional data for...">
<polygon fill="#ffffff" stroke="#000000" points="0,-11.5 0,-41.5 112,-41.5 112,-11.5 0,-11.5"/>
<text text-anchor="start" x="8" y="-29.5" font-family="Helvetica,sans-Serif" font-size="10.00" fill="#000000">oneapi::vpl::extension</text>
<text text-anchor="middle" x="56" y="-18.5" font-family="Helvetica,sans-Serif" font-size="10.00" fill="#000000">_buffer_base</text>
</a>
</g>
</g>
<!-- Node3&#45;&gt;Node2 -->
<g id="edge3" class="edge">
<title>Node3&#45;&gt;Node2</title>
<path fill="none" stroke="#191970" d="M122.1577,-26.5C130.5521,-26.5 139.252,-26.5 147.9404,-26.5"/>
<polygon fill="#191970" stroke="#191970" points="122.0911,-23.0001 112.0911,-26.5 122.091,-30.0001 122.0911,-23.0001"/>
</g>
</g>
</svg>
