<?xml version="1.0" encoding="UTF-8" standalone="no"?>
<!DOCTYPE svg PUBLIC "-//W3C//DTD SVG 1.1//EN"
 "http://www.w3.org/Graphics/SVG/1.1/DTD/svg11.dtd">
<!-- Generated by graphviz version 2.40.1 (20161225.0304)
 -->
<!-- Title: oneapi::vpl::ExtVppMctf Pages: 1 -->
<svg width="224pt" height="253pt"
 viewBox="0.00 0.00 223.50 253.00" xmlns="http://www.w3.org/2000/svg" xmlns:xlink="http://www.w3.org/1999/xlink">
<g id="graph0" class="graph" transform="scale(1 1) rotate(0) translate(4 249)">
<title>oneapi::vpl::ExtVppMctf</title>
<polygon fill="#ffffff" stroke="transparent" points="-4,4 -4,-249 219.5,-249 219.5,4 -4,4"/>
<!-- Node4 -->
<g id="node1" class="node">
<title>Node4</title>
<polygon fill="#bfbfbf" stroke="#000000" points="53,-.5 53,-19.5 175,-19.5 175,-.5 53,-.5"/>
<text text-anchor="middle" x="114" y="-7.5" font-family="Helvetica,sans-Serif" font-size="10.00" fill="#000000">oneapi::vpl::ExtVppMctf</text>
</g>
<!-- Node5 -->
<g id="node2" class="node">
<title>Node5</title>
<g id="a_node2"><a xlink:href="classoneapi_1_1vpl_1_1extension__buffer__trival.html" target="_top" xlink:title="oneapi::vpl::extension\l_buffer_trival\&lt; mfxExtVppMctf,\l MFX_EXTBUFF_VPP_MCTF \&gt;">
<polygon fill="#ffffff" stroke="#000000" points="34.5,-57.5 34.5,-98.5 193.5,-98.5 193.5,-57.5 34.5,-57.5"/>
<text text-anchor="start" x="42.5" y="-86.5" font-family="Helvetica,sans-Serif" font-size="10.00" fill="#000000">oneapi::vpl::extension</text>
<text text-anchor="start" x="42.5" y="-75.5" font-family="Helvetica,sans-Serif" font-size="10.00" fill="#000000">_buffer_trival&lt; mfxExtVppMctf,</text>
<text text-anchor="middle" x="114" y="-64.5" font-family="Helvetica,sans-Serif" font-size="10.00" fill="#000000"> MFX_EXTBUFF_VPP_MCTF &gt;</text>
</a>
</g>
</g>
<!-- Node5&#45;&gt;Node4 -->
<g id="edge1" class="edge">
<title>Node5&#45;&gt;Node4</title>
<path fill="none" stroke="#191970" d="M114,-47.1423C114,-37.1999 114,-26.896 114,-19.6705"/>
<polygon fill="#191970" stroke="#191970" points="110.5001,-47.2282 114,-57.2283 117.5001,-47.2283 110.5001,-47.2282"/>
</g>
<!-- Node6 -->
<g id="node3" class="node">
<title>Node6</title>
<g id="a_node3"><a xlink:href="classoneapi_1_1vpl_1_1extension__buffer.html" target="_top" xlink:title="oneapi::vpl::extension\l_buffer\&lt; mfxExtVppMctf, ID \&gt;">
<polygon fill="#ffffff" stroke="#000000" points="39.5,-136.5 39.5,-166.5 188.5,-166.5 188.5,-136.5 39.5,-136.5"/>
<text text-anchor="start" x="47.5" y="-154.5" font-family="Helvetica,sans-Serif" font-size="10.00" fill="#000000">oneapi::vpl::extension</text>
<text text-anchor="middle" x="114" y="-143.5" font-family="Helvetica,sans-Serif" font-size="10.00" fill="#000000">_buffer&lt; mfxExtVppMctf, ID &gt;</text>
</a>
</g>
</g>
<!-- Node6&#45;&gt;Node5 -->
<g id="edge2" class="edge">
<title>Node6&#45;&gt;Node5</title>
<path fill="none" stroke="#191970" d="M114,-126.2668C114,-117.2098 114,-107.1146 114,-98.5074"/>
<polygon fill="#191970" stroke="#191970" points="110.5001,-126.2707 114,-136.2708 117.5001,-126.2708 110.5001,-126.2707"/>
</g>
<!-- Node7 -->
<g id="node4" class="node">
<title>Node7</title>
<g id="a_node4"><a xlink:href="classoneapi_1_1vpl_1_1extension__buffer__base.html" target="_top" xlink:title="Interface definition for extension buffers. Extension buffers are used to provide additional data for...">
<polygon fill="#ffffff" stroke="#000000" points="0,-214.5 0,-244.5 112,-244.5 112,-214.5 0,-214.5"/>
<text text-anchor="start" x="8" y="-232.5" font-family="Helvetica,sans-Serif" font-size="10.00" fill="#000000">oneapi::vpl::extension</text>
<text text-anchor="middle" x="56" y="-221.5" font-family="Helvetica,sans-Serif" font-size="10.00" fill="#000000">_buffer_base</text>
</a>
</g>
</g>
<!-- Node7&#45;&gt;Node6 -->
<g id="edge3" class="edge">
<title>Node7&#45;&gt;Node6</title>
<path fill="none" stroke="#191970" d="M73.3669,-206.1445C82.8493,-193.3923 94.3208,-177.9652 102.6534,-166.7592"/>
<polygon fill="#191970" stroke="#191970" points="70.3414,-204.3477 67.183,-214.4608 75.9587,-208.5246 70.3414,-204.3477"/>
</g>
<!-- Node8 -->
<g id="node5" class="node">
<title>Node8</title>
<g id="a_node5"><a xlink:href="structmfxExtVppMctf.html" target="_top" xlink:title="mfxExtVppMctf">
<polygon fill="#ffffff" stroke="#000000" points="130.5,-220 130.5,-239 215.5,-239 215.5,-220 130.5,-220"/>
<text text-anchor="middle" x="173" y="-227" font-family="Helvetica,sans-Serif" font-size="10.00" fill="#000000">mfxExtVppMctf</text>
</a>
</g>
</g>
<!-- Node8&#45;&gt;Node6 -->
<g id="edge4" class="edge">
<title>Node8&#45;&gt;Node6</title>
<path fill="none" stroke="#9a32cd" stroke-dasharray="5,2" d="M159.6468,-211.8466C149.3817,-198.2759 135.3469,-179.7214 125.5597,-166.7824"/>
<polygon fill="#9a32cd" stroke="#9a32cd" points="156.9413,-214.0717 165.7654,-219.9357 162.5241,-209.8488 156.9413,-214.0717"/>
<text text-anchor="middle" x="164" y="-188" font-family="Helvetica,sans-Serif" font-size="10.00" fill="#000000"> buffer_</text>
</g>
</g>
</svg>
