<?xml version="1.0" encoding="UTF-8" standalone="no"?>
<!DOCTYPE svg PUBLIC "-//W3C//DTD SVG 1.1//EN"
 "http://www.w3.org/Graphics/SVG/1.1/DTD/svg11.dtd">
<!-- Generated by graphviz version 2.40.1 (20161225.0304)
 -->
<!-- Title: oneapi::vpl::source_reader Pages: 1 -->
<svg width="405pt" height="186pt"
 viewBox="0.00 0.00 405.00 186.00" xmlns="http://www.w3.org/2000/svg" xmlns:xlink="http://www.w3.org/1999/xlink">
<g id="graph0" class="graph" transform="scale(1 1) rotate(0) translate(4 182)">
<title>oneapi::vpl::source_reader</title>
<polygon fill="#ffffff" stroke="transparent" points="-4,4 -4,-182 401,-182 401,4 -4,4"/>
<!-- Node0 -->
<g id="node1" class="node">
<title>Node0</title>
<polygon fill="#bfbfbf" stroke="#000000" points="0,-73.5 0,-103.5 99,-103.5 99,-73.5 0,-73.5"/>
<text text-anchor="start" x="8" y="-91.5" font-family="Helvetica,sans-Serif" font-size="10.00" fill="#000000">oneapi::vpl::source</text>
<text text-anchor="middle" x="49.5" y="-80.5" font-family="Helvetica,sans-Serif" font-size="10.00" fill="#000000">_reader</text>
</g>
<!-- Node1 -->
<g id="node2" class="node">
<title>Node1</title>
<g id="a_node2"><a xlink:href="classoneapi_1_1vpl_1_1bitstream__source__reader.html" target="_top" xlink:title="Interface for the bitstream source data reader. ">
<polygon fill="#ffffff" stroke="#000000" points="135,-98.5 135,-128.5 245,-128.5 245,-98.5 135,-98.5"/>
<text text-anchor="start" x="143" y="-116.5" font-family="Helvetica,sans-Serif" font-size="10.00" fill="#000000">oneapi::vpl::bitstream</text>
<text text-anchor="middle" x="190" y="-105.5" font-family="Helvetica,sans-Serif" font-size="10.00" fill="#000000">_source_reader</text>
</a>
</g>
</g>
<!-- Node0&#45;&gt;Node1 -->
<g id="edge1" class="edge">
<title>Node0&#45;&gt;Node1</title>
<path fill="none" stroke="#191970" d="M108.9305,-99.0748C117.4721,-100.5947 126.2323,-102.1534 134.6897,-103.6583"/>
<polygon fill="#191970" stroke="#191970" points="109.4936,-95.6201 99.035,-97.3141 108.2672,-102.5119 109.4936,-95.6201"/>
</g>
<!-- Node4 -->
<g id="node5" class="node">
<title>Node4</title>
<g id="a_node5"><a xlink:href="classoneapi_1_1vpl_1_1frame__source__reader.html" target="_top" xlink:title="Interface for the frame source data reader. ">
<polygon fill="#ffffff" stroke="#000000" points="142.5,-49.5 142.5,-79.5 237.5,-79.5 237.5,-49.5 142.5,-49.5"/>
<text text-anchor="start" x="150.5" y="-67.5" font-family="Helvetica,sans-Serif" font-size="10.00" fill="#000000">oneapi::vpl::frame</text>
<text text-anchor="middle" x="190" y="-56.5" font-family="Helvetica,sans-Serif" font-size="10.00" fill="#000000">_source_reader</text>
</a>
</g>
</g>
<!-- Node0&#45;&gt;Node4 -->
<g id="edge4" class="edge">
<title>Node0&#45;&gt;Node4</title>
<path fill="none" stroke="#191970" d="M109.0907,-78.3208C120.1872,-76.4253 131.6469,-74.4678 142.3274,-72.6434"/>
<polygon fill="#191970" stroke="#191970" points="108.3029,-74.9046 99.035,-80.0385 109.4816,-81.8046 108.3029,-74.9046"/>
</g>
<!-- Node2 -->
<g id="node3" class="node">
<title>Node2</title>
<g id="a_node3"><a xlink:href="classoneapi_1_1vpl_1_1bitstream__file__reader.html" target="_top" xlink:title="File based source data reader. ">
<polygon fill="#ffffff" stroke="#000000" points="284,-147.5 284,-177.5 394,-177.5 394,-147.5 284,-147.5"/>
<text text-anchor="start" x="292" y="-165.5" font-family="Helvetica,sans-Serif" font-size="10.00" fill="#000000">oneapi::vpl::bitstream</text>
<text text-anchor="middle" x="339" y="-154.5" font-family="Helvetica,sans-Serif" font-size="10.00" fill="#000000">_file_reader</text>
</a>
</g>
</g>
<!-- Node1&#45;&gt;Node2 -->
<g id="edge2" class="edge">
<title>Node1&#45;&gt;Node2</title>
<path fill="none" stroke="#191970" d="M245.5225,-131.7591C261.238,-136.9273 278.1606,-142.4924 293.2309,-147.4484"/>
<polygon fill="#191970" stroke="#191970" points="246.5136,-128.4007 235.9207,-128.6014 244.3268,-135.0503 246.5136,-128.4007"/>
</g>
<!-- Node3 -->
<g id="node4" class="node">
<title>Node3</title>
<g id="a_node4"><a xlink:href="classoneapi_1_1vpl_1_1bitstream__file__reader__name.html" target="_top" xlink:title="oneapi::vpl::bitstream\l_file_reader_name">
<polygon fill="#ffffff" stroke="#000000" points="284,-98.5 284,-128.5 394,-128.5 394,-98.5 284,-98.5"/>
<text text-anchor="start" x="292" y="-116.5" font-family="Helvetica,sans-Serif" font-size="10.00" fill="#000000">oneapi::vpl::bitstream</text>
<text text-anchor="middle" x="339" y="-105.5" font-family="Helvetica,sans-Serif" font-size="10.00" fill="#000000">_file_reader_name</text>
</a>
</g>
</g>
<!-- Node1&#45;&gt;Node3 -->
<g id="edge3" class="edge">
<title>Node1&#45;&gt;Node3</title>
<path fill="none" stroke="#191970" d="M255.2391,-113.5C264.722,-113.5 274.4081,-113.5 283.6701,-113.5"/>
<polygon fill="#191970" stroke="#191970" points="255.0588,-110.0001 245.0588,-113.5 255.0587,-117.0001 255.0588,-110.0001"/>
</g>
<!-- Node5 -->
<g id="node6" class="node">
<title>Node5</title>
<g id="a_node6"><a xlink:href="classoneapi_1_1vpl_1_1raw__frame__file__reader.html" target="_top" xlink:title="File based reader of uncomressed frames. ">
<polygon fill="#ffffff" stroke="#000000" points="281,-49.5 281,-79.5 397,-79.5 397,-49.5 281,-49.5"/>
<text text-anchor="start" x="289" y="-67.5" font-family="Helvetica,sans-Serif" font-size="10.00" fill="#000000">oneapi::vpl::raw_frame</text>
<text text-anchor="middle" x="339" y="-56.5" font-family="Helvetica,sans-Serif" font-size="10.00" fill="#000000">_file_reader</text>
</a>
</g>
</g>
<!-- Node4&#45;&gt;Node5 -->
<g id="edge5" class="edge">
<title>Node4&#45;&gt;Node5</title>
<path fill="none" stroke="#191970" d="M247.797,-64.5C258.6743,-64.5 270.0524,-64.5 280.9377,-64.5"/>
<polygon fill="#191970" stroke="#191970" points="247.5542,-61.0001 237.5542,-64.5 247.5542,-68.0001 247.5542,-61.0001"/>
</g>
<!-- Node6 -->
<g id="node7" class="node">
<title>Node6</title>
<g id="a_node7"><a xlink:href="classoneapi_1_1vpl_1_1raw__frame__file__reader__by__name.html" target="_top" xlink:title="File based reder of uncomressed frames. ">
<polygon fill="#ffffff" stroke="#000000" points="281,-.5 281,-30.5 397,-30.5 397,-.5 281,-.5"/>
<text text-anchor="start" x="289" y="-18.5" font-family="Helvetica,sans-Serif" font-size="10.00" fill="#000000">oneapi::vpl::raw_frame</text>
<text text-anchor="middle" x="339" y="-7.5" font-family="Helvetica,sans-Serif" font-size="10.00" fill="#000000">_file_reader_by_name</text>
</a>
</g>
</g>
<!-- Node4&#45;&gt;Node6 -->
<g id="edge6" class="edge">
<title>Node4&#45;&gt;Node6</title>
<path fill="none" stroke="#191970" d="M245.5225,-46.2409C261.238,-41.0727 278.1606,-35.5076 293.2309,-30.5516"/>
<polygon fill="#191970" stroke="#191970" points="244.3268,-42.9497 235.9207,-49.3986 246.5136,-49.5993 244.3268,-42.9497"/>
</g>
</g>
</svg>
