<?xml version="1.0" encoding="UTF-8" standalone="no"?>
<!DOCTYPE svg PUBLIC "-//W3C//DTD SVG 1.1//EN"
 "http://www.w3.org/Graphics/SVG/1.1/DTD/svg11.dtd">
<!-- Generated by graphviz version 2.40.1 (20161225.0304)
 -->
<!-- Title: oneapi::vpl::raw_frame_file_reader Pages: 1 -->
<svg width="124pt" height="173pt"
 viewBox="0.00 0.00 124.00 173.00" xmlns="http://www.w3.org/2000/svg" xmlns:xlink="http://www.w3.org/1999/xlink">
<g id="graph0" class="graph" transform="scale(1 1) rotate(0) translate(4 169)">
<title>oneapi::vpl::raw_frame_file_reader</title>
<polygon fill="#ffffff" stroke="transparent" points="-4,4 -4,-169 120,-169 120,4 -4,4"/>
<!-- Node0 -->
<g id="node1" class="node">
<title>Node0</title>
<polygon fill="#bfbfbf" stroke="#000000" points="0,-.5 0,-30.5 116,-30.5 116,-.5 0,-.5"/>
<text text-anchor="start" x="8" y="-18.5" font-family="Helvetica,sans-Serif" font-size="10.00" fill="#000000">oneapi::vpl::raw_frame</text>
<text text-anchor="middle" x="58" y="-7.5" font-family="Helvetica,sans-Serif" font-size="10.00" fill="#000000">_file_reader</text>
</g>
<!-- Node1 -->
<g id="node2" class="node">
<title>Node1</title>
<g id="a_node2"><a xlink:href="classoneapi_1_1vpl_1_1frame__source__reader.html" target="_top" xlink:title="Interface for the frame source data reader. ">
<polygon fill="#ffffff" stroke="#000000" points="10.5,-67.5 10.5,-97.5 105.5,-97.5 105.5,-67.5 10.5,-67.5"/>
<text text-anchor="start" x="18.5" y="-85.5" font-family="Helvetica,sans-Serif" font-size="10.00" fill="#000000">oneapi::vpl::frame</text>
<text text-anchor="middle" x="58" y="-74.5" font-family="Helvetica,sans-Serif" font-size="10.00" fill="#000000">_source_reader</text>
</a>
</g>
</g>
<!-- Node1&#45;&gt;Node0 -->
<g id="edge1" class="edge">
<title>Node1&#45;&gt;Node0</title>
<path fill="none" stroke="#191970" d="M58,-57.0249C58,-48.128 58,-38.4287 58,-30.6432"/>
<polygon fill="#191970" stroke="#191970" points="54.5001,-57.2966 58,-67.2967 61.5001,-57.2967 54.5001,-57.2966"/>
</g>
<!-- Node2 -->
<g id="node3" class="node">
<title>Node2</title>
<g id="a_node3"><a xlink:href="classoneapi_1_1vpl_1_1source__reader.html" target="_top" xlink:title="Interface for the source data reader. ">
<polygon fill="#ffffff" stroke="#000000" points="8.5,-134.5 8.5,-164.5 107.5,-164.5 107.5,-134.5 8.5,-134.5"/>
<text text-anchor="start" x="16.5" y="-152.5" font-family="Helvetica,sans-Serif" font-size="10.00" fill="#000000">oneapi::vpl::source</text>
<text text-anchor="middle" x="58" y="-141.5" font-family="Helvetica,sans-Serif" font-size="10.00" fill="#000000">_reader</text>
</a>
</g>
</g>
<!-- Node2&#45;&gt;Node1 -->
<g id="edge2" class="edge">
<title>Node2&#45;&gt;Node1</title>
<path fill="none" stroke="#191970" d="M58,-124.0249C58,-115.128 58,-105.4287 58,-97.6432"/>
<polygon fill="#191970" stroke="#191970" points="54.5001,-124.2966 58,-134.2967 61.5001,-124.2967 54.5001,-124.2966"/>
</g>
</g>
</svg>
