<?xml version="1.0" encoding="UTF-8" standalone="no"?>
<!DOCTYPE svg PUBLIC "-//W3C//DTD SVG 1.1//EN"
 "http://www.w3.org/Graphics/SVG/1.1/DTD/svg11.dtd">
<!-- Generated by graphviz version 2.40.1 (20161225.0304)
 -->
<!-- Title: oneapi::vpl::vpp_session Pages: 1 -->
<!--zoomable 159 -->
<svg id="main" version="1.1" xmlns="http://www.w3.org/2000/svg" xmlns:xlink="http://www.w3.org/1999/xlink" xml:space="preserve" onload="init(evt)">
<style type="text/css"><![CDATA[
.edge:hover path { stroke: red; }
.edge:hover polygon { stroke: red; fill: red; }
]]></style>
<script type="text/javascript"><![CDATA[
var edges = document.getElementsByTagName('g');
if (edges && edges.length) {
  for (var i=0;i<edges.length;i++) {
    if (edges[i].id.substr(0,4)=='edge') {
      edges[i].setAttribute('class','edge');
    }
  }
}
]]></script>
        <defs>
                <circle id="rim" cx="0" cy="0" r="7"/>
                <circle id="rim2" cx="0" cy="0" r="3.5"/>
                <g id="zoomPlus">
                        <use xlink:href="#rim" fill="#404040">
                                <set attributeName="fill" to="#808080" begin="zoomplus.mouseover" end="zoomplus.mouseout"/>
                        </use>
                        <path d="M-4,0h8M0,-4v8" fill="none" stroke="white" stroke-width="1.5" pointer-events="none"/>
                </g>
                <g id="zoomMin">
                        <use xlink:href="#rim" fill="#404040">
                                <set attributeName="fill" to="#808080" begin="zoomminus.mouseover" end="zoomminus.mouseout"/>
                        </use>
                        <path d="M-4,0h8" fill="none" stroke="white" stroke-width="1.5" pointer-events="none"/>
                </g>
                <g id="dirArrow">
                        <path fill="none" stroke="white" stroke-width="1.5" d="M0,-3.0v7 M-2.5,-0.5L0,-3.0L2.5,-0.5"/>
                </g>
               <g id="resetDef">
                       <use xlink:href="#rim2" fill="#404040">
                               <set attributeName="fill" to="#808080" begin="reset.mouseover" end="reset.mouseout"/>
                       </use>
               </g>
        </defs>

<script type="text/javascript">
var viewWidth = 764;
var viewHeight = 159;
var sectionId = 'dynsection-1';
</script>
<script xlink:href="svgpan.js"/>
<svg id="graph" class="graph">
<g id="viewport">
<title>oneapi::vpl::vpp_session</title>
<polygon fill="#ffffff" stroke="transparent" points="-4,4 -4,-155 760,-155 760,4 -4,4"/>
<!-- Node2 -->
<g id="node1" class="node">
<title>Node2</title>
<polygon fill="#bfbfbf" stroke="#000000" points="631,-55 631,-74 756,-74 756,-55 631,-55"/>
<text text-anchor="middle" x="693.5" y="-62" font-family="Helvetica,sans-Serif" font-size="10.00" fill="#000000">oneapi::vpl::vpp_session</text>
</g>
<!-- Node3 -->
<g id="node2" class="node">
<title>Node3</title>
<g id="a_node2"><a xlink:href="classoneapi_1_1vpl_1_1session.html" target="_top" xlink:title="oneapi::vpl::session\l\&lt; vpp_video_param, vpp\l_init_reset_list, vpp_init\l_reset_list \&gt;">
<polygon fill="#ffffff" stroke="#000000" points="371,-98.5 371,-150.5 495,-150.5 495,-98.5 371,-98.5"/>
<text text-anchor="start" x="379" y="-138.5" font-family="Helvetica,sans-Serif" font-size="10.00" fill="#000000">oneapi::vpl::session</text>
<text text-anchor="start" x="379" y="-127.5" font-family="Helvetica,sans-Serif" font-size="10.00" fill="#000000">&lt; vpp_video_param, vpp</text>
<text text-anchor="start" x="379" y="-116.5" font-family="Helvetica,sans-Serif" font-size="10.00" fill="#000000">_init_reset_list, vpp_init</text>
<text text-anchor="middle" x="433" y="-105.5" font-family="Helvetica,sans-Serif" font-size="10.00" fill="#000000">_reset_list &gt;</text>
</a>
</g>
</g>
<!-- Node3&#45;&gt;Node2 -->
<g id="edge1" class="edge">
<title>Node3&#45;&gt;Node2</title>
<path fill="none" stroke="#191970" d="M504.9701,-107.9234C552.3668,-97.0067 612.7337,-83.1026 652.2146,-74.0091"/>
<polygon fill="#191970" stroke="#191970" points="504.0245,-104.5495 495.0653,-110.2047 505.5957,-111.3709 504.0245,-104.5495"/>
</g>
<!-- Node4 -->
<g id="node3" class="node">
<title>Node4</title>
<g id="a_node3"><a xlink:href="structoneapi_1_1vpl_1_1detail_1_1sdk__c__api.html" target="_top" xlink:title="Underlying C API Functions table. It is initialized either for encoder or foe decoder or forVPP...">
<polygon fill="#ffffff" stroke="#000000" points="160.5,-109.5 160.5,-139.5 253.5,-139.5 253.5,-109.5 160.5,-109.5"/>
<text text-anchor="start" x="168.5" y="-127.5" font-family="Helvetica,sans-Serif" font-size="10.00" fill="#000000">oneapi::vpl::detail</text>
<text text-anchor="middle" x="207" y="-116.5" font-family="Helvetica,sans-Serif" font-size="10.00" fill="#000000">::sdk_c_api</text>
</a>
</g>
</g>
<!-- Node4&#45;&gt;Node3 -->
<g id="edge2" class="edge">
<title>Node4&#45;&gt;Node3</title>
<path fill="none" stroke="#9a32cd" stroke-dasharray="5,2" d="M263.8047,-124.5C296.3432,-124.5 337.2209,-124.5 370.6451,-124.5"/>
<polygon fill="#9a32cd" stroke="#9a32cd" points="263.5534,-121.0001 253.5533,-124.5 263.5533,-128.0001 263.5534,-121.0001"/>
<text text-anchor="middle" x="318" y="-127.5" font-family="Helvetica,sans-Serif" font-size="10.00" fill="#000000"> c_api_callable_</text>
</g>
<!-- Node5 -->
<g id="node4" class="node">
<title>Node5</title>
<g id="a_node4"><a xlink:href="classoneapi_1_1vpl_1_1temporal__frame__allocator.html" target="_top" xlink:title="Temporal class to allocate and manage pool of the surfaces. ">
<polygon fill="#ffffff" stroke="#000000" points="379.5,-49.5 379.5,-79.5 486.5,-79.5 486.5,-49.5 379.5,-49.5"/>
<text text-anchor="start" x="387.5" y="-67.5" font-family="Helvetica,sans-Serif" font-size="10.00" fill="#000000">oneapi::vpl::temporal</text>
<text text-anchor="middle" x="433" y="-56.5" font-family="Helvetica,sans-Serif" font-size="10.00" fill="#000000">_frame_allocator</text>
</a>
</g>
</g>
<!-- Node5&#45;&gt;Node2 -->
<g id="edge3" class="edge">
<title>Node5&#45;&gt;Node2</title>
<path fill="none" stroke="#9a32cd" stroke-dasharray="5,2" d="M496.7541,-64.5C537.5219,-64.5 590.1664,-64.5 630.7392,-64.5"/>
<polygon fill="#9a32cd" stroke="#9a32cd" points="496.6599,-61.0001 486.6599,-64.5 496.6599,-68.0001 496.6599,-61.0001"/>
<text text-anchor="middle" x="563" y="-67.5" font-family="Helvetica,sans-Serif" font-size="10.00" fill="#000000"> out_frames_allocator_</text>
</g>
<!-- Node6 -->
<g id="node5" class="node">
<title>Node6</title>
<g id="a_node5"><a xlink:href="classoneapi_1_1vpl_1_1frame__info.html" target="_top" xlink:title="Holds general frame related params. ">
<polygon fill="#ffffff" stroke="#000000" points="149,-55 149,-74 265,-74 265,-55 149,-55"/>
<text text-anchor="middle" x="207" y="-62" font-family="Helvetica,sans-Serif" font-size="10.00" fill="#000000">oneapi::vpl::frame_info</text>
</a>
</g>
</g>
<!-- Node6&#45;&gt;Node5 -->
<g id="edge4" class="edge">
<title>Node6&#45;&gt;Node5</title>
<path fill="none" stroke="#9a32cd" stroke-dasharray="5,2" d="M275.3258,-64.5C308.6421,-64.5 348.1339,-64.5 379.2598,-64.5"/>
<polygon fill="#9a32cd" stroke="#9a32cd" points="275.2007,-61.0001 265.2006,-64.5 275.2006,-68.0001 275.2007,-61.0001"/>
<text text-anchor="middle" x="318" y="-67.5" font-family="Helvetica,sans-Serif" font-size="10.00" fill="#000000"> info_</text>
</g>
<!-- Node7 -->
<g id="node6" class="node">
<title>Node7</title>
<g id="a_node6"><a xlink:href="structmfxFrameInfo.html" target="_top" xlink:title="mfxFrameInfo">
<polygon fill="#ffffff" stroke="#000000" points="0,-55 0,-74 77,-74 77,-55 0,-55"/>
<text text-anchor="middle" x="38.5" y="-62" font-family="Helvetica,sans-Serif" font-size="10.00" fill="#000000">mfxFrameInfo</text>
</a>
</g>
</g>
<!-- Node7&#45;&gt;Node6 -->
<g id="edge5" class="edge">
<title>Node7&#45;&gt;Node6</title>
<path fill="none" stroke="#9a32cd" stroke-dasharray="5,2" d="M87.1908,-64.5C106.3985,-64.5 128.6263,-64.5 148.6818,-64.5"/>
<polygon fill="#9a32cd" stroke="#9a32cd" points="87.1573,-61.0001 77.1573,-64.5 87.1573,-68.0001 87.1573,-61.0001"/>
<text text-anchor="middle" x="113" y="-67.5" font-family="Helvetica,sans-Serif" font-size="10.00" fill="#000000"> param_</text>
</g>
<!-- Node8 -->
<g id="node7" class="node">
<title>Node8</title>
<g id="a_node7"><a xlink:href="classoneapi_1_1vpl_1_1frame__source__reader.html" target="_top" xlink:title="Interface for the frame source data reader. ">
<polygon fill="#ffffff" stroke="#000000" points="385.5,-.5 385.5,-30.5 480.5,-30.5 480.5,-.5 385.5,-.5"/>
<text text-anchor="start" x="393.5" y="-18.5" font-family="Helvetica,sans-Serif" font-size="10.00" fill="#000000">oneapi::vpl::frame</text>
<text text-anchor="middle" x="433" y="-7.5" font-family="Helvetica,sans-Serif" font-size="10.00" fill="#000000">_source_reader</text>
</a>
</g>
</g>
<!-- Node8&#45;&gt;Node2 -->
<g id="edge6" class="edge">
<title>Node8&#45;&gt;Node2</title>
<path fill="none" stroke="#9a32cd" stroke-dasharray="5,2" d="M490.807,-26.3735C536.3835,-34.9464 599.3132,-46.7835 642.9109,-54.9842"/>
<polygon fill="#9a32cd" stroke="#9a32cd" points="491.2544,-22.8963 480.7797,-24.4874 489.9603,-29.7757 491.2544,-22.8963"/>
<text text-anchor="middle" x="563" y="-52.5" font-family="Helvetica,sans-Serif" font-size="10.00" fill="#000000"> rdr_</text>
</g>
<!-- Node9 -->
<g id="node8" class="node">
<title>Node9</title>
<g id="a_node8"><a xlink:href="classoneapi_1_1vpl_1_1source__reader.html" target="_top" xlink:title="Interface for the source data reader. ">
<polygon fill="#ffffff" stroke="#000000" points="157.5,-.5 157.5,-30.5 256.5,-30.5 256.5,-.5 157.5,-.5"/>
<text text-anchor="start" x="165.5" y="-18.5" font-family="Helvetica,sans-Serif" font-size="10.00" fill="#000000">oneapi::vpl::source</text>
<text text-anchor="middle" x="207" y="-7.5" font-family="Helvetica,sans-Serif" font-size="10.00" fill="#000000">_reader</text>
</a>
</g>
</g>
<!-- Node9&#45;&gt;Node8 -->
<g id="edge7" class="edge">
<title>Node9&#45;&gt;Node8</title>
<path fill="none" stroke="#191970" d="M266.7791,-15.5C303.8789,-15.5 350.8982,-15.5 385.454,-15.5"/>
<polygon fill="#191970" stroke="#191970" points="266.5967,-12.0001 256.5967,-15.5 266.5966,-19.0001 266.5967,-12.0001"/>
</g>
</g>
</svg>
        <g id="navigator" transform="translate(0 0)" fill="#404254">
                <rect fill="#f2f5e9" fill-opacity="0.5" stroke="#606060" stroke-width=".5" x="0" y="0" width="60" height="60"/>
                <use id="zoomplus" xlink:href="#zoomPlus" x="17" y="9" onmousedown="handleZoom(evt,'in')"/>
                <use id="zoomminus" xlink:href="#zoomMin" x="42" y="9" onmousedown="handleZoom(evt,'out')"/>
                <use id="reset" xlink:href="#resetDef" x="30" y="36" onmousedown="handleReset()"/>
                <g id="arrowUp" xlink:href="#dirArrow" transform="translate(30 24)" onmousedown="handlePan(0,-1)">
                  <use xlink:href="#rim" fill="#404040">
                        <set attributeName="fill" to="#808080" begin="arrowUp.mouseover" end="arrowUp.mouseout"/>
                  </use>
                  <path fill="none" stroke="white" stroke-width="1.5" d="M0,-3.0v7 M-2.5,-0.5L0,-3.0L2.5,-0.5"/>
                </g>
                <g id="arrowRight" xlink:href="#dirArrow" transform="rotate(90) translate(36 -43)" onmousedown="handlePan(1,0)">
                  <use xlink:href="#rim" fill="#404040">
                        <set attributeName="fill" to="#808080" begin="arrowRight.mouseover" end="arrowRight.mouseout"/>
                  </use>
                  <path fill="none" stroke="white" stroke-width="1.5" d="M0,-3.0v7 M-2.5,-0.5L0,-3.0L2.5,-0.5"/>
                </g>
                <g id="arrowDown" xlink:href="#dirArrow" transform="rotate(180) translate(-30 -48)" onmousedown="handlePan(0,1)">
                  <use xlink:href="#rim" fill="#404040">
                        <set attributeName="fill" to="#808080" begin="arrowDown.mouseover" end="arrowDown.mouseout"/>
                  </use>
                  <path fill="none" stroke="white" stroke-width="1.5" d="M0,-3.0v7 M-2.5,-0.5L0,-3.0L2.5,-0.5"/>
                </g>
                <g id="arrowLeft" xlink:href="#dirArrow" transform="rotate(270) translate(-36 17)" onmousedown="handlePan(-1,0)">
                  <use xlink:href="#rim" fill="#404040">
                        <set attributeName="fill" to="#808080" begin="arrowLeft.mouseover" end="arrowLeft.mouseout"/>
                  </use>
                  <path fill="none" stroke="white" stroke-width="1.5" d="M0,-3.0v7 M-2.5,-0.5L0,-3.0L2.5,-0.5"/>
                </g>
        </g>
        <svg viewBox="0 0 15 15" width="100%" height="30px" preserveAspectRatio="xMaxYMin meet">
         <g id="arrow_out" transform="scale(0.3 0.3)">
          <a xlink:href="classoneapi_1_1vpl_1_1vpp__session__coll__graph_org.svg" target="_base">
           <rect id="button" ry="5" rx="5" y="6" x="6" height="38" width="38"
                fill="#f2f5e9" fill-opacity="0.5" stroke="#606060" stroke-width="1.0"/>
           <path id="arrow"
             d="M 11.500037,31.436501 C 11.940474,20.09759 22.043105,11.32322 32.158766,21.979434 L 37.068811,17.246167 C 37.068811,17.246167 37.088388,32 37.088388,32 L 22.160133,31.978069 C 22.160133,31.978069 26.997745,27.140456 26.997745,27.140456 C 18.528582,18.264221 13.291696,25.230495 11.500037,31.436501 z"
             style="fill:#404040;"/>
          </a>
         </g>
        </svg>
</svg>
