<?xml version="1.0" encoding="UTF-8" standalone="no"?>
<!DOCTYPE svg PUBLIC "-//W3C//DTD SVG 1.1//EN"
 "http://www.w3.org/Graphics/SVG/1.1/DTD/svg11.dtd">
<!-- Generated by graphviz version 2.40.1 (20161225.0304)
 -->
<!-- Title: oneapi::vpl::extension_buffer_with_ptrs&lt; T, ID &gt; Pages: 1 -->
<svg width="140pt" height="173pt"
 viewBox="0.00 0.00 140.00 173.00" xmlns="http://www.w3.org/2000/svg" xmlns:xlink="http://www.w3.org/1999/xlink">
<g id="graph0" class="graph" transform="scale(1 1) rotate(0) translate(4 169)">
<title>oneapi::vpl::extension_buffer_with_ptrs&lt; T, ID &gt;</title>
<polygon fill="#ffffff" stroke="transparent" points="-4,4 -4,-169 136,-169 136,4 -4,4"/>
<!-- Node0 -->
<g id="node1" class="node">
<title>Node0</title>
<polygon fill="#bfbfbf" stroke="#000000" points="0,-.5 0,-30.5 132,-30.5 132,-.5 0,-.5"/>
<text text-anchor="start" x="8" y="-18.5" font-family="Helvetica,sans-Serif" font-size="10.00" fill="#000000">oneapi::vpl::extension</text>
<text text-anchor="middle" x="66" y="-7.5" font-family="Helvetica,sans-Serif" font-size="10.00" fill="#000000">_buffer_with_ptrs&lt; T, ID &gt;</text>
</g>
<!-- Node1 -->
<g id="node2" class="node">
<title>Node1</title>
<g id="a_node2"><a xlink:href="classoneapi_1_1vpl_1_1extension__buffer.html" target="_top" xlink:title="Utilitary intermediate class to typify extension buffer interface with assotiated ID and C structure...">
<polygon fill="#ffffff" stroke="#000000" points="10,-67.5 10,-97.5 122,-97.5 122,-67.5 10,-67.5"/>
<text text-anchor="start" x="18" y="-85.5" font-family="Helvetica,sans-Serif" font-size="10.00" fill="#000000">oneapi::vpl::extension</text>
<text text-anchor="middle" x="66" y="-74.5" font-family="Helvetica,sans-Serif" font-size="10.00" fill="#000000">_buffer&lt; T, ID &gt;</text>
</a>
</g>
</g>
<!-- Node1&#45;&gt;Node0 -->
<g id="edge1" class="edge">
<title>Node1&#45;&gt;Node0</title>
<path fill="none" stroke="#191970" d="M66,-57.0249C66,-48.128 66,-38.4287 66,-30.6432"/>
<polygon fill="#191970" stroke="#191970" points="62.5001,-57.2966 66,-67.2967 69.5001,-57.2967 62.5001,-57.2966"/>
</g>
<!-- Node2 -->
<g id="node3" class="node">
<title>Node2</title>
<g id="a_node3"><a xlink:href="classoneapi_1_1vpl_1_1extension__buffer__base.html" target="_top" xlink:title="Interface definition for extension buffers. Extension buffers are used to provide additional data for...">
<polygon fill="#ffffff" stroke="#000000" points="10,-134.5 10,-164.5 122,-164.5 122,-134.5 10,-134.5"/>
<text text-anchor="start" x="18" y="-152.5" font-family="Helvetica,sans-Serif" font-size="10.00" fill="#000000">oneapi::vpl::extension</text>
<text text-anchor="middle" x="66" y="-141.5" font-family="Helvetica,sans-Serif" font-size="10.00" fill="#000000">_buffer_base</text>
</a>
</g>
</g>
<!-- Node2&#45;&gt;Node1 -->
<g id="edge2" class="edge">
<title>Node2&#45;&gt;Node1</title>
<path fill="none" stroke="#191970" d="M66,-124.0249C66,-115.128 66,-105.4287 66,-97.6432"/>
<polygon fill="#191970" stroke="#191970" points="62.5001,-124.2966 66,-134.2967 69.5001,-124.2967 62.5001,-124.2966"/>
</g>
</g>
</svg>
