<?xml version="1.0" encoding="UTF-8" standalone="no"?>
<!DOCTYPE svg PUBLIC "-//W3C//DTD SVG 1.1//EN"
 "http://www.w3.org/Graphics/SVG/1.1/DTD/svg11.dtd">
<!-- Generated by graphviz version 2.40.1 (20161225.0304)
 -->
<!-- Title: oneapi::vpl::bitstream_as_dst Pages: 1 -->
<svg width="118pt" height="163pt"
 viewBox="0.00 0.00 118.00 163.00" xmlns="http://www.w3.org/2000/svg" xmlns:xlink="http://www.w3.org/1999/xlink">
<g id="graph0" class="graph" transform="scale(1 1) rotate(0) translate(4 159)">
<title>oneapi::vpl::bitstream_as_dst</title>
<polygon fill="#ffffff" stroke="transparent" points="-4,4 -4,-159 114,-159 114,4 -4,4"/>
<!-- Node2 -->
<g id="node1" class="node">
<title>Node2</title>
<polygon fill="#bfbfbf" stroke="#000000" points="0,-.5 0,-30.5 110,-30.5 110,-.5 0,-.5"/>
<text text-anchor="start" x="8" y="-18.5" font-family="Helvetica,sans-Serif" font-size="10.00" fill="#000000">oneapi::vpl::bitstream</text>
<text text-anchor="middle" x="55" y="-7.5" font-family="Helvetica,sans-Serif" font-size="10.00" fill="#000000">_as_dst</text>
</g>
<!-- Node3 -->
<g id="node2" class="node">
<title>Node3</title>
<g id="a_node2"><a xlink:href="classoneapi_1_1vpl_1_1bitstream.html" target="_top" xlink:title="Defines the circlular buffer that holds compressed video data. ">
<polygon fill="#ffffff" stroke="#000000" points="0,-68.5 0,-87.5 110,-87.5 110,-68.5 0,-68.5"/>
<text text-anchor="middle" x="55" y="-75.5" font-family="Helvetica,sans-Serif" font-size="10.00" fill="#000000">oneapi::vpl::bitstream</text>
</a>
</g>
</g>
<!-- Node3&#45;&gt;Node2 -->
<g id="edge1" class="edge">
<title>Node3&#45;&gt;Node2</title>
<path fill="none" stroke="#191970" d="M55,-58.0501C55,-49.2205 55,-39.0001 55,-30.7892"/>
<polygon fill="#191970" stroke="#191970" points="51.5001,-58.2343 55,-68.2344 58.5001,-58.2344 51.5001,-58.2343"/>
</g>
<!-- Node4 -->
<g id="node3" class="node">
<title>Node4</title>
<g id="a_node3"><a xlink:href="structmfxBitstream.html" target="_top" xlink:title="mfxBitstream">
<polygon fill="#ffffff" stroke="#000000" points="17.5,-135.5 17.5,-154.5 92.5,-154.5 92.5,-135.5 17.5,-135.5"/>
<text text-anchor="middle" x="55" y="-142.5" font-family="Helvetica,sans-Serif" font-size="10.00" fill="#000000">mfxBitstream</text>
</a>
</g>
</g>
<!-- Node4&#45;&gt;Node3 -->
<g id="edge2" class="edge">
<title>Node4&#45;&gt;Node3</title>
<path fill="none" stroke="#9a32cd" stroke-dasharray="5,2" d="M55,-125.1079C55,-112.714 55,-97.3263 55,-87.5817"/>
<polygon fill="#9a32cd" stroke="#9a32cd" points="51.5001,-125.4005 55,-135.4005 58.5001,-125.4006 51.5001,-125.4005"/>
<text text-anchor="middle" x="67.5" y="-109" font-family="Helvetica,sans-Serif" font-size="10.00" fill="#000000"> bits_</text>
</g>
</g>
</svg>
