<?xml version="1.0" encoding="UTF-8" standalone="no"?>
<!DOCTYPE svg PUBLIC "-//W3C//DTD SVG 1.1//EN"
 "http://www.w3.org/Graphics/SVG/1.1/DTD/svg11.dtd">
<!-- Generated by graphviz version 2.40.1 (20161225.0304)
 -->
<!-- Title: oneapi::vpl::stat Pages: 1 -->
<svg width="397pt" height="84pt"
 viewBox="0.00 0.00 397.00 84.00" xmlns="http://www.w3.org/2000/svg" xmlns:xlink="http://www.w3.org/1999/xlink">
<g id="graph0" class="graph" transform="scale(1 1) rotate(0) translate(4 80)">
<title>oneapi::vpl::stat</title>
<polygon fill="#ffffff" stroke="transparent" points="-4,4 -4,-80 393,-80 393,4 -4,4"/>
<!-- Node0 -->
<g id="node1" class="node">
<title>Node0</title>
<polygon fill="#bfbfbf" stroke="#000000" points="159.5,-56.5 159.5,-75.5 245.5,-75.5 245.5,-56.5 159.5,-56.5"/>
<text text-anchor="middle" x="202.5" y="-63.5" font-family="Helvetica,sans-Serif" font-size="10.00" fill="#000000">oneapi::vpl::stat</text>
</g>
<!-- Node1 -->
<g id="node2" class="node">
<title>Node1</title>
<g id="a_node2"><a xlink:href="classoneapi_1_1vpl_1_1decode__stat.html" target="_top" xlink:title="Decoder&#39;s session run&#45;time statistic. ">
<polygon fill="#ffffff" stroke="#000000" points="0,-.5 0,-19.5 123,-19.5 123,-.5 0,-.5"/>
<text text-anchor="middle" x="61.5" y="-7.5" font-family="Helvetica,sans-Serif" font-size="10.00" fill="#000000">oneapi::vpl::decode_stat</text>
</a>
</g>
</g>
<!-- Node0&#45;&gt;Node1 -->
<g id="edge1" class="edge">
<title>Node0&#45;&gt;Node1</title>
<path fill="none" stroke="#191970" d="M168.8968,-52.6541C143.1841,-42.4419 108.3539,-28.6086 85.4225,-19.5011"/>
<polygon fill="#191970" stroke="#191970" points="167.6755,-55.9349 178.2612,-56.3733 170.2593,-49.4292 167.6755,-55.9349"/>
</g>
<!-- Node2 -->
<g id="node3" class="node">
<title>Node2</title>
<g id="a_node3"><a xlink:href="classoneapi_1_1vpl_1_1encode__stat.html" target="_top" xlink:title="Encoder&#39;s session run&#45;time statistic. ">
<polygon fill="#ffffff" stroke="#000000" points="141,-.5 141,-19.5 264,-19.5 264,-.5 141,-.5"/>
<text text-anchor="middle" x="202.5" y="-7.5" font-family="Helvetica,sans-Serif" font-size="10.00" fill="#000000">oneapi::vpl::encode_stat</text>
</a>
</g>
</g>
<!-- Node0&#45;&gt;Node2 -->
<g id="edge2" class="edge">
<title>Node0&#45;&gt;Node2</title>
<path fill="none" stroke="#191970" d="M202.5,-46.1575C202.5,-37.155 202.5,-26.9199 202.5,-19.6427"/>
<polygon fill="#191970" stroke="#191970" points="199.0001,-46.2455 202.5,-56.2455 206.0001,-46.2456 199.0001,-46.2455"/>
</g>
<!-- Node3 -->
<g id="node4" class="node">
<title>Node3</title>
<g id="a_node4"><a xlink:href="classoneapi_1_1vpl_1_1vpp__stat.html" target="_top" xlink:title="VPP&#39;s session run&#45;time statistic. ">
<polygon fill="#ffffff" stroke="#000000" points="282,-.5 282,-19.5 389,-19.5 389,-.5 282,-.5"/>
<text text-anchor="middle" x="335.5" y="-7.5" font-family="Helvetica,sans-Serif" font-size="10.00" fill="#000000">oneapi::vpl::vpp_stat</text>
</a>
</g>
</g>
<!-- Node0&#45;&gt;Node3 -->
<g id="edge3" class="edge">
<title>Node0&#45;&gt;Node3</title>
<path fill="none" stroke="#191970" d="M234.8397,-52.3833C259.0285,-42.1985 291.495,-28.5284 312.9348,-19.5011"/>
<polygon fill="#191970" stroke="#191970" points="233.2217,-49.2669 225.3635,-56.3733 235.9381,-55.7184 233.2217,-49.2669"/>
</g>
</g>
</svg>
