<?xml version="1.0" encoding="UTF-8" standalone="no"?>
<!DOCTYPE svg PUBLIC "-//W3C//DTD SVG 1.1//EN"
 "http://www.w3.org/Graphics/SVG/1.1/DTD/svg11.dtd">
<!-- Generated by graphviz version 2.40.1 (20161225.0304)
 -->
<!-- Title: oneapi::vpl::ExtVPPFieldProcessing Pages: 1 -->
<svg width="726pt" height="61pt"
 viewBox="0.00 0.00 726.00 61.00" xmlns="http://www.w3.org/2000/svg" xmlns:xlink="http://www.w3.org/1999/xlink">
<g id="graph0" class="graph" transform="scale(1 1) rotate(0) translate(4 57)">
<title>oneapi::vpl::ExtVPPFieldProcessing</title>
<polygon fill="#ffffff" stroke="transparent" points="-4,4 -4,-57 722,-57 722,4 -4,4"/>
<!-- Node4 -->
<g id="node1" class="node">
<title>Node4</title>
<polygon fill="#bfbfbf" stroke="#000000" points="592,-11.5 592,-41.5 718,-41.5 718,-11.5 592,-11.5"/>
<text text-anchor="start" x="600" y="-29.5" font-family="Helvetica,sans-Serif" font-size="10.00" fill="#000000">oneapi::vpl::ExtVPPField</text>
<text text-anchor="middle" x="655" y="-18.5" font-family="Helvetica,sans-Serif" font-size="10.00" fill="#000000">Processing</text>
</g>
<!-- Node5 -->
<g id="node2" class="node">
<title>Node5</title>
<g id="a_node2"><a xlink:href="classoneapi_1_1vpl_1_1extension__buffer__trival.html" target="_top" xlink:title="oneapi::vpl::extension\l_buffer_trival\&lt; mfxExtVPPField\lProcessing, MFX_EXTBUFF_VPP\l_FIELD_PROCESSING \&gt;">
<polygon fill="#ffffff" stroke="#000000" points="387,-.5 387,-52.5 556,-52.5 556,-.5 387,-.5"/>
<text text-anchor="start" x="395" y="-40.5" font-family="Helvetica,sans-Serif" font-size="10.00" fill="#000000">oneapi::vpl::extension</text>
<text text-anchor="start" x="395" y="-29.5" font-family="Helvetica,sans-Serif" font-size="10.00" fill="#000000">_buffer_trival&lt; mfxExtVPPField</text>
<text text-anchor="start" x="395" y="-18.5" font-family="Helvetica,sans-Serif" font-size="10.00" fill="#000000">Processing, MFX_EXTBUFF_VPP</text>
<text text-anchor="middle" x="471.5" y="-7.5" font-family="Helvetica,sans-Serif" font-size="10.00" fill="#000000">_FIELD_PROCESSING &gt;</text>
</a>
</g>
</g>
<!-- Node5&#45;&gt;Node4 -->
<g id="edge1" class="edge">
<title>Node5&#45;&gt;Node4</title>
<path fill="none" stroke="#191970" d="M566.4288,-26.5C575.086,-26.5 583.7053,-26.5 591.9781,-26.5"/>
<polygon fill="#191970" stroke="#191970" points="566.2673,-23.0001 556.2672,-26.5 566.2672,-30.0001 566.2673,-23.0001"/>
</g>
<!-- Node6 -->
<g id="node3" class="node">
<title>Node6</title>
<g id="a_node3"><a xlink:href="classoneapi_1_1vpl_1_1extension__buffer.html" target="_top" xlink:title="oneapi::vpl::extension\l_buffer\&lt; mfxExtVPPFieldProcessing, ID \&gt;">
<polygon fill="#ffffff" stroke="#000000" points="148,-11.5 148,-41.5 351,-41.5 351,-11.5 148,-11.5"/>
<text text-anchor="start" x="156" y="-29.5" font-family="Helvetica,sans-Serif" font-size="10.00" fill="#000000">oneapi::vpl::extension</text>
<text text-anchor="middle" x="249.5" y="-18.5" font-family="Helvetica,sans-Serif" font-size="10.00" fill="#000000">_buffer&lt; mfxExtVPPFieldProcessing, ID &gt;</text>
</a>
</g>
</g>
<!-- Node6&#45;&gt;Node5 -->
<g id="edge2" class="edge">
<title>Node6&#45;&gt;Node5</title>
<path fill="none" stroke="#191970" d="M361.2167,-26.5C369.8606,-26.5 378.4987,-26.5 386.9213,-26.5"/>
<polygon fill="#191970" stroke="#191970" points="361.0795,-23.0001 351.0794,-26.5 361.0794,-30.0001 361.0795,-23.0001"/>
</g>
<!-- Node7 -->
<g id="node4" class="node">
<title>Node7</title>
<g id="a_node4"><a xlink:href="classoneapi_1_1vpl_1_1extension__buffer__base.html" target="_top" xlink:title="Interface definition for extension buffers. Extension buffers are used to provide additional data for...">
<polygon fill="#ffffff" stroke="#000000" points="0,-11.5 0,-41.5 112,-41.5 112,-11.5 0,-11.5"/>
<text text-anchor="start" x="8" y="-29.5" font-family="Helvetica,sans-Serif" font-size="10.00" fill="#000000">oneapi::vpl::extension</text>
<text text-anchor="middle" x="56" y="-18.5" font-family="Helvetica,sans-Serif" font-size="10.00" fill="#000000">_buffer_base</text>
</a>
</g>
</g>
<!-- Node7&#45;&gt;Node6 -->
<g id="edge3" class="edge">
<title>Node7&#45;&gt;Node6</title>
<path fill="none" stroke="#191970" d="M122.4816,-26.5C130.7305,-26.5 139.306,-26.5 147.9326,-26.5"/>
<polygon fill="#191970" stroke="#191970" points="122.2282,-23.0001 112.2281,-26.5 122.2281,-30.0001 122.2282,-23.0001"/>
</g>
</g>
</svg>
