<?xml version="1.0" encoding="UTF-8" standalone="no"?>
<!DOCTYPE svg PUBLIC "-//W3C//DTD SVG 1.1//EN"
 "http://www.w3.org/Graphics/SVG/1.1/DTD/svg11.dtd">
<!-- Generated by graphviz version 2.40.1 (20161225.0304)
 -->
<!-- Title: oneapi::vpl::decoder_init_header_list::decoder_init_header_list Pages: 1 -->
<svg width="415pt" height="50pt"
 viewBox="0.00 0.00 415.00 50.00" xmlns="http://www.w3.org/2000/svg" xmlns:xlink="http://www.w3.org/1999/xlink">
<g id="graph0" class="graph" transform="scale(1 1) rotate(0) translate(4 46)">
<title>oneapi::vpl::decoder_init_header_list::decoder_init_header_list</title>
<polygon fill="#ffffff" stroke="transparent" points="-4,4 -4,-46 411,-46 411,4 -4,4"/>
<!-- Node2 -->
<g id="node1" class="node">
<title>Node2</title>
<polygon fill="#bfbfbf" stroke="#000000" points="0,-.5 0,-41.5 128,-41.5 128,-.5 0,-.5"/>
<text text-anchor="start" x="8" y="-29.5" font-family="Helvetica,sans-Serif" font-size="10.00" fill="#000000">oneapi::vpl::decoder</text>
<text text-anchor="start" x="8" y="-18.5" font-family="Helvetica,sans-Serif" font-size="10.00" fill="#000000">_init_header_list::decoder</text>
<text text-anchor="middle" x="64" y="-7.5" font-family="Helvetica,sans-Serif" font-size="10.00" fill="#000000">_init_header_list</text>
</g>
<!-- Node3 -->
<g id="node2" class="node">
<title>Node3</title>
<g id="a_node2"><a xlink:href="classoneapi_1_1vpl_1_1buffer__list.html#aa156fcbd0cd65808fb14ffc2a3ebda5a" target="_top" xlink:title="adds extension buffer pointer to the map ">
<polygon fill="#ffffff" stroke="#000000" points="164,-6 164,-36 259,-36 259,-6 164,-6"/>
<text text-anchor="start" x="172" y="-24" font-family="Helvetica,sans-Serif" font-size="10.00" fill="#000000">oneapi::vpl::buffer</text>
<text text-anchor="middle" x="211.5" y="-13" font-family="Helvetica,sans-Serif" font-size="10.00" fill="#000000">_list::add_buffer</text>
</a>
</g>
</g>
<!-- Node2&#45;&gt;Node3 -->
<g id="edge1" class="edge">
<title>Node2&#45;&gt;Node3</title>
<path fill="none" stroke="#191970" d="M128.2666,-21C136.7662,-21 145.4367,-21 153.8163,-21"/>
<polygon fill="#191970" stroke="#191970" points="153.8624,-24.5001 163.8624,-21 153.8623,-17.5001 153.8624,-24.5001"/>
</g>
<!-- Node4 -->
<g id="node3" class="node">
<title>Node4</title>
<g id="a_node3"><a xlink:href="classoneapi_1_1vpl_1_1extension__buffer__base.html#a05f42bf8ebbeb7f697eb53a17a465c73" target="_top" xlink:title="Interface to retieve extension buffer ID in a form of FourCC code. ">
<polygon fill="#ffffff" stroke="#000000" points="295,-6 295,-36 407,-36 407,-6 295,-6"/>
<text text-anchor="start" x="303" y="-24" font-family="Helvetica,sans-Serif" font-size="10.00" fill="#000000">oneapi::vpl::extension</text>
<text text-anchor="middle" x="351" y="-13" font-family="Helvetica,sans-Serif" font-size="10.00" fill="#000000">_buffer_base::get_ID</text>
</a>
</g>
</g>
<!-- Node3&#45;&gt;Node4 -->
<g id="edge2" class="edge">
<title>Node3&#45;&gt;Node4</title>
<path fill="none" stroke="#191970" d="M259.1178,-21C267.4005,-21 276.1477,-21 284.8211,-21"/>
<polygon fill="#191970" stroke="#191970" points="284.9368,-24.5001 294.9368,-21 284.9367,-17.5001 284.9368,-24.5001"/>
</g>
</g>
</svg>
