<?xml version="1.0" encoding="UTF-8" standalone="no"?>
<!DOCTYPE svg PUBLIC "-//W3C//DTD SVG 1.1//EN"
 "http://www.w3.org/Graphics/SVG/1.1/DTD/svg11.dtd">
<!-- Generated by graphviz version 2.40.1 (20161225.0304)
 -->
<!-- Title: oneapi::vpl::vpp_stat Pages: 1 -->
<svg width="184pt" height="95pt"
 viewBox="0.00 0.00 183.50 95.00" xmlns="http://www.w3.org/2000/svg" xmlns:xlink="http://www.w3.org/1999/xlink">
<g id="graph0" class="graph" transform="scale(1 1) rotate(0) translate(4 91)">
<title>oneapi::vpl::vpp_stat</title>
<polygon fill="#ffffff" stroke="transparent" points="-4,4 -4,-91 179.5,-91 179.5,4 -4,4"/>
<!-- Node2 -->
<g id="node1" class="node">
<title>Node2</title>
<polygon fill="#bfbfbf" stroke="#000000" points="37.5,-.5 37.5,-19.5 144.5,-19.5 144.5,-.5 37.5,-.5"/>
<text text-anchor="middle" x="91" y="-7.5" font-family="Helvetica,sans-Serif" font-size="10.00" fill="#000000">oneapi::vpl::vpp_stat</text>
</g>
<!-- Node3 -->
<g id="node2" class="node">
<title>Node3</title>
<g id="a_node2"><a xlink:href="classoneapi_1_1vpl_1_1stat.html" target="_top" xlink:title="Interface for the component&#39;s (session) run&#45;time statistic. ">
<polygon fill="#ffffff" stroke="#000000" points="0,-67.5 0,-86.5 86,-86.5 86,-67.5 0,-67.5"/>
<text text-anchor="middle" x="43" y="-74.5" font-family="Helvetica,sans-Serif" font-size="10.00" fill="#000000">oneapi::vpl::stat</text>
</a>
</g>
</g>
<!-- Node3&#45;&gt;Node2 -->
<g id="edge1" class="edge">
<title>Node3&#45;&gt;Node2</title>
<path fill="none" stroke="#191970" d="M55.9096,-58.9803C64.9948,-46.2989 76.7981,-29.8235 84.1355,-19.5817"/>
<polygon fill="#191970" stroke="#191970" points="52.8559,-57.233 49.8772,-67.4005 58.5463,-61.3097 52.8559,-57.233"/>
</g>
<!-- Node4 -->
<g id="node3" class="node">
<title>Node4</title>
<g id="a_node3"><a xlink:href="structmfxVPPStat.html" target="_top" xlink:title="mfxVPPStat">
<polygon fill="#ffffff" stroke="#000000" points="104.5,-67.5 104.5,-86.5 175.5,-86.5 175.5,-67.5 104.5,-67.5"/>
<text text-anchor="middle" x="140" y="-74.5" font-family="Helvetica,sans-Serif" font-size="10.00" fill="#000000">mfxVPPStat</text>
</a>
</g>
</g>
<!-- Node4&#45;&gt;Node2 -->
<g id="edge2" class="edge">
<title>Node4&#45;&gt;Node2</title>
<path fill="none" stroke="#9a32cd" stroke-dasharray="5,2" d="M126.8214,-58.9803C117.5469,-46.2989 105.4978,-29.8235 98.0075,-19.5817"/>
<polygon fill="#9a32cd" stroke="#9a32cd" points="124.2512,-61.3949 132.9795,-67.4005 129.9014,-57.2627 124.2512,-61.3949"/>
<text text-anchor="middle" x="130.5" y="-41" font-family="Helvetica,sans-Serif" font-size="10.00" fill="#000000"> stat_</text>
</g>
</g>
</svg>
