<?xml version="1.0" encoding="UTF-8" standalone="no"?>
<!DOCTYPE svg PUBLIC "-//W3C//DTD SVG 1.1//EN"
 "http://www.w3.org/Graphics/SVG/1.1/DTD/svg11.dtd">
<!-- Generated by graphviz version 2.40.1 (20161225.0304)
 -->
<!-- Title: oneapi::vpl::ExtMBForceIntra Pages: 1 -->
<svg width="764pt" height="50pt"
 viewBox="0.00 0.00 764.00 50.00" xmlns="http://www.w3.org/2000/svg" xmlns:xlink="http://www.w3.org/1999/xlink">
<g id="graph0" class="graph" transform="scale(1 1) rotate(0) translate(4 46)">
<title>oneapi::vpl::ExtMBForceIntra</title>
<polygon fill="#ffffff" stroke="transparent" points="-4,4 -4,-46 760,-46 760,4 -4,4"/>
<!-- Node0 -->
<g id="node1" class="node">
<title>Node0</title>
<polygon fill="#bfbfbf" stroke="#000000" points="612,-11.5 612,-30.5 756,-30.5 756,-11.5 612,-11.5"/>
<text text-anchor="middle" x="684" y="-18.5" font-family="Helvetica,sans-Serif" font-size="10.00" fill="#000000">oneapi::vpl::ExtMBForceIntra</text>
</g>
<!-- Node1 -->
<g id="node2" class="node">
<title>Node1</title>
<g id="a_node2"><a xlink:href="classoneapi_1_1vpl_1_1extension__buffer__with__ptrs.html" target="_top" xlink:title="oneapi::vpl::extension\l_buffer_with_ptrs\&lt; mfxExtMBForce\lIntra, MFX_EXTBUFF_MB_FORCE_INTRA \&gt;">
<polygon fill="#ffffff" stroke="#000000" points="356,-.5 356,-41.5 576,-41.5 576,-.5 356,-.5"/>
<text text-anchor="start" x="364" y="-29.5" font-family="Helvetica,sans-Serif" font-size="10.00" fill="#000000">oneapi::vpl::extension</text>
<text text-anchor="start" x="364" y="-18.5" font-family="Helvetica,sans-Serif" font-size="10.00" fill="#000000">_buffer_with_ptrs&lt; mfxExtMBForce</text>
<text text-anchor="middle" x="466" y="-7.5" font-family="Helvetica,sans-Serif" font-size="10.00" fill="#000000">Intra, MFX_EXTBUFF_MB_FORCE_INTRA &gt;</text>
</a>
</g>
</g>
<!-- Node1&#45;&gt;Node0 -->
<g id="edge1" class="edge">
<title>Node1&#45;&gt;Node0</title>
<path fill="none" stroke="#191970" d="M586.4174,-21C595.0288,-21 603.5441,-21 611.7451,-21"/>
<polygon fill="#191970" stroke="#191970" points="586.2774,-17.5001 576.2773,-21 586.2773,-24.5001 586.2774,-17.5001"/>
</g>
<!-- Node2 -->
<g id="node3" class="node">
<title>Node2</title>
<g id="a_node3"><a xlink:href="classoneapi_1_1vpl_1_1extension__buffer.html" target="_top" xlink:title="oneapi::vpl::extension\l_buffer\&lt; mfxExtMBForceIntra, ID \&gt;">
<polygon fill="#ffffff" stroke="#000000" points="148,-6 148,-36 320,-36 320,-6 148,-6"/>
<text text-anchor="start" x="156" y="-24" font-family="Helvetica,sans-Serif" font-size="10.00" fill="#000000">oneapi::vpl::extension</text>
<text text-anchor="middle" x="234" y="-13" font-family="Helvetica,sans-Serif" font-size="10.00" fill="#000000">_buffer&lt; mfxExtMBForceIntra, ID &gt;</text>
</a>
</g>
</g>
<!-- Node2&#45;&gt;Node1 -->
<g id="edge2" class="edge">
<title>Node2&#45;&gt;Node1</title>
<path fill="none" stroke="#191970" d="M330.2184,-21C338.6156,-21 347.1554,-21 355.6545,-21"/>
<polygon fill="#191970" stroke="#191970" points="330.0586,-17.5001 320.0585,-21 330.0585,-24.5001 330.0586,-17.5001"/>
</g>
<!-- Node3 -->
<g id="node4" class="node">
<title>Node3</title>
<g id="a_node4"><a xlink:href="classoneapi_1_1vpl_1_1extension__buffer__base.html" target="_top" xlink:title="Interface definition for extension buffers. Extension buffers are used to provide additional data for...">
<polygon fill="#ffffff" stroke="#000000" points="0,-6 0,-36 112,-36 112,-6 0,-6"/>
<text text-anchor="start" x="8" y="-24" font-family="Helvetica,sans-Serif" font-size="10.00" fill="#000000">oneapi::vpl::extension</text>
<text text-anchor="middle" x="56" y="-13" font-family="Helvetica,sans-Serif" font-size="10.00" fill="#000000">_buffer_base</text>
</a>
</g>
</g>
<!-- Node3&#45;&gt;Node2 -->
<g id="edge3" class="edge">
<title>Node3&#45;&gt;Node2</title>
<path fill="none" stroke="#191970" d="M122.5822,-21C130.8177,-21 139.3271,-21 147.8026,-21"/>
<polygon fill="#191970" stroke="#191970" points="122.3203,-17.5001 112.3203,-21 122.3203,-24.5001 122.3203,-17.5001"/>
</g>
</g>
</svg>
