<?xml version="1.0" encoding="UTF-8" standalone="no"?>
<!DOCTYPE svg PUBLIC "-//W3C//DTD SVG 1.1//EN"
 "http://www.w3.org/Graphics/SVG/1.1/DTD/svg11.dtd">
<!-- Generated by graphviz version 2.40.1 (20161225.0304)
 -->
<!-- Title: oneapi::vpl::buffer_list::add_buffer Pages: 1 -->
<!--zoomable 1280 -->
<svg id="main" version="1.1" xmlns="http://www.w3.org/2000/svg" xmlns:xlink="http://www.w3.org/1999/xlink" xml:space="preserve" onload="init(evt)">
<style type="text/css"><![CDATA[
.edge:hover path { stroke: red; }
.edge:hover polygon { stroke: red; fill: red; }
]]></style>
<script type="text/javascript"><![CDATA[
var edges = document.getElementsByTagName('g');
if (edges && edges.length) {
  for (var i=0;i<edges.length;i++) {
    if (edges[i].id.substr(0,4)=='edge') {
      edges[i].setAttribute('class','edge');
    }
  }
}
]]></script>
        <defs>
                <circle id="rim" cx="0" cy="0" r="7"/>
                <circle id="rim2" cx="0" cy="0" r="3.5"/>
                <g id="zoomPlus">
                        <use xlink:href="#rim" fill="#404040">
                                <set attributeName="fill" to="#808080" begin="zoomplus.mouseover" end="zoomplus.mouseout"/>
                        </use>
                        <path d="M-4,0h8M0,-4v8" fill="none" stroke="white" stroke-width="1.5" pointer-events="none"/>
                </g>
                <g id="zoomMin">
                        <use xlink:href="#rim" fill="#404040">
                                <set attributeName="fill" to="#808080" begin="zoomminus.mouseover" end="zoomminus.mouseout"/>
                        </use>
                        <path d="M-4,0h8" fill="none" stroke="white" stroke-width="1.5" pointer-events="none"/>
                </g>
                <g id="dirArrow">
                        <path fill="none" stroke="white" stroke-width="1.5" d="M0,-3.0v7 M-2.5,-0.5L0,-3.0L2.5,-0.5"/>
                </g>
               <g id="resetDef">
                       <use xlink:href="#rim2" fill="#404040">
                               <set attributeName="fill" to="#808080" begin="reset.mouseover" end="reset.mouseout"/>
                       </use>
               </g>
        </defs>

<script type="text/javascript">
var viewWidth = 268;
var viewHeight = 1280;
var sectionId = 'dynsection-2';
</script>
<script xlink:href="svgpan.js"/>
<svg id="graph" class="graph">
<g id="viewport">
<title>oneapi::vpl::buffer_list::add_buffer</title>
<polygon fill="#ffffff" stroke="transparent" points="-4,4 -4,-1275.5 264,-1275.5 264,4 -4,4"/>
<!-- Node2 -->
<g id="node1" class="node">
<title>Node2</title>
<polygon fill="#bfbfbf" stroke="#000000" points="0,-596.5 0,-626.5 95,-626.5 95,-596.5 0,-596.5"/>
<text text-anchor="start" x="8" y="-614.5" font-family="Helvetica,sans-Serif" font-size="10.00" fill="#000000">oneapi::vpl::buffer</text>
<text text-anchor="middle" x="47.5" y="-603.5" font-family="Helvetica,sans-Serif" font-size="10.00" fill="#000000">_list::add_buffer</text>
</g>
<!-- Node3 -->
<g id="node2" class="node">
<title>Node3</title>
<g id="a_node2"><a xlink:href="classoneapi_1_1vpl_1_1decoder__init__reset__list.html#a19f3bf0d2b5e76a41c90e467eefa49a4" target="_top" xlink:title="ctor ">
<polygon fill="#ffffff" stroke="#000000" points="135.5,-1230 135.5,-1271 255.5,-1271 255.5,-1230 135.5,-1230"/>
<text text-anchor="start" x="143.5" y="-1259" font-family="Helvetica,sans-Serif" font-size="10.00" fill="#000000">oneapi::vpl::decoder</text>
<text text-anchor="start" x="143.5" y="-1248" font-family="Helvetica,sans-Serif" font-size="10.00" fill="#000000">_init_reset_list::decoder</text>
<text text-anchor="middle" x="195.5" y="-1237" font-family="Helvetica,sans-Serif" font-size="10.00" fill="#000000">_init_reset_list</text>
</a>
</g>
</g>
<!-- Node2&#45;&gt;Node3 -->
<g id="edge1" class="edge">
<title>Node2&#45;&gt;Node3</title>
<path fill="none" stroke="#191970" d="M47.8181,-636.6142C49.5782,-739.1922 60.8327,-1125.4372 131,-1220.5 133.567,-1223.9777 136.6376,-1227.0652 140.0263,-1229.8043"/>
<polygon fill="#191970" stroke="#191970" points="51.3169,-636.503 47.6612,-626.5589 44.3178,-636.6123 51.3169,-636.503"/>
</g>
<!-- Node4 -->
<g id="node3" class="node">
<title>Node4</title>
<g id="a_node3"><a xlink:href="classoneapi_1_1vpl_1_1decoder__init__reset__list.html#a42700756569ce84e146b23b0d47e6ba1" target="_top" xlink:title="Add extension buffer to list. ">
<polygon fill="#ffffff" stroke="#000000" points="143.5,-1170 143.5,-1211 247.5,-1211 247.5,-1170 143.5,-1170"/>
<text text-anchor="start" x="151.5" y="-1199" font-family="Helvetica,sans-Serif" font-size="10.00" fill="#000000">oneapi::vpl::decoder</text>
<text text-anchor="start" x="151.5" y="-1188" font-family="Helvetica,sans-Serif" font-size="10.00" fill="#000000">_init_reset_list::add</text>
<text text-anchor="middle" x="195.5" y="-1177" font-family="Helvetica,sans-Serif" font-size="10.00" fill="#000000">_buffer</text>
</a>
</g>
</g>
<!-- Node2&#45;&gt;Node4 -->
<g id="edge2" class="edge">
<title>Node2&#45;&gt;Node4</title>
<path fill="none" stroke="#191970" d="M48.2464,-636.8769C51.5443,-733.321 67.5943,-1075.9043 131,-1160.5 134.4072,-1165.0458 138.6724,-1168.9266 143.3774,-1172.2346"/>
<polygon fill="#191970" stroke="#191970" points="51.7358,-636.4909 47.9126,-626.61 44.7395,-636.7185 51.7358,-636.4909"/>
</g>
<!-- Node5 -->
<g id="node4" class="node">
<title>Node5</title>
<g id="a_node4"><a xlink:href="classoneapi_1_1vpl_1_1decoder__init__reset__list.html#a5a2e44cf757eeb224329b9fcbd32d7c0" target="_top" xlink:title="Variadic length ctor helper. It adds extension buffers one by one to the map of buffers. ">
<polygon fill="#ffffff" stroke="#000000" points="143.5,-1110 143.5,-1151 247.5,-1151 247.5,-1110 143.5,-1110"/>
<text text-anchor="start" x="151.5" y="-1139" font-family="Helvetica,sans-Serif" font-size="10.00" fill="#000000">oneapi::vpl::decoder</text>
<text text-anchor="start" x="151.5" y="-1128" font-family="Helvetica,sans-Serif" font-size="10.00" fill="#000000">_init_reset_list::ctor</text>
<text text-anchor="middle" x="195.5" y="-1117" font-family="Helvetica,sans-Serif" font-size="10.00" fill="#000000">_helper</text>
</a>
</g>
</g>
<!-- Node2&#45;&gt;Node5 -->
<g id="edge3" class="edge">
<title>Node2&#45;&gt;Node5</title>
<path fill="none" stroke="#191970" d="M48.7774,-636.9792C53.7304,-726.6517 74.2912,-1026.2559 131,-1100.5 134.4484,-1105.0147 138.74,-1108.8755 143.4606,-1112.1717"/>
<polygon fill="#191970" stroke="#191970" points="52.2667,-636.6847 48.2376,-626.8859 45.2767,-637.0586 52.2667,-636.6847"/>
</g>
<!-- Node6 -->
<g id="node5" class="node">
<title>Node6</title>
<g id="a_node5"><a xlink:href="classoneapi_1_1vpl_1_1decoder__init__header__list.html#a0402d3c4c42420b4cb52fc0af7990c7b" target="_top" xlink:title="ctor ">
<polygon fill="#ffffff" stroke="#000000" points="131.5,-1050 131.5,-1091 259.5,-1091 259.5,-1050 131.5,-1050"/>
<text text-anchor="start" x="139.5" y="-1079" font-family="Helvetica,sans-Serif" font-size="10.00" fill="#000000">oneapi::vpl::decoder</text>
<text text-anchor="start" x="139.5" y="-1068" font-family="Helvetica,sans-Serif" font-size="10.00" fill="#000000">_init_header_list::decoder</text>
<text text-anchor="middle" x="195.5" y="-1057" font-family="Helvetica,sans-Serif" font-size="10.00" fill="#000000">_init_header_list</text>
</a>
</g>
</g>
<!-- Node2&#45;&gt;Node6 -->
<g id="edge4" class="edge">
<title>Node2&#45;&gt;Node6</title>
<path fill="none" stroke="#191970" d="M49.4509,-637.0084C56.2008,-719.3609 80.9397,-976.5068 131,-1040.5 133.7394,-1044.0018 136.9838,-1047.112 140.5371,-1049.8714"/>
<polygon fill="#191970" stroke="#191970" points="52.9203,-636.4848 48.6335,-626.796 45.9426,-637.0434 52.9203,-636.4848"/>
</g>
<!-- Node7 -->
<g id="node6" class="node">
<title>Node7</title>
<g id="a_node6"><a xlink:href="classoneapi_1_1vpl_1_1decoder__init__header__list.html#abffafe126a823e1b59db1688bea1f2f0" target="_top" xlink:title="Add extension buffer to list. ">
<polygon fill="#ffffff" stroke="#000000" points="141,-990 141,-1031 250,-1031 250,-990 141,-990"/>
<text text-anchor="start" x="149" y="-1019" font-family="Helvetica,sans-Serif" font-size="10.00" fill="#000000">oneapi::vpl::decoder</text>
<text text-anchor="start" x="149" y="-1008" font-family="Helvetica,sans-Serif" font-size="10.00" fill="#000000">_init_header_list::add</text>
<text text-anchor="middle" x="195.5" y="-997" font-family="Helvetica,sans-Serif" font-size="10.00" fill="#000000">_buffer</text>
</a>
</g>
</g>
<!-- Node2&#45;&gt;Node7 -->
<g id="edge5" class="edge">
<title>Node2&#45;&gt;Node7</title>
<path fill="none" stroke="#191970" d="M50.3382,-637.0316C59.0615,-711.5112 87.5474,-926.655 131,-980.5 133.8697,-984.056 137.2572,-987.2107 140.9529,-990.006"/>
<polygon fill="#191970" stroke="#191970" points="53.7714,-636.249 49.1517,-626.7144 46.8172,-637.0488 53.7714,-636.249"/>
</g>
<!-- Node8 -->
<g id="node7" class="node">
<title>Node8</title>
<g id="a_node7"><a xlink:href="classoneapi_1_1vpl_1_1decoder__init__header__list.html#a16d13861650c26a143af88e9deef194b" target="_top" xlink:title="Variadic length ctor helper. It adds extension buffers one by one to the map of buffers. ">
<polygon fill="#ffffff" stroke="#000000" points="140.5,-930 140.5,-971 250.5,-971 250.5,-930 140.5,-930"/>
<text text-anchor="start" x="148.5" y="-959" font-family="Helvetica,sans-Serif" font-size="10.00" fill="#000000">oneapi::vpl::decoder</text>
<text text-anchor="start" x="148.5" y="-948" font-family="Helvetica,sans-Serif" font-size="10.00" fill="#000000">_init_header_list::ctor</text>
<text text-anchor="middle" x="195.5" y="-937" font-family="Helvetica,sans-Serif" font-size="10.00" fill="#000000">_helper</text>
</a>
</g>
</g>
<!-- Node2&#45;&gt;Node8 -->
<g id="edge6" class="edge">
<title>Node2&#45;&gt;Node8</title>
<path fill="none" stroke="#191970" d="M51.5134,-636.7637C62.3792,-702.4615 94.0506,-876.6039 131,-920.5 133.9426,-923.9959 137.382,-927.1079 141.1131,-929.874"/>
<polygon fill="#191970" stroke="#191970" points="54.9592,-636.1469 49.8949,-626.8409 48.0505,-637.2739 54.9592,-636.1469"/>
</g>
<!-- Node9 -->
<g id="node8" class="node">
<title>Node9</title>
<g id="a_node8"><a xlink:href="classoneapi_1_1vpl_1_1decoder__process__list.html#a9e00e8f4babf896f8b8af0790d92368d" target="_top" xlink:title="ctor ">
<polygon fill="#ffffff" stroke="#000000" points="138,-870 138,-911 253,-911 253,-870 138,-870"/>
<text text-anchor="start" x="146" y="-899" font-family="Helvetica,sans-Serif" font-size="10.00" fill="#000000">oneapi::vpl::decoder</text>
<text text-anchor="start" x="146" y="-888" font-family="Helvetica,sans-Serif" font-size="10.00" fill="#000000">_process_list::decoder</text>
<text text-anchor="middle" x="195.5" y="-877" font-family="Helvetica,sans-Serif" font-size="10.00" fill="#000000">_process_list</text>
</a>
</g>
</g>
<!-- Node2&#45;&gt;Node9 -->
<g id="edge7" class="edge">
<title>Node2&#45;&gt;Node9</title>
<path fill="none" stroke="#191970" d="M49.4593,-636.7584C54.5205,-685.7429 72.0941,-794.611 131,-860.5 134.1278,-863.9986 137.7483,-867.1196 141.6462,-869.898"/>
<polygon fill="#191970" stroke="#191970" points="52.9359,-636.344 48.5132,-626.7164 45.9667,-637.0006 52.9359,-636.344"/>
</g>
<!-- Node10 -->
<g id="node9" class="node">
<title>Node10</title>
<g id="a_node9"><a xlink:href="classoneapi_1_1vpl_1_1decoder__process__list.html#ad5a94ded300dacfbc0dd10385ac49730" target="_top" xlink:title="Add extension buffer to list. ">
<polygon fill="#ffffff" stroke="#000000" points="132.5,-820.5 132.5,-850.5 258.5,-850.5 258.5,-820.5 132.5,-820.5"/>
<text text-anchor="start" x="140.5" y="-838.5" font-family="Helvetica,sans-Serif" font-size="10.00" fill="#000000">oneapi::vpl::decoder</text>
<text text-anchor="middle" x="195.5" y="-827.5" font-family="Helvetica,sans-Serif" font-size="10.00" fill="#000000">_process_list::add_buffer</text>
</a>
</g>
</g>
<!-- Node2&#45;&gt;Node10 -->
<g id="edge8" class="edge">
<title>Node2&#45;&gt;Node10</title>
<path fill="none" stroke="#191970" d="M51.3486,-636.4907C59.0576,-678.3107 80.2235,-762.6799 131,-811.5 134.5312,-814.8952 138.5858,-817.8185 142.9055,-820.3339"/>
<polygon fill="#191970" stroke="#191970" points="54.7886,-635.8429 49.6307,-626.5883 47.8916,-637.0395 54.7886,-635.8429"/>
</g>
<!-- Node11 -->
<g id="node10" class="node">
<title>Node11</title>
<g id="a_node10"><a xlink:href="classoneapi_1_1vpl_1_1decoder__process__list.html#ad10c577bc6de7d342bce687757cf0393" target="_top" xlink:title="Variadic length ctor helper. It adds extension buffers one by one to the map of buffers. ">
<polygon fill="#ffffff" stroke="#000000" points="131.5,-771.5 131.5,-801.5 259.5,-801.5 259.5,-771.5 131.5,-771.5"/>
<text text-anchor="start" x="139.5" y="-789.5" font-family="Helvetica,sans-Serif" font-size="10.00" fill="#000000">oneapi::vpl::decoder</text>
<text text-anchor="middle" x="195.5" y="-778.5" font-family="Helvetica,sans-Serif" font-size="10.00" fill="#000000">_process_list::ctor_helper</text>
</a>
</g>
</g>
<!-- Node2&#45;&gt;Node11 -->
<g id="edge9" class="edge">
<title>Node2&#45;&gt;Node11</title>
<path fill="none" stroke="#191970" d="M55.1704,-636.4668C66.5758,-669.6546 91.0588,-728.1038 131,-762.5 134.9836,-765.9305 139.5032,-768.8908 144.2569,-771.4411"/>
<polygon fill="#191970" stroke="#191970" points="58.3847,-635.0386 51.9239,-626.6417 51.7382,-637.2349 58.3847,-635.0386"/>
</g>
<!-- Node12 -->
<g id="node11" class="node">
<title>Node12</title>
<g id="a_node11"><a xlink:href="classoneapi_1_1vpl_1_1encoder__init__list.html#aa7cbc795175073f63f42985ef5772f36" target="_top" xlink:title="ctor ">
<polygon fill="#ffffff" stroke="#000000" points="131,-722.5 131,-752.5 260,-752.5 260,-722.5 131,-722.5"/>
<text text-anchor="start" x="139" y="-740.5" font-family="Helvetica,sans-Serif" font-size="10.00" fill="#000000">oneapi::vpl::encoder</text>
<text text-anchor="middle" x="195.5" y="-729.5" font-family="Helvetica,sans-Serif" font-size="10.00" fill="#000000">_init_list::encoder_init_list</text>
</a>
</g>
</g>
<!-- Node2&#45;&gt;Node12 -->
<g id="edge10" class="edge">
<title>Node2&#45;&gt;Node12</title>
<path fill="none" stroke="#191970" d="M61.8509,-635.5673C76.6059,-658.462 101.5441,-692.4485 131,-713.5 135.7631,-716.9041 141.0659,-719.8844 146.5273,-722.4783"/>
<polygon fill="#191970" stroke="#191970" points="64.6277,-633.4076 56.3469,-626.7986 58.6989,-637.1291 64.6277,-633.4076"/>
</g>
<!-- Node13 -->
<g id="node12" class="node">
<title>Node13</title>
<g id="a_node12"><a xlink:href="classoneapi_1_1vpl_1_1encoder__init__list.html#af125474d512633a5d593461387c5778f" target="_top" xlink:title="Add extension buffer to list. ">
<polygon fill="#ffffff" stroke="#000000" points="143.5,-673.5 143.5,-703.5 247.5,-703.5 247.5,-673.5 143.5,-673.5"/>
<text text-anchor="start" x="151.5" y="-691.5" font-family="Helvetica,sans-Serif" font-size="10.00" fill="#000000">oneapi::vpl::encoder</text>
<text text-anchor="middle" x="195.5" y="-680.5" font-family="Helvetica,sans-Serif" font-size="10.00" fill="#000000">_init_list::add_buffer</text>
</a>
</g>
</g>
<!-- Node2&#45;&gt;Node13 -->
<g id="edge11" class="edge">
<title>Node2&#45;&gt;Node13</title>
<path fill="none" stroke="#191970" d="M77.0658,-632.4083C92.6515,-642.8712 112.3595,-655.2438 131,-664.5 137.4208,-667.6883 144.3749,-670.7005 151.2597,-673.4439"/>
<polygon fill="#191970" stroke="#191970" points="78.6394,-629.2453 68.4047,-626.5066 74.6977,-635.03 78.6394,-629.2453"/>
</g>
<!-- Node14 -->
<g id="node13" class="node">
<title>Node14</title>
<g id="a_node13"><a xlink:href="classoneapi_1_1vpl_1_1encoder__init__list.html#a5b24683c618072d856afbad20519292e" target="_top" xlink:title="Variadic length ctor helper. It adds extension buffers one by one to the map of buffers. ">
<polygon fill="#ffffff" stroke="#000000" points="142,-624.5 142,-654.5 249,-654.5 249,-624.5 142,-624.5"/>
<text text-anchor="start" x="150" y="-642.5" font-family="Helvetica,sans-Serif" font-size="10.00" fill="#000000">oneapi::vpl::encoder</text>
<text text-anchor="middle" x="195.5" y="-631.5" font-family="Helvetica,sans-Serif" font-size="10.00" fill="#000000">_init_list::ctor_helper</text>
</a>
</g>
</g>
<!-- Node2&#45;&gt;Node14 -->
<g id="edge12" class="edge">
<title>Node2&#45;&gt;Node14</title>
<path fill="none" stroke="#191970" d="M105.1072,-622.3987C117.177,-624.6821 129.8594,-627.0815 141.7808,-629.3369"/>
<polygon fill="#191970" stroke="#191970" points="105.6191,-618.9335 95.1428,-620.5135 104.3178,-625.8115 105.6191,-618.9335"/>
</g>
<!-- Node15 -->
<g id="node14" class="node">
<title>Node15</title>
<g id="a_node14"><a xlink:href="classoneapi_1_1vpl_1_1encoder__reset__list.html#ab70a5f0fef677a1f03b4668e78524a84" target="_top" xlink:title="ctor ">
<polygon fill="#ffffff" stroke="#000000" points="143.5,-564 143.5,-605 247.5,-605 247.5,-564 143.5,-564"/>
<text text-anchor="start" x="151.5" y="-593" font-family="Helvetica,sans-Serif" font-size="10.00" fill="#000000">oneapi::vpl::encoder</text>
<text text-anchor="start" x="151.5" y="-582" font-family="Helvetica,sans-Serif" font-size="10.00" fill="#000000">_reset_list::encoder</text>
<text text-anchor="middle" x="195.5" y="-571" font-family="Helvetica,sans-Serif" font-size="10.00" fill="#000000">_reset_list</text>
</a>
</g>
</g>
<!-- Node2&#45;&gt;Node15 -->
<g id="edge13" class="edge">
<title>Node2&#45;&gt;Node15</title>
<path fill="none" stroke="#191970" d="M105.0784,-600.9958C117.6834,-598.6963 130.958,-596.2746 143.337,-594.0162"/>
<polygon fill="#191970" stroke="#191970" points="104.3523,-597.5705 95.1428,-602.8084 105.6086,-604.4568 104.3523,-597.5705"/>
</g>
<!-- Node16 -->
<g id="node15" class="node">
<title>Node16</title>
<g id="a_node15"><a xlink:href="classoneapi_1_1vpl_1_1encoder__reset__list.html#aecf0f701a98fb450fad8ae7cc9400c6a" target="_top" xlink:title="Add extension buffer to list. ">
<polygon fill="#ffffff" stroke="#000000" points="139,-514.5 139,-544.5 252,-544.5 252,-514.5 139,-514.5"/>
<text text-anchor="start" x="147" y="-532.5" font-family="Helvetica,sans-Serif" font-size="10.00" fill="#000000">oneapi::vpl::encoder</text>
<text text-anchor="middle" x="195.5" y="-521.5" font-family="Helvetica,sans-Serif" font-size="10.00" fill="#000000">_reset_list::add_buffer</text>
</a>
</g>
</g>
<!-- Node2&#45;&gt;Node16 -->
<g id="edge14" class="edge">
<title>Node2&#45;&gt;Node16</title>
<path fill="none" stroke="#191970" d="M75.1933,-590.2217C90.9865,-578.705 111.472,-564.7752 131,-554.5 137.802,-550.9209 145.2343,-547.5689 152.5565,-544.554"/>
<polygon fill="#191970" stroke="#191970" points="72.8928,-587.5701 66.938,-596.3332 77.0578,-593.1962 72.8928,-587.5701"/>
</g>
<!-- Node17 -->
<g id="node16" class="node">
<title>Node17</title>
<g id="a_node16"><a xlink:href="classoneapi_1_1vpl_1_1encoder__reset__list.html#a6abc5af189a28be88813b5de7827b31d" target="_top" xlink:title="Variadic length ctor helper. It adds extension buffers one by one to the map of buffers. ">
<polygon fill="#ffffff" stroke="#000000" points="137.5,-465.5 137.5,-495.5 253.5,-495.5 253.5,-465.5 137.5,-465.5"/>
<text text-anchor="start" x="145.5" y="-483.5" font-family="Helvetica,sans-Serif" font-size="10.00" fill="#000000">oneapi::vpl::encoder</text>
<text text-anchor="middle" x="195.5" y="-472.5" font-family="Helvetica,sans-Serif" font-size="10.00" fill="#000000">_reset_list::ctor_helper</text>
</a>
</g>
</g>
<!-- Node2&#45;&gt;Node17 -->
<g id="edge15" class="edge">
<title>Node2&#45;&gt;Node17</title>
<path fill="none" stroke="#191970" d="M61.022,-587.6606C75.568,-563.9207 100.7344,-527.878 131,-505.5 136.118,-501.7158 141.8815,-498.4269 147.8037,-495.5905"/>
<polygon fill="#191970" stroke="#191970" points="57.9235,-586.0229 55.8037,-596.4035 63.9342,-589.6105 57.9235,-586.0229"/>
</g>
<!-- Node18 -->
<g id="node17" class="node">
<title>Node18</title>
<g id="a_node17"><a xlink:href="classoneapi_1_1vpl_1_1encoder__process__list.html#a30ae5772ab1d459e7642d68ef9af176d" target="_top" xlink:title="ctor ">
<polygon fill="#ffffff" stroke="#000000" points="138,-405 138,-446 253,-446 253,-405 138,-405"/>
<text text-anchor="start" x="146" y="-434" font-family="Helvetica,sans-Serif" font-size="10.00" fill="#000000">oneapi::vpl::encoder</text>
<text text-anchor="start" x="146" y="-423" font-family="Helvetica,sans-Serif" font-size="10.00" fill="#000000">_process_list::encoder</text>
<text text-anchor="middle" x="195.5" y="-412" font-family="Helvetica,sans-Serif" font-size="10.00" fill="#000000">_process_list</text>
</a>
</g>
</g>
<!-- Node2&#45;&gt;Node18 -->
<g id="edge16" class="edge">
<title>Node2&#45;&gt;Node18</title>
<path fill="none" stroke="#191970" d="M55.4767,-586.4103C67.2288,-552.9532 92.103,-493.6436 131,-456.5 135.0434,-452.6389 139.6583,-449.1773 144.5188,-446.0941"/>
<polygon fill="#191970" stroke="#191970" points="52.0186,-585.7095 52.121,-596.3038 58.6477,-587.958 52.0186,-585.7095"/>
</g>
<!-- Node19 -->
<g id="node18" class="node">
<title>Node19</title>
<g id="a_node18"><a xlink:href="classoneapi_1_1vpl_1_1encoder__process__list.html#a7bda93fd88f78a74b96bc0f2aaed7e7c" target="_top" xlink:title="Add extension buffer to list. ">
<polygon fill="#ffffff" stroke="#000000" points="132.5,-355.5 132.5,-385.5 258.5,-385.5 258.5,-355.5 132.5,-355.5"/>
<text text-anchor="start" x="140.5" y="-373.5" font-family="Helvetica,sans-Serif" font-size="10.00" fill="#000000">oneapi::vpl::encoder</text>
<text text-anchor="middle" x="195.5" y="-362.5" font-family="Helvetica,sans-Serif" font-size="10.00" fill="#000000">_process_list::add_buffer</text>
</a>
</g>
</g>
<!-- Node2&#45;&gt;Node19 -->
<g id="edge17" class="edge">
<title>Node2&#45;&gt;Node19</title>
<path fill="none" stroke="#191970" d="M50.5386,-586.5002C57.1977,-542.196 77.0528,-449.4952 131,-395.5 134.8197,-391.6769 139.2896,-388.4253 144.063,-385.6625"/>
<polygon fill="#191970" stroke="#191970" points="47.0697,-586.0345 49.1488,-596.4233 54.0021,-587.0054 47.0697,-586.0345"/>
</g>
<!-- Node20 -->
<g id="node19" class="node">
<title>Node20</title>
<g id="a_node19"><a xlink:href="classoneapi_1_1vpl_1_1encoder__process__list.html#a4318a6956e48b7bcccfae49655f30e5a" target="_top" xlink:title="Variadic length ctor helper. It adds extension buffers one by one to the map of buffers. ">
<polygon fill="#ffffff" stroke="#000000" points="131.5,-306.5 131.5,-336.5 259.5,-336.5 259.5,-306.5 131.5,-306.5"/>
<text text-anchor="start" x="139.5" y="-324.5" font-family="Helvetica,sans-Serif" font-size="10.00" fill="#000000">oneapi::vpl::encoder</text>
<text text-anchor="middle" x="195.5" y="-313.5" font-family="Helvetica,sans-Serif" font-size="10.00" fill="#000000">_process_list::ctor_helper</text>
</a>
</g>
</g>
<!-- Node2&#45;&gt;Node20 -->
<g id="edge18" class="edge">
<title>Node2&#45;&gt;Node20</title>
<path fill="none" stroke="#191970" d="M52.5574,-586.1992C64.8238,-527.0647 97.6131,-382.1137 131,-346.5 134.6141,-342.6449 138.8912,-339.3765 143.4967,-336.6069"/>
<polygon fill="#191970" stroke="#191970" points="49.0875,-585.6977 50.5103,-596.1965 55.9452,-587.1019 49.0875,-585.6977"/>
</g>
<!-- Node21 -->
<g id="node20" class="node">
<title>Node21</title>
<g id="a_node20"><a xlink:href="classoneapi_1_1vpl_1_1vpp__init__reset__list.html#a5408301ff5a1f5fc7d76443bcfe31332" target="_top" xlink:title="ctor ">
<polygon fill="#ffffff" stroke="#000000" points="143.5,-246 143.5,-287 247.5,-287 247.5,-246 143.5,-246"/>
<text text-anchor="start" x="151.5" y="-275" font-family="Helvetica,sans-Serif" font-size="10.00" fill="#000000">oneapi::vpl::vpp_init</text>
<text text-anchor="start" x="151.5" y="-264" font-family="Helvetica,sans-Serif" font-size="10.00" fill="#000000">_reset_list::vpp_init</text>
<text text-anchor="middle" x="195.5" y="-253" font-family="Helvetica,sans-Serif" font-size="10.00" fill="#000000">_reset_list</text>
</a>
</g>
</g>
<!-- Node2&#45;&gt;Node21 -->
<g id="edge19" class="edge">
<title>Node2&#45;&gt;Node21</title>
<path fill="none" stroke="#191970" d="M51.4187,-586.3142C62.1631,-519.9802 93.7809,-342.4727 131,-297.5 134.4853,-293.2886 138.678,-289.609 143.2319,-286.403"/>
<polygon fill="#191970" stroke="#191970" points="47.9421,-585.8901 49.8209,-596.317 54.8545,-586.9943 47.9421,-585.8901"/>
</g>
<!-- Node22 -->
<g id="node21" class="node">
<title>Node22</title>
<g id="a_node21"><a xlink:href="classoneapi_1_1vpl_1_1vpp__init__reset__list.html#a9caffbc7519d3c048437a01873ffe1d5" target="_top" xlink:title="Add extension buffer to list. ">
<polygon fill="#ffffff" stroke="#000000" points="139,-196.5 139,-226.5 252,-226.5 252,-196.5 139,-196.5"/>
<text text-anchor="start" x="147" y="-214.5" font-family="Helvetica,sans-Serif" font-size="10.00" fill="#000000">oneapi::vpl::vpp_init</text>
<text text-anchor="middle" x="195.5" y="-203.5" font-family="Helvetica,sans-Serif" font-size="10.00" fill="#000000">_reset_list::add_buffer</text>
</a>
</g>
</g>
<!-- Node2&#45;&gt;Node22 -->
<g id="edge20" class="edge">
<title>Node2&#45;&gt;Node22</title>
<path fill="none" stroke="#191970" d="M50.0134,-586.3946C57.9972,-511.2512 85.0001,-290.0111 131,-236.5 134.2881,-232.675 138.2334,-229.4321 142.5318,-226.6834"/>
<polygon fill="#191970" stroke="#191970" points="46.5278,-586.0752 48.9735,-596.3839 53.4902,-586.8001 46.5278,-586.0752"/>
</g>
<!-- Node23 -->
<g id="node22" class="node">
<title>Node23</title>
<g id="a_node22"><a xlink:href="classoneapi_1_1vpl_1_1vpp__init__reset__list.html#a3fc46ff3b7e2a90c62ac2f234f3910ec" target="_top" xlink:title="Variadic length ctor helper. It adds extension buffers one by one to the map of buffers. ">
<polygon fill="#ffffff" stroke="#000000" points="137.5,-147.5 137.5,-177.5 253.5,-177.5 253.5,-147.5 137.5,-147.5"/>
<text text-anchor="start" x="145.5" y="-165.5" font-family="Helvetica,sans-Serif" font-size="10.00" fill="#000000">oneapi::vpl::vpp_init</text>
<text text-anchor="middle" x="195.5" y="-154.5" font-family="Helvetica,sans-Serif" font-size="10.00" fill="#000000">_reset_list::ctor_helper</text>
</a>
</g>
</g>
<!-- Node2&#45;&gt;Node23 -->
<g id="edge21" class="edge">
<title>Node2&#45;&gt;Node23</title>
<path fill="none" stroke="#191970" d="M49.3264,-586.1537C55.6928,-504.3449 79.3858,-249.0608 131,-187.5 134.2407,-183.6348 138.1542,-180.3649 142.4325,-177.5991"/>
<polygon fill="#191970" stroke="#191970" points="45.8232,-586.0636 48.5573,-596.2996 52.8032,-586.5928 45.8232,-586.0636"/>
</g>
<!-- Node24 -->
<g id="node23" class="node">
<title>Node24</title>
<g id="a_node23"><a xlink:href="classoneapi_1_1vpl_1_1vpp__process__list.html#ab0860edefe20ab0150f62e092476da99" target="_top" xlink:title="ctor ">
<polygon fill="#ffffff" stroke="#000000" points="133,-98.5 133,-128.5 258,-128.5 258,-98.5 133,-98.5"/>
<text text-anchor="start" x="141" y="-116.5" font-family="Helvetica,sans-Serif" font-size="10.00" fill="#000000">oneapi::vpl::vpp_process</text>
<text text-anchor="middle" x="195.5" y="-105.5" font-family="Helvetica,sans-Serif" font-size="10.00" fill="#000000">_list::vpp_process_list</text>
</a>
</g>
</g>
<!-- Node2&#45;&gt;Node24 -->
<g id="edge22" class="edge">
<title>Node2&#45;&gt;Node24</title>
<path fill="none" stroke="#191970" d="M48.7738,-585.8692C53.6402,-497.6504 73.7551,-208.1597 131,-138.5 134.2025,-134.603 138.0902,-131.3118 142.3523,-128.5325"/>
<polygon fill="#191970" stroke="#191970" points="45.2684,-585.879 48.2314,-596.0511 52.2585,-586.2515 45.2684,-585.879"/>
</g>
<!-- Node25 -->
<g id="node24" class="node">
<title>Node25</title>
<g id="a_node24"><a xlink:href="classoneapi_1_1vpl_1_1vpp__process__list.html#a8748d973830fd86db8274d721a1d58b8" target="_top" xlink:title="Add extension buffer to list. ">
<polygon fill="#ffffff" stroke="#000000" points="133,-49.5 133,-79.5 258,-79.5 258,-49.5 133,-49.5"/>
<text text-anchor="start" x="141" y="-67.5" font-family="Helvetica,sans-Serif" font-size="10.00" fill="#000000">oneapi::vpl::vpp_process</text>
<text text-anchor="middle" x="195.5" y="-56.5" font-family="Helvetica,sans-Serif" font-size="10.00" fill="#000000">_list::add_buffer</text>
</a>
</g>
</g>
<!-- Node2&#45;&gt;Node25 -->
<g id="edge23" class="edge">
<title>Node2&#45;&gt;Node25</title>
<path fill="none" stroke="#191970" d="M48.2986,-586.035C51.7234,-492.2379 68.0036,-167.4304 131,-89.5 134.0955,-85.6707 137.8538,-82.4268 141.9834,-79.6788"/>
<polygon fill="#191970" stroke="#191970" points="44.7915,-586.1809 47.9424,-596.2963 51.7873,-586.4238 44.7915,-586.1809"/>
</g>
<!-- Node26 -->
<g id="node25" class="node">
<title>Node26</title>
<g id="a_node25"><a xlink:href="classoneapi_1_1vpl_1_1vpp__process__list.html#ae191c7296dd6c66dae2f0bfc5838f1c7" target="_top" xlink:title="Variadic length ctor helper. It adds extension buffers one by one to the map of buffers. ">
<polygon fill="#ffffff" stroke="#000000" points="133,-.5 133,-30.5 258,-30.5 258,-.5 133,-.5"/>
<text text-anchor="start" x="141" y="-18.5" font-family="Helvetica,sans-Serif" font-size="10.00" fill="#000000">oneapi::vpl::vpp_process</text>
<text text-anchor="middle" x="195.5" y="-7.5" font-family="Helvetica,sans-Serif" font-size="10.00" fill="#000000">_list::ctor_helper</text>
</a>
</g>
</g>
<!-- Node2&#45;&gt;Node26 -->
<g id="edge24" class="edge">
<title>Node2&#45;&gt;Node26</title>
<path fill="none" stroke="#191970" d="M47.9064,-586.2421C49.9828,-487.2298 62.2193,-126.7627 131,-40.5 134.0697,-36.65 137.8106,-33.392 141.9289,-30.6351"/>
<polygon fill="#191970" stroke="#191970" points="44.407,-586.181 47.7133,-596.2467 51.4057,-586.3162 44.407,-586.181"/>
</g>
</g>
</svg>
        <g id="navigator" transform="translate(0 0)" fill="#404254">
                <rect fill="#f2f5e9" fill-opacity="0.5" stroke="#606060" stroke-width=".5" x="0" y="0" width="60" height="60"/>
                <use id="zoomplus" xlink:href="#zoomPlus" x="17" y="9" onmousedown="handleZoom(evt,'in')"/>
                <use id="zoomminus" xlink:href="#zoomMin" x="42" y="9" onmousedown="handleZoom(evt,'out')"/>
                <use id="reset" xlink:href="#resetDef" x="30" y="36" onmousedown="handleReset()"/>
                <g id="arrowUp" xlink:href="#dirArrow" transform="translate(30 24)" onmousedown="handlePan(0,-1)">
                  <use xlink:href="#rim" fill="#404040">
                        <set attributeName="fill" to="#808080" begin="arrowUp.mouseover" end="arrowUp.mouseout"/>
                  </use>
                  <path fill="none" stroke="white" stroke-width="1.5" d="M0,-3.0v7 M-2.5,-0.5L0,-3.0L2.5,-0.5"/>
                </g>
                <g id="arrowRight" xlink:href="#dirArrow" transform="rotate(90) translate(36 -43)" onmousedown="handlePan(1,0)">
                  <use xlink:href="#rim" fill="#404040">
                        <set attributeName="fill" to="#808080" begin="arrowRight.mouseover" end="arrowRight.mouseout"/>
                  </use>
                  <path fill="none" stroke="white" stroke-width="1.5" d="M0,-3.0v7 M-2.5,-0.5L0,-3.0L2.5,-0.5"/>
                </g>
                <g id="arrowDown" xlink:href="#dirArrow" transform="rotate(180) translate(-30 -48)" onmousedown="handlePan(0,1)">
                  <use xlink:href="#rim" fill="#404040">
                        <set attributeName="fill" to="#808080" begin="arrowDown.mouseover" end="arrowDown.mouseout"/>
                  </use>
                  <path fill="none" stroke="white" stroke-width="1.5" d="M0,-3.0v7 M-2.5,-0.5L0,-3.0L2.5,-0.5"/>
                </g>
                <g id="arrowLeft" xlink:href="#dirArrow" transform="rotate(270) translate(-36 17)" onmousedown="handlePan(-1,0)">
                  <use xlink:href="#rim" fill="#404040">
                        <set attributeName="fill" to="#808080" begin="arrowLeft.mouseover" end="arrowLeft.mouseout"/>
                  </use>
                  <path fill="none" stroke="white" stroke-width="1.5" d="M0,-3.0v7 M-2.5,-0.5L0,-3.0L2.5,-0.5"/>
                </g>
        </g>
        <svg viewBox="0 0 15 15" width="100%" height="30px" preserveAspectRatio="xMaxYMin meet">
         <g id="arrow_out" transform="scale(0.3 0.3)">
          <a xlink:href="classoneapi_1_1vpl_1_1buffer__list_aa156fcbd0cd65808fb14ffc2a3ebda5a_icgraph_org.svg" target="_base">
           <rect id="button" ry="5" rx="5" y="6" x="6" height="38" width="38"
                fill="#f2f5e9" fill-opacity="0.5" stroke="#606060" stroke-width="1.0"/>
           <path id="arrow"
             d="M 11.500037,31.436501 C 11.940474,20.09759 22.043105,11.32322 32.158766,21.979434 L 37.068811,17.246167 C 37.068811,17.246167 37.088388,32 37.088388,32 L 22.160133,31.978069 C 22.160133,31.978069 26.997745,27.140456 26.997745,27.140456 C 18.528582,18.264221 13.291696,25.230495 11.500037,31.436501 z"
             style="fill:#404040;"/>
          </a>
         </g>
        </svg>
</svg>
