<?xml version="1.0" encoding="UTF-8" standalone="no"?>
<!DOCTYPE svg PUBLIC "-//W3C//DTD SVG 1.1//EN"
 "http://www.w3.org/Graphics/SVG/1.1/DTD/svg11.dtd">
<!-- Generated by graphviz version 2.40.1 (20161225.0304)
 -->
<!-- Title: oneapi::vpl::ExtHEVCTiles Pages: 1 -->
<svg width="236pt" height="253pt"
 viewBox="0.00 0.00 236.00 253.00" xmlns="http://www.w3.org/2000/svg" xmlns:xlink="http://www.w3.org/1999/xlink">
<g id="graph0" class="graph" transform="scale(1 1) rotate(0) translate(4 249)">
<title>oneapi::vpl::ExtHEVCTiles</title>
<polygon fill="#ffffff" stroke="transparent" points="-4,4 -4,-249 232,-249 232,4 -4,4"/>
<!-- Node4 -->
<g id="node1" class="node">
<title>Node4</title>
<polygon fill="#bfbfbf" stroke="#000000" points="50,-.5 50,-19.5 184,-19.5 184,-.5 50,-.5"/>
<text text-anchor="middle" x="117" y="-7.5" font-family="Helvetica,sans-Serif" font-size="10.00" fill="#000000">oneapi::vpl::ExtHEVCTiles</text>
</g>
<!-- Node5 -->
<g id="node2" class="node">
<title>Node5</title>
<g id="a_node2"><a xlink:href="classoneapi_1_1vpl_1_1extension__buffer__trival.html" target="_top" xlink:title="oneapi::vpl::extension\l_buffer_trival\&lt; mfxExtHEVCTiles,\l MFX_EXTBUFF_HEVC_TILES \&gt;">
<polygon fill="#ffffff" stroke="#000000" points="33.5,-57.5 33.5,-98.5 200.5,-98.5 200.5,-57.5 33.5,-57.5"/>
<text text-anchor="start" x="41.5" y="-86.5" font-family="Helvetica,sans-Serif" font-size="10.00" fill="#000000">oneapi::vpl::extension</text>
<text text-anchor="start" x="41.5" y="-75.5" font-family="Helvetica,sans-Serif" font-size="10.00" fill="#000000">_buffer_trival&lt; mfxExtHEVCTiles,</text>
<text text-anchor="middle" x="117" y="-64.5" font-family="Helvetica,sans-Serif" font-size="10.00" fill="#000000"> MFX_EXTBUFF_HEVC_TILES &gt;</text>
</a>
</g>
</g>
<!-- Node5&#45;&gt;Node4 -->
<g id="edge1" class="edge">
<title>Node5&#45;&gt;Node4</title>
<path fill="none" stroke="#191970" d="M117,-47.1423C117,-37.1999 117,-26.896 117,-19.6705"/>
<polygon fill="#191970" stroke="#191970" points="113.5001,-47.2282 117,-57.2283 120.5001,-47.2283 113.5001,-47.2282"/>
</g>
<!-- Node6 -->
<g id="node3" class="node">
<title>Node6</title>
<g id="a_node3"><a xlink:href="classoneapi_1_1vpl_1_1extension__buffer.html" target="_top" xlink:title="oneapi::vpl::extension\l_buffer\&lt; mfxExtHEVCTiles, ID \&gt;">
<polygon fill="#ffffff" stroke="#000000" points="36,-136.5 36,-166.5 198,-166.5 198,-136.5 36,-136.5"/>
<text text-anchor="start" x="44" y="-154.5" font-family="Helvetica,sans-Serif" font-size="10.00" fill="#000000">oneapi::vpl::extension</text>
<text text-anchor="middle" x="117" y="-143.5" font-family="Helvetica,sans-Serif" font-size="10.00" fill="#000000">_buffer&lt; mfxExtHEVCTiles, ID &gt;</text>
</a>
</g>
</g>
<!-- Node6&#45;&gt;Node5 -->
<g id="edge2" class="edge">
<title>Node6&#45;&gt;Node5</title>
<path fill="none" stroke="#191970" d="M117,-126.2668C117,-117.2098 117,-107.1146 117,-98.5074"/>
<polygon fill="#191970" stroke="#191970" points="113.5001,-126.2707 117,-136.2708 120.5001,-126.2708 113.5001,-126.2707"/>
</g>
<!-- Node7 -->
<g id="node4" class="node">
<title>Node7</title>
<g id="a_node4"><a xlink:href="classoneapi_1_1vpl_1_1extension__buffer__base.html" target="_top" xlink:title="Interface definition for extension buffers. Extension buffers are used to provide additional data for...">
<polygon fill="#ffffff" stroke="#000000" points="0,-214.5 0,-244.5 112,-244.5 112,-214.5 0,-214.5"/>
<text text-anchor="start" x="8" y="-232.5" font-family="Helvetica,sans-Serif" font-size="10.00" fill="#000000">oneapi::vpl::extension</text>
<text text-anchor="middle" x="56" y="-221.5" font-family="Helvetica,sans-Serif" font-size="10.00" fill="#000000">_buffer_base</text>
</a>
</g>
</g>
<!-- Node7&#45;&gt;Node6 -->
<g id="edge3" class="edge">
<title>Node7&#45;&gt;Node6</title>
<path fill="none" stroke="#191970" d="M73.9781,-206.5116C84.0057,-193.6894 96.2186,-178.0729 105.0666,-166.7592"/>
<polygon fill="#191970" stroke="#191970" points="71.1648,-204.4275 67.7614,-214.4608 76.6788,-208.7398 71.1648,-204.4275"/>
</g>
<!-- Node8 -->
<g id="node5" class="node">
<title>Node8</title>
<g id="a_node5"><a xlink:href="structmfxExtHEVCTiles.html" target="_top" xlink:title="mfxExtHEVCTiles">
<polygon fill="#ffffff" stroke="#000000" points="130,-220 130,-239 228,-239 228,-220 130,-220"/>
<text text-anchor="middle" x="179" y="-227" font-family="Helvetica,sans-Serif" font-size="10.00" fill="#000000">mfxExtHEVCTiles</text>
</a>
</g>
</g>
<!-- Node8&#45;&gt;Node6 -->
<g id="edge4" class="edge">
<title>Node8&#45;&gt;Node6</title>
<path fill="none" stroke="#9a32cd" stroke-dasharray="5,2" d="M164.9678,-211.8466C154.1808,-198.2759 139.4324,-179.7214 129.1475,-166.7824"/>
<polygon fill="#9a32cd" stroke="#9a32cd" points="162.4352,-214.2853 171.3976,-219.9357 167.915,-209.9295 162.4352,-214.2853"/>
<text text-anchor="middle" x="168" y="-188" font-family="Helvetica,sans-Serif" font-size="10.00" fill="#000000"> buffer_</text>
</g>
</g>
</svg>
