<?xml version="1.0" encoding="UTF-8" standalone="no"?>
<!DOCTYPE svg PUBLIC "-//W3C//DTD SVG 1.1//EN"
 "http://www.w3.org/Graphics/SVG/1.1/DTD/svg11.dtd">
<!-- Generated by graphviz version 2.40.1 (20161225.0304)
 -->
<!-- Title: oneapi::vpl::ExtVP9Segmentation Pages: 1 -->
<svg width="738pt" height="61pt"
 viewBox="0.00 0.00 738.00 61.00" xmlns="http://www.w3.org/2000/svg" xmlns:xlink="http://www.w3.org/1999/xlink">
<g id="graph0" class="graph" transform="scale(1 1) rotate(0) translate(4 57)">
<title>oneapi::vpl::ExtVP9Segmentation</title>
<polygon fill="#ffffff" stroke="transparent" points="-4,4 -4,-57 734,-57 734,4 -4,4"/>
<!-- Node4 -->
<g id="node1" class="node">
<title>Node4</title>
<polygon fill="#bfbfbf" stroke="#000000" points="566,-17 566,-36 730,-36 730,-17 566,-17"/>
<text text-anchor="middle" x="648" y="-24" font-family="Helvetica,sans-Serif" font-size="10.00" fill="#000000">oneapi::vpl::ExtVP9Segmentation</text>
</g>
<!-- Node5 -->
<g id="node2" class="node">
<title>Node5</title>
<g id="a_node2"><a xlink:href="classoneapi_1_1vpl_1_1extension__buffer__with__ptrs.html" target="_top" xlink:title="oneapi::vpl::extension\l_buffer_with_ptrs\&lt; mfxExtVP9\lSegmentation, MFX_EXTBUFF\l_VP9_SEGMENTATION \&gt;">
<polygon fill="#ffffff" stroke="#000000" points="375,-.5 375,-52.5 530,-52.5 530,-.5 375,-.5"/>
<text text-anchor="start" x="383" y="-40.5" font-family="Helvetica,sans-Serif" font-size="10.00" fill="#000000">oneapi::vpl::extension</text>
<text text-anchor="start" x="383" y="-29.5" font-family="Helvetica,sans-Serif" font-size="10.00" fill="#000000">_buffer_with_ptrs&lt; mfxExtVP9</text>
<text text-anchor="start" x="383" y="-18.5" font-family="Helvetica,sans-Serif" font-size="10.00" fill="#000000">Segmentation, MFX_EXTBUFF</text>
<text text-anchor="middle" x="452.5" y="-7.5" font-family="Helvetica,sans-Serif" font-size="10.00" fill="#000000">_VP9_SEGMENTATION &gt;</text>
</a>
</g>
</g>
<!-- Node5&#45;&gt;Node4 -->
<g id="edge1" class="edge">
<title>Node5&#45;&gt;Node4</title>
<path fill="none" stroke="#191970" d="M540.3012,-26.5C548.7623,-26.5 557.324,-26.5 565.7289,-26.5"/>
<polygon fill="#191970" stroke="#191970" points="540.0476,-23.0001 530.0476,-26.5 540.0475,-30.0001 540.0476,-23.0001"/>
</g>
<!-- Node6 -->
<g id="node3" class="node">
<title>Node6</title>
<g id="a_node3"><a xlink:href="classoneapi_1_1vpl_1_1extension__buffer.html" target="_top" xlink:title="oneapi::vpl::extension\l_buffer\&lt; mfxExtVP9Segmentation, ID \&gt;">
<polygon fill="#ffffff" stroke="#000000" points="148,-11.5 148,-41.5 339,-41.5 339,-11.5 148,-11.5"/>
<text text-anchor="start" x="156" y="-29.5" font-family="Helvetica,sans-Serif" font-size="10.00" fill="#000000">oneapi::vpl::extension</text>
<text text-anchor="middle" x="243.5" y="-18.5" font-family="Helvetica,sans-Serif" font-size="10.00" fill="#000000">_buffer&lt; mfxExtVP9Segmentation, ID &gt;</text>
</a>
</g>
</g>
<!-- Node6&#45;&gt;Node5 -->
<g id="edge2" class="edge">
<title>Node6&#45;&gt;Node5</title>
<path fill="none" stroke="#191970" d="M349.2206,-26.5C357.823,-26.5 366.4143,-26.5 374.7614,-26.5"/>
<polygon fill="#191970" stroke="#191970" points="349.1311,-23.0001 339.1311,-26.5 349.131,-30.0001 349.1311,-23.0001"/>
</g>
<!-- Node7 -->
<g id="node4" class="node">
<title>Node7</title>
<g id="a_node4"><a xlink:href="classoneapi_1_1vpl_1_1extension__buffer__base.html" target="_top" xlink:title="Interface definition for extension buffers. Extension buffers are used to provide additional data for...">
<polygon fill="#ffffff" stroke="#000000" points="0,-11.5 0,-41.5 112,-41.5 112,-11.5 0,-11.5"/>
<text text-anchor="start" x="8" y="-29.5" font-family="Helvetica,sans-Serif" font-size="10.00" fill="#000000">oneapi::vpl::extension</text>
<text text-anchor="middle" x="56" y="-18.5" font-family="Helvetica,sans-Serif" font-size="10.00" fill="#000000">_buffer_base</text>
</a>
</g>
</g>
<!-- Node7&#45;&gt;Node6 -->
<g id="edge3" class="edge">
<title>Node7&#45;&gt;Node6</title>
<path fill="none" stroke="#191970" d="M122.029,-26.5C130.3975,-26.5 139.0898,-26.5 147.8044,-26.5"/>
<polygon fill="#191970" stroke="#191970" points="122.0022,-23.0001 112.0022,-26.5 122.0022,-30.0001 122.0022,-23.0001"/>
</g>
</g>
</svg>
