<?xml version="1.0" encoding="UTF-8" standalone="no"?>
<!DOCTYPE svg PUBLIC "-//W3C//DTD SVG 1.1//EN"
 "http://www.w3.org/Graphics/SVG/1.1/DTD/svg11.dtd">
<!-- Generated by graphviz version 2.40.1 (20161225.0304)
 -->
<!-- Title: oneapi::vpl::ExtMasteringDisplayColourVolume Pages: 1 -->
<svg width="753pt" height="61pt"
 viewBox="0.00 0.00 753.00 61.00" xmlns="http://www.w3.org/2000/svg" xmlns:xlink="http://www.w3.org/1999/xlink">
<g id="graph0" class="graph" transform="scale(1 1) rotate(0) translate(4 57)">
<title>oneapi::vpl::ExtMasteringDisplayColourVolume</title>
<polygon fill="#ffffff" stroke="transparent" points="-4,4 -4,-57 749,-57 749,4 -4,4"/>
<!-- Node4 -->
<g id="node1" class="node">
<title>Node4</title>
<polygon fill="#bfbfbf" stroke="#000000" points="617,-11.5 617,-41.5 745,-41.5 745,-11.5 617,-11.5"/>
<text text-anchor="start" x="625" y="-29.5" font-family="Helvetica,sans-Serif" font-size="10.00" fill="#000000">oneapi::vpl::ExtMastering</text>
<text text-anchor="middle" x="681" y="-18.5" font-family="Helvetica,sans-Serif" font-size="10.00" fill="#000000">DisplayColourVolume</text>
</g>
<!-- Node5 -->
<g id="node2" class="node">
<title>Node5</title>
<g id="a_node2"><a xlink:href="classoneapi_1_1vpl_1_1extension__buffer__trival.html" target="_top" xlink:title="oneapi::vpl::extension\l_buffer_trival\&lt; mfxExtMastering\lDisplayColourVolume, MFX_EXTBUFF\l_MASTERING_DISPLAY_COLOUR_VOLUME \&gt;">
<polygon fill="#ffffff" stroke="#000000" points="347,-.5 347,-52.5 581,-52.5 581,-.5 347,-.5"/>
<text text-anchor="start" x="355" y="-40.5" font-family="Helvetica,sans-Serif" font-size="10.00" fill="#000000">oneapi::vpl::extension</text>
<text text-anchor="start" x="355" y="-29.5" font-family="Helvetica,sans-Serif" font-size="10.00" fill="#000000">_buffer_trival&lt; mfxExtMastering</text>
<text text-anchor="start" x="355" y="-18.5" font-family="Helvetica,sans-Serif" font-size="10.00" fill="#000000">DisplayColourVolume, MFX_EXTBUFF</text>
<text text-anchor="middle" x="464" y="-7.5" font-family="Helvetica,sans-Serif" font-size="10.00" fill="#000000">_MASTERING_DISPLAY_COLOUR_VOLUME &gt;</text>
</a>
</g>
</g>
<!-- Node5&#45;&gt;Node4 -->
<g id="edge1" class="edge">
<title>Node5&#45;&gt;Node4</title>
<path fill="none" stroke="#191970" d="M591.1272,-26.5C599.9784,-26.5 608.6591,-26.5 616.9241,-26.5"/>
<polygon fill="#191970" stroke="#191970" points="591.0746,-23.0001 581.0746,-26.5 591.0745,-30.0001 591.0746,-23.0001"/>
</g>
<!-- Node6 -->
<g id="node3" class="node">
<title>Node6</title>
<g id="a_node3"><a xlink:href="classoneapi_1_1vpl_1_1extension__buffer.html" target="_top" xlink:title="oneapi::vpl::extension\l_buffer\&lt; mfxExtMasteringDisplay\lColourVolume, ID \&gt;">
<polygon fill="#ffffff" stroke="#000000" points="148,-6 148,-47 311,-47 311,-6 148,-6"/>
<text text-anchor="start" x="156" y="-35" font-family="Helvetica,sans-Serif" font-size="10.00" fill="#000000">oneapi::vpl::extension</text>
<text text-anchor="start" x="156" y="-24" font-family="Helvetica,sans-Serif" font-size="10.00" fill="#000000">_buffer&lt; mfxExtMasteringDisplay</text>
<text text-anchor="middle" x="229.5" y="-13" font-family="Helvetica,sans-Serif" font-size="10.00" fill="#000000">ColourVolume, ID &gt;</text>
</a>
</g>
</g>
<!-- Node6&#45;&gt;Node5 -->
<g id="edge2" class="edge">
<title>Node6&#45;&gt;Node5</title>
<path fill="none" stroke="#191970" d="M321.2741,-26.5C329.627,-26.5 338.1611,-26.5 346.6957,-26.5"/>
<polygon fill="#191970" stroke="#191970" points="321.1876,-23.0001 311.1875,-26.5 321.1875,-30.0001 321.1876,-23.0001"/>
</g>
<!-- Node7 -->
<g id="node4" class="node">
<title>Node7</title>
<g id="a_node4"><a xlink:href="classoneapi_1_1vpl_1_1extension__buffer__base.html" target="_top" xlink:title="Interface definition for extension buffers. Extension buffers are used to provide additional data for...">
<polygon fill="#ffffff" stroke="#000000" points="0,-11.5 0,-41.5 112,-41.5 112,-11.5 0,-11.5"/>
<text text-anchor="start" x="8" y="-29.5" font-family="Helvetica,sans-Serif" font-size="10.00" fill="#000000">oneapi::vpl::extension</text>
<text text-anchor="middle" x="56" y="-18.5" font-family="Helvetica,sans-Serif" font-size="10.00" fill="#000000">_buffer_base</text>
</a>
</g>
</g>
<!-- Node7&#45;&gt;Node6 -->
<g id="edge3" class="edge">
<title>Node7&#45;&gt;Node6</title>
<path fill="none" stroke="#191970" d="M122.376,-26.5C130.7389,-26.5 139.3695,-26.5 147.9325,-26.5"/>
<polygon fill="#191970" stroke="#191970" points="122.3305,-23.0001 112.3305,-26.5 122.3304,-30.0001 122.3305,-23.0001"/>
</g>
</g>
</svg>
