<?xml version="1.0" encoding="UTF-8" standalone="no"?>
<!DOCTYPE svg PUBLIC "-//W3C//DTD SVG 1.1//EN"
 "http://www.w3.org/Graphics/SVG/1.1/DTD/svg11.dtd">
<!-- Generated by graphviz version 2.40.1 (20161225.0304)
 -->
<!-- Title: oneapi::vpl::payload::payload Pages: 1 -->
<svg width="252pt" height="88pt"
 viewBox="0.00 0.00 252.00 88.00" xmlns="http://www.w3.org/2000/svg" xmlns:xlink="http://www.w3.org/1999/xlink">
<g id="graph0" class="graph" transform="scale(1 1) rotate(0) translate(4 84)">
<title>oneapi::vpl::payload::payload</title>
<polygon fill="#ffffff" stroke="transparent" points="-4,4 -4,-84 248,-84 248,4 -4,4"/>
<!-- Node6 -->
<g id="node1" class="node">
<title>Node6</title>
<polygon fill="#bfbfbf" stroke="#000000" points="0,-24.5 0,-54.5 104,-54.5 104,-24.5 0,-24.5"/>
<text text-anchor="start" x="8" y="-42.5" font-family="Helvetica,sans-Serif" font-size="10.00" fill="#000000">oneapi::vpl::payload</text>
<text text-anchor="middle" x="52" y="-31.5" font-family="Helvetica,sans-Serif" font-size="10.00" fill="#000000">::payload</text>
</g>
<!-- Node7 -->
<g id="node2" class="node">
<title>Node7</title>
<g id="a_node2"><a xlink:href="classoneapi_1_1vpl_1_1payload.html#a70a55bc3fad15624101be9c7ac9be795" target="_top" xlink:title="Internal helper function for ctor. ">
<polygon fill="#ffffff" stroke="#000000" points="140,-49.5 140,-79.5 244,-79.5 244,-49.5 140,-49.5"/>
<text text-anchor="start" x="148" y="-67.5" font-family="Helvetica,sans-Serif" font-size="10.00" fill="#000000">oneapi::vpl::payload</text>
<text text-anchor="middle" x="192" y="-56.5" font-family="Helvetica,sans-Serif" font-size="10.00" fill="#000000">::ctor_helper</text>
</a>
</g>
</g>
<!-- Node6&#45;&gt;Node7 -->
<g id="edge1" class="edge">
<title>Node6&#45;&gt;Node7</title>
<path fill="none" stroke="#191970" d="M104.1308,-48.8091C112.5124,-50.3058 121.2603,-51.8679 129.8486,-53.4015"/>
<polygon fill="#191970" stroke="#191970" points="129.3661,-56.8707 139.8256,-55.1831 130.5966,-49.9797 129.3661,-56.8707"/>
</g>
<!-- Node8 -->
<g id="node3" class="node">
<title>Node8</title>
<g id="a_node3"><a xlink:href="classoneapi_1_1vpl_1_1payload.html#a8219d6dc7cb96e41259a9cb39e92b8d8" target="_top" xlink:title="Returns container with payload data. ">
<polygon fill="#ffffff" stroke="#000000" points="140,-.5 140,-30.5 244,-30.5 244,-.5 140,-.5"/>
<text text-anchor="start" x="148" y="-18.5" font-family="Helvetica,sans-Serif" font-size="10.00" fill="#000000">oneapi::vpl::payload</text>
<text text-anchor="middle" x="192" y="-7.5" font-family="Helvetica,sans-Serif" font-size="10.00" fill="#000000">::get_payload_data</text>
</a>
</g>
</g>
<!-- Node6&#45;&gt;Node8 -->
<g id="edge2" class="edge">
<title>Node6&#45;&gt;Node8</title>
<path fill="none" stroke="#191970" d="M104.1308,-30.5633C112.5124,-29.1264 121.2603,-27.6268 129.8486,-26.1545"/>
<polygon fill="#191970" stroke="#191970" points="130.5608,-29.5836 139.8256,-24.4442 129.378,-22.6842 130.5608,-29.5836"/>
</g>
</g>
</svg>
