<?xml version="1.0" encoding="UTF-8" standalone="no"?>
<!DOCTYPE svg PUBLIC "-//W3C//DTD SVG 1.1//EN"
 "http://www.w3.org/Graphics/SVG/1.1/DTD/svg11.dtd">
<!-- Generated by graphviz version 2.40.1 (20161225.0304)
 -->
<!-- Title: oneapi::vpl::base_implementation_capabilities Pages: 1 -->
<svg width="170pt" height="106pt"
 viewBox="0.00 0.00 170.00 106.00" xmlns="http://www.w3.org/2000/svg" xmlns:xlink="http://www.w3.org/1999/xlink">
<g id="graph0" class="graph" transform="scale(1 1) rotate(0) translate(4 102)">
<title>oneapi::vpl::base_implementation_capabilities</title>
<polygon fill="#ffffff" stroke="transparent" points="-4,4 -4,-102 166,-102 166,4 -4,4"/>
<!-- Node0 -->
<g id="node1" class="node">
<title>Node0</title>
<polygon fill="#bfbfbf" stroke="#000000" points="0,-67.5 0,-97.5 162,-97.5 162,-67.5 0,-67.5"/>
<text text-anchor="start" x="8" y="-85.5" font-family="Helvetica,sans-Serif" font-size="10.00" fill="#000000">oneapi::vpl::base_implementation</text>
<text text-anchor="middle" x="81" y="-74.5" font-family="Helvetica,sans-Serif" font-size="10.00" fill="#000000">_capabilities</text>
</g>
<!-- Node1 -->
<g id="node2" class="node">
<title>Node1</title>
<g id="a_node2"><a xlink:href="classoneapi_1_1vpl_1_1implementation__capabilities.html" target="_top" xlink:title="Store and parse implementation capabilities in a form of implementation description structure...">
<polygon fill="#ffffff" stroke="#000000" points="13,-.5 13,-30.5 149,-30.5 149,-.5 13,-.5"/>
<text text-anchor="start" x="21" y="-18.5" font-family="Helvetica,sans-Serif" font-size="10.00" fill="#000000">oneapi::vpl::implementation</text>
<text text-anchor="middle" x="81" y="-7.5" font-family="Helvetica,sans-Serif" font-size="10.00" fill="#000000">_capabilities</text>
</a>
</g>
</g>
<!-- Node0&#45;&gt;Node1 -->
<g id="edge1" class="edge">
<title>Node0&#45;&gt;Node1</title>
<path fill="none" stroke="#191970" d="M81,-57.0249C81,-48.128 81,-38.4287 81,-30.6432"/>
<polygon fill="#191970" stroke="#191970" points="77.5001,-57.2966 81,-67.2967 84.5001,-57.2967 77.5001,-57.2966"/>
</g>
</g>
</svg>
