<?xml version="1.0" encoding="UTF-8" standalone="no"?>
<!DOCTYPE svg PUBLIC "-//W3C//DTD SVG 1.1//EN"
 "http://www.w3.org/Graphics/SVG/1.1/DTD/svg11.dtd">
<!-- Generated by graphviz version 2.40.1 (20161225.0304)
 -->
<!-- Title: oneapi::vpl::ExtMVOverPicBoundaries Pages: 1 -->
<svg width="821pt" height="78pt"
 viewBox="0.00 0.00 821.00 77.50" xmlns="http://www.w3.org/2000/svg" xmlns:xlink="http://www.w3.org/1999/xlink">
<g id="graph0" class="graph" transform="scale(1 1) rotate(0) translate(4 73.5)">
<title>oneapi::vpl::ExtMVOverPicBoundaries</title>
<polygon fill="#ffffff" stroke="transparent" points="-4,4 -4,-73.5 817,-73.5 817,4 -4,4"/>
<!-- Node4 -->
<g id="node1" class="node">
<title>Node4</title>
<polygon fill="#bfbfbf" stroke="#000000" points="678,-17 678,-47 813,-47 813,-17 678,-17"/>
<text text-anchor="start" x="686" y="-35" font-family="Helvetica,sans-Serif" font-size="10.00" fill="#000000">oneapi::vpl::ExtMVOverPic</text>
<text text-anchor="middle" x="745.5" y="-24" font-family="Helvetica,sans-Serif" font-size="10.00" fill="#000000">Boundaries</text>
</g>
<!-- Node5 -->
<g id="node2" class="node">
<title>Node5</title>
<g id="a_node2"><a xlink:href="classoneapi_1_1vpl_1_1extension__buffer__trival.html" target="_top" xlink:title="oneapi::vpl::extension\l_buffer_trival\&lt; mfxExtMVOver\lPicBoundaries, MFX_EXTBUFF\l_MV_OVER_PIC_BOUNDARIES \&gt;">
<polygon fill="#ffffff" stroke="#000000" points="466,-6 466,-58 641,-58 641,-6 466,-6"/>
<text text-anchor="start" x="474" y="-46" font-family="Helvetica,sans-Serif" font-size="10.00" fill="#000000">oneapi::vpl::extension</text>
<text text-anchor="start" x="474" y="-35" font-family="Helvetica,sans-Serif" font-size="10.00" fill="#000000">_buffer_trival&lt; mfxExtMVOver</text>
<text text-anchor="start" x="474" y="-24" font-family="Helvetica,sans-Serif" font-size="10.00" fill="#000000">PicBoundaries, MFX_EXTBUFF</text>
<text text-anchor="middle" x="553.5" y="-13" font-family="Helvetica,sans-Serif" font-size="10.00" fill="#000000">_MV_OVER_PIC_BOUNDARIES &gt;</text>
</a>
</g>
</g>
<!-- Node5&#45;&gt;Node4 -->
<g id="edge1" class="edge">
<title>Node5&#45;&gt;Node4</title>
<path fill="none" stroke="#191970" d="M651.2387,-32C660.2507,-32 669.2422,-32 677.8955,-32"/>
<polygon fill="#191970" stroke="#191970" points="651.0722,-28.5001 641.0722,-32 651.0721,-35.5001 651.0722,-28.5001"/>
</g>
<!-- Node6 -->
<g id="node3" class="node">
<title>Node6</title>
<g id="a_node3"><a xlink:href="classoneapi_1_1vpl_1_1extension__buffer.html" target="_top" xlink:title="oneapi::vpl::extension\l_buffer\&lt; mfxExtMVOverPicBoundaries, ID \&gt;">
<polygon fill="#ffffff" stroke="#000000" points="217,-17 217,-47 429,-47 429,-17 217,-17"/>
<text text-anchor="start" x="225" y="-35" font-family="Helvetica,sans-Serif" font-size="10.00" fill="#000000">oneapi::vpl::extension</text>
<text text-anchor="middle" x="323" y="-24" font-family="Helvetica,sans-Serif" font-size="10.00" fill="#000000">_buffer&lt; mfxExtMVOverPicBoundaries, ID &gt;</text>
</a>
</g>
</g>
<!-- Node6&#45;&gt;Node5 -->
<g id="edge2" class="edge">
<title>Node6&#45;&gt;Node5</title>
<path fill="none" stroke="#191970" d="M439.2417,-32C448.1944,-32 457.139,-32 465.8596,-32"/>
<polygon fill="#191970" stroke="#191970" points="439.142,-28.5001 429.142,-32 439.142,-35.5001 439.142,-28.5001"/>
</g>
<!-- Node7 -->
<g id="node4" class="node">
<title>Node7</title>
<g id="a_node4"><a xlink:href="classoneapi_1_1vpl_1_1extension__buffer__base.html" target="_top" xlink:title="Interface definition for extension buffers. Extension buffers are used to provide additional data for...">
<polygon fill="#ffffff" stroke="#000000" points="17.5,-39 17.5,-69 129.5,-69 129.5,-39 17.5,-39"/>
<text text-anchor="start" x="25.5" y="-57" font-family="Helvetica,sans-Serif" font-size="10.00" fill="#000000">oneapi::vpl::extension</text>
<text text-anchor="middle" x="73.5" y="-46" font-family="Helvetica,sans-Serif" font-size="10.00" fill="#000000">_buffer_base</text>
</a>
</g>
</g>
<!-- Node7&#45;&gt;Node6 -->
<g id="edge3" class="edge">
<title>Node7&#45;&gt;Node6</title>
<path fill="none" stroke="#191970" d="M140.0181,-48.1347C163.5894,-46.0562 190.7367,-43.6625 216.7818,-41.3659"/>
<polygon fill="#191970" stroke="#191970" points="139.4577,-44.6704 129.8038,-49.0353 140.0726,-51.6434 139.4577,-44.6704"/>
</g>
<!-- Node8 -->
<g id="node5" class="node">
<title>Node8</title>
<g id="a_node5"><a xlink:href="structmfxExtMVOverPicBoundaries.html" target="_top" xlink:title="mfxExtMVOverPicBoundaries">
<polygon fill="#ffffff" stroke="#000000" points="0,-.5 0,-19.5 147,-19.5 147,-.5 0,-.5"/>
<text text-anchor="middle" x="73.5" y="-7.5" font-family="Helvetica,sans-Serif" font-size="10.00" fill="#000000">mfxExtMVOverPicBoundaries</text>
</a>
</g>
</g>
<!-- Node8&#45;&gt;Node6 -->
<g id="edge4" class="edge">
<title>Node8&#45;&gt;Node6</title>
<path fill="none" stroke="#9a32cd" stroke-dasharray="5,2" d="M157.159,-17.3767C176.2674,-19.0617 196.8237,-20.8742 216.7373,-22.6301"/>
<polygon fill="#9a32cd" stroke="#9a32cd" points="157.2776,-13.8737 147.0088,-16.4817 156.6627,-20.8467 157.2776,-13.8737"/>
<text text-anchor="middle" x="182" y="-24" font-family="Helvetica,sans-Serif" font-size="10.00" fill="#000000"> buffer_</text>
</g>
</g>
</svg>
