<?xml version="1.0" encoding="UTF-8" standalone="no"?>
<!DOCTYPE svg PUBLIC "-//W3C//DTD SVG 1.1//EN"
 "http://www.w3.org/Graphics/SVG/1.1/DTD/svg11.dtd">
<!-- Generated by graphviz version 2.40.1 (20161225.0304)
 -->
<!-- Title: oneapi::vpl::ExtMoveRect Pages: 1 -->
<svg width="736pt" height="50pt"
 viewBox="0.00 0.00 736.00 50.00" xmlns="http://www.w3.org/2000/svg" xmlns:xlink="http://www.w3.org/1999/xlink">
<g id="graph0" class="graph" transform="scale(1 1) rotate(0) translate(4 46)">
<title>oneapi::vpl::ExtMoveRect</title>
<polygon fill="#ffffff" stroke="transparent" points="-4,4 -4,-46 732,-46 732,4 -4,4"/>
<!-- Node0 -->
<g id="node1" class="node">
<title>Node0</title>
<polygon fill="#bfbfbf" stroke="#000000" points="598,-11.5 598,-30.5 728,-30.5 728,-11.5 598,-11.5"/>
<text text-anchor="middle" x="663" y="-18.5" font-family="Helvetica,sans-Serif" font-size="10.00" fill="#000000">oneapi::vpl::ExtMoveRect</text>
</g>
<!-- Node1 -->
<g id="node2" class="node">
<title>Node1</title>
<g id="a_node2"><a xlink:href="classoneapi_1_1vpl_1_1extension__buffer__trival.html" target="_top" xlink:title="oneapi::vpl::extension\l_buffer_trival\&lt; mfxExtMoveRect,\l MFX_EXTBUFF_MOVING_RECTANGLES \&gt;">
<polygon fill="#ffffff" stroke="#000000" points="342,-.5 342,-41.5 562,-41.5 562,-.5 342,-.5"/>
<text text-anchor="start" x="350" y="-29.5" font-family="Helvetica,sans-Serif" font-size="10.00" fill="#000000">oneapi::vpl::extension</text>
<text text-anchor="start" x="350" y="-18.5" font-family="Helvetica,sans-Serif" font-size="10.00" fill="#000000">_buffer_trival&lt; mfxExtMoveRect,</text>
<text text-anchor="middle" x="452" y="-7.5" font-family="Helvetica,sans-Serif" font-size="10.00" fill="#000000"> MFX_EXTBUFF_MOVING_RECTANGLES &gt;</text>
</a>
</g>
</g>
<!-- Node1&#45;&gt;Node0 -->
<g id="edge1" class="edge">
<title>Node1&#45;&gt;Node0</title>
<path fill="none" stroke="#191970" d="M572.3866,-21C581.0781,-21 589.632,-21 597.806,-21"/>
<polygon fill="#191970" stroke="#191970" points="572.1349,-17.5001 562.1349,-21 572.1349,-24.5001 572.1349,-17.5001"/>
</g>
<!-- Node2 -->
<g id="node3" class="node">
<title>Node2</title>
<g id="a_node3"><a xlink:href="classoneapi_1_1vpl_1_1extension__buffer.html" target="_top" xlink:title="oneapi::vpl::extension\l_buffer\&lt; mfxExtMoveRect, ID \&gt;">
<polygon fill="#ffffff" stroke="#000000" points="148,-6 148,-36 306,-36 306,-6 148,-6"/>
<text text-anchor="start" x="156" y="-24" font-family="Helvetica,sans-Serif" font-size="10.00" fill="#000000">oneapi::vpl::extension</text>
<text text-anchor="middle" x="227" y="-13" font-family="Helvetica,sans-Serif" font-size="10.00" fill="#000000">_buffer&lt; mfxExtMoveRect, ID &gt;</text>
</a>
</g>
</g>
<!-- Node2&#45;&gt;Node1 -->
<g id="edge2" class="edge">
<title>Node2&#45;&gt;Node1</title>
<path fill="none" stroke="#191970" d="M316.2309,-21C324.696,-21 333.3449,-21 341.9743,-21"/>
<polygon fill="#191970" stroke="#191970" points="316.0102,-17.5001 306.0102,-21 316.0102,-24.5001 316.0102,-17.5001"/>
</g>
<!-- Node3 -->
<g id="node4" class="node">
<title>Node3</title>
<g id="a_node4"><a xlink:href="classoneapi_1_1vpl_1_1extension__buffer__base.html" target="_top" xlink:title="Interface definition for extension buffers. Extension buffers are used to provide additional data for...">
<polygon fill="#ffffff" stroke="#000000" points="0,-6 0,-36 112,-36 112,-6 0,-6"/>
<text text-anchor="start" x="8" y="-24" font-family="Helvetica,sans-Serif" font-size="10.00" fill="#000000">oneapi::vpl::extension</text>
<text text-anchor="middle" x="56" y="-13" font-family="Helvetica,sans-Serif" font-size="10.00" fill="#000000">_buffer_base</text>
</a>
</g>
</g>
<!-- Node3&#45;&gt;Node2 -->
<g id="edge3" class="edge">
<title>Node3&#45;&gt;Node2</title>
<path fill="none" stroke="#191970" d="M122.5084,-21C130.864,-21 139.4745,-21 147.9983,-21"/>
<polygon fill="#191970" stroke="#191970" points="122.4657,-17.5001 112.4657,-21 122.4657,-24.5001 122.4657,-17.5001"/>
</g>
</g>
</svg>
