<?xml version="1.0" encoding="UTF-8" standalone="no"?>
<!DOCTYPE svg PUBLIC "-//W3C//DTD SVG 1.1//EN"
 "http://www.w3.org/Graphics/SVG/1.1/DTD/svg11.dtd">
<!-- Generated by graphviz version 2.40.1 (20161225.0304)
 -->
<!-- Title: oneapi::vpl::ExtAVCRefLists Pages: 1 -->
<svg width="984pt" height="83pt"
 viewBox="0.00 0.00 984.00 83.00" xmlns="http://www.w3.org/2000/svg" xmlns:xlink="http://www.w3.org/1999/xlink">
<g id="graph0" class="graph" transform="scale(1 1) rotate(0) translate(4 79)">
<title>oneapi::vpl::ExtAVCRefLists</title>
<polygon fill="#ffffff" stroke="transparent" points="-4,4 -4,-79 980,-79 980,4 -4,4"/>
<!-- Node4 -->
<g id="node1" class="node">
<title>Node4</title>
<polygon fill="#bfbfbf" stroke="#000000" points="833,-28 833,-47 976,-47 976,-28 833,-28"/>
<text text-anchor="middle" x="904.5" y="-35" font-family="Helvetica,sans-Serif" font-size="10.00" fill="#000000">oneapi::vpl::ExtAVCRefLists</text>
</g>
<!-- Node5 -->
<g id="node2" class="node">
<title>Node5</title>
<g id="a_node2"><a xlink:href="classoneapi_1_1vpl_1_1extension__buffer__trival.html" target="_top" xlink:title="oneapi::vpl::extension\l_buffer_trival\&lt; mfxExtAVCRef\lLists, MFX_EXTBUFF_AVC_REFLISTS \&gt;">
<polygon fill="#ffffff" stroke="#000000" points="592,-17 592,-58 796,-58 796,-17 592,-17"/>
<text text-anchor="start" x="600" y="-46" font-family="Helvetica,sans-Serif" font-size="10.00" fill="#000000">oneapi::vpl::extension</text>
<text text-anchor="start" x="600" y="-35" font-family="Helvetica,sans-Serif" font-size="10.00" fill="#000000">_buffer_trival&lt; mfxExtAVCRef</text>
<text text-anchor="middle" x="694" y="-24" font-family="Helvetica,sans-Serif" font-size="10.00" fill="#000000">Lists, MFX_EXTBUFF_AVC_REFLISTS &gt;</text>
</a>
</g>
</g>
<!-- Node5&#45;&gt;Node4 -->
<g id="edge1" class="edge">
<title>Node5&#45;&gt;Node4</title>
<path fill="none" stroke="#191970" d="M806.3052,-37.5C815.2714,-37.5 824.169,-37.5 832.7362,-37.5"/>
<polygon fill="#191970" stroke="#191970" points="806.1669,-34.0001 796.1669,-37.5 806.1669,-41.0001 806.1669,-34.0001"/>
</g>
<!-- Node6 -->
<g id="node3" class="node">
<title>Node6</title>
<g id="a_node3"><a xlink:href="classoneapi_1_1vpl_1_1extension__buffer.html" target="_top" xlink:title="oneapi::vpl::extension\l_buffer\&lt; mfxExtAVCRefLists, ID \&gt;">
<polygon fill="#ffffff" stroke="#000000" points="385,-22.5 385,-52.5 555,-52.5 555,-22.5 385,-22.5"/>
<text text-anchor="start" x="393" y="-40.5" font-family="Helvetica,sans-Serif" font-size="10.00" fill="#000000">oneapi::vpl::extension</text>
<text text-anchor="middle" x="470" y="-29.5" font-family="Helvetica,sans-Serif" font-size="10.00" fill="#000000">_buffer&lt; mfxExtAVCRefLists, ID &gt;</text>
</a>
</g>
</g>
<!-- Node6&#45;&gt;Node5 -->
<g id="edge2" class="edge">
<title>Node6&#45;&gt;Node5</title>
<path fill="none" stroke="#191970" d="M565.2247,-37.5C573.9975,-37.5 582.9106,-37.5 591.7424,-37.5"/>
<polygon fill="#191970" stroke="#191970" points="565.0042,-34.0001 555.0042,-37.5 565.0042,-41.0001 565.0042,-34.0001"/>
</g>
<!-- Node7 -->
<g id="node4" class="node">
<title>Node7</title>
<g id="a_node4"><a xlink:href="classoneapi_1_1vpl_1_1extension__buffer__base.html" target="_top" xlink:title="Interface definition for extension buffers. Extension buffers are used to provide additional data for...">
<polygon fill="#ffffff" stroke="#000000" points="203,-44.5 203,-74.5 315,-74.5 315,-44.5 203,-44.5"/>
<text text-anchor="start" x="211" y="-62.5" font-family="Helvetica,sans-Serif" font-size="10.00" fill="#000000">oneapi::vpl::extension</text>
<text text-anchor="middle" x="259" y="-51.5" font-family="Helvetica,sans-Serif" font-size="10.00" fill="#000000">_buffer_base</text>
</a>
</g>
</g>
<!-- Node7&#45;&gt;Node6 -->
<g id="edge3" class="edge">
<title>Node7&#45;&gt;Node6</title>
<path fill="none" stroke="#191970" d="M325.2556,-52.5918C344.1661,-50.6201 365.0385,-48.4439 384.9069,-46.3723"/>
<polygon fill="#191970" stroke="#191970" points="324.85,-49.1151 315.267,-53.6333 325.576,-56.0773 324.85,-49.1151"/>
</g>
<!-- Node8 -->
<g id="node5" class="node">
<title>Node8</title>
<g id="a_node5"><a xlink:href="structmfxExtAVCRefLists.html" target="_top" xlink:title="mfxExtAVCRefLists">
<polygon fill="#ffffff" stroke="#000000" points="206,-6 206,-25 312,-25 312,-6 206,-6"/>
<text text-anchor="middle" x="259" y="-13" font-family="Helvetica,sans-Serif" font-size="10.00" fill="#000000">mfxExtAVCRefLists</text>
</a>
</g>
</g>
<!-- Node8&#45;&gt;Node6 -->
<g id="edge4" class="edge">
<title>Node8&#45;&gt;Node6</title>
<path fill="none" stroke="#9a32cd" stroke-dasharray="5,2" d="M322.2793,-22.0978C341.9112,-24.1448 363.879,-26.4353 384.7484,-28.6112"/>
<polygon fill="#9a32cd" stroke="#9a32cd" points="322.5533,-18.6075 312.2442,-21.0515 321.8273,-25.5698 322.5533,-18.6075"/>
<text text-anchor="middle" x="350" y="-29.5" font-family="Helvetica,sans-Serif" font-size="10.00" fill="#000000"> buffer_</text>
</g>
<!-- Node9 -->
<g id="node6" class="node">
<title>Node9</title>
<g id="a_node6"><a xlink:href="structmfxExtAVCRefLists_1_1mfxRefPic.html" target="_top" xlink:title="mfxExtAVCRefLists::\lmfxRefPic">
<polygon fill="#ffffff" stroke="#000000" points="0,-.5 0,-30.5 112,-30.5 112,-.5 0,-.5"/>
<text text-anchor="start" x="8" y="-18.5" font-family="Helvetica,sans-Serif" font-size="10.00" fill="#000000">mfxExtAVCRefLists::</text>
<text text-anchor="middle" x="56" y="-7.5" font-family="Helvetica,sans-Serif" font-size="10.00" fill="#000000">mfxRefPic</text>
</a>
</g>
</g>
<!-- Node9&#45;&gt;Node8 -->
<g id="edge5" class="edge">
<title>Node9&#45;&gt;Node8</title>
<path fill="none" stroke="#9a32cd" stroke-dasharray="5,2" d="M122.2057,-15.5C149.3552,-15.5 180.353,-15.5 205.9686,-15.5"/>
<polygon fill="#9a32cd" stroke="#9a32cd" points="122.008,-12.0001 112.008,-15.5 122.008,-19.0001 122.008,-12.0001"/>
<text text-anchor="middle" x="157.5" y="-29.5" font-family="Helvetica,sans-Serif" font-size="10.00" fill="#000000"> RefPicList0</text>
<text text-anchor="middle" x="157.5" y="-18.5" font-family="Helvetica,sans-Serif" font-size="10.00" fill="#000000">RefPicList1</text>
</g>
</g>
</svg>
