<?xml version="1.0" encoding="UTF-8" standalone="no"?>
<!DOCTYPE svg PUBLIC "-//W3C//DTD SVG 1.1//EN"
 "http://www.w3.org/Graphics/SVG/1.1/DTD/svg11.dtd">
<!-- Generated by graphviz version 2.40.1 (20161225.0304)
 -->
<!-- Title: oneapi::vpl::bitstream_source_reader Pages: 1 -->
<svg width="246pt" height="173pt"
 viewBox="0.00 0.00 246.00 173.00" xmlns="http://www.w3.org/2000/svg" xmlns:xlink="http://www.w3.org/1999/xlink">
<g id="graph0" class="graph" transform="scale(1 1) rotate(0) translate(4 169)">
<title>oneapi::vpl::bitstream_source_reader</title>
<polygon fill="#ffffff" stroke="transparent" points="-4,4 -4,-169 242,-169 242,4 -4,4"/>
<!-- Node0 -->
<g id="node1" class="node">
<title>Node0</title>
<polygon fill="#bfbfbf" stroke="#000000" points="64,-67.5 64,-97.5 174,-97.5 174,-67.5 64,-67.5"/>
<text text-anchor="start" x="72" y="-85.5" font-family="Helvetica,sans-Serif" font-size="10.00" fill="#000000">oneapi::vpl::bitstream</text>
<text text-anchor="middle" x="119" y="-74.5" font-family="Helvetica,sans-Serif" font-size="10.00" fill="#000000">_source_reader</text>
</g>
<!-- Node2 -->
<g id="node3" class="node">
<title>Node2</title>
<g id="a_node3"><a xlink:href="classoneapi_1_1vpl_1_1bitstream__file__reader.html" target="_top" xlink:title="File based source data reader. ">
<polygon fill="#ffffff" stroke="#000000" points="0,-.5 0,-30.5 110,-30.5 110,-.5 0,-.5"/>
<text text-anchor="start" x="8" y="-18.5" font-family="Helvetica,sans-Serif" font-size="10.00" fill="#000000">oneapi::vpl::bitstream</text>
<text text-anchor="middle" x="55" y="-7.5" font-family="Helvetica,sans-Serif" font-size="10.00" fill="#000000">_file_reader</text>
</a>
</g>
</g>
<!-- Node0&#45;&gt;Node2 -->
<g id="edge2" class="edge">
<title>Node0&#45;&gt;Node2</title>
<path fill="none" stroke="#191970" d="M97.4361,-59.9253C88.2254,-50.2828 77.7193,-39.2843 69.4651,-30.6432"/>
<polygon fill="#191970" stroke="#191970" points="95.0392,-62.4831 104.4774,-67.2967 100.101,-57.648 95.0392,-62.4831"/>
</g>
<!-- Node3 -->
<g id="node4" class="node">
<title>Node3</title>
<g id="a_node4"><a xlink:href="classoneapi_1_1vpl_1_1bitstream__file__reader__name.html" target="_top" xlink:title="oneapi::vpl::bitstream\l_file_reader_name">
<polygon fill="#ffffff" stroke="#000000" points="128,-.5 128,-30.5 238,-30.5 238,-.5 128,-.5"/>
<text text-anchor="start" x="136" y="-18.5" font-family="Helvetica,sans-Serif" font-size="10.00" fill="#000000">oneapi::vpl::bitstream</text>
<text text-anchor="middle" x="183" y="-7.5" font-family="Helvetica,sans-Serif" font-size="10.00" fill="#000000">_file_reader_name</text>
</a>
</g>
</g>
<!-- Node0&#45;&gt;Node3 -->
<g id="edge3" class="edge">
<title>Node0&#45;&gt;Node3</title>
<path fill="none" stroke="#191970" d="M140.5639,-59.9253C149.7746,-50.2828 160.2807,-39.2843 168.5349,-30.6432"/>
<polygon fill="#191970" stroke="#191970" points="137.899,-57.648 133.5226,-67.2967 142.9608,-62.4831 137.899,-57.648"/>
</g>
<!-- Node1 -->
<g id="node2" class="node">
<title>Node1</title>
<g id="a_node2"><a xlink:href="classoneapi_1_1vpl_1_1source__reader.html" target="_top" xlink:title="Interface for the source data reader. ">
<polygon fill="#ffffff" stroke="#000000" points="69.5,-134.5 69.5,-164.5 168.5,-164.5 168.5,-134.5 69.5,-134.5"/>
<text text-anchor="start" x="77.5" y="-152.5" font-family="Helvetica,sans-Serif" font-size="10.00" fill="#000000">oneapi::vpl::source</text>
<text text-anchor="middle" x="119" y="-141.5" font-family="Helvetica,sans-Serif" font-size="10.00" fill="#000000">_reader</text>
</a>
</g>
</g>
<!-- Node1&#45;&gt;Node0 -->
<g id="edge1" class="edge">
<title>Node1&#45;&gt;Node0</title>
<path fill="none" stroke="#191970" d="M119,-124.0249C119,-115.128 119,-105.4287 119,-97.6432"/>
<polygon fill="#191970" stroke="#191970" points="115.5001,-124.2966 119,-134.2967 122.5001,-124.2967 115.5001,-124.2966"/>
</g>
</g>
</svg>
