<?xml version="1.0" encoding="UTF-8" standalone="no"?>
<!DOCTYPE svg PUBLIC "-//W3C//DTD SVG 1.1//EN"
 "http://www.w3.org/Graphics/SVG/1.1/DTD/svg11.dtd">
<!-- Generated by graphviz version 2.40.1 (20161225.0304)
 -->
<!-- Title: oneapi::vpl::ExtEncodedSlicesInfo Pages: 1 -->
<svg width="741pt" height="61pt"
 viewBox="0.00 0.00 741.00 61.00" xmlns="http://www.w3.org/2000/svg" xmlns:xlink="http://www.w3.org/1999/xlink">
<g id="graph0" class="graph" transform="scale(1 1) rotate(0) translate(4 57)">
<title>oneapi::vpl::ExtEncodedSlicesInfo</title>
<polygon fill="#ffffff" stroke="transparent" points="-4,4 -4,-57 737,-57 737,4 -4,4"/>
<!-- Node4 -->
<g id="node1" class="node">
<title>Node4</title>
<polygon fill="#bfbfbf" stroke="#000000" points="566,-17 566,-36 733,-36 733,-17 566,-17"/>
<text text-anchor="middle" x="649.5" y="-24" font-family="Helvetica,sans-Serif" font-size="10.00" fill="#000000">oneapi::vpl::ExtEncodedSlicesInfo</text>
</g>
<!-- Node5 -->
<g id="node2" class="node">
<title>Node5</title>
<g id="a_node2"><a xlink:href="classoneapi_1_1vpl_1_1extension__buffer__with__ptrs.html" target="_top" xlink:title="oneapi::vpl::extension\l_buffer_with_ptrs\&lt; mfxExtEncoded\lSlicesInfo, MFX_EXTBUFF_ENCODED\l_SLICES_INFO \&gt;">
<polygon fill="#ffffff" stroke="#000000" points="336,-.5 336,-52.5 530,-52.5 530,-.5 336,-.5"/>
<text text-anchor="start" x="344" y="-40.5" font-family="Helvetica,sans-Serif" font-size="10.00" fill="#000000">oneapi::vpl::extension</text>
<text text-anchor="start" x="344" y="-29.5" font-family="Helvetica,sans-Serif" font-size="10.00" fill="#000000">_buffer_with_ptrs&lt; mfxExtEncoded</text>
<text text-anchor="start" x="344" y="-18.5" font-family="Helvetica,sans-Serif" font-size="10.00" fill="#000000">SlicesInfo, MFX_EXTBUFF_ENCODED</text>
<text text-anchor="middle" x="433" y="-7.5" font-family="Helvetica,sans-Serif" font-size="10.00" fill="#000000">_SLICES_INFO &gt;</text>
</a>
</g>
</g>
<!-- Node5&#45;&gt;Node4 -->
<g id="edge1" class="edge">
<title>Node5&#45;&gt;Node4</title>
<path fill="none" stroke="#191970" d="M540.2512,-26.5C548.8554,-26.5 557.4681,-26.5 565.8717,-26.5"/>
<polygon fill="#191970" stroke="#191970" points="540.1675,-23.0001 530.1674,-26.5 540.1674,-30.0001 540.1675,-23.0001"/>
</g>
<!-- Node6 -->
<g id="node3" class="node">
<title>Node6</title>
<g id="a_node3"><a xlink:href="classoneapi_1_1vpl_1_1extension__buffer.html" target="_top" xlink:title="oneapi::vpl::extension\l_buffer\&lt; mfxExtEncodedSlices\lInfo, ID \&gt;">
<polygon fill="#ffffff" stroke="#000000" points="148,-6 148,-47 300,-47 300,-6 148,-6"/>
<text text-anchor="start" x="156" y="-35" font-family="Helvetica,sans-Serif" font-size="10.00" fill="#000000">oneapi::vpl::extension</text>
<text text-anchor="start" x="156" y="-24" font-family="Helvetica,sans-Serif" font-size="10.00" fill="#000000">_buffer&lt; mfxExtEncodedSlices</text>
<text text-anchor="middle" x="224" y="-13" font-family="Helvetica,sans-Serif" font-size="10.00" fill="#000000">Info, ID &gt;</text>
</a>
</g>
</g>
<!-- Node6&#45;&gt;Node5 -->
<g id="edge2" class="edge">
<title>Node6&#45;&gt;Node5</title>
<path fill="none" stroke="#191970" d="M310.2793,-26.5C318.7494,-26.5 327.3843,-26.5 335.9521,-26.5"/>
<polygon fill="#191970" stroke="#191970" points="310.0451,-23.0001 300.045,-26.5 310.045,-30.0001 310.0451,-23.0001"/>
</g>
<!-- Node7 -->
<g id="node4" class="node">
<title>Node7</title>
<g id="a_node4"><a xlink:href="classoneapi_1_1vpl_1_1extension__buffer__base.html" target="_top" xlink:title="Interface definition for extension buffers. Extension buffers are used to provide additional data for...">
<polygon fill="#ffffff" stroke="#000000" points="0,-11.5 0,-41.5 112,-41.5 112,-11.5 0,-11.5"/>
<text text-anchor="start" x="8" y="-29.5" font-family="Helvetica,sans-Serif" font-size="10.00" fill="#000000">oneapi::vpl::extension</text>
<text text-anchor="middle" x="56" y="-18.5" font-family="Helvetica,sans-Serif" font-size="10.00" fill="#000000">_buffer_base</text>
</a>
</g>
</g>
<!-- Node7&#45;&gt;Node6 -->
<g id="edge3" class="edge">
<title>Node7&#45;&gt;Node6</title>
<path fill="none" stroke="#191970" d="M122.4119,-26.5C130.7296,-26.5 139.2881,-26.5 147.7412,-26.5"/>
<polygon fill="#191970" stroke="#191970" points="122.409,-23.0001 112.4089,-26.5 122.4089,-30.0001 122.409,-23.0001"/>
</g>
</g>
</svg>
