<?xml version="1.0" encoding="UTF-8" standalone="no"?>
<!DOCTYPE svg PUBLIC "-//W3C//DTD SVG 1.1//EN"
 "http://www.w3.org/Graphics/SVG/1.1/DTD/svg11.dtd">
<!-- Generated by graphviz version 2.40.1 (20161225.0304)
 -->
<!-- Title: oneapi::vpl::EncodeCtrl Pages: 1 -->
<svg width="158pt" height="240pt"
 viewBox="0.00 0.00 158.00 240.00" xmlns="http://www.w3.org/2000/svg" xmlns:xlink="http://www.w3.org/1999/xlink">
<g id="graph0" class="graph" transform="scale(1 1) rotate(0) translate(4 236)">
<title>oneapi::vpl::EncodeCtrl</title>
<polygon fill="#ffffff" stroke="transparent" points="-4,4 -4,-236 154,-236 154,4 -4,4"/>
<!-- Node0 -->
<g id="node1" class="node">
<title>Node0</title>
<polygon fill="#bfbfbf" stroke="#000000" points="15.5,-.5 15.5,-19.5 134.5,-19.5 134.5,-.5 15.5,-.5"/>
<text text-anchor="middle" x="75" y="-7.5" font-family="Helvetica,sans-Serif" font-size="10.00" fill="#000000">oneapi::vpl::EncodeCtrl</text>
</g>
<!-- Node1 -->
<g id="node2" class="node">
<title>Node1</title>
<g id="a_node2"><a xlink:href="classoneapi_1_1vpl_1_1extension__buffer__with__ptrs.html" target="_top" xlink:title="oneapi::vpl::extension\l_buffer_with_ptrs\&lt; mfxEncode\lCtrl, 0 \&gt;">
<polygon fill="#ffffff" stroke="#000000" points="0,-56.5 0,-97.5 150,-97.5 150,-56.5 0,-56.5"/>
<text text-anchor="start" x="8" y="-85.5" font-family="Helvetica,sans-Serif" font-size="10.00" fill="#000000">oneapi::vpl::extension</text>
<text text-anchor="start" x="8" y="-74.5" font-family="Helvetica,sans-Serif" font-size="10.00" fill="#000000">_buffer_with_ptrs&lt; mfxEncode</text>
<text text-anchor="middle" x="75" y="-63.5" font-family="Helvetica,sans-Serif" font-size="10.00" fill="#000000">Ctrl, 0 &gt;</text>
</a>
</g>
</g>
<!-- Node1&#45;&gt;Node0 -->
<g id="edge1" class="edge">
<title>Node1&#45;&gt;Node0</title>
<path fill="none" stroke="#191970" d="M75,-46.0909C75,-36.5672 75,-26.7625 75,-19.7805"/>
<polygon fill="#191970" stroke="#191970" points="71.5001,-46.168 75,-56.168 78.5001,-46.1681 71.5001,-46.168"/>
</g>
<!-- Node2 -->
<g id="node3" class="node">
<title>Node2</title>
<g id="a_node3"><a xlink:href="classoneapi_1_1vpl_1_1extension__buffer.html" target="_top" xlink:title="oneapi::vpl::extension\l_buffer\&lt; mfxEncodeCtrl, ID \&gt;">
<polygon fill="#ffffff" stroke="#000000" points="2,-134.5 2,-164.5 148,-164.5 148,-134.5 2,-134.5"/>
<text text-anchor="start" x="10" y="-152.5" font-family="Helvetica,sans-Serif" font-size="10.00" fill="#000000">oneapi::vpl::extension</text>
<text text-anchor="middle" x="75" y="-141.5" font-family="Helvetica,sans-Serif" font-size="10.00" fill="#000000">_buffer&lt; mfxEncodeCtrl, ID &gt;</text>
</a>
</g>
</g>
<!-- Node2&#45;&gt;Node1 -->
<g id="edge2" class="edge">
<title>Node2&#45;&gt;Node1</title>
<path fill="none" stroke="#191970" d="M75,-124.4016C75,-115.6173 75,-105.8652 75,-97.5015"/>
<polygon fill="#191970" stroke="#191970" points="71.5001,-124.4779 75,-134.478 78.5001,-124.478 71.5001,-124.4779"/>
</g>
<!-- Node3 -->
<g id="node4" class="node">
<title>Node3</title>
<g id="a_node4"><a xlink:href="classoneapi_1_1vpl_1_1extension__buffer__base.html" target="_top" xlink:title="Interface definition for extension buffers. Extension buffers are used to provide additional data for...">
<polygon fill="#ffffff" stroke="#000000" points="19,-201.5 19,-231.5 131,-231.5 131,-201.5 19,-201.5"/>
<text text-anchor="start" x="27" y="-219.5" font-family="Helvetica,sans-Serif" font-size="10.00" fill="#000000">oneapi::vpl::extension</text>
<text text-anchor="middle" x="75" y="-208.5" font-family="Helvetica,sans-Serif" font-size="10.00" fill="#000000">_buffer_base</text>
</a>
</g>
</g>
<!-- Node3&#45;&gt;Node2 -->
<g id="edge3" class="edge">
<title>Node3&#45;&gt;Node2</title>
<path fill="none" stroke="#191970" d="M75,-191.0249C75,-182.128 75,-172.4287 75,-164.6432"/>
<polygon fill="#191970" stroke="#191970" points="71.5001,-191.2966 75,-201.2967 78.5001,-191.2967 71.5001,-191.2966"/>
</g>
</g>
</svg>
