<?xml version="1.0" encoding="UTF-8" standalone="no"?>
<!DOCTYPE svg PUBLIC "-//W3C//DTD SVG 1.1//EN"
 "http://www.w3.org/Graphics/SVG/1.1/DTD/svg11.dtd">
<!-- Generated by graphviz version 2.40.1 (20161225.0304)
 -->
<!-- Title: oneapi::vpl::property Pages: 1 -->
<svg width="113pt" height="240pt"
 viewBox="0.00 0.00 113.00 240.00" xmlns="http://www.w3.org/2000/svg" xmlns:xlink="http://www.w3.org/1999/xlink">
<g id="graph0" class="graph" transform="scale(1 1) rotate(0) translate(4 236)">
<title>oneapi::vpl::property</title>
<polygon fill="#ffffff" stroke="transparent" points="-4,4 -4,-236 109,-236 109,4 -4,4"/>
<!-- Node1 -->
<g id="node1" class="node">
<title>Node1</title>
<polygon fill="#bfbfbf" stroke="#000000" points="0,-.5 0,-19.5 105,-19.5 105,-.5 0,-.5"/>
<text text-anchor="middle" x="52.5" y="-7.5" font-family="Helvetica,sans-Serif" font-size="10.00" fill="#000000">oneapi::vpl::property</text>
</g>
<!-- Node2 -->
<g id="node2" class="node">
<title>Node2</title>
<g id="a_node2"><a xlink:href="classoneapi_1_1vpl_1_1detail_1_1variant.html" target="_top" xlink:title="This class represents variant&#45;like datatype of selected mfx* types, including pointer. ">
<polygon fill="#ffffff" stroke="#000000" points="6,-67.5 6,-97.5 99,-97.5 99,-67.5 6,-67.5"/>
<text text-anchor="start" x="14" y="-85.5" font-family="Helvetica,sans-Serif" font-size="10.00" fill="#000000">oneapi::vpl::detail</text>
<text text-anchor="middle" x="52.5" y="-74.5" font-family="Helvetica,sans-Serif" font-size="10.00" fill="#000000">::variant</text>
</a>
</g>
</g>
<!-- Node2&#45;&gt;Node1 -->
<g id="edge1" class="edge">
<title>Node2&#45;&gt;Node1</title>
<path fill="none" stroke="#9a32cd" stroke-dasharray="5,2" d="M52.5,-57.305C52.5,-44.424 52.5,-29.4836 52.5,-19.8957"/>
<polygon fill="#9a32cd" stroke="#9a32cd" points="49.0001,-57.4779 52.5,-67.478 56.0001,-57.478 49.0001,-57.4779"/>
<text text-anchor="middle" x="68.5" y="-41" font-family="Helvetica,sans-Serif" font-size="10.00" fill="#000000"> value_</text>
</g>
<!-- Node3 -->
<g id="node3" class="node">
<title>Node3</title>
<g id="a_node3"><a xlink:href="structmfxVariant.html" target="_top" xlink:title="mfxVariant">
<polygon fill="#ffffff" stroke="#000000" points="20.5,-145.5 20.5,-164.5 84.5,-164.5 84.5,-145.5 20.5,-145.5"/>
<text text-anchor="middle" x="52.5" y="-152.5" font-family="Helvetica,sans-Serif" font-size="10.00" fill="#000000">mfxVariant</text>
</a>
</g>
</g>
<!-- Node3&#45;&gt;Node2 -->
<g id="edge2" class="edge">
<title>Node3&#45;&gt;Node2</title>
<path fill="none" stroke="#9a32cd" stroke-dasharray="5,2" d="M52.5,-135.0177C52.5,-123.2164 52.5,-108.513 52.5,-97.668"/>
<polygon fill="#9a32cd" stroke="#9a32cd" points="49.0001,-135.2223 52.5,-145.2223 56.0001,-135.2224 49.0001,-135.2223"/>
<text text-anchor="middle" x="59.5" y="-119" font-family="Helvetica,sans-Serif" font-size="10.00" fill="#000000"> v_</text>
</g>
<!-- Node4 -->
<g id="node4" class="node">
<title>Node4</title>
<g id="a_node4"><a xlink:href="unionmfxVariant_1_1data.html" target="_top" xlink:title="mfxVariant::data">
<polygon fill="#ffffff" stroke="#000000" points="8,-212.5 8,-231.5 97,-231.5 97,-212.5 8,-212.5"/>
<text text-anchor="middle" x="52.5" y="-219.5" font-family="Helvetica,sans-Serif" font-size="10.00" fill="#000000">mfxVariant::data</text>
</a>
</g>
</g>
<!-- Node4&#45;&gt;Node3 -->
<g id="edge3" class="edge">
<title>Node4&#45;&gt;Node3</title>
<path fill="none" stroke="#9a32cd" stroke-dasharray="5,2" d="M52.5,-202.1079C52.5,-189.714 52.5,-174.3263 52.5,-164.5817"/>
<polygon fill="#9a32cd" stroke="#9a32cd" points="49.0001,-202.4005 52.5,-212.4005 56.0001,-202.4006 49.0001,-202.4005"/>
<text text-anchor="middle" x="65" y="-186" font-family="Helvetica,sans-Serif" font-size="10.00" fill="#000000"> Data</text>
</g>
</g>
</svg>
