<?xml version="1.0" encoding="UTF-8" standalone="no"?>
<!DOCTYPE svg PUBLIC "-//W3C//DTD SVG 1.1//EN"
 "http://www.w3.org/Graphics/SVG/1.1/DTD/svg11.dtd">
<!-- Generated by graphviz version 2.40.1 (20161225.0304)
 -->
<!-- Title: oneapi::vpl::ExtContentLightLevelInfo Pages: 1 -->
<svg width="780pt" height="78pt"
 viewBox="0.00 0.00 780.00 77.50" xmlns="http://www.w3.org/2000/svg" xmlns:xlink="http://www.w3.org/1999/xlink">
<g id="graph0" class="graph" transform="scale(1 1) rotate(0) translate(4 73.5)">
<title>oneapi::vpl::ExtContentLightLevelInfo</title>
<polygon fill="#ffffff" stroke="transparent" points="-4,4 -4,-73.5 776,-73.5 776,4 -4,4"/>
<!-- Node4 -->
<g id="node1" class="node">
<title>Node4</title>
<polygon fill="#bfbfbf" stroke="#000000" points="632,-17 632,-47 772,-47 772,-17 632,-17"/>
<text text-anchor="start" x="640" y="-35" font-family="Helvetica,sans-Serif" font-size="10.00" fill="#000000">oneapi::vpl::ExtContentLight</text>
<text text-anchor="middle" x="702" y="-24" font-family="Helvetica,sans-Serif" font-size="10.00" fill="#000000">LevelInfo</text>
</g>
<!-- Node5 -->
<g id="node2" class="node">
<title>Node5</title>
<g id="a_node2"><a xlink:href="classoneapi_1_1vpl_1_1extension__buffer__trival.html" target="_top" xlink:title="oneapi::vpl::extension\l_buffer_trival\&lt; mfxExtContent\lLightLevelInfo, MFX_EXTBUFF\l_CONTENT_LIGHT_LEVEL_INFO \&gt;">
<polygon fill="#ffffff" stroke="#000000" points="416,-6 416,-58 595,-58 595,-6 416,-6"/>
<text text-anchor="start" x="424" y="-46" font-family="Helvetica,sans-Serif" font-size="10.00" fill="#000000">oneapi::vpl::extension</text>
<text text-anchor="start" x="424" y="-35" font-family="Helvetica,sans-Serif" font-size="10.00" fill="#000000">_buffer_trival&lt; mfxExtContent</text>
<text text-anchor="start" x="424" y="-24" font-family="Helvetica,sans-Serif" font-size="10.00" fill="#000000">LightLevelInfo, MFX_EXTBUFF</text>
<text text-anchor="middle" x="505.5" y="-13" font-family="Helvetica,sans-Serif" font-size="10.00" fill="#000000">_CONTENT_LIGHT_LEVEL_INFO &gt;</text>
</a>
</g>
</g>
<!-- Node5&#45;&gt;Node4 -->
<g id="edge1" class="edge">
<title>Node5&#45;&gt;Node4</title>
<path fill="none" stroke="#191970" d="M605.2795,-32C614.2817,-32 623.2668,-32 631.9323,-32"/>
<polygon fill="#191970" stroke="#191970" points="605.1247,-28.5001 595.1246,-32 605.1246,-35.5001 605.1247,-28.5001"/>
</g>
<!-- Node6 -->
<g id="node3" class="node">
<title>Node6</title>
<g id="a_node3"><a xlink:href="classoneapi_1_1vpl_1_1extension__buffer.html" target="_top" xlink:title="oneapi::vpl::extension\l_buffer\&lt; mfxExtContentLightLevel\lInfo, ID \&gt;">
<polygon fill="#ffffff" stroke="#000000" points="213,-11.5 213,-52.5 379,-52.5 379,-11.5 213,-11.5"/>
<text text-anchor="start" x="221" y="-40.5" font-family="Helvetica,sans-Serif" font-size="10.00" fill="#000000">oneapi::vpl::extension</text>
<text text-anchor="start" x="221" y="-29.5" font-family="Helvetica,sans-Serif" font-size="10.00" fill="#000000">_buffer&lt; mfxExtContentLightLevel</text>
<text text-anchor="middle" x="296" y="-18.5" font-family="Helvetica,sans-Serif" font-size="10.00" fill="#000000">Info, ID &gt;</text>
</a>
</g>
</g>
<!-- Node6&#45;&gt;Node5 -->
<g id="edge2" class="edge">
<title>Node6&#45;&gt;Node5</title>
<path fill="none" stroke="#191970" d="M389.1109,-32C398.0323,-32 407.0677,-32 415.954,-32"/>
<polygon fill="#191970" stroke="#191970" points="389.1009,-28.5001 379.1008,-32 389.1008,-35.5001 389.1009,-28.5001"/>
</g>
<!-- Node7 -->
<g id="node4" class="node">
<title>Node7</title>
<g id="a_node4"><a xlink:href="classoneapi_1_1vpl_1_1extension__buffer__base.html" target="_top" xlink:title="Interface definition for extension buffers. Extension buffers are used to provide additional data for...">
<polygon fill="#ffffff" stroke="#000000" points="15.5,-39 15.5,-69 127.5,-69 127.5,-39 15.5,-39"/>
<text text-anchor="start" x="23.5" y="-57" font-family="Helvetica,sans-Serif" font-size="10.00" fill="#000000">oneapi::vpl::extension</text>
<text text-anchor="middle" x="71.5" y="-46" font-family="Helvetica,sans-Serif" font-size="10.00" fill="#000000">_buffer_base</text>
</a>
</g>
</g>
<!-- Node7&#45;&gt;Node6 -->
<g id="edge3" class="edge">
<title>Node7&#45;&gt;Node6</title>
<path fill="none" stroke="#191970" d="M137.7634,-47.5065C161.2387,-45.206 187.9585,-42.5876 212.6712,-40.1659"/>
<polygon fill="#191970" stroke="#191970" points="137.1827,-44.0465 127.5717,-48.5052 137.8654,-51.0132 137.1827,-44.0465"/>
</g>
<!-- Node8 -->
<g id="node5" class="node">
<title>Node8</title>
<g id="a_node5"><a xlink:href="structmfxExtContentLightLevelInfo.html" target="_top" xlink:title="mfxExtContentLightLevelInfo">
<polygon fill="#ffffff" stroke="#000000" points="0,-.5 0,-19.5 143,-19.5 143,-.5 0,-.5"/>
<text text-anchor="middle" x="71.5" y="-7.5" font-family="Helvetica,sans-Serif" font-size="10.00" fill="#000000">mfxExtContentLightLevelInfo</text>
</a>
</g>
</g>
<!-- Node8&#45;&gt;Node6 -->
<g id="edge4" class="edge">
<title>Node8&#45;&gt;Node6</title>
<path fill="none" stroke="#9a32cd" stroke-dasharray="5,2" d="M153.1845,-18.0047C172.6295,-19.9102 193.3992,-21.9456 212.9066,-23.8572"/>
<polygon fill="#9a32cd" stroke="#9a32cd" points="153.4442,-14.5135 143.1504,-17.0214 152.7614,-21.4801 153.4442,-14.5135"/>
<text text-anchor="middle" x="178" y="-25" font-family="Helvetica,sans-Serif" font-size="10.00" fill="#000000"> buffer_</text>
</g>
</g>
</svg>
