<?xml version="1.0" encoding="UTF-8" standalone="no"?>
<!DOCTYPE svg PUBLIC "-//W3C//DTD SVG 1.1//EN"
 "http://www.w3.org/Graphics/SVG/1.1/DTD/svg11.dtd">
<!-- Generated by graphviz version 2.40.1 (20161225.0304)
 -->
<!-- Title: oneapi::vpl::vpp_session Pages: 1 -->
<svg width="293pt" height="61pt"
 viewBox="0.00 0.00 293.00 61.00" xmlns="http://www.w3.org/2000/svg" xmlns:xlink="http://www.w3.org/1999/xlink">
<g id="graph0" class="graph" transform="scale(1 1) rotate(0) translate(4 57)">
<title>oneapi::vpl::vpp_session</title>
<polygon fill="#ffffff" stroke="transparent" points="-4,4 -4,-57 289,-57 289,4 -4,4"/>
<!-- Node0 -->
<g id="node1" class="node">
<title>Node0</title>
<polygon fill="#bfbfbf" stroke="#000000" points="160,-17 160,-36 285,-36 285,-17 160,-17"/>
<text text-anchor="middle" x="222.5" y="-24" font-family="Helvetica,sans-Serif" font-size="10.00" fill="#000000">oneapi::vpl::vpp_session</text>
</g>
<!-- Node1 -->
<g id="node2" class="node">
<title>Node1</title>
<g id="a_node2"><a xlink:href="classoneapi_1_1vpl_1_1session.html" target="_top" xlink:title="oneapi::vpl::session\l\&lt; vpp_video_param, vpp\l_init_reset_list, vpp_init\l_reset_list \&gt;">
<polygon fill="#ffffff" stroke="#000000" points="0,-.5 0,-52.5 124,-52.5 124,-.5 0,-.5"/>
<text text-anchor="start" x="8" y="-40.5" font-family="Helvetica,sans-Serif" font-size="10.00" fill="#000000">oneapi::vpl::session</text>
<text text-anchor="start" x="8" y="-29.5" font-family="Helvetica,sans-Serif" font-size="10.00" fill="#000000">&lt; vpp_video_param, vpp</text>
<text text-anchor="start" x="8" y="-18.5" font-family="Helvetica,sans-Serif" font-size="10.00" fill="#000000">_init_reset_list, vpp_init</text>
<text text-anchor="middle" x="62" y="-7.5" font-family="Helvetica,sans-Serif" font-size="10.00" fill="#000000">_reset_list &gt;</text>
</a>
</g>
</g>
<!-- Node1&#45;&gt;Node0 -->
<g id="edge1" class="edge">
<title>Node1&#45;&gt;Node0</title>
<path fill="none" stroke="#191970" d="M134.0586,-26.5C142.6514,-26.5 151.3708,-26.5 159.8171,-26.5"/>
<polygon fill="#191970" stroke="#191970" points="134.0535,-23.0001 124.0535,-26.5 134.0535,-30.0001 134.0535,-23.0001"/>
</g>
</g>
</svg>
