<?xml version="1.0" encoding="UTF-8" standalone="no"?>
<!DOCTYPE svg PUBLIC "-//W3C//DTD SVG 1.1//EN"
 "http://www.w3.org/Graphics/SVG/1.1/DTD/svg11.dtd">
<!-- Generated by graphviz version 2.40.1 (20161225.0304)
 -->
<!-- Title: oneapi::vpl::codec_video_param Pages: 1 -->
<svg width="397pt" height="186pt"
 viewBox="0.00 0.00 397.00 186.00" xmlns="http://www.w3.org/2000/svg" xmlns:xlink="http://www.w3.org/1999/xlink">
<g id="graph0" class="graph" transform="scale(1 1) rotate(0) translate(4 182)">
<title>oneapi::vpl::codec_video_param</title>
<polygon fill="#ffffff" stroke="transparent" points="-4,4 -4,-182 393,-182 393,4 -4,4"/>
<!-- Node0 -->
<g id="node1" class="node">
<title>Node0</title>
<polygon fill="#bfbfbf" stroke="#000000" points="129,-73.5 129,-103.5 225,-103.5 225,-73.5 129,-73.5"/>
<text text-anchor="start" x="137" y="-91.5" font-family="Helvetica,sans-Serif" font-size="10.00" fill="#000000">oneapi::vpl::codec</text>
<text text-anchor="middle" x="177" y="-80.5" font-family="Helvetica,sans-Serif" font-size="10.00" fill="#000000">_video_param</text>
</g>
<!-- Node2 -->
<g id="node3" class="node">
<title>Node2</title>
<g id="a_node3"><a xlink:href="classoneapi_1_1vpl_1_1decoder__video__param.html" target="_top" xlink:title="Holds decoder specific params. ">
<polygon fill="#ffffff" stroke="#000000" points="273,-147.5 273,-177.5 377,-177.5 377,-147.5 273,-147.5"/>
<text text-anchor="start" x="281" y="-165.5" font-family="Helvetica,sans-Serif" font-size="10.00" fill="#000000">oneapi::vpl::decoder</text>
<text text-anchor="middle" x="325" y="-154.5" font-family="Helvetica,sans-Serif" font-size="10.00" fill="#000000">_video_param</text>
</a>
</g>
</g>
<!-- Node0&#45;&gt;Node2 -->
<g id="edge2" class="edge">
<title>Node0&#45;&gt;Node2</title>
<path fill="none" stroke="#191970" d="M208.5583,-109.1024C224.0077,-118.713 243.0969,-129.8995 261,-138.5 267.5248,-141.6345 274.5739,-144.6379 281.527,-147.3947"/>
<polygon fill="#191970" stroke="#191970" points="210.2452,-106.0284 199.919,-103.6573 206.5127,-111.9503 210.2452,-106.0284"/>
</g>
<!-- Node3 -->
<g id="node4" class="node">
<title>Node3</title>
<g id="a_node4"><a xlink:href="classoneapi_1_1vpl_1_1encoder__video__param.html" target="_top" xlink:title="Holds encoder specific params. ">
<polygon fill="#ffffff" stroke="#000000" points="273,-98.5 273,-128.5 377,-128.5 377,-98.5 273,-98.5"/>
<text text-anchor="start" x="281" y="-116.5" font-family="Helvetica,sans-Serif" font-size="10.00" fill="#000000">oneapi::vpl::encoder</text>
<text text-anchor="middle" x="325" y="-105.5" font-family="Helvetica,sans-Serif" font-size="10.00" fill="#000000">_video_param</text>
</a>
</g>
</g>
<!-- Node0&#45;&gt;Node3 -->
<g id="edge3" class="edge">
<title>Node0&#45;&gt;Node3</title>
<path fill="none" stroke="#191970" d="M234.9153,-98.283C247.4234,-100.3958 260.5758,-102.6175 272.8476,-104.6905"/>
<polygon fill="#191970" stroke="#191970" points="235.4947,-94.8314 225.0514,-96.6168 234.3287,-101.7336 235.4947,-94.8314"/>
</g>
<!-- Node4 -->
<g id="node5" class="node">
<title>Node4</title>
<g id="a_node5"><a xlink:href="classoneapi_1_1vpl_1_1jpeg__decoder__video__param.html" target="_top" xlink:title="Holds JPEG decoder specific params. ">
<polygon fill="#ffffff" stroke="#000000" points="261,-49.5 261,-79.5 389,-79.5 389,-49.5 261,-49.5"/>
<text text-anchor="start" x="269" y="-67.5" font-family="Helvetica,sans-Serif" font-size="10.00" fill="#000000">oneapi::vpl::jpeg_decoder</text>
<text text-anchor="middle" x="325" y="-56.5" font-family="Helvetica,sans-Serif" font-size="10.00" fill="#000000">_video_param</text>
</a>
</g>
</g>
<!-- Node0&#45;&gt;Node4 -->
<g id="edge4" class="edge">
<title>Node0&#45;&gt;Node4</title>
<path fill="none" stroke="#191970" d="M235.1371,-79.0724C243.5477,-77.7085 252.2452,-76.2981 260.7669,-74.9162"/>
<polygon fill="#191970" stroke="#191970" points="234.3621,-75.6522 225.0514,-80.7079 235.4827,-82.562 234.3621,-75.6522"/>
</g>
<!-- Node5 -->
<g id="node6" class="node">
<title>Node5</title>
<g id="a_node6"><a xlink:href="classoneapi_1_1vpl_1_1jpeg__encoder__video__param.html" target="_top" xlink:title="Holds JPEG encoder specific params. ">
<polygon fill="#ffffff" stroke="#000000" points="261,-.5 261,-30.5 389,-30.5 389,-.5 261,-.5"/>
<text text-anchor="start" x="269" y="-18.5" font-family="Helvetica,sans-Serif" font-size="10.00" fill="#000000">oneapi::vpl::jpeg_encoder</text>
<text text-anchor="middle" x="325" y="-7.5" font-family="Helvetica,sans-Serif" font-size="10.00" fill="#000000">_video_param</text>
</a>
</g>
</g>
<!-- Node0&#45;&gt;Node5 -->
<g id="edge5" class="edge">
<title>Node0&#45;&gt;Node5</title>
<path fill="none" stroke="#191970" d="M208.9391,-68.1508C224.3403,-58.7875 243.2798,-47.9165 261,-39.5 267.6458,-36.3435 274.8264,-33.3081 281.8931,-30.5205"/>
<polygon fill="#191970" stroke="#191970" points="206.9966,-65.2365 200.3159,-73.4596 210.6664,-71.1975 206.9966,-65.2365"/>
</g>
<!-- Node1 -->
<g id="node2" class="node">
<title>Node1</title>
<g id="a_node2"><a xlink:href="classoneapi_1_1vpl_1_1video__param.html" target="_top" xlink:title="Holds general video params applicable for all kind of sessions. ">
<polygon fill="#ffffff" stroke="#000000" points="0,-73.5 0,-103.5 93,-103.5 93,-73.5 0,-73.5"/>
<text text-anchor="start" x="8" y="-91.5" font-family="Helvetica,sans-Serif" font-size="10.00" fill="#000000">oneapi::vpl::video</text>
<text text-anchor="middle" x="46.5" y="-80.5" font-family="Helvetica,sans-Serif" font-size="10.00" fill="#000000">_param</text>
</a>
</g>
</g>
<!-- Node1&#45;&gt;Node0 -->
<g id="edge1" class="edge">
<title>Node1&#45;&gt;Node0</title>
<path fill="none" stroke="#191970" d="M103.4381,-88.5C111.9039,-88.5 120.5595,-88.5 128.8223,-88.5"/>
<polygon fill="#191970" stroke="#191970" points="103.2449,-85.0001 93.2449,-88.5 103.2449,-92.0001 103.2449,-85.0001"/>
</g>
</g>
</svg>
