<?xml version="1.0" encoding="UTF-8" standalone="no"?>
<!DOCTYPE svg PUBLIC "-//W3C//DTD SVG 1.1//EN"
 "http://www.w3.org/Graphics/SVG/1.1/DTD/svg11.dtd">
<!-- Generated by graphviz version 2.40.1 (20161225.0304)
 -->
<!-- Title: oneapi::vpl::ExtCodingOptionSPSPPS Pages: 1 -->
<svg width="865pt" height="78pt"
 viewBox="0.00 0.00 865.00 77.50" xmlns="http://www.w3.org/2000/svg" xmlns:xlink="http://www.w3.org/1999/xlink">
<g id="graph0" class="graph" transform="scale(1 1) rotate(0) translate(4 73.5)">
<title>oneapi::vpl::ExtCodingOptionSPSPPS</title>
<polygon fill="#ffffff" stroke="transparent" points="-4,4 -4,-73.5 861,-73.5 861,4 -4,4"/>
<!-- Node4 -->
<g id="node1" class="node">
<title>Node4</title>
<polygon fill="#bfbfbf" stroke="#000000" points="713,-17 713,-47 857,-47 857,-17 713,-17"/>
<text text-anchor="start" x="721" y="-35" font-family="Helvetica,sans-Serif" font-size="10.00" fill="#000000">oneapi::vpl::ExtCodingOption</text>
<text text-anchor="middle" x="785" y="-24" font-family="Helvetica,sans-Serif" font-size="10.00" fill="#000000">SPSPPS</text>
</g>
<!-- Node5 -->
<g id="node2" class="node">
<title>Node5</title>
<g id="a_node2"><a xlink:href="classoneapi_1_1vpl_1_1extension__buffer__with__ptrs.html" target="_top" xlink:title="oneapi::vpl::extension\l_buffer_with_ptrs\&lt; mfxExtCoding\lOptionSPSPPS, MFX_EXTBUFF_CODING\l_OPTION_SPSPPS \&gt;">
<polygon fill="#ffffff" stroke="#000000" points="467,-6 467,-58 676,-58 676,-6 467,-6"/>
<text text-anchor="start" x="475" y="-46" font-family="Helvetica,sans-Serif" font-size="10.00" fill="#000000">oneapi::vpl::extension</text>
<text text-anchor="start" x="475" y="-35" font-family="Helvetica,sans-Serif" font-size="10.00" fill="#000000">_buffer_with_ptrs&lt; mfxExtCoding</text>
<text text-anchor="start" x="475" y="-24" font-family="Helvetica,sans-Serif" font-size="10.00" fill="#000000">OptionSPSPPS, MFX_EXTBUFF_CODING</text>
<text text-anchor="middle" x="571.5" y="-13" font-family="Helvetica,sans-Serif" font-size="10.00" fill="#000000">_OPTION_SPSPPS &gt;</text>
</a>
</g>
</g>
<!-- Node5&#45;&gt;Node4 -->
<g id="edge1" class="edge">
<title>Node5&#45;&gt;Node4</title>
<path fill="none" stroke="#191970" d="M686.2829,-32C695.3199,-32 704.2797,-32 712.9012,-32"/>
<polygon fill="#191970" stroke="#191970" points="686.061,-28.5001 676.0609,-32 686.0609,-35.5001 686.061,-28.5001"/>
</g>
<!-- Node6 -->
<g id="node3" class="node">
<title>Node6</title>
<g id="a_node3"><a xlink:href="classoneapi_1_1vpl_1_1extension__buffer.html" target="_top" xlink:title="oneapi::vpl::extension\l_buffer\&lt; mfxExtCodingOptionSPSPPS, ID \&gt;">
<polygon fill="#ffffff" stroke="#000000" points="218,-17 218,-47 430,-47 430,-17 218,-17"/>
<text text-anchor="start" x="226" y="-35" font-family="Helvetica,sans-Serif" font-size="10.00" fill="#000000">oneapi::vpl::extension</text>
<text text-anchor="middle" x="324" y="-24" font-family="Helvetica,sans-Serif" font-size="10.00" fill="#000000">_buffer&lt; mfxExtCodingOptionSPSPPS, ID &gt;</text>
</a>
</g>
</g>
<!-- Node6&#45;&gt;Node5 -->
<g id="edge2" class="edge">
<title>Node6&#45;&gt;Node5</title>
<path fill="none" stroke="#191970" d="M440.0913,-32C449.0234,-32 458.0089,-32 466.8607,-32"/>
<polygon fill="#191970" stroke="#191970" points="440.0394,-28.5001 430.0393,-32 440.0393,-35.5001 440.0394,-28.5001"/>
</g>
<!-- Node7 -->
<g id="node4" class="node">
<title>Node7</title>
<g id="a_node4"><a xlink:href="classoneapi_1_1vpl_1_1extension__buffer__base.html" target="_top" xlink:title="Interface definition for extension buffers. Extension buffers are used to provide additional data for...">
<polygon fill="#ffffff" stroke="#000000" points="18,-39 18,-69 130,-69 130,-39 18,-39"/>
<text text-anchor="start" x="26" y="-57" font-family="Helvetica,sans-Serif" font-size="10.00" fill="#000000">oneapi::vpl::extension</text>
<text text-anchor="middle" x="74" y="-46" font-family="Helvetica,sans-Serif" font-size="10.00" fill="#000000">_buffer_base</text>
</a>
</g>
</g>
<!-- Node7&#45;&gt;Node6 -->
<g id="edge3" class="edge">
<title>Node7&#45;&gt;Node6</title>
<path fill="none" stroke="#191970" d="M140.0774,-48.1852C163.909,-46.088 191.4456,-43.6648 217.8359,-41.3424"/>
<polygon fill="#191970" stroke="#191970" points="139.7595,-44.6995 130.1049,-49.0628 140.3732,-51.6726 139.7595,-44.6995"/>
</g>
<!-- Node8 -->
<g id="node5" class="node">
<title>Node8</title>
<g id="a_node5"><a xlink:href="structmfxExtCodingOptionSPSPPS.html" target="_top" xlink:title="mfxExtCodingOptionSPSPPS">
<polygon fill="#ffffff" stroke="#000000" points="0,-.5 0,-19.5 148,-19.5 148,-.5 0,-.5"/>
<text text-anchor="middle" x="74" y="-7.5" font-family="Helvetica,sans-Serif" font-size="10.00" fill="#000000">mfxExtCodingOptionSPSPPS</text>
</a>
</g>
</g>
<!-- Node8&#45;&gt;Node6 -->
<g id="edge4" class="edge">
<title>Node8&#45;&gt;Node6</title>
<path fill="none" stroke="#9a32cd" stroke-dasharray="5,2" d="M158.4238,-17.4293C177.4162,-19.1006 197.8103,-20.8953 217.5711,-22.6343"/>
<polygon fill="#9a32cd" stroke="#9a32cd" points="158.5997,-13.9313 148.3314,-16.5412 157.986,-20.9044 158.5997,-13.9313"/>
<text text-anchor="middle" x="183" y="-24" font-family="Helvetica,sans-Serif" font-size="10.00" fill="#000000"> buffer_</text>
</g>
</g>
</svg>
