<?xml version="1.0" encoding="UTF-8" standalone="no"?>
<!DOCTYPE svg PUBLIC "-//W3C//DTD SVG 1.1//EN"
 "http://www.w3.org/Graphics/SVG/1.1/DTD/svg11.dtd">
<!-- Generated by graphviz version 2.40.1 (20161225.0304)
 -->
<!-- Title: oneapi::vpl::vpp_session::Init Pages: 1 -->
<svg width="273pt" height="88pt"
 viewBox="0.00 0.00 273.00 88.00" xmlns="http://www.w3.org/2000/svg" xmlns:xlink="http://www.w3.org/1999/xlink">
<g id="graph0" class="graph" transform="scale(1 1) rotate(0) translate(4 84)">
<title>oneapi::vpl::vpp_session::Init</title>
<polygon fill="#ffffff" stroke="transparent" points="-4,4 -4,-84 269,-84 269,4 -4,4"/>
<!-- Node8 -->
<g id="node1" class="node">
<title>Node8</title>
<polygon fill="#bfbfbf" stroke="#000000" points="0,-24.5 0,-54.5 125,-54.5 125,-24.5 0,-24.5"/>
<text text-anchor="start" x="8" y="-42.5" font-family="Helvetica,sans-Serif" font-size="10.00" fill="#000000">oneapi::vpl::vpp_session</text>
<text text-anchor="middle" x="62.5" y="-31.5" font-family="Helvetica,sans-Serif" font-size="10.00" fill="#000000">::Init</text>
</g>
<!-- Node9 -->
<g id="node2" class="node">
<title>Node9</title>
<g id="a_node2"><a xlink:href="classoneapi_1_1vpl_1_1session.html#a161e980cb19e1e5a0bb92f046a77e249" target="_top" xlink:title="Initializes the session by using provided parameters. ">
<polygon fill="#ffffff" stroke="#000000" points="161,-49.5 161,-79.5 265,-79.5 265,-49.5 161,-49.5"/>
<text text-anchor="start" x="169" y="-67.5" font-family="Helvetica,sans-Serif" font-size="10.00" fill="#000000">oneapi::vpl::session</text>
<text text-anchor="middle" x="213" y="-56.5" font-family="Helvetica,sans-Serif" font-size="10.00" fill="#000000">::Init</text>
</a>
</g>
</g>
<!-- Node8&#45;&gt;Node9 -->
<g id="edge1" class="edge">
<title>Node8&#45;&gt;Node9</title>
<path fill="none" stroke="#191970" d="M125.0181,-49.8851C133.609,-51.3121 142.428,-52.7771 151.0095,-54.2026"/>
<polygon fill="#191970" stroke="#191970" points="150.5079,-57.6671 160.9463,-55.8532 151.655,-50.7618 150.5079,-57.6671"/>
</g>
<!-- Node10 -->
<g id="node3" class="node">
<title>Node10</title>
<g id="a_node3"><a xlink:href="classoneapi_1_1vpl_1_1video__param.html#ac313dc5413bceae9bc4f3d0bd362b286" target="_top" xlink:title="Returns pointer to raw data. ">
<polygon fill="#ffffff" stroke="#000000" points="166.5,-.5 166.5,-30.5 259.5,-30.5 259.5,-.5 166.5,-.5"/>
<text text-anchor="start" x="174.5" y="-18.5" font-family="Helvetica,sans-Serif" font-size="10.00" fill="#000000">oneapi::vpl::video</text>
<text text-anchor="middle" x="213" y="-7.5" font-family="Helvetica,sans-Serif" font-size="10.00" fill="#000000">_param::getMfx</text>
</a>
</g>
</g>
<!-- Node8&#45;&gt;Node10 -->
<g id="edge2" class="edge">
<title>Node8&#45;&gt;Node10</title>
<path fill="none" stroke="#191970" d="M125.0181,-29.5303C135.3151,-27.8883 145.9397,-26.194 156.0903,-24.5753"/>
<polygon fill="#191970" stroke="#191970" points="156.729,-28.0178 166.053,-22.9866 155.6266,-21.1051 156.729,-28.0178"/>
</g>
</g>
</svg>
