<?xml version="1.0" encoding="UTF-8" standalone="no"?>
<!DOCTYPE svg PUBLIC "-//W3C//DTD SVG 1.1//EN"
 "http://www.w3.org/Graphics/SVG/1.1/DTD/svg11.dtd">
<!-- Generated by graphviz version 2.40.1 (20161225.0304)
 -->
<!-- Title: oneapi::vpl::extension_buffer&lt; T, ID &gt; Pages: 1 -->
<svg width="168pt" height="117pt"
 viewBox="0.00 0.00 167.50 117.00" xmlns="http://www.w3.org/2000/svg" xmlns:xlink="http://www.w3.org/1999/xlink">
<g id="graph0" class="graph" transform="scale(1 1) rotate(0) translate(4 113)">
<title>oneapi::vpl::extension_buffer&lt; T, ID &gt;</title>
<polygon fill="#ffffff" stroke="transparent" points="-4,4 -4,-113 163.5,-113 163.5,4 -4,4"/>
<!-- Node4 -->
<g id="node1" class="node">
<title>Node4</title>
<polygon fill="#bfbfbf" stroke="#000000" points="44,-.5 44,-30.5 156,-30.5 156,-.5 44,-.5"/>
<text text-anchor="start" x="52" y="-18.5" font-family="Helvetica,sans-Serif" font-size="10.00" fill="#000000">oneapi::vpl::extension</text>
<text text-anchor="middle" x="100" y="-7.5" font-family="Helvetica,sans-Serif" font-size="10.00" fill="#000000">_buffer&lt; T, ID &gt;</text>
</g>
<!-- Node5 -->
<g id="node2" class="node">
<title>Node5</title>
<g id="a_node2"><a xlink:href="classoneapi_1_1vpl_1_1extension__buffer__base.html" target="_top" xlink:title="Interface definition for extension buffers. Extension buffers are used to provide additional data for...">
<polygon fill="#ffffff" stroke="#000000" points="0,-78.5 0,-108.5 112,-108.5 112,-78.5 0,-78.5"/>
<text text-anchor="start" x="8" y="-96.5" font-family="Helvetica,sans-Serif" font-size="10.00" fill="#000000">oneapi::vpl::extension</text>
<text text-anchor="middle" x="56" y="-85.5" font-family="Helvetica,sans-Serif" font-size="10.00" fill="#000000">_buffer_base</text>
</a>
</g>
</g>
<!-- Node5&#45;&gt;Node4 -->
<g id="edge1" class="edge">
<title>Node5&#45;&gt;Node4</title>
<path fill="none" stroke="#191970" d="M69.5916,-69.4059C76.7023,-56.8005 85.1925,-41.7497 91.3923,-30.7592"/>
<polygon fill="#191970" stroke="#191970" points="66.3485,-68.0314 64.4836,-78.4608 72.4453,-71.4707 66.3485,-68.0314"/>
</g>
<!-- Node6 -->
<g id="node3" class="node">
<title>Node6</title>
<polygon fill="#ffffff" stroke="#bfbfbf" points="130.5,-84 130.5,-103 159.5,-103 159.5,-84 130.5,-84"/>
<text text-anchor="middle" x="145" y="-91" font-family="Helvetica,sans-Serif" font-size="10.00" fill="#000000">T</text>
</g>
<!-- Node6&#45;&gt;Node4 -->
<g id="edge2" class="edge">
<title>Node6&#45;&gt;Node4</title>
<path fill="none" stroke="#9a32cd" stroke-dasharray="5,2" d="M134.3649,-75.0657C126.5795,-61.5711 116.1394,-43.4749 108.8168,-30.7824"/>
<polygon fill="#9a32cd" stroke="#9a32cd" points="131.4532,-77.0228 139.4821,-83.9357 137.5165,-73.5248 131.4532,-77.0228"/>
<text text-anchor="middle" x="142" y="-52" font-family="Helvetica,sans-Serif" font-size="10.00" fill="#000000"> buffer_</text>
</g>
</g>
</svg>
