<?xml version="1.0" encoding="UTF-8" standalone="no"?>
<!DOCTYPE svg PUBLIC "-//W3C//DTD SVG 1.1//EN"
 "http://www.w3.org/Graphics/SVG/1.1/DTD/svg11.dtd">
<!-- Generated by graphviz version 2.40.1 (20161225.0304)
 -->
<!-- Title: oneapi::vpl::base_exception::base_exception Pages: 1 -->
<svg width="494pt" height="110pt"
 viewBox="0.00 0.00 494.00 110.00" xmlns="http://www.w3.org/2000/svg" xmlns:xlink="http://www.w3.org/1999/xlink">
<g id="graph0" class="graph" transform="scale(1 1) rotate(0) translate(4 106)">
<title>oneapi::vpl::base_exception::base_exception</title>
<polygon fill="#ffffff" stroke="transparent" points="-4,4 -4,-106 490,-106 490,4 -4,4"/>
<!-- Node4 -->
<g id="node1" class="node">
<title>Node4</title>
<polygon fill="#bfbfbf" stroke="#000000" points="0,-49.5 0,-79.5 138,-79.5 138,-49.5 0,-49.5"/>
<text text-anchor="start" x="8" y="-67.5" font-family="Helvetica,sans-Serif" font-size="10.00" fill="#000000">oneapi::vpl::base_exception</text>
<text text-anchor="middle" x="69" y="-56.5" font-family="Helvetica,sans-Serif" font-size="10.00" fill="#000000">::base_exception</text>
</g>
<!-- Node5 -->
<g id="node2" class="node">
<title>Node5</title>
<g id="a_node2"><a xlink:href="classoneapi_1_1vpl_1_1base__exception.html#a4ae2f12584f7d4e5d40f4dbe74e6a171" target="_top" xlink:title="Converts C API status code in to the text form. ">
<polygon fill="#ffffff" stroke="#000000" points="348,-71.5 348,-101.5 486,-101.5 486,-71.5 348,-71.5"/>
<text text-anchor="start" x="356" y="-89.5" font-family="Helvetica,sans-Serif" font-size="10.00" fill="#000000">oneapi::vpl::base_exception</text>
<text text-anchor="middle" x="417" y="-78.5" font-family="Helvetica,sans-Serif" font-size="10.00" fill="#000000">::status_to_string</text>
</a>
</g>
</g>
<!-- Node4&#45;&gt;Node5 -->
<g id="edge1" class="edge">
<title>Node4&#45;&gt;Node5</title>
<path fill="none" stroke="#191970" d="M121.4458,-79.5277C138.102,-83.6129 156.6919,-87.4679 174,-89.5 228.361,-95.8823 290.0301,-95.0256 337.64,-92.6277"/>
<polygon fill="#191970" stroke="#191970" points="338.0868,-96.1089 347.8846,-92.0773 337.7112,-89.119 338.0868,-96.1089"/>
</g>
<!-- Node6 -->
<g id="node3" class="node">
<title>Node6</title>
<g id="a_node3"><a xlink:href="classoneapi_1_1vpl_1_1base__exception.html#a138a1ac40ec8869b379031ee15b9da42" target="_top" xlink:title="Default ctor. ">
<polygon fill="#ffffff" stroke="#000000" points="174,-49.5 174,-79.5 312,-79.5 312,-49.5 174,-49.5"/>
<text text-anchor="start" x="182" y="-67.5" font-family="Helvetica,sans-Serif" font-size="10.00" fill="#000000">oneapi::vpl::base_exception</text>
<text text-anchor="middle" x="243" y="-56.5" font-family="Helvetica,sans-Serif" font-size="10.00" fill="#000000">::base_exception</text>
</a>
</g>
</g>
<!-- Node4&#45;&gt;Node6 -->
<g id="edge2" class="edge">
<title>Node4&#45;&gt;Node6</title>
<path fill="none" stroke="#191970" d="M138.0193,-64.5C146.4757,-64.5 155.1691,-64.5 163.7607,-64.5"/>
<polygon fill="#191970" stroke="#191970" points="163.7795,-68.0001 173.7795,-64.5 163.7794,-61.0001 163.7795,-68.0001"/>
</g>
<!-- Node7 -->
<g id="node4" class="node">
<title>Node7</title>
<g id="a_node4"><a xlink:href="classoneapi_1_1vpl_1_1base__exception.html#ab68a1a9aba836bb70829f342d1474eba" target="_top" xlink:title="Assignment operator. ">
<polygon fill="#ffffff" stroke="#000000" points="174,-.5 174,-30.5 312,-30.5 312,-.5 174,-.5"/>
<text text-anchor="start" x="182" y="-18.5" font-family="Helvetica,sans-Serif" font-size="10.00" fill="#000000">oneapi::vpl::base_exception</text>
<text text-anchor="middle" x="243" y="-7.5" font-family="Helvetica,sans-Serif" font-size="10.00" fill="#000000">::operator=</text>
</a>
</g>
</g>
<!-- Node4&#45;&gt;Node7 -->
<g id="edge4" class="edge">
<title>Node4&#45;&gt;Node7</title>
<path fill="none" stroke="#191970" d="M122.6255,-49.3986C140.7374,-44.2981 161.1238,-38.5571 179.9001,-33.2695"/>
<polygon fill="#191970" stroke="#191970" points="180.8747,-36.6313 189.5515,-30.5516 178.9772,-29.8933 180.8747,-36.6313"/>
</g>
<!-- Node6&#45;&gt;Node5 -->
<g id="edge3" class="edge">
<title>Node6&#45;&gt;Node5</title>
<path fill="none" stroke="#191970" d="M312.0193,-73.2266C320.4757,-74.2958 329.1691,-75.3949 337.7607,-76.4812"/>
<polygon fill="#191970" stroke="#191970" points="337.4194,-79.9659 347.7795,-77.748 338.2975,-73.0212 337.4194,-79.9659"/>
</g>
</g>
</svg>
