<?xml version="1.0" encoding="UTF-8" standalone="no"?>
<!DOCTYPE svg PUBLIC "-//W3C//DTD SVG 1.1//EN"
 "http://www.w3.org/Graphics/SVG/1.1/DTD/svg11.dtd">
<!-- Generated by graphviz version 2.40.1 (20161225.0304)
 -->
<!-- Title: oneapi::vpl::ExtDirtyRect Pages: 1 -->
<svg width="720pt" height="50pt"
 viewBox="0.00 0.00 720.00 50.00" xmlns="http://www.w3.org/2000/svg" xmlns:xlink="http://www.w3.org/1999/xlink">
<g id="graph0" class="graph" transform="scale(1 1) rotate(0) translate(4 46)">
<title>oneapi::vpl::ExtDirtyRect</title>
<polygon fill="#ffffff" stroke="transparent" points="-4,4 -4,-46 716,-46 716,4 -4,4"/>
<!-- Node0 -->
<g id="node1" class="node">
<title>Node0</title>
<polygon fill="#bfbfbf" stroke="#000000" points="585,-11.5 585,-30.5 712,-30.5 712,-11.5 585,-11.5"/>
<text text-anchor="middle" x="648.5" y="-18.5" font-family="Helvetica,sans-Serif" font-size="10.00" fill="#000000">oneapi::vpl::ExtDirtyRect</text>
</g>
<!-- Node1 -->
<g id="node2" class="node">
<title>Node1</title>
<g id="a_node2"><a xlink:href="classoneapi_1_1vpl_1_1extension__buffer__trival.html" target="_top" xlink:title="oneapi::vpl::extension\l_buffer_trival\&lt; mfxExtDirtyRect,\l MFX_EXTBUFF_DIRTY_RECTANGLES \&gt;">
<polygon fill="#ffffff" stroke="#000000" points="339,-.5 339,-41.5 549,-41.5 549,-.5 339,-.5"/>
<text text-anchor="start" x="347" y="-29.5" font-family="Helvetica,sans-Serif" font-size="10.00" fill="#000000">oneapi::vpl::extension</text>
<text text-anchor="start" x="347" y="-18.5" font-family="Helvetica,sans-Serif" font-size="10.00" fill="#000000">_buffer_trival&lt; mfxExtDirtyRect,</text>
<text text-anchor="middle" x="444" y="-7.5" font-family="Helvetica,sans-Serif" font-size="10.00" fill="#000000"> MFX_EXTBUFF_DIRTY_RECTANGLES &gt;</text>
</a>
</g>
</g>
<!-- Node1&#45;&gt;Node0 -->
<g id="edge1" class="edge">
<title>Node1&#45;&gt;Node0</title>
<path fill="none" stroke="#191970" d="M559.4559,-21C568.1165,-21 576.6485,-21 584.7979,-21"/>
<polygon fill="#191970" stroke="#191970" points="559.2453,-17.5001 549.2452,-21 559.2452,-24.5001 559.2453,-17.5001"/>
</g>
<!-- Node2 -->
<g id="node3" class="node">
<title>Node2</title>
<g id="a_node3"><a xlink:href="classoneapi_1_1vpl_1_1extension__buffer.html" target="_top" xlink:title="oneapi::vpl::extension\l_buffer\&lt; mfxExtDirtyRect, ID \&gt;">
<polygon fill="#ffffff" stroke="#000000" points="148,-6 148,-36 303,-36 303,-6 148,-6"/>
<text text-anchor="start" x="156" y="-24" font-family="Helvetica,sans-Serif" font-size="10.00" fill="#000000">oneapi::vpl::extension</text>
<text text-anchor="middle" x="225.5" y="-13" font-family="Helvetica,sans-Serif" font-size="10.00" fill="#000000">_buffer&lt; mfxExtDirtyRect, ID &gt;</text>
</a>
</g>
</g>
<!-- Node2&#45;&gt;Node1 -->
<g id="edge2" class="edge">
<title>Node2&#45;&gt;Node1</title>
<path fill="none" stroke="#191970" d="M313.2639,-21C321.6381,-21 330.1876,-21 338.7051,-21"/>
<polygon fill="#191970" stroke="#191970" points="313.1502,-17.5001 303.1502,-21 313.1501,-24.5001 313.1502,-17.5001"/>
</g>
<!-- Node3 -->
<g id="node4" class="node">
<title>Node3</title>
<g id="a_node4"><a xlink:href="classoneapi_1_1vpl_1_1extension__buffer__base.html" target="_top" xlink:title="Interface definition for extension buffers. Extension buffers are used to provide additional data for...">
<polygon fill="#ffffff" stroke="#000000" points="0,-6 0,-36 112,-36 112,-6 0,-6"/>
<text text-anchor="start" x="8" y="-24" font-family="Helvetica,sans-Serif" font-size="10.00" fill="#000000">oneapi::vpl::extension</text>
<text text-anchor="middle" x="56" y="-13" font-family="Helvetica,sans-Serif" font-size="10.00" fill="#000000">_buffer_base</text>
</a>
</g>
</g>
<!-- Node3&#45;&gt;Node2 -->
<g id="edge3" class="edge">
<title>Node3&#45;&gt;Node2</title>
<path fill="none" stroke="#191970" d="M122.4648,-21C130.8023,-21 139.3877,-21 147.877,-21"/>
<polygon fill="#191970" stroke="#191970" points="122.4411,-17.5001 112.441,-21 122.441,-24.5001 122.4411,-17.5001"/>
</g>
</g>
</svg>
