<?xml version="1.0" encoding="UTF-8" standalone="no"?>
<!DOCTYPE svg PUBLIC "-//W3C//DTD SVG 1.1//EN"
 "http://www.w3.org/Graphics/SVG/1.1/DTD/svg11.dtd">
<!-- Generated by graphviz version 2.40.1 (20161225.0304)
 -->
<!-- Title: oneapi::vpl::extension_buffer&lt; T, ID &gt; Pages: 1 -->
<svg width="436pt" height="88pt"
 viewBox="0.00 0.00 436.00 88.00" xmlns="http://www.w3.org/2000/svg" xmlns:xlink="http://www.w3.org/1999/xlink">
<g id="graph0" class="graph" transform="scale(1 1) rotate(0) translate(4 84)">
<title>oneapi::vpl::extension_buffer&lt; T, ID &gt;</title>
<polygon fill="#ffffff" stroke="transparent" points="-4,4 -4,-84 432,-84 432,4 -4,4"/>
<!-- Node0 -->
<g id="node1" class="node">
<title>Node0</title>
<polygon fill="#bfbfbf" stroke="#000000" points="148,-24.5 148,-54.5 260,-54.5 260,-24.5 148,-24.5"/>
<text text-anchor="start" x="156" y="-42.5" font-family="Helvetica,sans-Serif" font-size="10.00" fill="#000000">oneapi::vpl::extension</text>
<text text-anchor="middle" x="204" y="-31.5" font-family="Helvetica,sans-Serif" font-size="10.00" fill="#000000">_buffer&lt; T, ID &gt;</text>
</g>
<!-- Node2 -->
<g id="node3" class="node">
<title>Node2</title>
<g id="a_node3"><a xlink:href="classoneapi_1_1vpl_1_1extension__buffer__trival.html" target="_top" xlink:title="Utilitary intermediate class to keep extension buffers without pointers. For such classes default cop...">
<polygon fill="#ffffff" stroke="#000000" points="305.5,-49.5 305.5,-79.5 418.5,-79.5 418.5,-49.5 305.5,-49.5"/>
<text text-anchor="start" x="313.5" y="-67.5" font-family="Helvetica,sans-Serif" font-size="10.00" fill="#000000">oneapi::vpl::extension</text>
<text text-anchor="middle" x="362" y="-56.5" font-family="Helvetica,sans-Serif" font-size="10.00" fill="#000000">_buffer_trival&lt; T, ID &gt;</text>
</a>
</g>
</g>
<!-- Node0&#45;&gt;Node2 -->
<g id="edge2" class="edge">
<title>Node0&#45;&gt;Node2</title>
<path fill="none" stroke="#191970" d="M270.3092,-49.992C282.0121,-51.8437 294.0965,-53.7558 305.4987,-55.5599"/>
<polygon fill="#191970" stroke="#191970" points="270.5739,-46.4904 260.1498,-48.3845 269.4799,-53.4044 270.5739,-46.4904"/>
</g>
<!-- Node3 -->
<g id="node4" class="node">
<title>Node3</title>
<g id="a_node4"><a xlink:href="classoneapi_1_1vpl_1_1extension__buffer__with__ptrs.html" target="_top" xlink:title="Utilitary intermediate class to keep extension buffers with pointers. For such classes copy ctor and ...">
<polygon fill="#ffffff" stroke="#000000" points="296,-.5 296,-30.5 428,-30.5 428,-.5 296,-.5"/>
<text text-anchor="start" x="304" y="-18.5" font-family="Helvetica,sans-Serif" font-size="10.00" fill="#000000">oneapi::vpl::extension</text>
<text text-anchor="middle" x="362" y="-7.5" font-family="Helvetica,sans-Serif" font-size="10.00" fill="#000000">_buffer_with_ptrs&lt; T, ID &gt;</text>
</a>
</g>
</g>
<!-- Node0&#45;&gt;Node3 -->
<g id="edge3" class="edge">
<title>Node0&#45;&gt;Node3</title>
<path fill="none" stroke="#191970" d="M270.3006,-29.429C278.7248,-28.1494 287.3468,-26.8397 295.7699,-25.5603"/>
<polygon fill="#191970" stroke="#191970" points="269.5107,-26.0088 260.1498,-30.9709 270.562,-32.9294 269.5107,-26.0088"/>
</g>
<!-- Node1 -->
<g id="node2" class="node">
<title>Node1</title>
<g id="a_node2"><a xlink:href="classoneapi_1_1vpl_1_1extension__buffer__base.html" target="_top" xlink:title="Interface definition for extension buffers. Extension buffers are used to provide additional data for...">
<polygon fill="#ffffff" stroke="#000000" points="0,-24.5 0,-54.5 112,-54.5 112,-24.5 0,-24.5"/>
<text text-anchor="start" x="8" y="-42.5" font-family="Helvetica,sans-Serif" font-size="10.00" fill="#000000">oneapi::vpl::extension</text>
<text text-anchor="middle" x="56" y="-31.5" font-family="Helvetica,sans-Serif" font-size="10.00" fill="#000000">_buffer_base</text>
</a>
</g>
</g>
<!-- Node1&#45;&gt;Node0 -->
<g id="edge1" class="edge">
<title>Node1&#45;&gt;Node0</title>
<path fill="none" stroke="#191970" d="M122.5579,-39.5C130.9836,-39.5 139.5393,-39.5 147.7821,-39.5"/>
<polygon fill="#191970" stroke="#191970" points="122.3747,-36.0001 112.3747,-39.5 122.3746,-43.0001 122.3747,-36.0001"/>
</g>
</g>
</svg>
