<?xml version="1.0" encoding="UTF-8" standalone="no"?>
<!DOCTYPE svg PUBLIC "-//W3C//DTD SVG 1.1//EN"
 "http://www.w3.org/Graphics/SVG/1.1/DTD/svg11.dtd">
<!-- Generated by graphviz version 2.40.1 (20161225.0304)
 -->
<!-- Title: oneapi::vpl::ExtVP9TemporalLayers Pages: 1 -->
<svg width="1022pt" height="78pt"
 viewBox="0.00 0.00 1022.00 77.50" xmlns="http://www.w3.org/2000/svg" xmlns:xlink="http://www.w3.org/1999/xlink">
<g id="graph0" class="graph" transform="scale(1 1) rotate(0) translate(4 73.5)">
<title>oneapi::vpl::ExtVP9TemporalLayers</title>
<polygon fill="#ffffff" stroke="transparent" points="-4,4 -4,-73.5 1018,-73.5 1018,4 -4,4"/>
<!-- Node4 -->
<g id="node1" class="node">
<title>Node4</title>
<polygon fill="#bfbfbf" stroke="#000000" points="870,-17 870,-47 1014,-47 1014,-17 870,-17"/>
<text text-anchor="start" x="878" y="-35" font-family="Helvetica,sans-Serif" font-size="10.00" fill="#000000">oneapi::vpl::ExtVP9Temporal</text>
<text text-anchor="middle" x="942" y="-24" font-family="Helvetica,sans-Serif" font-size="10.00" fill="#000000">Layers</text>
</g>
<!-- Node5 -->
<g id="node2" class="node">
<title>Node5</title>
<g id="a_node2"><a xlink:href="classoneapi_1_1vpl_1_1extension__buffer__trival.html" target="_top" xlink:title="oneapi::vpl::extension\l_buffer_trival\&lt; mfxExtVP9Temporal\lLayers, MFX_EXTBUFF_VP9_TEMPORAL\l_LAYERS \&gt;">
<polygon fill="#ffffff" stroke="#000000" points="625,-6 625,-58 833,-58 833,-6 625,-6"/>
<text text-anchor="start" x="633" y="-46" font-family="Helvetica,sans-Serif" font-size="10.00" fill="#000000">oneapi::vpl::extension</text>
<text text-anchor="start" x="633" y="-35" font-family="Helvetica,sans-Serif" font-size="10.00" fill="#000000">_buffer_trival&lt; mfxExtVP9Temporal</text>
<text text-anchor="start" x="633" y="-24" font-family="Helvetica,sans-Serif" font-size="10.00" fill="#000000">Layers, MFX_EXTBUFF_VP9_TEMPORAL</text>
<text text-anchor="middle" x="729" y="-13" font-family="Helvetica,sans-Serif" font-size="10.00" fill="#000000">_LAYERS &gt;</text>
</a>
</g>
</g>
<!-- Node5&#45;&gt;Node4 -->
<g id="edge1" class="edge">
<title>Node5&#45;&gt;Node4</title>
<path fill="none" stroke="#191970" d="M843.2224,-32C852.2573,-32 861.2176,-32 869.8415,-32"/>
<polygon fill="#191970" stroke="#191970" points="843.0041,-28.5001 833.0041,-32 843.0041,-35.5001 843.0041,-28.5001"/>
</g>
<!-- Node6 -->
<g id="node3" class="node">
<title>Node6</title>
<g id="a_node3"><a xlink:href="classoneapi_1_1vpl_1_1extension__buffer.html" target="_top" xlink:title="oneapi::vpl::extension\l_buffer\&lt; mfxExtVP9TemporalLayers, ID \&gt;">
<polygon fill="#ffffff" stroke="#000000" points="387,-17 387,-47 588,-47 588,-17 387,-17"/>
<text text-anchor="start" x="395" y="-35" font-family="Helvetica,sans-Serif" font-size="10.00" fill="#000000">oneapi::vpl::extension</text>
<text text-anchor="middle" x="487.5" y="-24" font-family="Helvetica,sans-Serif" font-size="10.00" fill="#000000">_buffer&lt; mfxExtVP9TemporalLayers, ID &gt;</text>
</a>
</g>
</g>
<!-- Node6&#45;&gt;Node5 -->
<g id="edge2" class="edge">
<title>Node6&#45;&gt;Node5</title>
<path fill="none" stroke="#191970" d="M598.201,-32C607.1236,-32 616.1198,-32 624.993,-32"/>
<polygon fill="#191970" stroke="#191970" points="598.169,-28.5001 588.169,-32 598.169,-35.5001 598.169,-28.5001"/>
</g>
<!-- Node7 -->
<g id="node4" class="node">
<title>Node7</title>
<g id="a_node4"><a xlink:href="classoneapi_1_1vpl_1_1extension__buffer__base.html" target="_top" xlink:title="Interface definition for extension buffers. Extension buffers are used to provide additional data for...">
<polygon fill="#ffffff" stroke="#000000" points="192.5,-39 192.5,-69 304.5,-69 304.5,-39 192.5,-39"/>
<text text-anchor="start" x="200.5" y="-57" font-family="Helvetica,sans-Serif" font-size="10.00" fill="#000000">oneapi::vpl::extension</text>
<text text-anchor="middle" x="248.5" y="-46" font-family="Helvetica,sans-Serif" font-size="10.00" fill="#000000">_buffer_base</text>
</a>
</g>
</g>
<!-- Node7&#45;&gt;Node6 -->
<g id="edge3" class="edge">
<title>Node7&#45;&gt;Node6</title>
<path fill="none" stroke="#191970" d="M314.5715,-47.9181C336.9301,-45.86 362.431,-43.5126 386.8541,-41.2645"/>
<polygon fill="#191970" stroke="#191970" points="314.1719,-44.44 304.5349,-48.842 314.8136,-51.4105 314.1719,-44.44"/>
</g>
<!-- Node8 -->
<g id="node5" class="node">
<title>Node8</title>
<g id="a_node5"><a xlink:href="structmfxExtVP9TemporalLayers.html" target="_top" xlink:title="mfxExtVP9TemporalLayers">
<polygon fill="#ffffff" stroke="#000000" points="180,-.5 180,-19.5 317,-19.5 317,-.5 180,-.5"/>
<text text-anchor="middle" x="248.5" y="-7.5" font-family="Helvetica,sans-Serif" font-size="10.00" fill="#000000">mfxExtVP9TemporalLayers</text>
</a>
</g>
</g>
<!-- Node8&#45;&gt;Node6 -->
<g id="edge4" class="edge">
<title>Node8&#45;&gt;Node6</title>
<path fill="none" stroke="#9a32cd" stroke-dasharray="5,2" d="M327.3796,-17.2609C346.3627,-19.0083 366.8979,-20.8986 386.7277,-22.7239"/>
<polygon fill="#9a32cd" stroke="#9a32cd" points="327.5868,-13.7652 317.3081,-16.3338 326.9451,-20.7358 327.5868,-13.7652"/>
<text text-anchor="middle" x="352" y="-24" font-family="Helvetica,sans-Serif" font-size="10.00" fill="#000000"> buffer_</text>
</g>
<!-- Node9 -->
<g id="node6" class="node">
<title>Node9</title>
<g id="a_node6"><a xlink:href="structmfxVP9TemporalLayer.html" target="_top" xlink:title="mfxVP9TemporalLayer">
<polygon fill="#ffffff" stroke="#000000" points="0,-.5 0,-19.5 116,-19.5 116,-.5 0,-.5"/>
<text text-anchor="middle" x="58" y="-7.5" font-family="Helvetica,sans-Serif" font-size="10.00" fill="#000000">mfxVP9TemporalLayer</text>
</a>
</g>
</g>
<!-- Node9&#45;&gt;Node8 -->
<g id="edge5" class="edge">
<title>Node9&#45;&gt;Node8</title>
<path fill="none" stroke="#9a32cd" stroke-dasharray="5,2" d="M126.2922,-10C143.7392,-10 162.5013,-10 179.9606,-10"/>
<polygon fill="#9a32cd" stroke="#9a32cd" points="126.1914,-6.5001 116.1914,-10 126.1914,-13.5001 126.1914,-6.5001"/>
<text text-anchor="middle" x="148" y="-13" font-family="Helvetica,sans-Serif" font-size="10.00" fill="#000000"> Layer</text>
</g>
</g>
</svg>
