<?xml version="1.0" encoding="UTF-8" standalone="no"?>
<!DOCTYPE svg PUBLIC "-//W3C//DTD SVG 1.1//EN"
 "http://www.w3.org/Graphics/SVG/1.1/DTD/svg11.dtd">
<!-- Generated by graphviz version 2.40.1 (20161225.0304)
 -->
<!-- Title: oneapi::vpl::ExtVPPColorFill Pages: 1 -->
<svg width="776pt" height="78pt"
 viewBox="0.00 0.00 776.00 77.50" xmlns="http://www.w3.org/2000/svg" xmlns:xlink="http://www.w3.org/1999/xlink">
<g id="graph0" class="graph" transform="scale(1 1) rotate(0) translate(4 73.5)">
<title>oneapi::vpl::ExtVPPColorFill</title>
<polygon fill="#ffffff" stroke="transparent" points="-4,4 -4,-73.5 772,-73.5 772,4 -4,4"/>
<!-- Node4 -->
<g id="node1" class="node">
<title>Node4</title>
<polygon fill="#bfbfbf" stroke="#000000" points="627,-22.5 627,-41.5 768,-41.5 768,-22.5 627,-22.5"/>
<text text-anchor="middle" x="697.5" y="-29.5" font-family="Helvetica,sans-Serif" font-size="10.00" fill="#000000">oneapi::vpl::ExtVPPColorFill</text>
</g>
<!-- Node5 -->
<g id="node2" class="node">
<title>Node5</title>
<g id="a_node2"><a xlink:href="classoneapi_1_1vpl_1_1extension__buffer__trival.html" target="_top" xlink:title="oneapi::vpl::extension\l_buffer_trival\&lt; mfxExtVPPColor\lFill, MFX_EXTBUFF_VPP_COLORFILL \&gt;">
<polygon fill="#ffffff" stroke="#000000" points="388,-11.5 388,-52.5 590,-52.5 590,-11.5 388,-11.5"/>
<text text-anchor="start" x="396" y="-40.5" font-family="Helvetica,sans-Serif" font-size="10.00" fill="#000000">oneapi::vpl::extension</text>
<text text-anchor="start" x="396" y="-29.5" font-family="Helvetica,sans-Serif" font-size="10.00" fill="#000000">_buffer_trival&lt; mfxExtVPPColor</text>
<text text-anchor="middle" x="489" y="-18.5" font-family="Helvetica,sans-Serif" font-size="10.00" fill="#000000">Fill, MFX_EXTBUFF_VPP_COLORFILL &gt;</text>
</a>
</g>
</g>
<!-- Node5&#45;&gt;Node4 -->
<g id="edge1" class="edge">
<title>Node5&#45;&gt;Node4</title>
<path fill="none" stroke="#191970" d="M600.3231,-32C609.279,-32 618.1649,-32 626.7148,-32"/>
<polygon fill="#191970" stroke="#191970" points="600.1962,-28.5001 590.1962,-32 600.1962,-35.5001 600.1962,-28.5001"/>
</g>
<!-- Node6 -->
<g id="node3" class="node">
<title>Node6</title>
<g id="a_node3"><a xlink:href="classoneapi_1_1vpl_1_1extension__buffer.html" target="_top" xlink:title="oneapi::vpl::extension\l_buffer\&lt; mfxExtVPPColorFill, ID \&gt;">
<polygon fill="#ffffff" stroke="#000000" points="182,-17 182,-47 351,-47 351,-17 182,-17"/>
<text text-anchor="start" x="190" y="-35" font-family="Helvetica,sans-Serif" font-size="10.00" fill="#000000">oneapi::vpl::extension</text>
<text text-anchor="middle" x="266.5" y="-24" font-family="Helvetica,sans-Serif" font-size="10.00" fill="#000000">_buffer&lt; mfxExtVPPColorFill, ID &gt;</text>
</a>
</g>
</g>
<!-- Node6&#45;&gt;Node5 -->
<g id="edge2" class="edge">
<title>Node6&#45;&gt;Node5</title>
<path fill="none" stroke="#191970" d="M361.3926,-32C370.0951,-32 378.9342,-32 387.6905,-32"/>
<polygon fill="#191970" stroke="#191970" points="361.2525,-28.5001 351.2524,-32 361.2524,-35.5001 361.2525,-28.5001"/>
</g>
<!-- Node7 -->
<g id="node4" class="node">
<title>Node7</title>
<g id="a_node4"><a xlink:href="classoneapi_1_1vpl_1_1extension__buffer__base.html" target="_top" xlink:title="Interface definition for extension buffers. Extension buffers are used to provide additional data for...">
<polygon fill="#ffffff" stroke="#000000" points="0,-39 0,-69 112,-69 112,-39 0,-39"/>
<text text-anchor="start" x="8" y="-57" font-family="Helvetica,sans-Serif" font-size="10.00" fill="#000000">oneapi::vpl::extension</text>
<text text-anchor="middle" x="56" y="-46" font-family="Helvetica,sans-Serif" font-size="10.00" fill="#000000">_buffer_base</text>
</a>
</g>
</g>
<!-- Node7&#45;&gt;Node6 -->
<g id="edge3" class="edge">
<title>Node7&#45;&gt;Node6</title>
<path fill="none" stroke="#191970" d="M122.0986,-47.0918C140.9643,-45.1201 161.7872,-42.9439 181.6086,-40.8723"/>
<polygon fill="#191970" stroke="#191970" points="121.7156,-43.6127 112.1336,-48.1333 122.4433,-50.5748 121.7156,-43.6127"/>
</g>
<!-- Node8 -->
<g id="node5" class="node">
<title>Node8</title>
<g id="a_node5"><a xlink:href="structmfxExtVPPColorFill.html" target="_top" xlink:title="mfxExtVPPColorFill">
<polygon fill="#ffffff" stroke="#000000" points="4,-.5 4,-19.5 108,-19.5 108,-.5 4,-.5"/>
<text text-anchor="middle" x="56" y="-7.5" font-family="Helvetica,sans-Serif" font-size="10.00" fill="#000000">mfxExtVPPColorFill</text>
</a>
</g>
</g>
<!-- Node8&#45;&gt;Node6 -->
<g id="edge4" class="edge">
<title>Node8&#45;&gt;Node6</title>
<path fill="none" stroke="#9a32cd" stroke-dasharray="5,2" d="M118.2212,-16.5029C138.1742,-18.5883 160.6193,-20.9341 181.8933,-23.1575"/>
<polygon fill="#9a32cd" stroke="#9a32cd" points="118.3434,-12.9967 108.0337,-15.4382 117.6157,-19.9588 118.3434,-12.9967"/>
<text text-anchor="middle" x="147" y="-24" font-family="Helvetica,sans-Serif" font-size="10.00" fill="#000000"> buffer_</text>
</g>
</g>
</svg>
