<?xml version="1.0" encoding="UTF-8" standalone="no"?>
<!DOCTYPE svg PUBLIC "-//W3C//DTD SVG 1.1//EN"
 "http://www.w3.org/Graphics/SVG/1.1/DTD/svg11.dtd">
<!-- Generated by graphviz version 2.40.1 (20161225.0304)
 -->
<!-- Title: oneapi::vpl::ExtMVOverPicBoundaries Pages: 1 -->
<svg width="750pt" height="61pt"
 viewBox="0.00 0.00 750.00 61.00" xmlns="http://www.w3.org/2000/svg" xmlns:xlink="http://www.w3.org/1999/xlink">
<g id="graph0" class="graph" transform="scale(1 1) rotate(0) translate(4 57)">
<title>oneapi::vpl::ExtMVOverPicBoundaries</title>
<polygon fill="#ffffff" stroke="transparent" points="-4,4 -4,-57 746,-57 746,4 -4,4"/>
<!-- Node0 -->
<g id="node1" class="node">
<title>Node0</title>
<polygon fill="#bfbfbf" stroke="#000000" points="607,-11.5 607,-41.5 742,-41.5 742,-11.5 607,-11.5"/>
<text text-anchor="start" x="615" y="-29.5" font-family="Helvetica,sans-Serif" font-size="10.00" fill="#000000">oneapi::vpl::ExtMVOverPic</text>
<text text-anchor="middle" x="674.5" y="-18.5" font-family="Helvetica,sans-Serif" font-size="10.00" fill="#000000">Boundaries</text>
</g>
<!-- Node1 -->
<g id="node2" class="node">
<title>Node1</title>
<g id="a_node2"><a xlink:href="classoneapi_1_1vpl_1_1extension__buffer__trival.html" target="_top" xlink:title="oneapi::vpl::extension\l_buffer_trival\&lt; mfxExtMVOver\lPicBoundaries, MFX_EXTBUFF\l_MV_OVER_PIC_BOUNDARIES \&gt;">
<polygon fill="#ffffff" stroke="#000000" points="396,-.5 396,-52.5 571,-52.5 571,-.5 396,-.5"/>
<text text-anchor="start" x="404" y="-40.5" font-family="Helvetica,sans-Serif" font-size="10.00" fill="#000000">oneapi::vpl::extension</text>
<text text-anchor="start" x="404" y="-29.5" font-family="Helvetica,sans-Serif" font-size="10.00" fill="#000000">_buffer_trival&lt; mfxExtMVOver</text>
<text text-anchor="start" x="404" y="-18.5" font-family="Helvetica,sans-Serif" font-size="10.00" fill="#000000">PicBoundaries, MFX_EXTBUFF</text>
<text text-anchor="middle" x="483.5" y="-7.5" font-family="Helvetica,sans-Serif" font-size="10.00" fill="#000000">_MV_OVER_PIC_BOUNDARIES &gt;</text>
</a>
</g>
</g>
<!-- Node1&#45;&gt;Node0 -->
<g id="edge1" class="edge">
<title>Node1&#45;&gt;Node0</title>
<path fill="none" stroke="#191970" d="M581.291,-26.5C589.9139,-26.5 598.5119,-26.5 606.8035,-26.5"/>
<polygon fill="#191970" stroke="#191970" points="581.1739,-23.0001 571.1738,-26.5 581.1738,-30.0001 581.1739,-23.0001"/>
</g>
<!-- Node2 -->
<g id="node3" class="node">
<title>Node2</title>
<g id="a_node3"><a xlink:href="classoneapi_1_1vpl_1_1extension__buffer.html" target="_top" xlink:title="oneapi::vpl::extension\l_buffer\&lt; mfxExtMVOverPicBoundaries, ID \&gt;">
<polygon fill="#ffffff" stroke="#000000" points="148,-11.5 148,-41.5 360,-41.5 360,-11.5 148,-11.5"/>
<text text-anchor="start" x="156" y="-29.5" font-family="Helvetica,sans-Serif" font-size="10.00" fill="#000000">oneapi::vpl::extension</text>
<text text-anchor="middle" x="254" y="-18.5" font-family="Helvetica,sans-Serif" font-size="10.00" fill="#000000">_buffer&lt; mfxExtMVOverPicBoundaries, ID &gt;</text>
</a>
</g>
</g>
<!-- Node2&#45;&gt;Node1 -->
<g id="edge2" class="edge">
<title>Node2&#45;&gt;Node1</title>
<path fill="none" stroke="#191970" d="M370.1432,-26.5C378.7753,-26.5 387.3968,-26.5 395.8124,-26.5"/>
<polygon fill="#191970" stroke="#191970" points="370.0168,-23.0001 360.0168,-26.5 370.0168,-30.0001 370.0168,-23.0001"/>
</g>
<!-- Node3 -->
<g id="node4" class="node">
<title>Node3</title>
<g id="a_node4"><a xlink:href="classoneapi_1_1vpl_1_1extension__buffer__base.html" target="_top" xlink:title="Interface definition for extension buffers. Extension buffers are used to provide additional data for...">
<polygon fill="#ffffff" stroke="#000000" points="0,-11.5 0,-41.5 112,-41.5 112,-11.5 0,-11.5"/>
<text text-anchor="start" x="8" y="-29.5" font-family="Helvetica,sans-Serif" font-size="10.00" fill="#000000">oneapi::vpl::extension</text>
<text text-anchor="middle" x="56" y="-18.5" font-family="Helvetica,sans-Serif" font-size="10.00" fill="#000000">_buffer_base</text>
</a>
</g>
</g>
<!-- Node3&#45;&gt;Node2 -->
<g id="edge3" class="edge">
<title>Node3&#45;&gt;Node2</title>
<path fill="none" stroke="#191970" d="M122.4078,-26.5C130.617,-26.5 139.1628,-26.5 147.7819,-26.5"/>
<polygon fill="#191970" stroke="#191970" points="122.2093,-23.0001 112.2092,-26.5 122.2092,-30.0001 122.2093,-23.0001"/>
</g>
</g>
</svg>
