<?xml version="1.0" encoding="UTF-8" standalone="no"?>
<!DOCTYPE svg PUBLIC "-//W3C//DTD SVG 1.1//EN"
 "http://www.w3.org/Graphics/SVG/1.1/DTD/svg11.dtd">
<!-- Generated by graphviz version 2.40.1 (20161225.0304)
 -->
<!-- Title: oneapi::vpl::vpp_init_reset_list::add_buffer Pages: 1 -->
<svg width="400pt" height="61pt"
 viewBox="0.00 0.00 400.00 61.00" xmlns="http://www.w3.org/2000/svg" xmlns:xlink="http://www.w3.org/1999/xlink">
<g id="graph0" class="graph" transform="scale(1 1) rotate(0) translate(4 57)">
<title>oneapi::vpl::vpp_init_reset_list::add_buffer</title>
<polygon fill="#ffffff" stroke="transparent" points="-4,4 -4,-57 396,-57 396,4 -4,4"/>
<!-- Node6 -->
<g id="node1" class="node">
<title>Node6</title>
<polygon fill="#bfbfbf" stroke="#000000" points="0,-22.5 0,-52.5 113,-52.5 113,-22.5 0,-22.5"/>
<text text-anchor="start" x="8" y="-40.5" font-family="Helvetica,sans-Serif" font-size="10.00" fill="#000000">oneapi::vpl::vpp_init</text>
<text text-anchor="middle" x="56.5" y="-29.5" font-family="Helvetica,sans-Serif" font-size="10.00" fill="#000000">_reset_list::add_buffer</text>
</g>
<!-- Node7 -->
<g id="node2" class="node">
<title>Node7</title>
<g id="a_node2"><a xlink:href="classoneapi_1_1vpl_1_1extension__buffer__base.html#a05f42bf8ebbeb7f697eb53a17a465c73" target="_top" xlink:title="Interface to retieve extension buffer ID in a form of FourCC code. ">
<polygon fill="#ffffff" stroke="#000000" points="280,-22.5 280,-52.5 392,-52.5 392,-22.5 280,-22.5"/>
<text text-anchor="start" x="288" y="-40.5" font-family="Helvetica,sans-Serif" font-size="10.00" fill="#000000">oneapi::vpl::extension</text>
<text text-anchor="middle" x="336" y="-29.5" font-family="Helvetica,sans-Serif" font-size="10.00" fill="#000000">_buffer_base::get_ID</text>
</a>
</g>
</g>
<!-- Node6&#45;&gt;Node7 -->
<g id="edge1" class="edge">
<title>Node6&#45;&gt;Node7</title>
<path fill="none" stroke="#191970" d="M113.2384,-39.6309C125.0555,-39.9931 137.4329,-40.3125 149,-40.5 191.2167,-41.1844 201.7834,-41.1881 244,-40.5 252.2689,-40.3652 260.9542,-40.1623 269.5497,-39.9244"/>
<polygon fill="#191970" stroke="#191970" points="269.6752,-43.4223 279.5684,-39.6309 269.4702,-36.4253 269.6752,-43.4223"/>
</g>
<!-- Node8 -->
<g id="node3" class="node">
<title>Node8</title>
<g id="a_node3"><a xlink:href="classoneapi_1_1vpl_1_1buffer__list.html#aa156fcbd0cd65808fb14ffc2a3ebda5a" target="_top" xlink:title="adds extension buffer pointer to the map ">
<polygon fill="#ffffff" stroke="#000000" points="149,-.5 149,-30.5 244,-30.5 244,-.5 149,-.5"/>
<text text-anchor="start" x="157" y="-18.5" font-family="Helvetica,sans-Serif" font-size="10.00" fill="#000000">oneapi::vpl::buffer</text>
<text text-anchor="middle" x="196.5" y="-7.5" font-family="Helvetica,sans-Serif" font-size="10.00" fill="#000000">_list::add_buffer</text>
</a>
</g>
</g>
<!-- Node6&#45;&gt;Node8 -->
<g id="edge2" class="edge">
<title>Node6&#45;&gt;Node8</title>
<path fill="none" stroke="#191970" d="M113.0398,-28.6152C121.4564,-27.2926 130.1427,-25.9276 138.5871,-24.6006"/>
<polygon fill="#191970" stroke="#191970" points="139.3975,-28.0163 148.7329,-23.0063 138.3108,-21.1011 139.3975,-28.0163"/>
</g>
<!-- Node8&#45;&gt;Node7 -->
<g id="edge3" class="edge">
<title>Node8&#45;&gt;Node7</title>
<path fill="none" stroke="#191970" d="M244.1178,-23.0096C252.4005,-24.3159 261.1477,-25.6953 269.8211,-27.0632"/>
<polygon fill="#191970" stroke="#191970" points="269.5136,-30.5579 279.9368,-28.6585 270.6041,-23.6433 269.5136,-30.5579"/>
</g>
</g>
</svg>
