<?xml version="1.0" encoding="UTF-8" standalone="no"?>
<!DOCTYPE svg PUBLIC "-//W3C//DTD SVG 1.1//EN"
 "http://www.w3.org/Graphics/SVG/1.1/DTD/svg11.dtd">
<!-- Generated by graphviz version 2.40.1 (20161225.0304)
 -->
<!-- Title: oneapi::vpl::jpeg_decoder_video_param Pages: 1 -->
<svg width="136pt" height="173pt"
 viewBox="0.00 0.00 136.00 173.00" xmlns="http://www.w3.org/2000/svg" xmlns:xlink="http://www.w3.org/1999/xlink">
<g id="graph0" class="graph" transform="scale(1 1) rotate(0) translate(4 169)">
<title>oneapi::vpl::jpeg_decoder_video_param</title>
<polygon fill="#ffffff" stroke="transparent" points="-4,4 -4,-169 132,-169 132,4 -4,4"/>
<!-- Node3 -->
<g id="node1" class="node">
<title>Node3</title>
<polygon fill="#bfbfbf" stroke="#000000" points="0,-.5 0,-30.5 128,-30.5 128,-.5 0,-.5"/>
<text text-anchor="start" x="8" y="-18.5" font-family="Helvetica,sans-Serif" font-size="10.00" fill="#000000">oneapi::vpl::jpeg_decoder</text>
<text text-anchor="middle" x="64" y="-7.5" font-family="Helvetica,sans-Serif" font-size="10.00" fill="#000000">_video_param</text>
</g>
<!-- Node4 -->
<g id="node2" class="node">
<title>Node4</title>
<g id="a_node2"><a xlink:href="classoneapi_1_1vpl_1_1codec__video__param.html" target="_top" xlink:title="Holds general codec&#45;specific params applicable for any decoder and encoder. ">
<polygon fill="#ffffff" stroke="#000000" points="16,-67.5 16,-97.5 112,-97.5 112,-67.5 16,-67.5"/>
<text text-anchor="start" x="24" y="-85.5" font-family="Helvetica,sans-Serif" font-size="10.00" fill="#000000">oneapi::vpl::codec</text>
<text text-anchor="middle" x="64" y="-74.5" font-family="Helvetica,sans-Serif" font-size="10.00" fill="#000000">_video_param</text>
</a>
</g>
</g>
<!-- Node4&#45;&gt;Node3 -->
<g id="edge1" class="edge">
<title>Node4&#45;&gt;Node3</title>
<path fill="none" stroke="#191970" d="M64,-57.0249C64,-48.128 64,-38.4287 64,-30.6432"/>
<polygon fill="#191970" stroke="#191970" points="60.5001,-57.2966 64,-67.2967 67.5001,-57.2967 60.5001,-57.2966"/>
</g>
<!-- Node5 -->
<g id="node3" class="node">
<title>Node5</title>
<g id="a_node3"><a xlink:href="classoneapi_1_1vpl_1_1video__param.html" target="_top" xlink:title="Holds general video params applicable for all kind of sessions. ">
<polygon fill="#ffffff" stroke="#000000" points="17.5,-134.5 17.5,-164.5 110.5,-164.5 110.5,-134.5 17.5,-134.5"/>
<text text-anchor="start" x="25.5" y="-152.5" font-family="Helvetica,sans-Serif" font-size="10.00" fill="#000000">oneapi::vpl::video</text>
<text text-anchor="middle" x="64" y="-141.5" font-family="Helvetica,sans-Serif" font-size="10.00" fill="#000000">_param</text>
</a>
</g>
</g>
<!-- Node5&#45;&gt;Node4 -->
<g id="edge2" class="edge">
<title>Node5&#45;&gt;Node4</title>
<path fill="none" stroke="#191970" d="M64,-124.0249C64,-115.128 64,-105.4287 64,-97.6432"/>
<polygon fill="#191970" stroke="#191970" points="60.5001,-124.2966 64,-134.2967 67.5001,-124.2967 60.5001,-124.2966"/>
</g>
</g>
</svg>
