<?xml version="1.0" encoding="UTF-8" standalone="no"?>
<!DOCTYPE svg PUBLIC "-//W3C//DTD SVG 1.1//EN"
 "http://www.w3.org/Graphics/SVG/1.1/DTD/svg11.dtd">
<!-- Generated by graphviz version 2.40.1 (20161225.0304)
 -->
<!-- Title: oneapi::vpl::video_param::clear_extension_buffers Pages: 1 -->
<svg width="423pt" height="50pt"
 viewBox="0.00 0.00 423.00 50.00" xmlns="http://www.w3.org/2000/svg" xmlns:xlink="http://www.w3.org/1999/xlink">
<g id="graph0" class="graph" transform="scale(1 1) rotate(0) translate(4 46)">
<title>oneapi::vpl::video_param::clear_extension_buffers</title>
<polygon fill="#ffffff" stroke="transparent" points="-4,4 -4,-46 419,-46 419,4 -4,4"/>
<!-- Node1 -->
<g id="node1" class="node">
<title>Node1</title>
<polygon fill="#bfbfbf" stroke="#000000" points="0,-.5 0,-41.5 123,-41.5 123,-.5 0,-.5"/>
<text text-anchor="start" x="8" y="-29.5" font-family="Helvetica,sans-Serif" font-size="10.00" fill="#000000">oneapi::vpl::video</text>
<text text-anchor="start" x="8" y="-18.5" font-family="Helvetica,sans-Serif" font-size="10.00" fill="#000000">_param::clear_extension</text>
<text text-anchor="middle" x="61.5" y="-7.5" font-family="Helvetica,sans-Serif" font-size="10.00" fill="#000000">_buffers</text>
</g>
<!-- Node2 -->
<g id="node2" class="node">
<title>Node2</title>
<g id="a_node2"><a xlink:href="classoneapi_1_1vpl_1_1video__param.html#a04760a3d0f9471c09dfaf59409d0be4c" target="_top" xlink:title="Constructs params and initialize them with default values. ">
<polygon fill="#ffffff" stroke="#000000" points="159,-6 159,-36 269,-36 269,-6 159,-6"/>
<text text-anchor="start" x="167" y="-24" font-family="Helvetica,sans-Serif" font-size="10.00" fill="#000000">oneapi::vpl::video</text>
<text text-anchor="middle" x="214" y="-13" font-family="Helvetica,sans-Serif" font-size="10.00" fill="#000000">_param::video_param</text>
</a>
</g>
</g>
<!-- Node1&#45;&gt;Node2 -->
<g id="edge1" class="edge">
<title>Node1&#45;&gt;Node2</title>
<path fill="none" stroke="#191970" d="M133.3599,-21C141.8337,-21 150.38,-21 158.5784,-21"/>
<polygon fill="#191970" stroke="#191970" points="133.088,-17.5001 123.088,-21 133.088,-24.5001 133.088,-17.5001"/>
</g>
<!-- Node3 -->
<g id="node3" class="node">
<title>Node3</title>
<g id="a_node3"><a xlink:href="classoneapi_1_1vpl_1_1codec__video__param.html#aee320481ba20dbb69a572c63d722083b" target="_top" xlink:title="Constructs params and initialize them with default values. ">
<polygon fill="#ffffff" stroke="#000000" points="305,-.5 305,-41.5 415,-41.5 415,-.5 305,-.5"/>
<text text-anchor="start" x="313" y="-29.5" font-family="Helvetica,sans-Serif" font-size="10.00" fill="#000000">oneapi::vpl::codec</text>
<text text-anchor="start" x="313" y="-18.5" font-family="Helvetica,sans-Serif" font-size="10.00" fill="#000000">_video_param::codec</text>
<text text-anchor="middle" x="360" y="-7.5" font-family="Helvetica,sans-Serif" font-size="10.00" fill="#000000">_video_param</text>
</a>
</g>
</g>
<!-- Node2&#45;&gt;Node3 -->
<g id="edge2" class="edge">
<title>Node2&#45;&gt;Node3</title>
<path fill="none" stroke="#191970" d="M279.4101,-21C287.8647,-21 296.4567,-21 304.7256,-21"/>
<polygon fill="#191970" stroke="#191970" points="279.1964,-17.5001 269.1963,-21 279.1963,-24.5001 279.1964,-17.5001"/>
</g>
</g>
</svg>
