<?xml version="1.0" encoding="UTF-8" standalone="no"?>
<!DOCTYPE svg PUBLIC "-//W3C//DTD SVG 1.1//EN"
 "http://www.w3.org/Graphics/SVG/1.1/DTD/svg11.dtd">
<!-- Generated by graphviz version 2.40.1 (20161225.0304)
 -->
<!-- Title: oneapi::vpl::ExtAVCRoundingOffset Pages: 1 -->
<svg width="786pt" height="61pt"
 viewBox="0.00 0.00 786.00 61.00" xmlns="http://www.w3.org/2000/svg" xmlns:xlink="http://www.w3.org/1999/xlink">
<g id="graph0" class="graph" transform="scale(1 1) rotate(0) translate(4 57)">
<title>oneapi::vpl::ExtAVCRoundingOffset</title>
<polygon fill="#ffffff" stroke="transparent" points="-4,4 -4,-57 782,-57 782,4 -4,4"/>
<!-- Node0 -->
<g id="node1" class="node">
<title>Node0</title>
<polygon fill="#bfbfbf" stroke="#000000" points="631,-11.5 631,-41.5 778,-41.5 778,-11.5 631,-11.5"/>
<text text-anchor="start" x="639" y="-29.5" font-family="Helvetica,sans-Serif" font-size="10.00" fill="#000000">oneapi::vpl::ExtAVCRounding</text>
<text text-anchor="middle" x="704.5" y="-18.5" font-family="Helvetica,sans-Serif" font-size="10.00" fill="#000000">Offset</text>
</g>
<!-- Node1 -->
<g id="node2" class="node">
<title>Node1</title>
<g id="a_node2"><a xlink:href="classoneapi_1_1vpl_1_1extension__buffer__trival.html" target="_top" xlink:title="oneapi::vpl::extension\l_buffer_trival\&lt; mfxExtAVCRounding\lOffset, MFX_EXTBUFF_AVC_ROUNDING\l_OFFSET \&gt;">
<polygon fill="#ffffff" stroke="#000000" points="386,-.5 386,-52.5 595,-52.5 595,-.5 386,-.5"/>
<text text-anchor="start" x="394" y="-40.5" font-family="Helvetica,sans-Serif" font-size="10.00" fill="#000000">oneapi::vpl::extension</text>
<text text-anchor="start" x="394" y="-29.5" font-family="Helvetica,sans-Serif" font-size="10.00" fill="#000000">_buffer_trival&lt; mfxExtAVCRounding</text>
<text text-anchor="start" x="394" y="-18.5" font-family="Helvetica,sans-Serif" font-size="10.00" fill="#000000">Offset, MFX_EXTBUFF_AVC_ROUNDING</text>
<text text-anchor="middle" x="490.5" y="-7.5" font-family="Helvetica,sans-Serif" font-size="10.00" fill="#000000">_OFFSET &gt;</text>
</a>
</g>
</g>
<!-- Node1&#45;&gt;Node0 -->
<g id="edge1" class="edge">
<title>Node1&#45;&gt;Node0</title>
<path fill="none" stroke="#191970" d="M605.3982,-26.5C613.98,-26.5 622.4938,-26.5 630.717,-26.5"/>
<polygon fill="#191970" stroke="#191970" points="605.3058,-23.0001 595.3058,-26.5 605.3058,-30.0001 605.3058,-23.0001"/>
</g>
<!-- Node2 -->
<g id="node3" class="node">
<title>Node2</title>
<g id="a_node3"><a xlink:href="classoneapi_1_1vpl_1_1extension__buffer.html" target="_top" xlink:title="oneapi::vpl::extension\l_buffer\&lt; mfxExtAVCRoundingOffset, ID \&gt;">
<polygon fill="#ffffff" stroke="#000000" points="148,-11.5 148,-41.5 350,-41.5 350,-11.5 148,-11.5"/>
<text text-anchor="start" x="156" y="-29.5" font-family="Helvetica,sans-Serif" font-size="10.00" fill="#000000">oneapi::vpl::extension</text>
<text text-anchor="middle" x="249" y="-18.5" font-family="Helvetica,sans-Serif" font-size="10.00" fill="#000000">_buffer&lt; mfxExtAVCRoundingOffset, ID &gt;</text>
</a>
</g>
</g>
<!-- Node2&#45;&gt;Node1 -->
<g id="edge2" class="edge">
<title>Node2&#45;&gt;Node1</title>
<path fill="none" stroke="#191970" d="M360.2715,-26.5C368.7115,-26.5 377.2137,-26.5 385.6117,-26.5"/>
<polygon fill="#191970" stroke="#191970" points="360.0185,-23.0001 350.0185,-26.5 360.0184,-30.0001 360.0185,-23.0001"/>
</g>
<!-- Node3 -->
<g id="node4" class="node">
<title>Node3</title>
<g id="a_node4"><a xlink:href="classoneapi_1_1vpl_1_1extension__buffer__base.html" target="_top" xlink:title="Interface definition for extension buffers. Extension buffers are used to provide additional data for...">
<polygon fill="#ffffff" stroke="#000000" points="0,-11.5 0,-41.5 112,-41.5 112,-11.5 0,-11.5"/>
<text text-anchor="start" x="8" y="-29.5" font-family="Helvetica,sans-Serif" font-size="10.00" fill="#000000">oneapi::vpl::extension</text>
<text text-anchor="middle" x="56" y="-18.5" font-family="Helvetica,sans-Serif" font-size="10.00" fill="#000000">_buffer_base</text>
</a>
</g>
</g>
<!-- Node3&#45;&gt;Node2 -->
<g id="edge3" class="edge">
<title>Node3&#45;&gt;Node2</title>
<path fill="none" stroke="#191970" d="M122.3098,-26.5C130.5374,-26.5 139.0907,-26.5 147.6951,-26.5"/>
<polygon fill="#191970" stroke="#191970" points="122.0829,-23.0001 112.0828,-26.5 122.0828,-30.0001 122.0829,-23.0001"/>
</g>
</g>
</svg>
