<?xml version="1.0" encoding="UTF-8" standalone="no"?>
<!DOCTYPE svg PUBLIC "-//W3C//DTD SVG 1.1//EN"
 "http://www.w3.org/Graphics/SVG/1.1/DTD/svg11.dtd">
<!-- Generated by graphviz version 2.40.1 (20161225.0304)
 -->
<!-- Title: oneapi::vpl::ExtVPPDoNotUse Pages: 1 -->
<svg width="823pt" height="78pt"
 viewBox="0.00 0.00 823.00 77.50" xmlns="http://www.w3.org/2000/svg" xmlns:xlink="http://www.w3.org/1999/xlink">
<g id="graph0" class="graph" transform="scale(1 1) rotate(0) translate(4 73.5)">
<title>oneapi::vpl::ExtVPPDoNotUse</title>
<polygon fill="#ffffff" stroke="transparent" points="-4,4 -4,-73.5 819,-73.5 819,4 -4,4"/>
<!-- Node4 -->
<g id="node1" class="node">
<title>Node4</title>
<polygon fill="#bfbfbf" stroke="#000000" points="663,-22.5 663,-41.5 815,-41.5 815,-22.5 663,-22.5"/>
<text text-anchor="middle" x="739" y="-29.5" font-family="Helvetica,sans-Serif" font-size="10.00" fill="#000000">oneapi::vpl::ExtVPPDoNotUse</text>
</g>
<!-- Node5 -->
<g id="node2" class="node">
<title>Node5</title>
<g id="a_node2"><a xlink:href="classoneapi_1_1vpl_1_1extension__buffer__with__ptrs.html" target="_top" xlink:title="oneapi::vpl::extension\l_buffer_with_ptrs\&lt; mfxExtVPPDo\lNotUse, MFX_EXTBUFF_VPP_DONOTUSE \&gt;">
<polygon fill="#ffffff" stroke="#000000" points="401,-11.5 401,-52.5 626,-52.5 626,-11.5 401,-11.5"/>
<text text-anchor="start" x="409" y="-40.5" font-family="Helvetica,sans-Serif" font-size="10.00" fill="#000000">oneapi::vpl::extension</text>
<text text-anchor="start" x="409" y="-29.5" font-family="Helvetica,sans-Serif" font-size="10.00" fill="#000000">_buffer_with_ptrs&lt; mfxExtVPPDo</text>
<text text-anchor="middle" x="513.5" y="-18.5" font-family="Helvetica,sans-Serif" font-size="10.00" fill="#000000">NotUse, MFX_EXTBUFF_VPP_DONOTUSE &gt;</text>
</a>
</g>
</g>
<!-- Node5&#45;&gt;Node4 -->
<g id="edge1" class="edge">
<title>Node5&#45;&gt;Node4</title>
<path fill="none" stroke="#191970" d="M636.4441,-32C645.4511,-32 654.3707,-32 662.9704,-32"/>
<polygon fill="#191970" stroke="#191970" points="636.25,-28.5001 626.25,-32 636.25,-35.5001 636.25,-28.5001"/>
</g>
<!-- Node6 -->
<g id="node3" class="node">
<title>Node6</title>
<g id="a_node3"><a xlink:href="classoneapi_1_1vpl_1_1extension__buffer.html" target="_top" xlink:title="oneapi::vpl::extension\l_buffer\&lt; mfxExtVPPDoNotUse, ID \&gt;">
<polygon fill="#ffffff" stroke="#000000" points="185,-17 185,-47 364,-47 364,-17 185,-17"/>
<text text-anchor="start" x="193" y="-35" font-family="Helvetica,sans-Serif" font-size="10.00" fill="#000000">oneapi::vpl::extension</text>
<text text-anchor="middle" x="274.5" y="-24" font-family="Helvetica,sans-Serif" font-size="10.00" fill="#000000">_buffer&lt; mfxExtVPPDoNotUse, ID &gt;</text>
</a>
</g>
</g>
<!-- Node6&#45;&gt;Node5 -->
<g id="edge2" class="edge">
<title>Node6&#45;&gt;Node5</title>
<path fill="none" stroke="#191970" d="M374.322,-32C383.0318,-32 391.8851,-32 400.6898,-32"/>
<polygon fill="#191970" stroke="#191970" points="374.1748,-28.5001 364.1748,-32 374.1747,-35.5001 374.1748,-28.5001"/>
</g>
<!-- Node7 -->
<g id="node4" class="node">
<title>Node7</title>
<g id="a_node4"><a xlink:href="classoneapi_1_1vpl_1_1extension__buffer__base.html" target="_top" xlink:title="Interface definition for extension buffers. Extension buffers are used to provide additional data for...">
<polygon fill="#ffffff" stroke="#000000" points="1.5,-39 1.5,-69 113.5,-69 113.5,-39 1.5,-39"/>
<text text-anchor="start" x="9.5" y="-57" font-family="Helvetica,sans-Serif" font-size="10.00" fill="#000000">oneapi::vpl::extension</text>
<text text-anchor="middle" x="57.5" y="-46" font-family="Helvetica,sans-Serif" font-size="10.00" fill="#000000">_buffer_base</text>
</a>
</g>
</g>
<!-- Node7&#45;&gt;Node6 -->
<g id="edge3" class="edge">
<title>Node7&#45;&gt;Node6</title>
<path fill="none" stroke="#191970" d="M123.8329,-47.275C143.1013,-45.3215 164.4708,-43.155 184.9158,-41.0823"/>
<polygon fill="#191970" stroke="#191970" points="123.261,-43.8149 113.6651,-48.3058 123.9672,-50.7793 123.261,-43.8149"/>
</g>
<!-- Node8 -->
<g id="node5" class="node">
<title>Node8</title>
<g id="a_node5"><a xlink:href="structmfxExtVPPDoNotUse.html" target="_top" xlink:title="mfxExtVPPDoNotUse">
<polygon fill="#ffffff" stroke="#000000" points="0,-.5 0,-19.5 115,-19.5 115,-.5 0,-.5"/>
<text text-anchor="middle" x="57.5" y="-7.5" font-family="Helvetica,sans-Serif" font-size="10.00" fill="#000000">mfxExtVPPDoNotUse</text>
</a>
</g>
</g>
<!-- Node8&#45;&gt;Node6 -->
<g id="edge4" class="edge">
<title>Node8&#45;&gt;Node6</title>
<path fill="none" stroke="#9a32cd" stroke-dasharray="5,2" d="M125.0583,-16.8492C143.9393,-18.7634 164.7588,-20.8742 184.7081,-22.8967"/>
<polygon fill="#9a32cd" stroke="#9a32cd" points="125.3844,-13.3644 115.0823,-15.8378 124.6782,-20.3287 125.3844,-13.3644"/>
<text text-anchor="middle" x="150" y="-24" font-family="Helvetica,sans-Serif" font-size="10.00" fill="#000000"> buffer_</text>
</g>
</g>
</svg>
