<?xml version="1.0" encoding="UTF-8" standalone="no"?>
<!DOCTYPE svg PUBLIC "-//W3C//DTD SVG 1.1//EN"
 "http://www.w3.org/Graphics/SVG/1.1/DTD/svg11.dtd">
<!-- Generated by graphviz version 2.40.1 (20161225.0304)
 -->
<!-- Title: oneapi::vpl::encode_session Pages: 1 -->
<svg width="501pt" height="110pt"
 viewBox="0.00 0.00 501.00 110.00" xmlns="http://www.w3.org/2000/svg" xmlns:xlink="http://www.w3.org/1999/xlink">
<g id="graph0" class="graph" transform="scale(1 1) rotate(0) translate(4 106)">
<title>oneapi::vpl::encode_session</title>
<polygon fill="#ffffff" stroke="transparent" points="-4,4 -4,-106 497,-106 497,4 -4,4"/>
<!-- Node2 -->
<g id="node1" class="node">
<title>Node2</title>
<polygon fill="#bfbfbf" stroke="#000000" points="392,-30.5 392,-60.5 493,-60.5 493,-30.5 392,-30.5"/>
<text text-anchor="start" x="400" y="-48.5" font-family="Helvetica,sans-Serif" font-size="10.00" fill="#000000">oneapi::vpl::encode</text>
<text text-anchor="middle" x="442.5" y="-37.5" font-family="Helvetica,sans-Serif" font-size="10.00" fill="#000000">_session</text>
</g>
<!-- Node3 -->
<g id="node2" class="node">
<title>Node3</title>
<g id="a_node2"><a xlink:href="classoneapi_1_1vpl_1_1session.html" target="_top" xlink:title="oneapi::vpl::session\l\&lt; encoder_video_param,\l encoder_init_list, encoder\l_reset_list \&gt;">
<polygon fill="#ffffff" stroke="#000000" points="205,-49.5 205,-101.5 336,-101.5 336,-49.5 205,-49.5"/>
<text text-anchor="start" x="213" y="-89.5" font-family="Helvetica,sans-Serif" font-size="10.00" fill="#000000">oneapi::vpl::session</text>
<text text-anchor="start" x="213" y="-78.5" font-family="Helvetica,sans-Serif" font-size="10.00" fill="#000000">&lt; encoder_video_param,</text>
<text text-anchor="start" x="213" y="-67.5" font-family="Helvetica,sans-Serif" font-size="10.00" fill="#000000"> encoder_init_list, encoder</text>
<text text-anchor="middle" x="270.5" y="-56.5" font-family="Helvetica,sans-Serif" font-size="10.00" fill="#000000">_reset_list &gt;</text>
</a>
</g>
</g>
<!-- Node3&#45;&gt;Node2 -->
<g id="edge1" class="edge">
<title>Node3&#45;&gt;Node2</title>
<path fill="none" stroke="#191970" d="M346.1046,-62.3132C361.5887,-59.6124 377.5291,-56.8321 391.8781,-54.3294"/>
<polygon fill="#191970" stroke="#191970" points="345.2664,-58.9064 336.0165,-64.0727 346.4692,-65.8023 345.2664,-58.9064"/>
</g>
<!-- Node4 -->
<g id="node3" class="node">
<title>Node4</title>
<g id="a_node3"><a xlink:href="structoneapi_1_1vpl_1_1detail_1_1sdk__c__api.html" target="_top" xlink:title="Underlying C API Functions table. It is initialized either for encoder or foe decoder or forVPP...">
<polygon fill="#ffffff" stroke="#000000" points="3,-60.5 3,-90.5 96,-90.5 96,-60.5 3,-60.5"/>
<text text-anchor="start" x="11" y="-78.5" font-family="Helvetica,sans-Serif" font-size="10.00" fill="#000000">oneapi::vpl::detail</text>
<text text-anchor="middle" x="49.5" y="-67.5" font-family="Helvetica,sans-Serif" font-size="10.00" fill="#000000">::sdk_c_api</text>
</a>
</g>
</g>
<!-- Node4&#45;&gt;Node3 -->
<g id="edge2" class="edge">
<title>Node4&#45;&gt;Node3</title>
<path fill="none" stroke="#9a32cd" stroke-dasharray="5,2" d="M106.4078,-75.5C136.4344,-75.5 173.4275,-75.5 204.6842,-75.5"/>
<polygon fill="#9a32cd" stroke="#9a32cd" points="106.0984,-72.0001 96.0984,-75.5 106.0983,-79.0001 106.0984,-72.0001"/>
<text text-anchor="middle" x="152" y="-78.5" font-family="Helvetica,sans-Serif" font-size="10.00" fill="#000000"> c_api_callable_</text>
</g>
<!-- Node5 -->
<g id="node4" class="node">
<title>Node5</title>
<g id="a_node4"><a xlink:href="classoneapi_1_1vpl_1_1frame__source__reader.html" target="_top" xlink:title="Interface for the frame source data reader. ">
<polygon fill="#ffffff" stroke="#000000" points="223,-.5 223,-30.5 318,-30.5 318,-.5 223,-.5"/>
<text text-anchor="start" x="231" y="-18.5" font-family="Helvetica,sans-Serif" font-size="10.00" fill="#000000">oneapi::vpl::frame</text>
<text text-anchor="middle" x="270.5" y="-7.5" font-family="Helvetica,sans-Serif" font-size="10.00" fill="#000000">_source_reader</text>
</a>
</g>
</g>
<!-- Node5&#45;&gt;Node2 -->
<g id="edge3" class="edge">
<title>Node5&#45;&gt;Node2</title>
<path fill="none" stroke="#9a32cd" stroke-dasharray="5,2" d="M328.2995,-25.5813C348.8874,-29.1722 371.8999,-33.186 391.8427,-36.6644"/>
<polygon fill="#9a32cd" stroke="#9a32cd" points="328.8643,-22.1271 318.4116,-23.8567 327.6615,-29.0229 328.8643,-22.1271"/>
<text text-anchor="middle" x="364" y="-35.5" font-family="Helvetica,sans-Serif" font-size="10.00" fill="#000000"> rdr_</text>
</g>
<!-- Node6 -->
<g id="node5" class="node">
<title>Node6</title>
<g id="a_node5"><a xlink:href="classoneapi_1_1vpl_1_1source__reader.html" target="_top" xlink:title="Interface for the source data reader. ">
<polygon fill="#ffffff" stroke="#000000" points="0,-.5 0,-30.5 99,-30.5 99,-.5 0,-.5"/>
<text text-anchor="start" x="8" y="-18.5" font-family="Helvetica,sans-Serif" font-size="10.00" fill="#000000">oneapi::vpl::source</text>
<text text-anchor="middle" x="49.5" y="-7.5" font-family="Helvetica,sans-Serif" font-size="10.00" fill="#000000">_reader</text>
</a>
</g>
</g>
<!-- Node6&#45;&gt;Node5 -->
<g id="edge4" class="edge">
<title>Node6&#45;&gt;Node5</title>
<path fill="none" stroke="#191970" d="M109.3801,-15.5C145.058,-15.5 189.7175,-15.5 222.9638,-15.5"/>
<polygon fill="#191970" stroke="#191970" points="109.0967,-12.0001 99.0967,-15.5 109.0967,-19.0001 109.0967,-12.0001"/>
</g>
</g>
</svg>
