<?xml version="1.0" encoding="UTF-8" standalone="no"?>
<!DOCTYPE svg PUBLIC "-//W3C//DTD SVG 1.1//EN"
 "http://www.w3.org/Graphics/SVG/1.1/DTD/svg11.dtd">
<!-- Generated by graphviz version 2.40.1 (20161225.0304)
 -->
<!-- Title: oneapi::vpl::ExtAvcTemporalLayers Pages: 1 -->
<svg width="840pt" height="78pt"
 viewBox="0.00 0.00 840.00 77.50" xmlns="http://www.w3.org/2000/svg" xmlns:xlink="http://www.w3.org/1999/xlink">
<g id="graph0" class="graph" transform="scale(1 1) rotate(0) translate(4 73.5)">
<title>oneapi::vpl::ExtAvcTemporalLayers</title>
<polygon fill="#ffffff" stroke="transparent" points="-4,4 -4,-73.5 836,-73.5 836,4 -4,4"/>
<!-- Node4 -->
<g id="node1" class="node">
<title>Node4</title>
<polygon fill="#bfbfbf" stroke="#000000" points="689,-17 689,-47 832,-47 832,-17 689,-17"/>
<text text-anchor="start" x="697" y="-35" font-family="Helvetica,sans-Serif" font-size="10.00" fill="#000000">oneapi::vpl::ExtAvcTemporal</text>
<text text-anchor="middle" x="760.5" y="-24" font-family="Helvetica,sans-Serif" font-size="10.00" fill="#000000">Layers</text>
</g>
<!-- Node5 -->
<g id="node2" class="node">
<title>Node5</title>
<g id="a_node2"><a xlink:href="classoneapi_1_1vpl_1_1extension__buffer__trival.html" target="_top" xlink:title="oneapi::vpl::extension\l_buffer_trival\&lt; mfxExtAvcTemporal\lLayers, MFX_EXTBUFF_AVC_TEMPORAL\l_LAYERS \&gt;">
<polygon fill="#ffffff" stroke="#000000" points="442,-6 442,-58 652,-58 652,-6 442,-6"/>
<text text-anchor="start" x="450" y="-46" font-family="Helvetica,sans-Serif" font-size="10.00" fill="#000000">oneapi::vpl::extension</text>
<text text-anchor="start" x="450" y="-35" font-family="Helvetica,sans-Serif" font-size="10.00" fill="#000000">_buffer_trival&lt; mfxExtAvcTemporal</text>
<text text-anchor="start" x="450" y="-24" font-family="Helvetica,sans-Serif" font-size="10.00" fill="#000000">Layers, MFX_EXTBUFF_AVC_TEMPORAL</text>
<text text-anchor="middle" x="547" y="-13" font-family="Helvetica,sans-Serif" font-size="10.00" fill="#000000">_LAYERS &gt;</text>
</a>
</g>
</g>
<!-- Node5&#45;&gt;Node4 -->
<g id="edge1" class="edge">
<title>Node5&#45;&gt;Node4</title>
<path fill="none" stroke="#191970" d="M662.3674,-32C671.3661,-32 680.2826,-32 688.8589,-32"/>
<polygon fill="#191970" stroke="#191970" points="662.1864,-28.5001 652.1863,-32 662.1863,-35.5001 662.1864,-28.5001"/>
</g>
<!-- Node6 -->
<g id="node3" class="node">
<title>Node6</title>
<g id="a_node3"><a xlink:href="classoneapi_1_1vpl_1_1extension__buffer.html" target="_top" xlink:title="oneapi::vpl::extension\l_buffer\&lt; mfxExtAvcTemporalLayers, ID \&gt;">
<polygon fill="#ffffff" stroke="#000000" points="205,-17 205,-47 405,-47 405,-17 205,-17"/>
<text text-anchor="start" x="213" y="-35" font-family="Helvetica,sans-Serif" font-size="10.00" fill="#000000">oneapi::vpl::extension</text>
<text text-anchor="middle" x="305" y="-24" font-family="Helvetica,sans-Serif" font-size="10.00" fill="#000000">_buffer&lt; mfxExtAvcTemporalLayers, ID &gt;</text>
</a>
</g>
</g>
<!-- Node6&#45;&gt;Node5 -->
<g id="edge2" class="edge">
<title>Node6&#45;&gt;Node5</title>
<path fill="none" stroke="#191970" d="M415.4376,-32C424.2164,-32 433.0699,-32 441.8115,-32"/>
<polygon fill="#191970" stroke="#191970" points="415.1776,-28.5001 405.1775,-32 415.1775,-35.5001 415.1776,-28.5001"/>
</g>
<!-- Node7 -->
<g id="node4" class="node">
<title>Node7</title>
<g id="a_node4"><a xlink:href="classoneapi_1_1vpl_1_1extension__buffer__base.html" target="_top" xlink:title="Interface definition for extension buffers. Extension buffers are used to provide additional data for...">
<polygon fill="#ffffff" stroke="#000000" points="11.5,-39 11.5,-69 123.5,-69 123.5,-39 11.5,-39"/>
<text text-anchor="start" x="19.5" y="-57" font-family="Helvetica,sans-Serif" font-size="10.00" fill="#000000">oneapi::vpl::extension</text>
<text text-anchor="middle" x="67.5" y="-46" font-family="Helvetica,sans-Serif" font-size="10.00" fill="#000000">_buffer_base</text>
</a>
</g>
</g>
<!-- Node7&#45;&gt;Node6 -->
<g id="edge3" class="edge">
<title>Node7&#45;&gt;Node6</title>
<path fill="none" stroke="#191970" d="M133.9996,-47.84C156.0081,-45.8014 181.0074,-43.4856 204.9643,-41.2665"/>
<polygon fill="#191970" stroke="#191970" points="133.4187,-44.3788 123.7842,-48.7863 134.0644,-51.3489 133.4187,-44.3788"/>
</g>
<!-- Node8 -->
<g id="node5" class="node">
<title>Node8</title>
<g id="a_node5"><a xlink:href="structmfxExtAvcTemporalLayers.html" target="_top" xlink:title="mfxExtAvcTemporalLayers">
<polygon fill="#ffffff" stroke="#000000" points="0,-.5 0,-19.5 135,-19.5 135,-.5 0,-.5"/>
<text text-anchor="middle" x="67.5" y="-7.5" font-family="Helvetica,sans-Serif" font-size="10.00" fill="#000000">mfxExtAvcTemporalLayers</text>
</a>
</g>
</g>
<!-- Node8&#45;&gt;Node6 -->
<g id="edge4" class="edge">
<title>Node8&#45;&gt;Node6</title>
<path fill="none" stroke="#9a32cd" stroke-dasharray="5,2" d="M145.322,-17.2088C164.3323,-18.9697 184.937,-20.8784 204.8285,-22.721"/>
<polygon fill="#9a32cd" stroke="#9a32cd" points="145.5204,-13.7123 135.2401,-16.2749 144.8746,-20.6824 145.5204,-13.7123"/>
<text text-anchor="middle" x="170" y="-24" font-family="Helvetica,sans-Serif" font-size="10.00" fill="#000000"> buffer_</text>
</g>
</g>
</svg>
