<?xml version="1.0" encoding="UTF-8" standalone="no"?>
<!DOCTYPE svg PUBLIC "-//W3C//DTD SVG 1.1//EN"
 "http://www.w3.org/Graphics/SVG/1.1/DTD/svg11.dtd">
<!-- Generated by graphviz version 2.40.1 (20161225.0304)
 -->
<!-- Title: oneapi::vpl::ExtMBDisableSkipMap Pages: 1 -->
<svg width="717pt" height="61pt"
 viewBox="0.00 0.00 717.00 61.00" xmlns="http://www.w3.org/2000/svg" xmlns:xlink="http://www.w3.org/1999/xlink">
<g id="graph0" class="graph" transform="scale(1 1) rotate(0) translate(4 57)">
<title>oneapi::vpl::ExtMBDisableSkipMap</title>
<polygon fill="#ffffff" stroke="transparent" points="-4,4 -4,-57 713,-57 713,4 -4,4"/>
<!-- Node0 -->
<g id="node1" class="node">
<title>Node0</title>
<polygon fill="#bfbfbf" stroke="#000000" points="576,-11.5 576,-41.5 709,-41.5 709,-11.5 576,-11.5"/>
<text text-anchor="start" x="584" y="-29.5" font-family="Helvetica,sans-Serif" font-size="10.00" fill="#000000">oneapi::vpl::ExtMBDisable</text>
<text text-anchor="middle" x="642.5" y="-18.5" font-family="Helvetica,sans-Serif" font-size="10.00" fill="#000000">SkipMap</text>
</g>
<!-- Node1 -->
<g id="node2" class="node">
<title>Node1</title>
<g id="a_node2"><a xlink:href="classoneapi_1_1vpl_1_1extension__buffer__with__ptrs.html" target="_top" xlink:title="oneapi::vpl::extension\l_buffer_with_ptrs\&lt; mfxExtMBDisable\lSkipMap, MFX_EXTBUFF_MB_DISABLE\l_SKIP_MAP \&gt;">
<polygon fill="#ffffff" stroke="#000000" points="339,-.5 339,-52.5 540,-52.5 540,-.5 339,-.5"/>
<text text-anchor="start" x="347" y="-40.5" font-family="Helvetica,sans-Serif" font-size="10.00" fill="#000000">oneapi::vpl::extension</text>
<text text-anchor="start" x="347" y="-29.5" font-family="Helvetica,sans-Serif" font-size="10.00" fill="#000000">_buffer_with_ptrs&lt; mfxExtMBDisable</text>
<text text-anchor="start" x="347" y="-18.5" font-family="Helvetica,sans-Serif" font-size="10.00" fill="#000000">SkipMap, MFX_EXTBUFF_MB_DISABLE</text>
<text text-anchor="middle" x="439.5" y="-7.5" font-family="Helvetica,sans-Serif" font-size="10.00" fill="#000000">_SKIP_MAP &gt;</text>
</a>
</g>
</g>
<!-- Node1&#45;&gt;Node0 -->
<g id="edge1" class="edge">
<title>Node1&#45;&gt;Node0</title>
<path fill="none" stroke="#191970" d="M550.3591,-26.5C559.0686,-26.5 567.6854,-26.5 575.9501,-26.5"/>
<polygon fill="#191970" stroke="#191970" points="550.108,-23.0001 540.1079,-26.5 550.1079,-30.0001 550.108,-23.0001"/>
</g>
<!-- Node2 -->
<g id="node3" class="node">
<title>Node2</title>
<g id="a_node3"><a xlink:href="classoneapi_1_1vpl_1_1extension__buffer.html" target="_top" xlink:title="oneapi::vpl::extension\l_buffer\&lt; mfxExtMBDisableSkip\lMap, ID \&gt;">
<polygon fill="#ffffff" stroke="#000000" points="148,-6 148,-47 303,-47 303,-6 148,-6"/>
<text text-anchor="start" x="156" y="-35" font-family="Helvetica,sans-Serif" font-size="10.00" fill="#000000">oneapi::vpl::extension</text>
<text text-anchor="start" x="156" y="-24" font-family="Helvetica,sans-Serif" font-size="10.00" fill="#000000">_buffer&lt; mfxExtMBDisableSkip</text>
<text text-anchor="middle" x="225.5" y="-13" font-family="Helvetica,sans-Serif" font-size="10.00" fill="#000000">Map, ID &gt;</text>
</a>
</g>
</g>
<!-- Node2&#45;&gt;Node1 -->
<g id="edge2" class="edge">
<title>Node2&#45;&gt;Node1</title>
<path fill="none" stroke="#191970" d="M313.2341,-26.5C321.6527,-26.5 330.2359,-26.5 338.7657,-26.5"/>
<polygon fill="#191970" stroke="#191970" points="313.0615,-23.0001 303.0615,-26.5 313.0614,-30.0001 313.0615,-23.0001"/>
</g>
<!-- Node3 -->
<g id="node4" class="node">
<title>Node3</title>
<g id="a_node4"><a xlink:href="classoneapi_1_1vpl_1_1extension__buffer__base.html" target="_top" xlink:title="Interface definition for extension buffers. Extension buffers are used to provide additional data for...">
<polygon fill="#ffffff" stroke="#000000" points="0,-11.5 0,-41.5 112,-41.5 112,-11.5 0,-11.5"/>
<text text-anchor="start" x="8" y="-29.5" font-family="Helvetica,sans-Serif" font-size="10.00" fill="#000000">oneapi::vpl::extension</text>
<text text-anchor="middle" x="56" y="-18.5" font-family="Helvetica,sans-Serif" font-size="10.00" fill="#000000">_buffer_base</text>
</a>
</g>
</g>
<!-- Node3&#45;&gt;Node2 -->
<g id="edge3" class="edge">
<title>Node3&#45;&gt;Node2</title>
<path fill="none" stroke="#191970" d="M122.4648,-26.5C130.8023,-26.5 139.3877,-26.5 147.877,-26.5"/>
<polygon fill="#191970" stroke="#191970" points="122.4411,-23.0001 112.441,-26.5 122.441,-30.0001 122.4411,-23.0001"/>
</g>
</g>
</svg>
