<?xml version="1.0" encoding="UTF-8" standalone="no"?>
<!DOCTYPE svg PUBLIC "-//W3C//DTD SVG 1.1//EN"
 "http://www.w3.org/Graphics/SVG/1.1/DTD/svg11.dtd">
<!-- Generated by graphviz version 2.40.1 (20161225.0304)
 -->
<!-- Title: oneapi::vpl::frame_source_reader Pages: 1 -->
<svg width="258pt" height="173pt"
 viewBox="0.00 0.00 258.00 173.00" xmlns="http://www.w3.org/2000/svg" xmlns:xlink="http://www.w3.org/1999/xlink">
<g id="graph0" class="graph" transform="scale(1 1) rotate(0) translate(4 169)">
<title>oneapi::vpl::frame_source_reader</title>
<polygon fill="#ffffff" stroke="transparent" points="-4,4 -4,-169 254,-169 254,4 -4,4"/>
<!-- Node0 -->
<g id="node1" class="node">
<title>Node0</title>
<polygon fill="#bfbfbf" stroke="#000000" points="77.5,-67.5 77.5,-97.5 172.5,-97.5 172.5,-67.5 77.5,-67.5"/>
<text text-anchor="start" x="85.5" y="-85.5" font-family="Helvetica,sans-Serif" font-size="10.00" fill="#000000">oneapi::vpl::frame</text>
<text text-anchor="middle" x="125" y="-74.5" font-family="Helvetica,sans-Serif" font-size="10.00" fill="#000000">_source_reader</text>
</g>
<!-- Node2 -->
<g id="node3" class="node">
<title>Node2</title>
<g id="a_node3"><a xlink:href="classoneapi_1_1vpl_1_1raw__frame__file__reader.html" target="_top" xlink:title="File based reader of uncomressed frames. ">
<polygon fill="#ffffff" stroke="#000000" points="0,-.5 0,-30.5 116,-30.5 116,-.5 0,-.5"/>
<text text-anchor="start" x="8" y="-18.5" font-family="Helvetica,sans-Serif" font-size="10.00" fill="#000000">oneapi::vpl::raw_frame</text>
<text text-anchor="middle" x="58" y="-7.5" font-family="Helvetica,sans-Serif" font-size="10.00" fill="#000000">_file_reader</text>
</a>
</g>
</g>
<!-- Node0&#45;&gt;Node2 -->
<g id="edge2" class="edge">
<title>Node0&#45;&gt;Node2</title>
<path fill="none" stroke="#191970" d="M102.7113,-60.2113C93.0009,-50.5009 81.8698,-39.3698 73.1432,-30.6432"/>
<polygon fill="#191970" stroke="#191970" points="100.2507,-62.7004 109.7967,-67.2967 105.2004,-57.7507 100.2507,-62.7004"/>
</g>
<!-- Node3 -->
<g id="node4" class="node">
<title>Node3</title>
<g id="a_node4"><a xlink:href="classoneapi_1_1vpl_1_1raw__frame__file__reader__by__name.html" target="_top" xlink:title="File based reder of uncomressed frames. ">
<polygon fill="#ffffff" stroke="#000000" points="134,-.5 134,-30.5 250,-30.5 250,-.5 134,-.5"/>
<text text-anchor="start" x="142" y="-18.5" font-family="Helvetica,sans-Serif" font-size="10.00" fill="#000000">oneapi::vpl::raw_frame</text>
<text text-anchor="middle" x="192" y="-7.5" font-family="Helvetica,sans-Serif" font-size="10.00" fill="#000000">_file_reader_by_name</text>
</a>
</g>
</g>
<!-- Node0&#45;&gt;Node3 -->
<g id="edge3" class="edge">
<title>Node0&#45;&gt;Node3</title>
<path fill="none" stroke="#191970" d="M147.2887,-60.2113C156.9991,-50.5009 168.1302,-39.3698 176.8568,-30.6432"/>
<polygon fill="#191970" stroke="#191970" points="144.7996,-57.7507 140.2033,-67.2967 149.7493,-62.7004 144.7996,-57.7507"/>
</g>
<!-- Node1 -->
<g id="node2" class="node">
<title>Node1</title>
<g id="a_node2"><a xlink:href="classoneapi_1_1vpl_1_1source__reader.html" target="_top" xlink:title="Interface for the source data reader. ">
<polygon fill="#ffffff" stroke="#000000" points="75.5,-134.5 75.5,-164.5 174.5,-164.5 174.5,-134.5 75.5,-134.5"/>
<text text-anchor="start" x="83.5" y="-152.5" font-family="Helvetica,sans-Serif" font-size="10.00" fill="#000000">oneapi::vpl::source</text>
<text text-anchor="middle" x="125" y="-141.5" font-family="Helvetica,sans-Serif" font-size="10.00" fill="#000000">_reader</text>
</a>
</g>
</g>
<!-- Node1&#45;&gt;Node0 -->
<g id="edge1" class="edge">
<title>Node1&#45;&gt;Node0</title>
<path fill="none" stroke="#191970" d="M125,-124.0249C125,-115.128 125,-105.4287 125,-97.6432"/>
<polygon fill="#191970" stroke="#191970" points="121.5001,-124.2966 125,-134.2967 128.5001,-124.2967 121.5001,-124.2966"/>
</g>
</g>
</svg>
