<?xml version="1.0" encoding="UTF-8" standalone="no"?>
<!DOCTYPE svg PUBLIC "-//W3C//DTD SVG 1.1//EN"
 "http://www.w3.org/Graphics/SVG/1.1/DTD/svg11.dtd">
<!-- Generated by graphviz version 2.40.1 (20161225.0304)
 -->
<!-- Title: oneapi::vpl::ExtVP9Param Pages: 1 -->
<svg width="174pt" height="240pt"
 viewBox="0.00 0.00 174.00 240.00" xmlns="http://www.w3.org/2000/svg" xmlns:xlink="http://www.w3.org/1999/xlink">
<g id="graph0" class="graph" transform="scale(1 1) rotate(0) translate(4 236)">
<title>oneapi::vpl::ExtVP9Param</title>
<polygon fill="#ffffff" stroke="transparent" points="-4,4 -4,-236 170,-236 170,4 -4,4"/>
<!-- Node0 -->
<g id="node1" class="node">
<title>Node0</title>
<polygon fill="#bfbfbf" stroke="#000000" points="17,-.5 17,-19.5 149,-19.5 149,-.5 17,-.5"/>
<text text-anchor="middle" x="83" y="-7.5" font-family="Helvetica,sans-Serif" font-size="10.00" fill="#000000">oneapi::vpl::ExtVP9Param</text>
</g>
<!-- Node1 -->
<g id="node2" class="node">
<title>Node1</title>
<g id="a_node2"><a xlink:href="classoneapi_1_1vpl_1_1extension__buffer__trival.html" target="_top" xlink:title="oneapi::vpl::extension\l_buffer_trival\&lt; mfxExtVP9Param,\l MFX_EXTBUFF_VP9_PARAM \&gt;">
<polygon fill="#ffffff" stroke="#000000" points="0,-56.5 0,-97.5 166,-97.5 166,-56.5 0,-56.5"/>
<text text-anchor="start" x="8" y="-85.5" font-family="Helvetica,sans-Serif" font-size="10.00" fill="#000000">oneapi::vpl::extension</text>
<text text-anchor="start" x="8" y="-74.5" font-family="Helvetica,sans-Serif" font-size="10.00" fill="#000000">_buffer_trival&lt; mfxExtVP9Param,</text>
<text text-anchor="middle" x="83" y="-63.5" font-family="Helvetica,sans-Serif" font-size="10.00" fill="#000000"> MFX_EXTBUFF_VP9_PARAM &gt;</text>
</a>
</g>
</g>
<!-- Node1&#45;&gt;Node0 -->
<g id="edge1" class="edge">
<title>Node1&#45;&gt;Node0</title>
<path fill="none" stroke="#191970" d="M83,-46.0909C83,-36.5672 83,-26.7625 83,-19.7805"/>
<polygon fill="#191970" stroke="#191970" points="79.5001,-46.168 83,-56.168 86.5001,-46.1681 79.5001,-46.168"/>
</g>
<!-- Node2 -->
<g id="node3" class="node">
<title>Node2</title>
<g id="a_node3"><a xlink:href="classoneapi_1_1vpl_1_1extension__buffer.html" target="_top" xlink:title="oneapi::vpl::extension\l_buffer\&lt; mfxExtVP9Param, ID \&gt;">
<polygon fill="#ffffff" stroke="#000000" points="3,-134.5 3,-164.5 163,-164.5 163,-134.5 3,-134.5"/>
<text text-anchor="start" x="11" y="-152.5" font-family="Helvetica,sans-Serif" font-size="10.00" fill="#000000">oneapi::vpl::extension</text>
<text text-anchor="middle" x="83" y="-141.5" font-family="Helvetica,sans-Serif" font-size="10.00" fill="#000000">_buffer&lt; mfxExtVP9Param, ID &gt;</text>
</a>
</g>
</g>
<!-- Node2&#45;&gt;Node1 -->
<g id="edge2" class="edge">
<title>Node2&#45;&gt;Node1</title>
<path fill="none" stroke="#191970" d="M83,-124.4016C83,-115.6173 83,-105.8652 83,-97.5015"/>
<polygon fill="#191970" stroke="#191970" points="79.5001,-124.4779 83,-134.478 86.5001,-124.478 79.5001,-124.4779"/>
</g>
<!-- Node3 -->
<g id="node4" class="node">
<title>Node3</title>
<g id="a_node4"><a xlink:href="classoneapi_1_1vpl_1_1extension__buffer__base.html" target="_top" xlink:title="Interface definition for extension buffers. Extension buffers are used to provide additional data for...">
<polygon fill="#ffffff" stroke="#000000" points="27,-201.5 27,-231.5 139,-231.5 139,-201.5 27,-201.5"/>
<text text-anchor="start" x="35" y="-219.5" font-family="Helvetica,sans-Serif" font-size="10.00" fill="#000000">oneapi::vpl::extension</text>
<text text-anchor="middle" x="83" y="-208.5" font-family="Helvetica,sans-Serif" font-size="10.00" fill="#000000">_buffer_base</text>
</a>
</g>
</g>
<!-- Node3&#45;&gt;Node2 -->
<g id="edge3" class="edge">
<title>Node3&#45;&gt;Node2</title>
<path fill="none" stroke="#191970" d="M83,-191.0249C83,-182.128 83,-172.4287 83,-164.6432"/>
<polygon fill="#191970" stroke="#191970" points="79.5001,-191.2966 83,-201.2967 86.5001,-191.2967 79.5001,-191.2966"/>
</g>
</g>
</svg>
