<?xml version="1.0" encoding="UTF-8" standalone="no"?>
<!DOCTYPE svg PUBLIC "-//W3C//DTD SVG 1.1//EN"
 "http://www.w3.org/Graphics/SVG/1.1/DTD/svg11.dtd">
<!-- Generated by graphviz version 2.40.1 (20161225.0304)
 -->
<!-- Title: oneapi::vpl::ExtVPPDoUse Pages: 1 -->
<svg width="196pt" height="240pt"
 viewBox="0.00 0.00 196.00 240.00" xmlns="http://www.w3.org/2000/svg" xmlns:xlink="http://www.w3.org/1999/xlink">
<g id="graph0" class="graph" transform="scale(1 1) rotate(0) translate(4 236)">
<title>oneapi::vpl::ExtVPPDoUse</title>
<polygon fill="#ffffff" stroke="transparent" points="-4,4 -4,-236 192,-236 192,4 -4,4"/>
<!-- Node4 -->
<g id="node1" class="node">
<title>Node4</title>
<polygon fill="#bfbfbf" stroke="#000000" points="26,-.5 26,-19.5 162,-19.5 162,-.5 26,-.5"/>
<text text-anchor="middle" x="94" y="-7.5" font-family="Helvetica,sans-Serif" font-size="10.00" fill="#000000">oneapi::vpl::ExtVPPDoUse</text>
</g>
<!-- Node5 -->
<g id="node2" class="node">
<title>Node5</title>
<g id="a_node2"><a xlink:href="classoneapi_1_1vpl_1_1extension__buffer__with__ptrs.html" target="_top" xlink:title="oneapi::vpl::extension\l_buffer_with_ptrs\&lt; mfxExtVPPDo\lUse, MFX_EXTBUFF_VPP_DOUSE \&gt;">
<polygon fill="#ffffff" stroke="#000000" points="0,-56.5 0,-97.5 188,-97.5 188,-56.5 0,-56.5"/>
<text text-anchor="start" x="8" y="-85.5" font-family="Helvetica,sans-Serif" font-size="10.00" fill="#000000">oneapi::vpl::extension</text>
<text text-anchor="start" x="8" y="-74.5" font-family="Helvetica,sans-Serif" font-size="10.00" fill="#000000">_buffer_with_ptrs&lt; mfxExtVPPDo</text>
<text text-anchor="middle" x="94" y="-63.5" font-family="Helvetica,sans-Serif" font-size="10.00" fill="#000000">Use, MFX_EXTBUFF_VPP_DOUSE &gt;</text>
</a>
</g>
</g>
<!-- Node5&#45;&gt;Node4 -->
<g id="edge1" class="edge">
<title>Node5&#45;&gt;Node4</title>
<path fill="none" stroke="#191970" d="M94,-46.0909C94,-36.5672 94,-26.7625 94,-19.7805"/>
<polygon fill="#191970" stroke="#191970" points="90.5001,-46.168 94,-56.168 97.5001,-46.1681 90.5001,-46.168"/>
</g>
<!-- Node6 -->
<g id="node3" class="node">
<title>Node6</title>
<g id="a_node3"><a xlink:href="classoneapi_1_1vpl_1_1extension__buffer.html" target="_top" xlink:title="oneapi::vpl::extension\l_buffer\&lt; mfxExtVPPDoUse, ID \&gt;">
<polygon fill="#ffffff" stroke="#000000" points="12,-134.5 12,-164.5 176,-164.5 176,-134.5 12,-134.5"/>
<text text-anchor="start" x="20" y="-152.5" font-family="Helvetica,sans-Serif" font-size="10.00" fill="#000000">oneapi::vpl::extension</text>
<text text-anchor="middle" x="94" y="-141.5" font-family="Helvetica,sans-Serif" font-size="10.00" fill="#000000">_buffer&lt; mfxExtVPPDoUse, ID &gt;</text>
</a>
</g>
</g>
<!-- Node6&#45;&gt;Node5 -->
<g id="edge2" class="edge">
<title>Node6&#45;&gt;Node5</title>
<path fill="none" stroke="#191970" d="M94,-124.4016C94,-115.6173 94,-105.8652 94,-97.5015"/>
<polygon fill="#191970" stroke="#191970" points="90.5001,-124.4779 94,-134.478 97.5001,-124.478 90.5001,-124.4779"/>
</g>
<!-- Node7 -->
<g id="node4" class="node">
<title>Node7</title>
<g id="a_node4"><a xlink:href="classoneapi_1_1vpl_1_1extension__buffer__base.html" target="_top" xlink:title="Interface definition for extension buffers. Extension buffers are used to provide additional data for...">
<polygon fill="#ffffff" stroke="#000000" points="38,-201.5 38,-231.5 150,-231.5 150,-201.5 38,-201.5"/>
<text text-anchor="start" x="46" y="-219.5" font-family="Helvetica,sans-Serif" font-size="10.00" fill="#000000">oneapi::vpl::extension</text>
<text text-anchor="middle" x="94" y="-208.5" font-family="Helvetica,sans-Serif" font-size="10.00" fill="#000000">_buffer_base</text>
</a>
</g>
</g>
<!-- Node7&#45;&gt;Node6 -->
<g id="edge3" class="edge">
<title>Node7&#45;&gt;Node6</title>
<path fill="none" stroke="#191970" d="M94,-191.0249C94,-182.128 94,-172.4287 94,-164.6432"/>
<polygon fill="#191970" stroke="#191970" points="90.5001,-191.2966 94,-201.2967 97.5001,-191.2967 90.5001,-191.2966"/>
</g>
</g>
</svg>
