<?xml version="1.0" encoding="UTF-8" standalone="no"?>
<!DOCTYPE svg PUBLIC "-//W3C//DTD SVG 1.1//EN"
 "http://www.w3.org/Graphics/SVG/1.1/DTD/svg11.dtd">
<!-- Generated by graphviz version 2.40.1 (20161225.0304)
 -->
<!-- Title: oneapi::vpl::base_exception::operator= Pages: 1 -->
<svg width="320pt" height="88pt"
 viewBox="0.00 0.00 320.00 88.00" xmlns="http://www.w3.org/2000/svg" xmlns:xlink="http://www.w3.org/1999/xlink">
<g id="graph0" class="graph" transform="scale(1 1) rotate(0) translate(4 84)">
<title>oneapi::vpl::base_exception::operator=</title>
<polygon fill="#ffffff" stroke="transparent" points="-4,4 -4,-84 316,-84 316,4 -4,4"/>
<!-- Node15 -->
<g id="node1" class="node">
<title>Node15</title>
<polygon fill="#bfbfbf" stroke="#000000" points="0,-24.5 0,-54.5 138,-54.5 138,-24.5 0,-24.5"/>
<text text-anchor="start" x="8" y="-42.5" font-family="Helvetica,sans-Serif" font-size="10.00" fill="#000000">oneapi::vpl::base_exception</text>
<text text-anchor="middle" x="69" y="-31.5" font-family="Helvetica,sans-Serif" font-size="10.00" fill="#000000">::operator=</text>
</g>
<!-- Node16 -->
<g id="node2" class="node">
<title>Node16</title>
<g id="a_node2"><a xlink:href="classoneapi_1_1vpl_1_1base__exception.html#a733b8da1ac5e4901c5359700133291d6" target="_top" xlink:title="Default ctor. ">
<polygon fill="#ffffff" stroke="#000000" points="174,-49.5 174,-79.5 312,-79.5 312,-49.5 174,-49.5"/>
<text text-anchor="start" x="182" y="-67.5" font-family="Helvetica,sans-Serif" font-size="10.00" fill="#000000">oneapi::vpl::base_exception</text>
<text text-anchor="middle" x="243" y="-56.5" font-family="Helvetica,sans-Serif" font-size="10.00" fill="#000000">::base_exception</text>
</a>
</g>
</g>
<!-- Node15&#45;&gt;Node16 -->
<g id="edge1" class="edge">
<title>Node15&#45;&gt;Node16</title>
<path fill="none" stroke="#191970" d="M148.0349,-50.8556C156.6249,-52.0898 165.3194,-53.339 173.7795,-54.5545"/>
<polygon fill="#191970" stroke="#191970" points="148.4155,-47.3744 138.0193,-49.4166 147.4199,-54.3033 148.4155,-47.3744"/>
</g>
<!-- Node17 -->
<g id="node3" class="node">
<title>Node17</title>
<g id="a_node3"><a xlink:href="classoneapi_1_1vpl_1_1file__exception.html#afbc596b01f178e46d2e56dfc9b6aaf57" target="_top" xlink:title="Default ctor. ">
<polygon fill="#ffffff" stroke="#000000" points="178,-.5 178,-30.5 308,-30.5 308,-.5 178,-.5"/>
<text text-anchor="start" x="186" y="-18.5" font-family="Helvetica,sans-Serif" font-size="10.00" fill="#000000">oneapi::vpl::file_exception</text>
<text text-anchor="middle" x="243" y="-7.5" font-family="Helvetica,sans-Serif" font-size="10.00" fill="#000000">::file_exception</text>
</a>
</g>
</g>
<!-- Node15&#45;&gt;Node17 -->
<g id="edge2" class="edge">
<title>Node15&#45;&gt;Node17</title>
<path fill="none" stroke="#191970" d="M147.9265,-28.6136C157.901,-27.2378 168.0182,-25.8423 177.7476,-24.5003"/>
<polygon fill="#191970" stroke="#191970" points="147.4473,-25.1465 138.0193,-29.9801 148.4038,-32.0808 147.4473,-25.1465"/>
</g>
</g>
</svg>
