<?xml version="1.0" encoding="UTF-8" standalone="no"?>
<!DOCTYPE svg PUBLIC "-//W3C//DTD SVG 1.1//EN"
 "http://www.w3.org/Graphics/SVG/1.1/DTD/svg11.dtd">
<!-- Generated by graphviz version 2.40.1 (20161225.0304)
 -->
<!-- Title: oneapi::vpl::cpu_selector Pages: 1 -->
<svg width="139pt" height="162pt"
 viewBox="0.00 0.00 139.00 162.00" xmlns="http://www.w3.org/2000/svg" xmlns:xlink="http://www.w3.org/1999/xlink">
<g id="graph0" class="graph" transform="scale(1 1) rotate(0) translate(4 158)">
<title>oneapi::vpl::cpu_selector</title>
<polygon fill="#ffffff" stroke="transparent" points="-4,4 -4,-158 135,-158 135,4 -4,4"/>
<!-- Node0 -->
<g id="node1" class="node">
<title>Node0</title>
<polygon fill="#bfbfbf" stroke="#000000" points="3,-.5 3,-19.5 128,-19.5 128,-.5 3,-.5"/>
<text text-anchor="middle" x="65.5" y="-7.5" font-family="Helvetica,sans-Serif" font-size="10.00" fill="#000000">oneapi::vpl::cpu_selector</text>
</g>
<!-- Node1 -->
<g id="node2" class="node">
<title>Node1</title>
<g id="a_node2"><a xlink:href="classoneapi_1_1vpl_1_1default__selector.html" target="_top" xlink:title="Default implemetation selector. It accepts first implementation matching provided properties...">
<polygon fill="#ffffff" stroke="#000000" points="16,-56.5 16,-86.5 115,-86.5 115,-56.5 16,-56.5"/>
<text text-anchor="start" x="24" y="-74.5" font-family="Helvetica,sans-Serif" font-size="10.00" fill="#000000">oneapi::vpl::default</text>
<text text-anchor="middle" x="65.5" y="-63.5" font-family="Helvetica,sans-Serif" font-size="10.00" fill="#000000">_selector</text>
</a>
</g>
</g>
<!-- Node1&#45;&gt;Node0 -->
<g id="edge1" class="edge">
<title>Node1&#45;&gt;Node0</title>
<path fill="none" stroke="#191970" d="M65.5,-46.2849C65.5,-36.9858 65.5,-26.9883 65.5,-19.8469"/>
<polygon fill="#191970" stroke="#191970" points="62.0001,-46.2977 65.5,-56.2977 69.0001,-46.2978 62.0001,-46.2977"/>
</g>
<!-- Node2 -->
<g id="node3" class="node">
<title>Node2</title>
<g id="a_node3"><a xlink:href="classoneapi_1_1vpl_1_1implemetation__selector.html" target="_top" xlink:title="Selects oneVPL implementation according to the specified properties. ">
<polygon fill="#ffffff" stroke="#000000" points="0,-123.5 0,-153.5 131,-153.5 131,-123.5 0,-123.5"/>
<text text-anchor="start" x="8" y="-141.5" font-family="Helvetica,sans-Serif" font-size="10.00" fill="#000000">oneapi::vpl::implemetation</text>
<text text-anchor="middle" x="65.5" y="-130.5" font-family="Helvetica,sans-Serif" font-size="10.00" fill="#000000">_selector</text>
</a>
</g>
</g>
<!-- Node2&#45;&gt;Node1 -->
<g id="edge2" class="edge">
<title>Node2&#45;&gt;Node1</title>
<path fill="none" stroke="#191970" d="M65.5,-113.0249C65.5,-104.128 65.5,-94.4287 65.5,-86.6432"/>
<polygon fill="#191970" stroke="#191970" points="62.0001,-113.2966 65.5,-123.2967 69.0001,-113.2967 62.0001,-113.2966"/>
</g>
</g>
</svg>
