<?xml version="1.0" encoding="UTF-8" standalone="no"?>
<!DOCTYPE svg PUBLIC "-//W3C//DTD SVG 1.1//EN"
 "http://www.w3.org/Graphics/SVG/1.1/DTD/svg11.dtd">
<!-- Generated by graphviz version 2.40.1 (20161225.0304)
 -->
<!-- Title: oneapi::vpl::ExtVP9Param Pages: 1 -->
<svg width="234pt" height="253pt"
 viewBox="0.00 0.00 233.50 253.00" xmlns="http://www.w3.org/2000/svg" xmlns:xlink="http://www.w3.org/1999/xlink">
<g id="graph0" class="graph" transform="scale(1 1) rotate(0) translate(4 249)">
<title>oneapi::vpl::ExtVP9Param</title>
<polygon fill="#ffffff" stroke="transparent" points="-4,4 -4,-249 229.5,-249 229.5,4 -4,4"/>
<!-- Node4 -->
<g id="node1" class="node">
<title>Node4</title>
<polygon fill="#bfbfbf" stroke="#000000" points="51,-.5 51,-19.5 183,-19.5 183,-.5 51,-.5"/>
<text text-anchor="middle" x="117" y="-7.5" font-family="Helvetica,sans-Serif" font-size="10.00" fill="#000000">oneapi::vpl::ExtVP9Param</text>
</g>
<!-- Node5 -->
<g id="node2" class="node">
<title>Node5</title>
<g id="a_node2"><a xlink:href="classoneapi_1_1vpl_1_1extension__buffer__trival.html" target="_top" xlink:title="oneapi::vpl::extension\l_buffer_trival\&lt; mfxExtVP9Param,\l MFX_EXTBUFF_VP9_PARAM \&gt;">
<polygon fill="#ffffff" stroke="#000000" points="34,-57.5 34,-98.5 200,-98.5 200,-57.5 34,-57.5"/>
<text text-anchor="start" x="42" y="-86.5" font-family="Helvetica,sans-Serif" font-size="10.00" fill="#000000">oneapi::vpl::extension</text>
<text text-anchor="start" x="42" y="-75.5" font-family="Helvetica,sans-Serif" font-size="10.00" fill="#000000">_buffer_trival&lt; mfxExtVP9Param,</text>
<text text-anchor="middle" x="117" y="-64.5" font-family="Helvetica,sans-Serif" font-size="10.00" fill="#000000"> MFX_EXTBUFF_VP9_PARAM &gt;</text>
</a>
</g>
</g>
<!-- Node5&#45;&gt;Node4 -->
<g id="edge1" class="edge">
<title>Node5&#45;&gt;Node4</title>
<path fill="none" stroke="#191970" d="M117,-47.1423C117,-37.1999 117,-26.896 117,-19.6705"/>
<polygon fill="#191970" stroke="#191970" points="113.5001,-47.2282 117,-57.2283 120.5001,-47.2283 113.5001,-47.2282"/>
</g>
<!-- Node6 -->
<g id="node3" class="node">
<title>Node6</title>
<g id="a_node3"><a xlink:href="classoneapi_1_1vpl_1_1extension__buffer.html" target="_top" xlink:title="oneapi::vpl::extension\l_buffer\&lt; mfxExtVP9Param, ID \&gt;">
<polygon fill="#ffffff" stroke="#000000" points="37,-136.5 37,-166.5 197,-166.5 197,-136.5 37,-136.5"/>
<text text-anchor="start" x="45" y="-154.5" font-family="Helvetica,sans-Serif" font-size="10.00" fill="#000000">oneapi::vpl::extension</text>
<text text-anchor="middle" x="117" y="-143.5" font-family="Helvetica,sans-Serif" font-size="10.00" fill="#000000">_buffer&lt; mfxExtVP9Param, ID &gt;</text>
</a>
</g>
</g>
<!-- Node6&#45;&gt;Node5 -->
<g id="edge2" class="edge">
<title>Node6&#45;&gt;Node5</title>
<path fill="none" stroke="#191970" d="M117,-126.2668C117,-117.2098 117,-107.1146 117,-98.5074"/>
<polygon fill="#191970" stroke="#191970" points="113.5001,-126.2707 117,-136.2708 120.5001,-126.2708 113.5001,-126.2707"/>
</g>
<!-- Node7 -->
<g id="node4" class="node">
<title>Node7</title>
<g id="a_node4"><a xlink:href="classoneapi_1_1vpl_1_1extension__buffer__base.html" target="_top" xlink:title="Interface definition for extension buffers. Extension buffers are used to provide additional data for...">
<polygon fill="#ffffff" stroke="#000000" points="0,-214.5 0,-244.5 112,-244.5 112,-214.5 0,-214.5"/>
<text text-anchor="start" x="8" y="-232.5" font-family="Helvetica,sans-Serif" font-size="10.00" fill="#000000">oneapi::vpl::extension</text>
<text text-anchor="middle" x="56" y="-221.5" font-family="Helvetica,sans-Serif" font-size="10.00" fill="#000000">_buffer_base</text>
</a>
</g>
</g>
<!-- Node7&#45;&gt;Node6 -->
<g id="edge3" class="edge">
<title>Node7&#45;&gt;Node6</title>
<path fill="none" stroke="#191970" d="M73.9781,-206.5116C84.0057,-193.6894 96.2186,-178.0729 105.0666,-166.7592"/>
<polygon fill="#191970" stroke="#191970" points="71.1648,-204.4275 67.7614,-214.4608 76.6788,-208.7398 71.1648,-204.4275"/>
</g>
<!-- Node8 -->
<g id="node5" class="node">
<title>Node8</title>
<g id="a_node5"><a xlink:href="structmfxExtVP9Param.html" target="_top" xlink:title="mfxExtVP9Param">
<polygon fill="#ffffff" stroke="#000000" points="130.5,-220 130.5,-239 225.5,-239 225.5,-220 130.5,-220"/>
<text text-anchor="middle" x="178" y="-227" font-family="Helvetica,sans-Serif" font-size="10.00" fill="#000000">mfxExtVP9Param</text>
</a>
</g>
</g>
<!-- Node8&#45;&gt;Node6 -->
<g id="edge4" class="edge">
<title>Node8&#45;&gt;Node6</title>
<path fill="none" stroke="#9a32cd" stroke-dasharray="5,2" d="M164.1941,-211.8466C153.5811,-198.2759 139.0706,-179.7214 128.9516,-166.7824"/>
<polygon fill="#9a32cd" stroke="#9a32cd" points="161.6028,-214.2146 170.5202,-219.9357 167.1168,-209.9023 161.6028,-214.2146"/>
<text text-anchor="middle" x="168" y="-188" font-family="Helvetica,sans-Serif" font-size="10.00" fill="#000000"> buffer_</text>
</g>
</g>
</svg>
