<?xml version="1.0" encoding="UTF-8" standalone="no"?>
<!DOCTYPE svg PUBLIC "-//W3C//DTD SVG 1.1//EN"
 "http://www.w3.org/Graphics/SVG/1.1/DTD/svg11.dtd">
<!-- Generated by graphviz version 2.40.1 (20161225.0304)
 -->
<!-- Title: oneapi::vpl::decoder_init_header_list::add_buffer Pages: 1 -->
<svg width="396pt" height="67pt"
 viewBox="0.00 0.00 396.00 66.50" xmlns="http://www.w3.org/2000/svg" xmlns:xlink="http://www.w3.org/1999/xlink">
<g id="graph0" class="graph" transform="scale(1 1) rotate(0) translate(4 62.5)">
<title>oneapi::vpl::decoder_init_header_list::add_buffer</title>
<polygon fill="#ffffff" stroke="transparent" points="-4,4 -4,-62.5 392,-62.5 392,4 -4,4"/>
<!-- Node6 -->
<g id="node1" class="node">
<title>Node6</title>
<polygon fill="#bfbfbf" stroke="#000000" points="0,-17 0,-58 109,-58 109,-17 0,-17"/>
<text text-anchor="start" x="8" y="-46" font-family="Helvetica,sans-Serif" font-size="10.00" fill="#000000">oneapi::vpl::decoder</text>
<text text-anchor="start" x="8" y="-35" font-family="Helvetica,sans-Serif" font-size="10.00" fill="#000000">_init_header_list::add</text>
<text text-anchor="middle" x="54.5" y="-24" font-family="Helvetica,sans-Serif" font-size="10.00" fill="#000000">_buffer</text>
</g>
<!-- Node7 -->
<g id="node2" class="node">
<title>Node7</title>
<g id="a_node2"><a xlink:href="classoneapi_1_1vpl_1_1extension__buffer__base.html#a05f42bf8ebbeb7f697eb53a17a465c73" target="_top" xlink:title="Interface to retieve extension buffer ID in a form of FourCC code. ">
<polygon fill="#ffffff" stroke="#000000" points="276,-22.5 276,-52.5 388,-52.5 388,-22.5 276,-22.5"/>
<text text-anchor="start" x="284" y="-40.5" font-family="Helvetica,sans-Serif" font-size="10.00" fill="#000000">oneapi::vpl::extension</text>
<text text-anchor="middle" x="332" y="-29.5" font-family="Helvetica,sans-Serif" font-size="10.00" fill="#000000">_buffer_base::get_ID</text>
</a>
</g>
</g>
<!-- Node6&#45;&gt;Node7 -->
<g id="edge1" class="edge">
<title>Node6&#45;&gt;Node7</title>
<path fill="none" stroke="#191970" d="M109.0491,-39.6007C120.8995,-39.9753 133.3685,-40.3073 145,-40.5 187.2164,-41.1995 197.7834,-41.1881 240,-40.5 248.2689,-40.3652 256.9542,-40.1623 265.5497,-39.9244"/>
<polygon fill="#191970" stroke="#191970" points="265.6752,-43.4223 275.5684,-39.6309 265.4702,-36.4253 265.6752,-43.4223"/>
</g>
<!-- Node8 -->
<g id="node3" class="node">
<title>Node8</title>
<g id="a_node3"><a xlink:href="classoneapi_1_1vpl_1_1buffer__list.html#aa156fcbd0cd65808fb14ffc2a3ebda5a" target="_top" xlink:title="adds extension buffer pointer to the map ">
<polygon fill="#ffffff" stroke="#000000" points="145,-.5 145,-30.5 240,-30.5 240,-.5 145,-.5"/>
<text text-anchor="start" x="153" y="-18.5" font-family="Helvetica,sans-Serif" font-size="10.00" fill="#000000">oneapi::vpl::buffer</text>
<text text-anchor="middle" x="192.5" y="-7.5" font-family="Helvetica,sans-Serif" font-size="10.00" fill="#000000">_list::add_buffer</text>
</a>
</g>
</g>
<!-- Node6&#45;&gt;Node8 -->
<g id="edge2" class="edge">
<title>Node6&#45;&gt;Node8</title>
<path fill="none" stroke="#191970" d="M109.0413,-28.805C117.3968,-27.473 126.0485,-26.0937 134.476,-24.7502"/>
<polygon fill="#191970" stroke="#191970" points="135.2852,-28.1655 144.6095,-23.1347 134.1832,-21.2528 135.2852,-28.1655"/>
</g>
<!-- Node8&#45;&gt;Node7 -->
<g id="edge3" class="edge">
<title>Node8&#45;&gt;Node7</title>
<path fill="none" stroke="#191970" d="M240.1178,-23.0096C248.4005,-24.3159 257.1477,-25.6953 265.8211,-27.0632"/>
<polygon fill="#191970" stroke="#191970" points="265.5136,-30.5579 275.9368,-28.6585 266.6041,-23.6433 265.5136,-30.5579"/>
</g>
</g>
</svg>
