<?xml version="1.0" encoding="UTF-8" standalone="no"?>
<!DOCTYPE svg PUBLIC "-//W3C//DTD SVG 1.1//EN"
 "http://www.w3.org/Graphics/SVG/1.1/DTD/svg11.dtd">
<!-- Generated by graphviz version 2.40.1 (20161225.0304)
 -->
<!-- Title: oneapi::vpl::ExtAVCRoundingOffset Pages: 1 -->
<svg width="847pt" height="78pt"
 viewBox="0.00 0.00 847.00 77.50" xmlns="http://www.w3.org/2000/svg" xmlns:xlink="http://www.w3.org/1999/xlink">
<g id="graph0" class="graph" transform="scale(1 1) rotate(0) translate(4 73.5)">
<title>oneapi::vpl::ExtAVCRoundingOffset</title>
<polygon fill="#ffffff" stroke="transparent" points="-4,4 -4,-73.5 843,-73.5 843,4 -4,4"/>
<!-- Node4 -->
<g id="node1" class="node">
<title>Node4</title>
<polygon fill="#bfbfbf" stroke="#000000" points="692,-17 692,-47 839,-47 839,-17 692,-17"/>
<text text-anchor="start" x="700" y="-35" font-family="Helvetica,sans-Serif" font-size="10.00" fill="#000000">oneapi::vpl::ExtAVCRounding</text>
<text text-anchor="middle" x="765.5" y="-24" font-family="Helvetica,sans-Serif" font-size="10.00" fill="#000000">Offset</text>
</g>
<!-- Node5 -->
<g id="node2" class="node">
<title>Node5</title>
<g id="a_node2"><a xlink:href="classoneapi_1_1vpl_1_1extension__buffer__trival.html" target="_top" xlink:title="oneapi::vpl::extension\l_buffer_trival\&lt; mfxExtAVCRounding\lOffset, MFX_EXTBUFF_AVC_ROUNDING\l_OFFSET \&gt;">
<polygon fill="#ffffff" stroke="#000000" points="446,-6 446,-58 655,-58 655,-6 446,-6"/>
<text text-anchor="start" x="454" y="-46" font-family="Helvetica,sans-Serif" font-size="10.00" fill="#000000">oneapi::vpl::extension</text>
<text text-anchor="start" x="454" y="-35" font-family="Helvetica,sans-Serif" font-size="10.00" fill="#000000">_buffer_trival&lt; mfxExtAVCRounding</text>
<text text-anchor="start" x="454" y="-24" font-family="Helvetica,sans-Serif" font-size="10.00" fill="#000000">Offset, MFX_EXTBUFF_AVC_ROUNDING</text>
<text text-anchor="middle" x="550.5" y="-13" font-family="Helvetica,sans-Serif" font-size="10.00" fill="#000000">_OFFSET &gt;</text>
</a>
</g>
</g>
<!-- Node5&#45;&gt;Node4 -->
<g id="edge1" class="edge">
<title>Node5&#45;&gt;Node4</title>
<path fill="none" stroke="#191970" d="M665.3256,-32C674.3104,-32 683.2267,-32 691.8217,-32"/>
<polygon fill="#191970" stroke="#191970" points="665.1659,-28.5001 655.1658,-32 665.1658,-35.5001 665.1659,-28.5001"/>
</g>
<!-- Node6 -->
<g id="node3" class="node">
<title>Node6</title>
<g id="a_node3"><a xlink:href="classoneapi_1_1vpl_1_1extension__buffer.html" target="_top" xlink:title="oneapi::vpl::extension\l_buffer\&lt; mfxExtAVCRoundingOffset, ID \&gt;">
<polygon fill="#ffffff" stroke="#000000" points="207,-17 207,-47 409,-47 409,-17 207,-17"/>
<text text-anchor="start" x="215" y="-35" font-family="Helvetica,sans-Serif" font-size="10.00" fill="#000000">oneapi::vpl::extension</text>
<text text-anchor="middle" x="308" y="-24" font-family="Helvetica,sans-Serif" font-size="10.00" fill="#000000">_buffer&lt; mfxExtAVCRoundingOffset, ID &gt;</text>
</a>
</g>
</g>
<!-- Node6&#45;&gt;Node5 -->
<g id="edge2" class="edge">
<title>Node6&#45;&gt;Node5</title>
<path fill="none" stroke="#191970" d="M419.3378,-32C428.1076,-32 436.947,-32 445.6709,-32"/>
<polygon fill="#191970" stroke="#191970" points="419.0859,-28.5001 409.0858,-32 419.0858,-35.5001 419.0859,-28.5001"/>
</g>
<!-- Node7 -->
<g id="node4" class="node">
<title>Node7</title>
<g id="a_node4"><a xlink:href="classoneapi_1_1vpl_1_1extension__buffer__base.html" target="_top" xlink:title="Interface definition for extension buffers. Extension buffers are used to provide additional data for...">
<polygon fill="#ffffff" stroke="#000000" points="12.5,-39 12.5,-69 124.5,-69 124.5,-39 12.5,-39"/>
<text text-anchor="start" x="20.5" y="-57" font-family="Helvetica,sans-Serif" font-size="10.00" fill="#000000">oneapi::vpl::extension</text>
<text text-anchor="middle" x="68.5" y="-46" font-family="Helvetica,sans-Serif" font-size="10.00" fill="#000000">_buffer_base</text>
</a>
</g>
</g>
<!-- Node7&#45;&gt;Node6 -->
<g id="edge3" class="edge">
<title>Node7&#45;&gt;Node6</title>
<path fill="none" stroke="#191970" d="M134.6519,-47.9234C156.926,-45.8774 182.3174,-43.545 206.6678,-41.3082"/>
<polygon fill="#191970" stroke="#191970" points="134.29,-44.4418 124.6521,-48.842 134.9304,-51.4125 134.29,-44.4418"/>
</g>
<!-- Node8 -->
<g id="node5" class="node">
<title>Node8</title>
<g id="a_node5"><a xlink:href="structmfxExtAVCRoundingOffset.html" target="_top" xlink:title="mfxExtAVCRoundingOffset">
<polygon fill="#ffffff" stroke="#000000" points="0,-.5 0,-19.5 137,-19.5 137,-.5 0,-.5"/>
<text text-anchor="middle" x="68.5" y="-7.5" font-family="Helvetica,sans-Serif" font-size="10.00" fill="#000000">mfxExtAVCRoundingOffset</text>
</a>
</g>
</g>
<!-- Node8&#45;&gt;Node6 -->
<g id="edge4" class="edge">
<title>Node8&#45;&gt;Node6</title>
<path fill="none" stroke="#9a32cd" stroke-dasharray="5,2" d="M147.2281,-17.2318C166.2623,-18.9803 186.8693,-20.8732 206.7762,-22.7018"/>
<polygon fill="#9a32cd" stroke="#9a32cd" points="147.4094,-13.7338 137.1311,-16.3043 146.769,-20.7045 147.4094,-13.7338"/>
<text text-anchor="middle" x="172" y="-24" font-family="Helvetica,sans-Serif" font-size="10.00" fill="#000000"> buffer_</text>
</g>
</g>
</svg>
