<?xml version="1.0" encoding="UTF-8" standalone="no"?>
<!DOCTYPE svg PUBLIC "-//W3C//DTD SVG 1.1//EN"
 "http://www.w3.org/Graphics/SVG/1.1/DTD/svg11.dtd">
<!-- Generated by graphviz version 2.40.1 (20161225.0304)
 -->
<!-- Title: oneapi::vpl::temporal_frame_allocator Pages: 1 -->
<svg width="124pt" height="173pt"
 viewBox="0.00 0.00 124.00 173.00" xmlns="http://www.w3.org/2000/svg" xmlns:xlink="http://www.w3.org/1999/xlink">
<g id="graph0" class="graph" transform="scale(1 1) rotate(0) translate(4 169)">
<title>oneapi::vpl::temporal_frame_allocator</title>
<polygon fill="#ffffff" stroke="transparent" points="-4,4 -4,-169 120,-169 120,4 -4,4"/>
<!-- Node1 -->
<g id="node1" class="node">
<title>Node1</title>
<polygon fill="#bfbfbf" stroke="#000000" points="4.5,-.5 4.5,-30.5 111.5,-30.5 111.5,-.5 4.5,-.5"/>
<text text-anchor="start" x="12.5" y="-18.5" font-family="Helvetica,sans-Serif" font-size="10.00" fill="#000000">oneapi::vpl::temporal</text>
<text text-anchor="middle" x="58" y="-7.5" font-family="Helvetica,sans-Serif" font-size="10.00" fill="#000000">_frame_allocator</text>
</g>
<!-- Node2 -->
<g id="node2" class="node">
<title>Node2</title>
<g id="a_node2"><a xlink:href="classoneapi_1_1vpl_1_1frame__info.html" target="_top" xlink:title="Holds general frame related params. ">
<polygon fill="#ffffff" stroke="#000000" points="0,-78.5 0,-97.5 116,-97.5 116,-78.5 0,-78.5"/>
<text text-anchor="middle" x="58" y="-85.5" font-family="Helvetica,sans-Serif" font-size="10.00" fill="#000000">oneapi::vpl::frame_info</text>
</a>
</g>
</g>
<!-- Node2&#45;&gt;Node1 -->
<g id="edge1" class="edge">
<title>Node2&#45;&gt;Node1</title>
<path fill="none" stroke="#9a32cd" stroke-dasharray="5,2" d="M58,-68.0177C58,-56.2164 58,-41.513 58,-30.668"/>
<polygon fill="#9a32cd" stroke="#9a32cd" points="54.5001,-68.2223 58,-78.2223 61.5001,-68.2224 54.5001,-68.2223"/>
<text text-anchor="middle" x="70.5" y="-52" font-family="Helvetica,sans-Serif" font-size="10.00" fill="#000000"> info_</text>
</g>
<!-- Node3 -->
<g id="node3" class="node">
<title>Node3</title>
<g id="a_node3"><a xlink:href="structmfxFrameInfo.html" target="_top" xlink:title="mfxFrameInfo">
<polygon fill="#ffffff" stroke="#000000" points="19.5,-145.5 19.5,-164.5 96.5,-164.5 96.5,-145.5 19.5,-145.5"/>
<text text-anchor="middle" x="58" y="-152.5" font-family="Helvetica,sans-Serif" font-size="10.00" fill="#000000">mfxFrameInfo</text>
</a>
</g>
</g>
<!-- Node3&#45;&gt;Node2 -->
<g id="edge2" class="edge">
<title>Node3&#45;&gt;Node2</title>
<path fill="none" stroke="#9a32cd" stroke-dasharray="5,2" d="M58,-135.1079C58,-122.714 58,-107.3263 58,-97.5817"/>
<polygon fill="#9a32cd" stroke="#9a32cd" points="54.5001,-135.4005 58,-145.4005 61.5001,-135.4006 54.5001,-135.4005"/>
<text text-anchor="middle" x="76" y="-119" font-family="Helvetica,sans-Serif" font-size="10.00" fill="#000000"> param_</text>
</g>
</g>
</svg>
