<?xml version="1.0" encoding="UTF-8" standalone="no"?>
<!DOCTYPE svg PUBLIC "-//W3C//DTD SVG 1.1//EN"
 "http://www.w3.org/Graphics/SVG/1.1/DTD/svg11.dtd">
<!-- Generated by graphviz version 2.40.1 (20161225.0304)
 -->
<!-- Title: oneapi::vpl::ExtDecVideoProcessing Pages: 1 -->
<svg width="989pt" height="107pt"
 viewBox="0.00 0.00 989.00 107.00" xmlns="http://www.w3.org/2000/svg" xmlns:xlink="http://www.w3.org/1999/xlink">
<g id="graph0" class="graph" transform="scale(1 1) rotate(0) translate(4 103)">
<title>oneapi::vpl::ExtDecVideoProcessing</title>
<polygon fill="#ffffff" stroke="transparent" points="-4,4 -4,-103 985,-103 985,4 -4,4"/>
<!-- Node4 -->
<g id="node1" class="node">
<title>Node4</title>
<polygon fill="#bfbfbf" stroke="#000000" points="853,-46.5 853,-76.5 981,-76.5 981,-46.5 853,-46.5"/>
<text text-anchor="start" x="861" y="-64.5" font-family="Helvetica,sans-Serif" font-size="10.00" fill="#000000">oneapi::vpl::ExtDecVideo</text>
<text text-anchor="middle" x="917" y="-53.5" font-family="Helvetica,sans-Serif" font-size="10.00" fill="#000000">Processing</text>
</g>
<!-- Node5 -->
<g id="node2" class="node">
<title>Node5</title>
<g id="a_node2"><a xlink:href="classoneapi_1_1vpl_1_1extension__buffer__trival.html" target="_top" xlink:title="oneapi::vpl::extension\l_buffer_trival\&lt; mfxExtDecVideo\lProcessing, MFX_EXTBUFF_DEC\l_VIDEO_PROCESSING \&gt;">
<polygon fill="#ffffff" stroke="#000000" points="646,-35.5 646,-87.5 816,-87.5 816,-35.5 646,-35.5"/>
<text text-anchor="start" x="654" y="-75.5" font-family="Helvetica,sans-Serif" font-size="10.00" fill="#000000">oneapi::vpl::extension</text>
<text text-anchor="start" x="654" y="-64.5" font-family="Helvetica,sans-Serif" font-size="10.00" fill="#000000">_buffer_trival&lt; mfxExtDecVideo</text>
<text text-anchor="start" x="654" y="-53.5" font-family="Helvetica,sans-Serif" font-size="10.00" fill="#000000">Processing, MFX_EXTBUFF_DEC</text>
<text text-anchor="middle" x="731" y="-42.5" font-family="Helvetica,sans-Serif" font-size="10.00" fill="#000000">_VIDEO_PROCESSING &gt;</text>
</a>
</g>
</g>
<!-- Node5&#45;&gt;Node4 -->
<g id="edge1" class="edge">
<title>Node5&#45;&gt;Node4</title>
<path fill="none" stroke="#191970" d="M826.2534,-61.5C835.2455,-61.5 844.2095,-61.5 852.8088,-61.5"/>
<polygon fill="#191970" stroke="#191970" points="826.1071,-58.0001 816.1071,-61.5 826.107,-65.0001 826.1071,-58.0001"/>
</g>
<!-- Node6 -->
<g id="node3" class="node">
<title>Node6</title>
<g id="a_node3"><a xlink:href="classoneapi_1_1vpl_1_1extension__buffer.html" target="_top" xlink:title="oneapi::vpl::extension\l_buffer\&lt; mfxExtDecVideoProcessing, ID \&gt;">
<polygon fill="#ffffff" stroke="#000000" points="405,-46.5 405,-76.5 609,-76.5 609,-46.5 405,-46.5"/>
<text text-anchor="start" x="413" y="-64.5" font-family="Helvetica,sans-Serif" font-size="10.00" fill="#000000">oneapi::vpl::extension</text>
<text text-anchor="middle" x="507" y="-53.5" font-family="Helvetica,sans-Serif" font-size="10.00" fill="#000000">_buffer&lt; mfxExtDecVideoProcessing, ID &gt;</text>
</a>
</g>
</g>
<!-- Node6&#45;&gt;Node5 -->
<g id="edge2" class="edge">
<title>Node6&#45;&gt;Node5</title>
<path fill="none" stroke="#191970" d="M619.224,-61.5C628.1411,-61.5 637.0564,-61.5 645.7436,-61.5"/>
<polygon fill="#191970" stroke="#191970" points="619.1676,-58.0001 609.1675,-61.5 619.1675,-65.0001 619.1676,-58.0001"/>
</g>
<!-- Node7 -->
<g id="node4" class="node">
<title>Node7</title>
<g id="a_node4"><a xlink:href="classoneapi_1_1vpl_1_1extension__buffer__base.html" target="_top" xlink:title="Interface definition for extension buffers. Extension buffers are used to provide additional data for...">
<polygon fill="#ffffff" stroke="#000000" points="209,-68.5 209,-98.5 321,-98.5 321,-68.5 209,-68.5"/>
<text text-anchor="start" x="217" y="-86.5" font-family="Helvetica,sans-Serif" font-size="10.00" fill="#000000">oneapi::vpl::extension</text>
<text text-anchor="middle" x="265" y="-75.5" font-family="Helvetica,sans-Serif" font-size="10.00" fill="#000000">_buffer_base</text>
</a>
</g>
</g>
<!-- Node7&#45;&gt;Node6 -->
<g id="edge3" class="edge">
<title>Node7&#45;&gt;Node6</title>
<path fill="none" stroke="#191970" d="M331.2894,-77.4737C353.9353,-75.415 379.8199,-73.0618 404.6333,-70.8061"/>
<polygon fill="#191970" stroke="#191970" points="330.77,-74.0064 321.1279,-78.3975 331.4038,-80.9776 330.77,-74.0064"/>
</g>
<!-- Node8 -->
<g id="node5" class="node">
<title>Node8</title>
<g id="a_node5"><a xlink:href="structmfxExtDecVideoProcessing.html" target="_top" xlink:title="mfxExtDecVideoProcessing">
<polygon fill="#ffffff" stroke="#000000" points="195,-30 195,-49 335,-49 335,-30 195,-30"/>
<text text-anchor="middle" x="265" y="-37" font-family="Helvetica,sans-Serif" font-size="10.00" fill="#000000">mfxExtDecVideoProcessing</text>
</a>
</g>
</g>
<!-- Node8&#45;&gt;Node6 -->
<g id="edge4" class="edge">
<title>Node8&#45;&gt;Node6</title>
<path fill="none" stroke="#9a32cd" stroke-dasharray="5,2" d="M345.4443,-46.8131C364.5162,-48.5469 385.1081,-50.4189 404.9977,-52.2271"/>
<polygon fill="#9a32cd" stroke="#9a32cd" points="345.5973,-43.3127 335.3215,-45.8929 344.9635,-50.2839 345.5973,-43.3127"/>
<text text-anchor="middle" x="370" y="-53.5" font-family="Helvetica,sans-Serif" font-size="10.00" fill="#000000"> buffer_</text>
</g>
<!-- Node9 -->
<g id="node6" class="node">
<title>Node9</title>
<g id="a_node6"><a xlink:href="structmfxExtDecVideoProcessing_1_1mfxOut.html" target="_top" xlink:title="mfxExtDecVideoProcessing\l::mfxOut">
<polygon fill="#ffffff" stroke="#000000" points="0,-49.5 0,-79.5 140,-79.5 140,-49.5 0,-49.5"/>
<text text-anchor="start" x="8" y="-67.5" font-family="Helvetica,sans-Serif" font-size="10.00" fill="#000000">mfxExtDecVideoProcessing</text>
<text text-anchor="middle" x="70" y="-56.5" font-family="Helvetica,sans-Serif" font-size="10.00" fill="#000000">::mfxOut</text>
</a>
</g>
</g>
<!-- Node9&#45;&gt;Node8 -->
<g id="edge5" class="edge">
<title>Node9&#45;&gt;Node8</title>
<path fill="none" stroke="#9a32cd" stroke-dasharray="5,2" d="M150.2574,-54.2106C165.046,-52.3146 180.3812,-50.3486 194.8432,-48.4945"/>
<polygon fill="#9a32cd" stroke="#9a32cd" points="149.5977,-50.7664 140.124,-55.5097 150.4879,-57.7096 149.5977,-50.7664"/>
<text text-anchor="middle" x="167.5" y="-55.5" font-family="Helvetica,sans-Serif" font-size="10.00" fill="#000000"> Out</text>
</g>
<!-- Node10 -->
<g id="node7" class="node">
<title>Node10</title>
<g id="a_node7"><a xlink:href="structmfxExtDecVideoProcessing_1_1mfxIn.html" target="_top" xlink:title="mfxExtDecVideoProcessing\l::mfxIn">
<polygon fill="#ffffff" stroke="#000000" points="0,-.5 0,-30.5 140,-30.5 140,-.5 0,-.5"/>
<text text-anchor="start" x="8" y="-18.5" font-family="Helvetica,sans-Serif" font-size="10.00" fill="#000000">mfxExtDecVideoProcessing</text>
<text text-anchor="middle" x="70" y="-7.5" font-family="Helvetica,sans-Serif" font-size="10.00" fill="#000000">::mfxIn</text>
</a>
</g>
</g>
<!-- Node10&#45;&gt;Node8 -->
<g id="edge6" class="edge">
<title>Node10&#45;&gt;Node8</title>
<path fill="none" stroke="#9a32cd" stroke-dasharray="5,2" d="M150.2574,-25.3778C165.046,-27.198 180.3812,-29.0854 194.8432,-30.8653"/>
<polygon fill="#9a32cd" stroke="#9a32cd" points="150.4767,-21.8785 140.124,-24.1306 149.6215,-28.8261 150.4767,-21.8785"/>
<text text-anchor="middle" x="167.5" y="-31.5" font-family="Helvetica,sans-Serif" font-size="10.00" fill="#000000"> In</text>
</g>
</g>
</svg>
