<?xml version="1.0" encoding="UTF-8" standalone="no"?>
<!DOCTYPE svg PUBLIC "-//W3C//DTD SVG 1.1//EN"
 "http://www.w3.org/Graphics/SVG/1.1/DTD/svg11.dtd">
<!-- Generated by graphviz version 2.40.1 (20161225.0304)
 -->
<!-- Title: oneapi::vpl::default_selector Pages: 1 -->
<svg width="276pt" height="162pt"
 viewBox="0.00 0.00 276.00 162.00" xmlns="http://www.w3.org/2000/svg" xmlns:xlink="http://www.w3.org/1999/xlink">
<g id="graph0" class="graph" transform="scale(1 1) rotate(0) translate(4 158)">
<title>oneapi::vpl::default_selector</title>
<polygon fill="#ffffff" stroke="transparent" points="-4,4 -4,-158 272,-158 272,4 -4,4"/>
<!-- Node0 -->
<g id="node1" class="node">
<title>Node0</title>
<polygon fill="#bfbfbf" stroke="#000000" points="84,-56.5 84,-86.5 183,-86.5 183,-56.5 84,-56.5"/>
<text text-anchor="start" x="92" y="-74.5" font-family="Helvetica,sans-Serif" font-size="10.00" fill="#000000">oneapi::vpl::default</text>
<text text-anchor="middle" x="133.5" y="-63.5" font-family="Helvetica,sans-Serif" font-size="10.00" fill="#000000">_selector</text>
</g>
<!-- Node2 -->
<g id="node3" class="node">
<title>Node2</title>
<g id="a_node3"><a xlink:href="classoneapi_1_1vpl_1_1cpu__selector.html" target="_top" xlink:title="Default SW based implementation selector. It accepts first implementation with SW based acceleration...">
<polygon fill="#ffffff" stroke="#000000" points="0,-.5 0,-19.5 125,-19.5 125,-.5 0,-.5"/>
<text text-anchor="middle" x="62.5" y="-7.5" font-family="Helvetica,sans-Serif" font-size="10.00" fill="#000000">oneapi::vpl::cpu_selector</text>
</a>
</g>
</g>
<!-- Node0&#45;&gt;Node2 -->
<g id="edge2" class="edge">
<title>Node0&#45;&gt;Node2</title>
<path fill="none" stroke="#191970" d="M108.1587,-49.5494C96.4308,-39.3907 83.0876,-27.8329 73.868,-19.8469"/>
<polygon fill="#191970" stroke="#191970" points="106.0992,-52.396 115.9494,-56.2977 110.6823,-47.1049 106.0992,-52.396"/>
</g>
<!-- Node3 -->
<g id="node4" class="node">
<title>Node3</title>
<g id="a_node4"><a xlink:href="classoneapi_1_1vpl_1_1gpu__selector.html" target="_top" xlink:title="Default HW based implementation selector. It accepts first implementation with HW based acceleration...">
<polygon fill="#ffffff" stroke="#000000" points="143,-.5 143,-19.5 268,-19.5 268,-.5 143,-.5"/>
<text text-anchor="middle" x="205.5" y="-7.5" font-family="Helvetica,sans-Serif" font-size="10.00" fill="#000000">oneapi::vpl::gpu_selector</text>
</a>
</g>
</g>
<!-- Node0&#45;&gt;Node3 -->
<g id="edge3" class="edge">
<title>Node0&#45;&gt;Node3</title>
<path fill="none" stroke="#191970" d="M159.1982,-49.5494C171.0913,-39.3907 184.6224,-27.8329 193.9719,-19.8469"/>
<polygon fill="#191970" stroke="#191970" points="156.6283,-47.1415 151.2978,-56.2977 161.1747,-52.4642 156.6283,-47.1415"/>
</g>
<!-- Node1 -->
<g id="node2" class="node">
<title>Node1</title>
<g id="a_node2"><a xlink:href="classoneapi_1_1vpl_1_1implemetation__selector.html" target="_top" xlink:title="Selects oneVPL implementation according to the specified properties. ">
<polygon fill="#ffffff" stroke="#000000" points="68,-123.5 68,-153.5 199,-153.5 199,-123.5 68,-123.5"/>
<text text-anchor="start" x="76" y="-141.5" font-family="Helvetica,sans-Serif" font-size="10.00" fill="#000000">oneapi::vpl::implemetation</text>
<text text-anchor="middle" x="133.5" y="-130.5" font-family="Helvetica,sans-Serif" font-size="10.00" fill="#000000">_selector</text>
</a>
</g>
</g>
<!-- Node1&#45;&gt;Node0 -->
<g id="edge1" class="edge">
<title>Node1&#45;&gt;Node0</title>
<path fill="none" stroke="#191970" d="M133.5,-113.0249C133.5,-104.128 133.5,-94.4287 133.5,-86.6432"/>
<polygon fill="#191970" stroke="#191970" points="130.0001,-113.2966 133.5,-123.2967 137.0001,-113.2967 130.0001,-113.2966"/>
</g>
</g>
</svg>
