<?xml version="1.0" encoding="UTF-8" standalone="no"?>
<!DOCTYPE svg PUBLIC "-//W3C//DTD SVG 1.1//EN"
 "http://www.w3.org/Graphics/SVG/1.1/DTD/svg11.dtd">
<!-- Generated by graphviz version 2.40.1 (20161225.0304)
 -->
<!-- Title: oneapi::vpl::implementation_capabilities::decoder_profile Pages: 1 -->
<svg width="151pt" height="284pt"
 viewBox="0.00 0.00 151.00 284.00" xmlns="http://www.w3.org/2000/svg" xmlns:xlink="http://www.w3.org/1999/xlink">
<g id="graph0" class="graph" transform="scale(1 1) rotate(0) translate(4 280)">
<title>oneapi::vpl::implementation_capabilities::decoder_profile</title>
<polygon fill="#ffffff" stroke="transparent" points="-4,4 -4,-280 147,-280 147,4 -4,4"/>
<!-- Node1 -->
<g id="node1" class="node">
<title>Node1</title>
<polygon fill="#bfbfbf" stroke="#000000" points="0,-.5 0,-30.5 143,-30.5 143,-.5 0,-.5"/>
<text text-anchor="start" x="8" y="-18.5" font-family="Helvetica,sans-Serif" font-size="10.00" fill="#000000">oneapi::vpl::implementation</text>
<text text-anchor="middle" x="71.5" y="-7.5" font-family="Helvetica,sans-Serif" font-size="10.00" fill="#000000">_capabilities::decoder_profile</text>
</g>
<!-- Node2 -->
<g id="node2" class="node">
<title>Node2</title>
<g id="a_node2"><a xlink:href="structmfxDecoderDescription_1_1decoder_1_1decprofile.html" target="_top" xlink:title="mfxDecoderDescription\l::decoder::decprofile">
<polygon fill="#ffffff" stroke="#000000" points="12,-78.5 12,-108.5 131,-108.5 131,-78.5 12,-78.5"/>
<text text-anchor="start" x="20" y="-96.5" font-family="Helvetica,sans-Serif" font-size="10.00" fill="#000000">mfxDecoderDescription</text>
<text text-anchor="middle" x="71.5" y="-85.5" font-family="Helvetica,sans-Serif" font-size="10.00" fill="#000000">::decoder::decprofile</text>
</a>
</g>
</g>
<!-- Node2&#45;&gt;Node1 -->
<g id="edge1" class="edge">
<title>Node2&#45;&gt;Node1</title>
<path fill="none" stroke="#9a32cd" stroke-dasharray="5,2" d="M71.5,-68.2875C71.5,-55.9187 71.5,-41.4264 71.5,-30.7592"/>
<polygon fill="#9a32cd" stroke="#9a32cd" points="68.0001,-68.4608 71.5,-78.4608 75.0001,-68.4608 68.0001,-68.4608"/>
<text text-anchor="middle" x="89" y="-52" font-family="Helvetica,sans-Serif" font-size="10.00" fill="#000000"> profile_</text>
</g>
<!-- Node3 -->
<g id="node3" class="node">
<title>Node3</title>
<g id="a_node3"><a xlink:href="structmfxDecoderDescription_1_1decoder_1_1decprofile_1_1decmemdesc.html" target="_top" xlink:title="mfxDecoderDescription\l::decoder::decprofile\l::decmemdesc">
<polygon fill="#ffffff" stroke="#000000" points="12,-156.5 12,-197.5 131,-197.5 131,-156.5 12,-156.5"/>
<text text-anchor="start" x="20" y="-185.5" font-family="Helvetica,sans-Serif" font-size="10.00" fill="#000000">mfxDecoderDescription</text>
<text text-anchor="start" x="20" y="-174.5" font-family="Helvetica,sans-Serif" font-size="10.00" fill="#000000">::decoder::decprofile</text>
<text text-anchor="middle" x="71.5" y="-163.5" font-family="Helvetica,sans-Serif" font-size="10.00" fill="#000000">::decmemdesc</text>
</a>
</g>
</g>
<!-- Node3&#45;&gt;Node2 -->
<g id="edge2" class="edge">
<title>Node3&#45;&gt;Node2</title>
<path fill="none" stroke="#9a32cd" stroke-dasharray="5,2" d="M71.5,-146.0892C71.5,-133.3184 71.5,-119.0939 71.5,-108.6621"/>
<polygon fill="#9a32cd" stroke="#9a32cd" points="68.0001,-146.3595 71.5,-156.3595 75.0001,-146.3596 68.0001,-146.3595"/>
<text text-anchor="middle" x="96" y="-130" font-family="Helvetica,sans-Serif" font-size="10.00" fill="#000000"> MemDesc</text>
</g>
<!-- Node4 -->
<g id="node4" class="node">
<title>Node4</title>
<g id="a_node4"><a xlink:href="structmfxRange32U.html" target="_top" xlink:title="mfxRange32U">
<polygon fill="#ffffff" stroke="#000000" points="31.5,-256.5 31.5,-275.5 111.5,-275.5 111.5,-256.5 31.5,-256.5"/>
<text text-anchor="middle" x="71.5" y="-263.5" font-family="Helvetica,sans-Serif" font-size="10.00" fill="#000000">mfxRange32U</text>
</a>
</g>
</g>
<!-- Node4&#45;&gt;Node3 -->
<g id="edge3" class="edge">
<title>Node4&#45;&gt;Node3</title>
<path fill="none" stroke="#9a32cd" stroke-dasharray="5,2" d="M71.5,-246.1498C71.5,-231.6776 71.5,-212.124 71.5,-197.5022"/>
<polygon fill="#9a32cd" stroke="#9a32cd" points="68.0001,-246.4754 71.5,-256.4754 75.0001,-246.4755 68.0001,-246.4754"/>
<text text-anchor="middle" x="86" y="-230" font-family="Helvetica,sans-Serif" font-size="10.00" fill="#000000"> Width</text>
<text text-anchor="middle" x="86" y="-219" font-family="Helvetica,sans-Serif" font-size="10.00" fill="#000000">Height</text>
</g>
</g>
</svg>
