<?xml version="1.0" encoding="UTF-8" standalone="no"?>
<!DOCTYPE svg PUBLIC "-//W3C//DTD SVG 1.1//EN"
 "http://www.w3.org/Graphics/SVG/1.1/DTD/svg11.dtd">
<!-- Generated by graphviz version 2.40.1 (20161225.0304)
 -->
<!-- Title: oneapi::vpl::ExtEncoderResetOption Pages: 1 -->
<svg width="847pt" height="78pt"
 viewBox="0.00 0.00 847.00 77.50" xmlns="http://www.w3.org/2000/svg" xmlns:xlink="http://www.w3.org/1999/xlink">
<g id="graph0" class="graph" transform="scale(1 1) rotate(0) translate(4 73.5)">
<title>oneapi::vpl::ExtEncoderResetOption</title>
<polygon fill="#ffffff" stroke="transparent" points="-4,4 -4,-73.5 843,-73.5 843,4 -4,4"/>
<!-- Node4 -->
<g id="node1" class="node">
<title>Node4</title>
<polygon fill="#bfbfbf" stroke="#000000" points="692,-17 692,-47 839,-47 839,-17 692,-17"/>
<text text-anchor="start" x="700" y="-35" font-family="Helvetica,sans-Serif" font-size="10.00" fill="#000000">oneapi::vpl::ExtEncoderReset</text>
<text text-anchor="middle" x="765.5" y="-24" font-family="Helvetica,sans-Serif" font-size="10.00" fill="#000000">Option</text>
</g>
<!-- Node5 -->
<g id="node2" class="node">
<title>Node5</title>
<g id="a_node2"><a xlink:href="classoneapi_1_1vpl_1_1extension__buffer__trival.html" target="_top" xlink:title="oneapi::vpl::extension\l_buffer_trival\&lt; mfxExtEncoder\lResetOption, MFX_EXTBUFF_ENCODER\l_RESET_OPTION \&gt;">
<polygon fill="#ffffff" stroke="#000000" points="449,-6 449,-58 655,-58 655,-6 449,-6"/>
<text text-anchor="start" x="457" y="-46" font-family="Helvetica,sans-Serif" font-size="10.00" fill="#000000">oneapi::vpl::extension</text>
<text text-anchor="start" x="457" y="-35" font-family="Helvetica,sans-Serif" font-size="10.00" fill="#000000">_buffer_trival&lt; mfxExtEncoder</text>
<text text-anchor="start" x="457" y="-24" font-family="Helvetica,sans-Serif" font-size="10.00" fill="#000000">ResetOption, MFX_EXTBUFF_ENCODER</text>
<text text-anchor="middle" x="552" y="-13" font-family="Helvetica,sans-Serif" font-size="10.00" fill="#000000">_RESET_OPTION &gt;</text>
</a>
</g>
</g>
<!-- Node5&#45;&gt;Node4 -->
<g id="edge1" class="edge">
<title>Node5&#45;&gt;Node4</title>
<path fill="none" stroke="#191970" d="M665.4389,-32C674.3981,-32 683.2943,-32 691.8736,-32"/>
<polygon fill="#191970" stroke="#191970" points="665.3104,-28.5001 655.3103,-32 665.3103,-35.5001 665.3104,-28.5001"/>
</g>
<!-- Node6 -->
<g id="node3" class="node">
<title>Node6</title>
<g id="a_node3"><a xlink:href="classoneapi_1_1vpl_1_1extension__buffer.html" target="_top" xlink:title="oneapi::vpl::extension\l_buffer\&lt; mfxExtEncoderResetOption, ID \&gt;">
<polygon fill="#ffffff" stroke="#000000" points="209,-17 209,-47 412,-47 412,-17 209,-17"/>
<text text-anchor="start" x="217" y="-35" font-family="Helvetica,sans-Serif" font-size="10.00" fill="#000000">oneapi::vpl::extension</text>
<text text-anchor="middle" x="310.5" y="-24" font-family="Helvetica,sans-Serif" font-size="10.00" fill="#000000">_buffer&lt; mfxExtEncoderResetOption, ID &gt;</text>
</a>
</g>
</g>
<!-- Node6&#45;&gt;Node5 -->
<g id="edge2" class="edge">
<title>Node6&#45;&gt;Node5</title>
<path fill="none" stroke="#191970" d="M422.4927,-32C431.2793,-32 440.1281,-32 448.8516,-32"/>
<polygon fill="#191970" stroke="#191970" points="422.2178,-28.5001 412.2178,-32 422.2178,-35.5001 422.2178,-28.5001"/>
</g>
<!-- Node7 -->
<g id="node4" class="node">
<title>Node7</title>
<g id="a_node4"><a xlink:href="classoneapi_1_1vpl_1_1extension__buffer__base.html" target="_top" xlink:title="Interface definition for extension buffers. Extension buffers are used to provide additional data for...">
<polygon fill="#ffffff" stroke="#000000" points="13.5,-39 13.5,-69 125.5,-69 125.5,-39 13.5,-39"/>
<text text-anchor="start" x="21.5" y="-57" font-family="Helvetica,sans-Serif" font-size="10.00" fill="#000000">oneapi::vpl::extension</text>
<text text-anchor="middle" x="69.5" y="-46" font-family="Helvetica,sans-Serif" font-size="10.00" fill="#000000">_buffer_base</text>
</a>
</g>
</g>
<!-- Node7&#45;&gt;Node6 -->
<g id="edge3" class="edge">
<title>Node7&#45;&gt;Node6</title>
<path fill="none" stroke="#191970" d="M135.8198,-47.9459C158.3689,-45.8875 184.1149,-43.5372 208.7841,-41.2853"/>
<polygon fill="#191970" stroke="#191970" points="135.34,-44.4751 125.6996,-48.8697 135.9764,-51.4461 135.34,-44.4751"/>
</g>
<!-- Node8 -->
<g id="node5" class="node">
<title>Node8</title>
<g id="a_node5"><a xlink:href="structmfxExtEncoderResetOption.html" target="_top" xlink:title="mfxExtEncoderResetOption">
<polygon fill="#ffffff" stroke="#000000" points="0,-.5 0,-19.5 139,-19.5 139,-.5 0,-.5"/>
<text text-anchor="middle" x="69.5" y="-7.5" font-family="Helvetica,sans-Serif" font-size="10.00" fill="#000000">mfxExtEncoderResetOption</text>
</a>
</g>
</g>
<!-- Node8&#45;&gt;Node6 -->
<g id="edge4" class="edge">
<title>Node8&#45;&gt;Node6</title>
<path fill="none" stroke="#9a32cd" stroke-dasharray="5,2" d="M149.2928,-17.284C168.2976,-19.0189 188.8332,-20.8935 208.6764,-22.7049"/>
<polygon fill="#9a32cd" stroke="#9a32cd" points="149.484,-13.787 139.2072,-16.3633 148.8476,-20.758 149.484,-13.787"/>
<text text-anchor="middle" x="174" y="-24" font-family="Helvetica,sans-Serif" font-size="10.00" fill="#000000"> buffer_</text>
</g>
</g>
</svg>
