<?xml version="1.0" encoding="UTF-8" standalone="no"?>
<!DOCTYPE svg PUBLIC "-//W3C//DTD SVG 1.1//EN"
 "http://www.w3.org/Graphics/SVG/1.1/DTD/svg11.dtd">
<!-- Generated by graphviz version 2.40.1 (20161225.0304)
 -->
<!-- Title: oneapi::vpl::buffer_list Pages: 1 -->
<svg width="300pt" height="372pt"
 viewBox="0.00 0.00 300.00 371.50" xmlns="http://www.w3.org/2000/svg" xmlns:xlink="http://www.w3.org/1999/xlink">
<g id="graph0" class="graph" transform="scale(1 1) rotate(0) translate(4 367.5)">
<title>oneapi::vpl::buffer_list</title>
<polygon fill="#ffffff" stroke="transparent" points="-4,4 -4,-367.5 296,-367.5 296,4 -4,4"/>
<!-- Node0 -->
<g id="node1" class="node">
<title>Node0</title>
<polygon fill="#bfbfbf" stroke="#000000" points="0,-166.5 0,-185.5 113,-185.5 113,-166.5 0,-166.5"/>
<text text-anchor="middle" x="56.5" y="-173.5" font-family="Helvetica,sans-Serif" font-size="10.00" fill="#000000">oneapi::vpl::buffer_list</text>
</g>
<!-- Node1 -->
<g id="node2" class="node">
<title>Node1</title>
<g id="a_node2"><a xlink:href="classoneapi_1_1vpl_1_1decoder__init__header__list.html" target="_top" xlink:title="This class hold list of extension buffers used during decoder&#39;s initialization stage Those buffers ar...">
<polygon fill="#ffffff" stroke="#000000" points="168.5,-333 168.5,-363 272.5,-363 272.5,-333 168.5,-333"/>
<text text-anchor="start" x="176.5" y="-351" font-family="Helvetica,sans-Serif" font-size="10.00" fill="#000000">oneapi::vpl::decoder</text>
<text text-anchor="middle" x="220.5" y="-340" font-family="Helvetica,sans-Serif" font-size="10.00" fill="#000000">_init_header_list</text>
</a>
</g>
</g>
<!-- Node0&#45;&gt;Node1 -->
<g id="edge1" class="edge">
<title>Node0&#45;&gt;Node1</title>
<path fill="none" stroke="#191970" d="M63.5293,-195.2833C75.9547,-226.7384 104.7412,-289.0781 149,-324 154.7564,-328.542 161.4158,-332.2454 168.3076,-335.2596"/>
<polygon fill="#191970" stroke="#191970" points="66.6487,-193.6398 59.8181,-185.5408 60.1072,-196.1317 66.6487,-193.6398"/>
</g>
<!-- Node2 -->
<g id="node3" class="node">
<title>Node2</title>
<g id="a_node3"><a xlink:href="classoneapi_1_1vpl_1_1decoder__init__reset__list.html" target="_top" xlink:title="This class hold list of extension buffers used during decoder&#39;s initialization stage Those buffers ar...">
<polygon fill="#ffffff" stroke="#000000" points="168.5,-284 168.5,-314 272.5,-314 272.5,-284 168.5,-284"/>
<text text-anchor="start" x="176.5" y="-302" font-family="Helvetica,sans-Serif" font-size="10.00" fill="#000000">oneapi::vpl::decoder</text>
<text text-anchor="middle" x="220.5" y="-291" font-family="Helvetica,sans-Serif" font-size="10.00" fill="#000000">_init_reset_list</text>
</a>
</g>
</g>
<!-- Node0&#45;&gt;Node2 -->
<g id="edge2" class="edge">
<title>Node0&#45;&gt;Node2</title>
<path fill="none" stroke="#191970" d="M68.7766,-193.8105C84.8207,-215.8318 114.9201,-253.0795 149,-275 154.9467,-278.825 161.5661,-282.1042 168.3096,-284.8977"/>
<polygon fill="#191970" stroke="#191970" points="71.6222,-191.7727 62.9717,-185.6554 65.9193,-195.832 71.6222,-191.7727"/>
</g>
<!-- Node3 -->
<g id="node4" class="node">
<title>Node3</title>
<g id="a_node4"><a xlink:href="classoneapi_1_1vpl_1_1decoder__process__list.html" target="_top" xlink:title="This class hold list of extension buffers used during decoder&#39;s processing stage Those buffers are at...">
<polygon fill="#ffffff" stroke="#000000" points="168.5,-235 168.5,-265 272.5,-265 272.5,-235 168.5,-235"/>
<text text-anchor="start" x="176.5" y="-253" font-family="Helvetica,sans-Serif" font-size="10.00" fill="#000000">oneapi::vpl::decoder</text>
<text text-anchor="middle" x="220.5" y="-242" font-family="Helvetica,sans-Serif" font-size="10.00" fill="#000000">_process_list</text>
</a>
</g>
</g>
<!-- Node0&#45;&gt;Node3 -->
<g id="edge3" class="edge">
<title>Node0&#45;&gt;Node3</title>
<path fill="none" stroke="#191970" d="M80.9658,-190.7245C99.2867,-201.3775 125.1879,-215.659 149,-226 156.3262,-229.1816 164.2207,-232.2096 171.9966,-234.9766"/>
<polygon fill="#191970" stroke="#191970" points="82.521,-187.5788 72.1272,-185.5246 78.9715,-193.6121 82.521,-187.5788"/>
</g>
<!-- Node4 -->
<g id="node5" class="node">
<title>Node4</title>
<g id="a_node5"><a xlink:href="classoneapi_1_1vpl_1_1encoder__init__list.html" target="_top" xlink:title="This class hold list of extension buffers used during encoder&#39;s initialization stage Those buffers ar...">
<polygon fill="#ffffff" stroke="#000000" points="168.5,-186 168.5,-216 272.5,-216 272.5,-186 168.5,-186"/>
<text text-anchor="start" x="176.5" y="-204" font-family="Helvetica,sans-Serif" font-size="10.00" fill="#000000">oneapi::vpl::encoder</text>
<text text-anchor="middle" x="220.5" y="-193" font-family="Helvetica,sans-Serif" font-size="10.00" fill="#000000">_init_list</text>
</a>
</g>
</g>
<!-- Node0&#45;&gt;Node4 -->
<g id="edge4" class="edge">
<title>Node0&#45;&gt;Node4</title>
<path fill="none" stroke="#191970" d="M123.6024,-186.229C138.5348,-188.5053 154.1493,-190.8856 168.3744,-193.054"/>
<polygon fill="#191970" stroke="#191970" points="123.8123,-182.7207 113.399,-184.6736 122.7573,-189.6407 123.8123,-182.7207"/>
</g>
<!-- Node5 -->
<g id="node6" class="node">
<title>Node5</title>
<g id="a_node6"><a xlink:href="classoneapi_1_1vpl_1_1encoder__process__list.html" target="_top" xlink:title="This class hold list of extension buffers used during encoder&#39;s processing stage Those buffers are at...">
<polygon fill="#ffffff" stroke="#000000" points="168.5,-137 168.5,-167 272.5,-167 272.5,-137 168.5,-137"/>
<text text-anchor="start" x="176.5" y="-155" font-family="Helvetica,sans-Serif" font-size="10.00" fill="#000000">oneapi::vpl::encoder</text>
<text text-anchor="middle" x="220.5" y="-144" font-family="Helvetica,sans-Serif" font-size="10.00" fill="#000000">_process_list</text>
</a>
</g>
</g>
<!-- Node0&#45;&gt;Node5 -->
<g id="edge5" class="edge">
<title>Node0&#45;&gt;Node5</title>
<path fill="none" stroke="#191970" d="M123.6024,-166.1801C138.5348,-163.9949 154.1493,-161.7099 168.3744,-159.6281"/>
<polygon fill="#191970" stroke="#191970" points="122.7868,-162.7621 113.399,-167.6733 123.8004,-169.6884 122.7868,-162.7621"/>
</g>
<!-- Node6 -->
<g id="node7" class="node">
<title>Node6</title>
<g id="a_node7"><a xlink:href="classoneapi_1_1vpl_1_1encoder__reset__list.html" target="_top" xlink:title="This class hold list of extension buffers used during encoder&#39;s reset stage Those buffers are attache...">
<polygon fill="#ffffff" stroke="#000000" points="168.5,-88 168.5,-118 272.5,-118 272.5,-88 168.5,-88"/>
<text text-anchor="start" x="176.5" y="-106" font-family="Helvetica,sans-Serif" font-size="10.00" fill="#000000">oneapi::vpl::encoder</text>
<text text-anchor="middle" x="220.5" y="-95" font-family="Helvetica,sans-Serif" font-size="10.00" fill="#000000">_reset_list</text>
</a>
</g>
</g>
<!-- Node0&#45;&gt;Node6 -->
<g id="edge6" class="edge">
<title>Node0&#45;&gt;Node6</title>
<path fill="none" stroke="#191970" d="M82.0758,-161.4743C100.386,-151.3873 125.8019,-138.0142 149,-128 157.0891,-124.5081 165.8415,-121.1316 174.3561,-118.0492"/>
<polygon fill="#191970" stroke="#191970" points="80.2343,-158.4935 73.1979,-166.4144 83.638,-164.6103 80.2343,-158.4935"/>
</g>
<!-- Node7 -->
<g id="node8" class="node">
<title>Node7</title>
<g id="a_node8"><a xlink:href="classoneapi_1_1vpl_1_1vpp__init__reset__list.html" target="_top" xlink:title="This class hold list of extension buffers used during VPP&#39;s initialization and/or reset stage Those b...">
<polygon fill="#ffffff" stroke="#000000" points="168.5,-39 168.5,-69 272.5,-69 272.5,-39 168.5,-39"/>
<text text-anchor="start" x="176.5" y="-57" font-family="Helvetica,sans-Serif" font-size="10.00" fill="#000000">oneapi::vpl::vpp_init</text>
<text text-anchor="middle" x="220.5" y="-46" font-family="Helvetica,sans-Serif" font-size="10.00" fill="#000000">_reset_list</text>
</a>
</g>
</g>
<!-- Node0&#45;&gt;Node7 -->
<g id="edge7" class="edge">
<title>Node0&#45;&gt;Node7</title>
<path fill="none" stroke="#191970" d="M69.368,-158.0103C85.6528,-136.4421 115.6321,-100.5176 149,-79 154.9678,-75.1516 161.5993,-71.8144 168.349,-68.9439"/>
<polygon fill="#191970" stroke="#191970" points="66.3789,-156.1665 63.2573,-166.291 72.0113,-160.3229 66.3789,-156.1665"/>
</g>
<!-- Node8 -->
<g id="node9" class="node">
<title>Node8</title>
<g id="a_node9"><a xlink:href="classoneapi_1_1vpl_1_1vpp__process__list.html" target="_top" xlink:title="This class hold list of extension buffers used during VPP&#39;s processing stage Those buffers are attach...">
<polygon fill="#ffffff" stroke="#000000" points="149,-.5 149,-19.5 292,-19.5 292,-.5 149,-.5"/>
<text text-anchor="middle" x="220.5" y="-7.5" font-family="Helvetica,sans-Serif" font-size="10.00" fill="#000000">oneapi::vpl::vpp_process_list</text>
</a>
</g>
</g>
<!-- Node0&#45;&gt;Node8 -->
<g id="edge8" class="edge">
<title>Node0&#45;&gt;Node8</title>
<path fill="none" stroke="#191970" d="M63.4079,-156.7232C75.6584,-125.3271 104.1989,-63.3151 149,-30 154.8957,-25.6158 161.7106,-22.1925 168.7432,-19.5194"/>
<polygon fill="#191970" stroke="#191970" points="59.9926,-155.8622 59.7542,-166.4543 66.5459,-158.3228 59.9926,-155.8622"/>
</g>
</g>
</svg>
