<?xml version="1.0" encoding="UTF-8" standalone="no"?>
<!DOCTYPE svg PUBLIC "-//W3C//DTD SVG 1.1//EN"
 "http://www.w3.org/Graphics/SVG/1.1/DTD/svg11.dtd">
<!-- Generated by graphviz version 2.40.1 (20161225.0304)
 -->
<!-- Title: oneapi::vpl::ExtEncoderCapability Pages: 1 -->
<svg width="830pt" height="78pt"
 viewBox="0.00 0.00 830.00 77.50" xmlns="http://www.w3.org/2000/svg" xmlns:xlink="http://www.w3.org/1999/xlink">
<g id="graph0" class="graph" transform="scale(1 1) rotate(0) translate(4 73.5)">
<title>oneapi::vpl::ExtEncoderCapability</title>
<polygon fill="#ffffff" stroke="transparent" points="-4,4 -4,-73.5 826,-73.5 826,4 -4,4"/>
<!-- Node4 -->
<g id="node1" class="node">
<title>Node4</title>
<polygon fill="#bfbfbf" stroke="#000000" points="658,-22.5 658,-41.5 822,-41.5 822,-22.5 658,-22.5"/>
<text text-anchor="middle" x="740" y="-29.5" font-family="Helvetica,sans-Serif" font-size="10.00" fill="#000000">oneapi::vpl::ExtEncoderCapability</text>
</g>
<!-- Node5 -->
<g id="node2" class="node">
<title>Node5</title>
<g id="a_node2"><a xlink:href="classoneapi_1_1vpl_1_1extension__buffer__trival.html" target="_top" xlink:title="oneapi::vpl::extension\l_buffer_trival\&lt; mfxExtEncoder\lCapability, MFX_EXTBUFF_ENCODER\l_CAPABILITY \&gt;">
<polygon fill="#ffffff" stroke="#000000" points="427,-6 427,-58 621,-58 621,-6 427,-6"/>
<text text-anchor="start" x="435" y="-46" font-family="Helvetica,sans-Serif" font-size="10.00" fill="#000000">oneapi::vpl::extension</text>
<text text-anchor="start" x="435" y="-35" font-family="Helvetica,sans-Serif" font-size="10.00" fill="#000000">_buffer_trival&lt; mfxExtEncoder</text>
<text text-anchor="start" x="435" y="-24" font-family="Helvetica,sans-Serif" font-size="10.00" fill="#000000">Capability, MFX_EXTBUFF_ENCODER</text>
<text text-anchor="middle" x="524" y="-13" font-family="Helvetica,sans-Serif" font-size="10.00" fill="#000000">_CAPABILITY &gt;</text>
</a>
</g>
</g>
<!-- Node5&#45;&gt;Node4 -->
<g id="edge1" class="edge">
<title>Node5&#45;&gt;Node4</title>
<path fill="none" stroke="#191970" d="M631.2988,-32C640.2059,-32 649.1194,-32 657.7969,-32"/>
<polygon fill="#191970" stroke="#191970" points="631.258,-28.5001 621.258,-32 631.258,-35.5001 631.258,-28.5001"/>
</g>
<!-- Node6 -->
<g id="node3" class="node">
<title>Node6</title>
<g id="a_node3"><a xlink:href="classoneapi_1_1vpl_1_1extension__buffer.html" target="_top" xlink:title="oneapi::vpl::extension\l_buffer\&lt; mfxExtEncoderCapability, ID \&gt;">
<polygon fill="#ffffff" stroke="#000000" points="198,-17 198,-47 390,-47 390,-17 198,-17"/>
<text text-anchor="start" x="206" y="-35" font-family="Helvetica,sans-Serif" font-size="10.00" fill="#000000">oneapi::vpl::extension</text>
<text text-anchor="middle" x="294" y="-24" font-family="Helvetica,sans-Serif" font-size="10.00" fill="#000000">_buffer&lt; mfxExtEncoderCapability, ID &gt;</text>
</a>
</g>
</g>
<!-- Node6&#45;&gt;Node5 -->
<g id="edge2" class="edge">
<title>Node6&#45;&gt;Node5</title>
<path fill="none" stroke="#191970" d="M400.4417,-32C409.1958,-32 418.0163,-32 426.6989,-32"/>
<polygon fill="#191970" stroke="#191970" points="400.2081,-28.5001 390.208,-32 400.208,-35.5001 400.2081,-28.5001"/>
</g>
<!-- Node7 -->
<g id="node4" class="node">
<title>Node7</title>
<g id="a_node4"><a xlink:href="classoneapi_1_1vpl_1_1extension__buffer__base.html" target="_top" xlink:title="Interface definition for extension buffers. Extension buffers are used to provide additional data for...">
<polygon fill="#ffffff" stroke="#000000" points="8,-39 8,-69 120,-69 120,-39 8,-39"/>
<text text-anchor="start" x="16" y="-57" font-family="Helvetica,sans-Serif" font-size="10.00" fill="#000000">oneapi::vpl::extension</text>
<text text-anchor="middle" x="64" y="-46" font-family="Helvetica,sans-Serif" font-size="10.00" fill="#000000">_buffer_base</text>
</a>
</g>
</g>
<!-- Node7&#45;&gt;Node6 -->
<g id="edge3" class="edge">
<title>Node7&#45;&gt;Node6</title>
<path fill="none" stroke="#191970" d="M130.386,-47.65C151.4745,-45.6329 175.2361,-43.36 197.9792,-41.1846"/>
<polygon fill="#191970" stroke="#191970" points="129.8856,-44.1818 120.2643,-48.6182 130.5522,-51.15 129.8856,-44.1818"/>
</g>
<!-- Node8 -->
<g id="node5" class="node">
<title>Node8</title>
<g id="a_node5"><a xlink:href="structmfxExtEncoderCapability.html" target="_top" xlink:title="mfxExtEncoderCapability">
<polygon fill="#ffffff" stroke="#000000" points="0,-.5 0,-19.5 128,-19.5 128,-.5 0,-.5"/>
<text text-anchor="middle" x="64" y="-7.5" font-family="Helvetica,sans-Serif" font-size="10.00" fill="#000000">mfxExtEncoderCapability</text>
</a>
</g>
</g>
<!-- Node8&#45;&gt;Node6 -->
<g id="edge4" class="edge">
<title>Node8&#45;&gt;Node6</title>
<path fill="none" stroke="#9a32cd" stroke-dasharray="5,2" d="M138.1027,-17.0881C157.0468,-18.9001 177.6934,-20.875 197.5787,-22.7771"/>
<polygon fill="#9a32cd" stroke="#9a32cd" points="138.3557,-13.5964 128.0678,-16.1282 137.6891,-20.5646 138.3557,-13.5964"/>
<text text-anchor="middle" x="163" y="-24" font-family="Helvetica,sans-Serif" font-size="10.00" fill="#000000"> buffer_</text>
</g>
</g>
</svg>
