<?xml version="1.0" encoding="UTF-8" standalone="no"?>
<!DOCTYPE svg PUBLIC "-//W3C//DTD SVG 1.1//EN"
 "http://www.w3.org/Graphics/SVG/1.1/DTD/svg11.dtd">
<!-- Generated by graphviz version 2.40.1 (20161225.0304)
 -->
<!-- Title: oneapi::vpl::ExtDirtyRect Pages: 1 -->
<svg width="756pt" height="78pt"
 viewBox="0.00 0.00 756.00 77.50" xmlns="http://www.w3.org/2000/svg" xmlns:xlink="http://www.w3.org/1999/xlink">
<g id="graph0" class="graph" transform="scale(1 1) rotate(0) translate(4 73.5)">
<title>oneapi::vpl::ExtDirtyRect</title>
<polygon fill="#ffffff" stroke="transparent" points="-4,4 -4,-73.5 752,-73.5 752,4 -4,4"/>
<!-- Node4 -->
<g id="node1" class="node">
<title>Node4</title>
<polygon fill="#bfbfbf" stroke="#000000" points="621,-22.5 621,-41.5 748,-41.5 748,-22.5 621,-22.5"/>
<text text-anchor="middle" x="684.5" y="-29.5" font-family="Helvetica,sans-Serif" font-size="10.00" fill="#000000">oneapi::vpl::ExtDirtyRect</text>
</g>
<!-- Node5 -->
<g id="node2" class="node">
<title>Node5</title>
<g id="a_node2"><a xlink:href="classoneapi_1_1vpl_1_1extension__buffer__trival.html" target="_top" xlink:title="oneapi::vpl::extension\l_buffer_trival\&lt; mfxExtDirtyRect,\l MFX_EXTBUFF_DIRTY_RECTANGLES \&gt;">
<polygon fill="#ffffff" stroke="#000000" points="374,-11.5 374,-52.5 584,-52.5 584,-11.5 374,-11.5"/>
<text text-anchor="start" x="382" y="-40.5" font-family="Helvetica,sans-Serif" font-size="10.00" fill="#000000">oneapi::vpl::extension</text>
<text text-anchor="start" x="382" y="-29.5" font-family="Helvetica,sans-Serif" font-size="10.00" fill="#000000">_buffer_trival&lt; mfxExtDirtyRect,</text>
<text text-anchor="middle" x="479" y="-18.5" font-family="Helvetica,sans-Serif" font-size="10.00" fill="#000000"> MFX_EXTBUFF_DIRTY_RECTANGLES &gt;</text>
</a>
</g>
</g>
<!-- Node5&#45;&gt;Node4 -->
<g id="edge1" class="edge">
<title>Node5&#45;&gt;Node4</title>
<path fill="none" stroke="#191970" d="M594.4197,-32C603.4721,-32 612.3912,-32 620.8902,-32"/>
<polygon fill="#191970" stroke="#191970" points="594.158,-28.5001 584.158,-32 594.158,-35.5001 594.158,-28.5001"/>
</g>
<!-- Node6 -->
<g id="node3" class="node">
<title>Node6</title>
<g id="a_node3"><a xlink:href="classoneapi_1_1vpl_1_1extension__buffer.html" target="_top" xlink:title="oneapi::vpl::extension\l_buffer\&lt; mfxExtDirtyRect, ID \&gt;">
<polygon fill="#ffffff" stroke="#000000" points="182,-17 182,-47 337,-47 337,-17 182,-17"/>
<text text-anchor="start" x="190" y="-35" font-family="Helvetica,sans-Serif" font-size="10.00" fill="#000000">oneapi::vpl::extension</text>
<text text-anchor="middle" x="259.5" y="-24" font-family="Helvetica,sans-Serif" font-size="10.00" fill="#000000">_buffer&lt; mfxExtDirtyRect, ID &gt;</text>
</a>
</g>
</g>
<!-- Node6&#45;&gt;Node5 -->
<g id="edge2" class="edge">
<title>Node6&#45;&gt;Node5</title>
<path fill="none" stroke="#191970" d="M347.3015,-32C355.9963,-32 364.8827,-32 373.7303,-32"/>
<polygon fill="#191970" stroke="#191970" points="347.1964,-28.5001 337.1964,-32 347.1964,-35.5001 347.1964,-28.5001"/>
</g>
<!-- Node7 -->
<g id="node4" class="node">
<title>Node7</title>
<g id="a_node4"><a xlink:href="classoneapi_1_1vpl_1_1extension__buffer__base.html" target="_top" xlink:title="Interface definition for extension buffers. Extension buffers are used to provide additional data for...">
<polygon fill="#ffffff" stroke="#000000" points="0,-39 0,-69 112,-69 112,-39 0,-39"/>
<text text-anchor="start" x="8" y="-57" font-family="Helvetica,sans-Serif" font-size="10.00" fill="#000000">oneapi::vpl::extension</text>
<text text-anchor="middle" x="56" y="-46" font-family="Helvetica,sans-Serif" font-size="10.00" fill="#000000">_buffer_base</text>
</a>
</g>
</g>
<!-- Node7&#45;&gt;Node6 -->
<g id="edge3" class="edge">
<title>Node7&#45;&gt;Node6</title>
<path fill="none" stroke="#191970" d="M122.2062,-46.8426C141.2402,-44.7848 162.1722,-42.5219 181.8317,-40.3966"/>
<polygon fill="#191970" stroke="#191970" points="121.7118,-43.3755 112.146,-47.9302 122.4643,-50.335 121.7118,-43.3755"/>
</g>
<!-- Node8 -->
<g id="node5" class="node">
<title>Node8</title>
<g id="a_node5"><a xlink:href="structmfxExtDirtyRect.html" target="_top" xlink:title="mfxExtDirtyRect">
<polygon fill="#ffffff" stroke="#000000" points="11,-.5 11,-19.5 101,-19.5 101,-.5 11,-.5"/>
<text text-anchor="middle" x="56" y="-7.5" font-family="Helvetica,sans-Serif" font-size="10.00" fill="#000000">mfxExtDirtyRect</text>
</a>
</g>
</g>
<!-- Node8&#45;&gt;Node6 -->
<g id="edge4" class="edge">
<title>Node8&#45;&gt;Node6</title>
<path fill="none" stroke="#9a32cd" stroke-dasharray="5,2" d="M111.1787,-15.9653C132.8746,-18.3108 158.1726,-21.0457 181.6671,-23.5856"/>
<polygon fill="#9a32cd" stroke="#9a32cd" points="111.4815,-12.4777 101.1632,-14.8825 110.7291,-19.4371 111.4815,-12.4777"/>
<text text-anchor="middle" x="147" y="-25" font-family="Helvetica,sans-Serif" font-size="10.00" fill="#000000"> buffer_</text>
</g>
</g>
</svg>
