<?xml version="1.0" encoding="UTF-8" standalone="no"?>
<!DOCTYPE svg PUBLIC "-//W3C//DTD SVG 1.1//EN"
 "http://www.w3.org/Graphics/SVG/1.1/DTD/svg11.dtd">
<!-- Generated by graphviz version 2.40.1 (20161225.0304)
 -->
<!-- Title: oneapi::vpl::bitstream Pages: 1 -->
<svg width="246pt" height="95pt"
 viewBox="0.00 0.00 246.00 95.00" xmlns="http://www.w3.org/2000/svg" xmlns:xlink="http://www.w3.org/1999/xlink">
<g id="graph0" class="graph" transform="scale(1 1) rotate(0) translate(4 91)">
<title>oneapi::vpl::bitstream</title>
<polygon fill="#ffffff" stroke="transparent" points="-4,4 -4,-91 242,-91 242,4 -4,4"/>
<!-- Node0 -->
<g id="node1" class="node">
<title>Node0</title>
<polygon fill="#bfbfbf" stroke="#000000" points="64,-67.5 64,-86.5 174,-86.5 174,-67.5 64,-67.5"/>
<text text-anchor="middle" x="119" y="-74.5" font-family="Helvetica,sans-Serif" font-size="10.00" fill="#000000">oneapi::vpl::bitstream</text>
</g>
<!-- Node1 -->
<g id="node2" class="node">
<title>Node1</title>
<g id="a_node2"><a xlink:href="classoneapi_1_1vpl_1_1bitstream__as__dst.html" target="_top" xlink:title="Defines the buffer that holds compressed video data. Used as the output from encoder. ">
<polygon fill="#ffffff" stroke="#000000" points="0,-.5 0,-30.5 110,-30.5 110,-.5 0,-.5"/>
<text text-anchor="start" x="8" y="-18.5" font-family="Helvetica,sans-Serif" font-size="10.00" fill="#000000">oneapi::vpl::bitstream</text>
<text text-anchor="middle" x="55" y="-7.5" font-family="Helvetica,sans-Serif" font-size="10.00" fill="#000000">_as_dst</text>
</a>
</g>
</g>
<!-- Node0&#45;&gt;Node1 -->
<g id="edge1" class="edge">
<title>Node0&#45;&gt;Node1</title>
<path fill="none" stroke="#191970" d="M101.5276,-60.2101C91.8809,-50.9403 79.9983,-39.5218 70.6562,-30.5446"/>
<polygon fill="#191970" stroke="#191970" points="99.3644,-62.9854 109,-67.3906 104.2146,-57.9381 99.3644,-62.9854"/>
</g>
<!-- Node2 -->
<g id="node3" class="node">
<title>Node2</title>
<g id="a_node3"><a xlink:href="classoneapi_1_1vpl_1_1bitstream__as__src.html" target="_top" xlink:title="Defines the circular buffer that holds compressed video data. Used as the input to decoder...">
<polygon fill="#ffffff" stroke="#000000" points="128,-.5 128,-30.5 238,-30.5 238,-.5 128,-.5"/>
<text text-anchor="start" x="136" y="-18.5" font-family="Helvetica,sans-Serif" font-size="10.00" fill="#000000">oneapi::vpl::bitstream</text>
<text text-anchor="middle" x="183" y="-7.5" font-family="Helvetica,sans-Serif" font-size="10.00" fill="#000000">_as_src</text>
</a>
</g>
</g>
<!-- Node0&#45;&gt;Node2 -->
<g id="edge2" class="edge">
<title>Node0&#45;&gt;Node2</title>
<path fill="none" stroke="#191970" d="M136.4724,-60.2101C146.1191,-50.9403 158.0017,-39.5218 167.3438,-30.5446"/>
<polygon fill="#191970" stroke="#191970" points="133.7854,-57.9381 129,-67.3906 138.6356,-62.9854 133.7854,-57.9381"/>
</g>
</g>
</svg>
