<?xml version="1.0" encoding="UTF-8" standalone="no"?>
<!DOCTYPE svg PUBLIC "-//W3C//DTD SVG 1.1//EN"
 "http://www.w3.org/Graphics/SVG/1.1/DTD/svg11.dtd">
<!-- Generated by graphviz version 2.40.1 (20161225.0304)
 -->
<!-- Title: oneapi::vpl::decoder_init_reset_list::add_buffer Pages: 1 -->
<svg width="391pt" height="67pt"
 viewBox="0.00 0.00 391.00 66.50" xmlns="http://www.w3.org/2000/svg" xmlns:xlink="http://www.w3.org/1999/xlink">
<g id="graph0" class="graph" transform="scale(1 1) rotate(0) translate(4 62.5)">
<title>oneapi::vpl::decoder_init_reset_list::add_buffer</title>
<polygon fill="#ffffff" stroke="transparent" points="-4,4 -4,-62.5 387,-62.5 387,4 -4,4"/>
<!-- Node6 -->
<g id="node1" class="node">
<title>Node6</title>
<polygon fill="#bfbfbf" stroke="#000000" points="0,-17 0,-58 104,-58 104,-17 0,-17"/>
<text text-anchor="start" x="8" y="-46" font-family="Helvetica,sans-Serif" font-size="10.00" fill="#000000">oneapi::vpl::decoder</text>
<text text-anchor="start" x="8" y="-35" font-family="Helvetica,sans-Serif" font-size="10.00" fill="#000000">_init_reset_list::add</text>
<text text-anchor="middle" x="52" y="-24" font-family="Helvetica,sans-Serif" font-size="10.00" fill="#000000">_buffer</text>
</g>
<!-- Node7 -->
<g id="node2" class="node">
<title>Node7</title>
<g id="a_node2"><a xlink:href="classoneapi_1_1vpl_1_1extension__buffer__base.html#a05f42bf8ebbeb7f697eb53a17a465c73" target="_top" xlink:title="Interface to retieve extension buffer ID in a form of FourCC code. ">
<polygon fill="#ffffff" stroke="#000000" points="271,-22.5 271,-52.5 383,-52.5 383,-22.5 271,-22.5"/>
<text text-anchor="start" x="279" y="-40.5" font-family="Helvetica,sans-Serif" font-size="10.00" fill="#000000">oneapi::vpl::extension</text>
<text text-anchor="middle" x="327" y="-29.5" font-family="Helvetica,sans-Serif" font-size="10.00" fill="#000000">_buffer_base::get_ID</text>
</a>
</g>
</g>
<!-- Node6&#45;&gt;Node7 -->
<g id="edge1" class="edge">
<title>Node6&#45;&gt;Node7</title>
<path fill="none" stroke="#191970" d="M104.1089,-39.5702C115.9089,-39.9572 128.3838,-40.3021 140,-40.5 182.2161,-41.2194 192.7834,-41.1881 235,-40.5 243.2689,-40.3652 251.9542,-40.1623 260.5497,-39.9244"/>
<polygon fill="#191970" stroke="#191970" points="260.6752,-43.4223 270.5684,-39.6309 260.4702,-36.4253 260.6752,-43.4223"/>
</g>
<!-- Node8 -->
<g id="node3" class="node">
<title>Node8</title>
<g id="a_node3"><a xlink:href="classoneapi_1_1vpl_1_1buffer__list.html#aa156fcbd0cd65808fb14ffc2a3ebda5a" target="_top" xlink:title="adds extension buffer pointer to the map ">
<polygon fill="#ffffff" stroke="#000000" points="140,-.5 140,-30.5 235,-30.5 235,-.5 140,-.5"/>
<text text-anchor="start" x="148" y="-18.5" font-family="Helvetica,sans-Serif" font-size="10.00" fill="#000000">oneapi::vpl::buffer</text>
<text text-anchor="middle" x="187.5" y="-7.5" font-family="Helvetica,sans-Serif" font-size="10.00" fill="#000000">_list::add_buffer</text>
</a>
</g>
</g>
<!-- Node6&#45;&gt;Node8 -->
<g id="edge2" class="edge">
<title>Node6&#45;&gt;Node8</title>
<path fill="none" stroke="#191970" d="M104.0003,-29.0571C112.4757,-27.6811 121.2993,-26.2485 129.8996,-24.8521"/>
<polygon fill="#191970" stroke="#191970" points="130.549,-28.2926 139.8588,-23.2351 129.4271,-21.3831 130.549,-28.2926"/>
</g>
<!-- Node8&#45;&gt;Node7 -->
<g id="edge3" class="edge">
<title>Node8&#45;&gt;Node7</title>
<path fill="none" stroke="#191970" d="M235.1178,-23.0096C243.4005,-24.3159 252.1477,-25.6953 260.8211,-27.0632"/>
<polygon fill="#191970" stroke="#191970" points="260.5136,-30.5579 270.9368,-28.6585 261.6041,-23.6433 260.5136,-30.5579"/>
</g>
</g>
</svg>
