<?xml version="1.0" encoding="UTF-8" standalone="no"?>
<!DOCTYPE svg PUBLIC "-//W3C//DTD SVG 1.1//EN"
 "http://www.w3.org/Graphics/SVG/1.1/DTD/svg11.dtd">
<!-- Generated by graphviz version 2.40.1 (20161225.0304)
 -->
<!-- Title: oneapi::vpl::ExtVppAuxData Pages: 1 -->
<svg width="775pt" height="78pt"
 viewBox="0.00 0.00 775.00 77.50" xmlns="http://www.w3.org/2000/svg" xmlns:xlink="http://www.w3.org/1999/xlink">
<g id="graph0" class="graph" transform="scale(1 1) rotate(0) translate(4 73.5)">
<title>oneapi::vpl::ExtVppAuxData</title>
<polygon fill="#ffffff" stroke="transparent" points="-4,4 -4,-73.5 771,-73.5 771,4 -4,4"/>
<!-- Node4 -->
<g id="node1" class="node">
<title>Node4</title>
<polygon fill="#bfbfbf" stroke="#000000" points="627,-22.5 627,-41.5 767,-41.5 767,-22.5 627,-22.5"/>
<text text-anchor="middle" x="697" y="-29.5" font-family="Helvetica,sans-Serif" font-size="10.00" fill="#000000">oneapi::vpl::ExtVppAuxData</text>
</g>
<!-- Node5 -->
<g id="node2" class="node">
<title>Node5</title>
<g id="a_node2"><a xlink:href="classoneapi_1_1vpl_1_1extension__buffer__trival.html" target="_top" xlink:title="oneapi::vpl::extension\l_buffer_trival\&lt; mfxExtVppAux\lData, MFX_EXTBUFF_VPP_AUXDATA \&gt;">
<polygon fill="#ffffff" stroke="#000000" points="387,-11.5 387,-52.5 590,-52.5 590,-11.5 387,-11.5"/>
<text text-anchor="start" x="395" y="-40.5" font-family="Helvetica,sans-Serif" font-size="10.00" fill="#000000">oneapi::vpl::extension</text>
<text text-anchor="start" x="395" y="-29.5" font-family="Helvetica,sans-Serif" font-size="10.00" fill="#000000">_buffer_trival&lt; mfxExtVppAux</text>
<text text-anchor="middle" x="488.5" y="-18.5" font-family="Helvetica,sans-Serif" font-size="10.00" fill="#000000">Data, MFX_EXTBUFF_VPP_AUXDATA &gt;</text>
</a>
</g>
</g>
<!-- Node5&#45;&gt;Node4 -->
<g id="edge1" class="edge">
<title>Node5&#45;&gt;Node4</title>
<path fill="none" stroke="#191970" d="M600.1933,-32C609.2051,-32 618.1424,-32 626.7339,-32"/>
<polygon fill="#191970" stroke="#191970" points="600.0015,-28.5001 590.0015,-32 600.0015,-35.5001 600.0015,-28.5001"/>
</g>
<!-- Node6 -->
<g id="node3" class="node">
<title>Node6</title>
<g id="a_node3"><a xlink:href="classoneapi_1_1vpl_1_1extension__buffer.html" target="_top" xlink:title="oneapi::vpl::extension\l_buffer\&lt; mfxExtVppAuxData, ID \&gt;">
<polygon fill="#ffffff" stroke="#000000" points="182,-17 182,-47 350,-47 350,-17 182,-17"/>
<text text-anchor="start" x="190" y="-35" font-family="Helvetica,sans-Serif" font-size="10.00" fill="#000000">oneapi::vpl::extension</text>
<text text-anchor="middle" x="266" y="-24" font-family="Helvetica,sans-Serif" font-size="10.00" fill="#000000">_buffer&lt; mfxExtVppAuxData, ID &gt;</text>
</a>
</g>
</g>
<!-- Node6&#45;&gt;Node5 -->
<g id="edge2" class="edge">
<title>Node6&#45;&gt;Node5</title>
<path fill="none" stroke="#191970" d="M360.2817,-32C369.007,-32 377.8749,-32 386.6639,-32"/>
<polygon fill="#191970" stroke="#191970" points="360.1177,-28.5001 350.1177,-32 360.1177,-35.5001 360.1177,-28.5001"/>
</g>
<!-- Node7 -->
<g id="node4" class="node">
<title>Node7</title>
<g id="a_node4"><a xlink:href="classoneapi_1_1vpl_1_1extension__buffer__base.html" target="_top" xlink:title="Interface definition for extension buffers. Extension buffers are used to provide additional data for...">
<polygon fill="#ffffff" stroke="#000000" points="0,-39 0,-69 112,-69 112,-39 0,-39"/>
<text text-anchor="start" x="8" y="-57" font-family="Helvetica,sans-Serif" font-size="10.00" fill="#000000">oneapi::vpl::extension</text>
<text text-anchor="middle" x="56" y="-46" font-family="Helvetica,sans-Serif" font-size="10.00" fill="#000000">_buffer_base</text>
</a>
</g>
</g>
<!-- Node7&#45;&gt;Node6 -->
<g id="edge3" class="edge">
<title>Node7&#45;&gt;Node6</title>
<path fill="none" stroke="#191970" d="M121.9996,-47.0858C140.9321,-45.1024 161.8364,-42.9124 181.71,-40.8304"/>
<polygon fill="#191970" stroke="#191970" points="121.5812,-43.6103 112.0003,-48.1333 122.3106,-50.5722 121.5812,-43.6103"/>
</g>
<!-- Node8 -->
<g id="node5" class="node">
<title>Node8</title>
<g id="a_node5"><a xlink:href="structmfxExtVppAuxData.html" target="_top" xlink:title="mfxExtVppAuxData">
<polygon fill="#ffffff" stroke="#000000" points="4,-.5 4,-19.5 108,-19.5 108,-.5 4,-.5"/>
<text text-anchor="middle" x="56" y="-7.5" font-family="Helvetica,sans-Serif" font-size="10.00" fill="#000000">mfxExtVppAuxData</text>
</a>
</g>
</g>
<!-- Node8&#45;&gt;Node6 -->
<g id="edge4" class="edge">
<title>Node8&#45;&gt;Node6</title>
<path fill="none" stroke="#9a32cd" stroke-dasharray="5,2" d="M118.3421,-16.5311C138.2411,-18.6157 160.6029,-20.9584 181.7885,-23.1778"/>
<polygon fill="#9a32cd" stroke="#9a32cd" points="118.4902,-13.0275 108.1799,-15.4665 117.7608,-19.9894 118.4902,-13.0275"/>
<text text-anchor="middle" x="147" y="-24" font-family="Helvetica,sans-Serif" font-size="10.00" fill="#000000"> buffer_</text>
</g>
</g>
</svg>
