<?xml version="1.0" encoding="UTF-8" standalone="no"?>
<!DOCTYPE svg PUBLIC "-//W3C//DTD SVG 1.1//EN"
 "http://www.w3.org/Graphics/SVG/1.1/DTD/svg11.dtd">
<!-- Generated by graphviz version 2.40.1 (20161225.0304)
 -->
<!-- Title: oneapi::vpl::payload::ctor_helper Pages: 1 -->
<svg width="252pt" height="88pt"
 viewBox="0.00 0.00 252.00 88.00" xmlns="http://www.w3.org/2000/svg" xmlns:xlink="http://www.w3.org/1999/xlink">
<g id="graph0" class="graph" transform="scale(1 1) rotate(0) translate(4 84)">
<title>oneapi::vpl::payload::ctor_helper</title>
<polygon fill="#ffffff" stroke="transparent" points="-4,4 -4,-84 248,-84 248,4 -4,4"/>
<!-- Node13 -->
<g id="node1" class="node">
<title>Node13</title>
<polygon fill="#bfbfbf" stroke="#000000" points="0,-24.5 0,-54.5 104,-54.5 104,-24.5 0,-24.5"/>
<text text-anchor="start" x="8" y="-42.5" font-family="Helvetica,sans-Serif" font-size="10.00" fill="#000000">oneapi::vpl::payload</text>
<text text-anchor="middle" x="52" y="-31.5" font-family="Helvetica,sans-Serif" font-size="10.00" fill="#000000">::ctor_helper</text>
</g>
<!-- Node14 -->
<g id="node2" class="node">
<title>Node14</title>
<g id="a_node2"><a xlink:href="classoneapi_1_1vpl_1_1payload.html#a92956ee734222bdb49eb29a44294d3a2" target="_top" xlink:title="Copy ctor. ">
<polygon fill="#ffffff" stroke="#000000" points="140,-49.5 140,-79.5 244,-79.5 244,-49.5 140,-49.5"/>
<text text-anchor="start" x="148" y="-67.5" font-family="Helvetica,sans-Serif" font-size="10.00" fill="#000000">oneapi::vpl::payload</text>
<text text-anchor="middle" x="192" y="-56.5" font-family="Helvetica,sans-Serif" font-size="10.00" fill="#000000">::payload</text>
</a>
</g>
</g>
<!-- Node13&#45;&gt;Node14 -->
<g id="edge1" class="edge">
<title>Node13&#45;&gt;Node14</title>
<path fill="none" stroke="#191970" d="M114.1068,-50.5905C122.6945,-52.124 131.4428,-53.6862 139.8256,-55.1831"/>
<polygon fill="#191970" stroke="#191970" points="114.5904,-47.1216 104.1308,-48.8091 113.3598,-54.0126 114.5904,-47.1216"/>
</g>
<!-- Node15 -->
<g id="node3" class="node">
<title>Node15</title>
<g id="a_node3"><a xlink:href="classoneapi_1_1vpl_1_1payload.html#a676dc6b2b6b878ea511c62b95d98a3e2" target="_top" xlink:title="Assignment operator. ">
<polygon fill="#ffffff" stroke="#000000" points="140,-.5 140,-30.5 244,-30.5 244,-.5 140,-.5"/>
<text text-anchor="start" x="148" y="-18.5" font-family="Helvetica,sans-Serif" font-size="10.00" fill="#000000">oneapi::vpl::payload</text>
<text text-anchor="middle" x="192" y="-7.5" font-family="Helvetica,sans-Serif" font-size="10.00" fill="#000000">::operator=</text>
</a>
</g>
</g>
<!-- Node13&#45;&gt;Node15 -->
<g id="edge2" class="edge">
<title>Node13&#45;&gt;Node15</title>
<path fill="none" stroke="#191970" d="M114.1068,-28.8531C122.6945,-27.3809 131.4428,-25.8812 139.8256,-24.4442"/>
<polygon fill="#191970" stroke="#191970" points="113.3957,-25.4239 104.1308,-30.5633 114.5785,-32.3232 113.3957,-25.4239"/>
</g>
</g>
</svg>
