<?xml version="1.0" encoding="UTF-8" standalone="no"?>
<!DOCTYPE svg PUBLIC "-//W3C//DTD SVG 1.1//EN"
 "http://www.w3.org/Graphics/SVG/1.1/DTD/svg11.dtd">
<!-- Generated by graphviz version 2.40.1 (20161225.0304)
 -->
<!-- Title: oneapi::vpl::extension_buffer_base::get_ID Pages: 1 -->
<svg width="448pt" height="1281pt"
 viewBox="0.00 0.00 448.00 1280.50" xmlns="http://www.w3.org/2000/svg" xmlns:xlink="http://www.w3.org/1999/xlink">
<g id="graph0" class="graph" transform="scale(1 1) rotate(0) translate(4 1276.5)">
<title>oneapi::vpl::extension_buffer_base::get_ID</title>
<polygon fill="#ffffff" stroke="transparent" points="-4,4 -4,-1276.5 444,-1276.5 444,4 -4,4"/>
<!-- Node3 -->
<g id="node1" class="node">
<title>Node3</title>
<polygon fill="#bfbfbf" stroke="#000000" points="0,-452.5 0,-482.5 112,-482.5 112,-452.5 0,-452.5"/>
<text text-anchor="start" x="8" y="-470.5" font-family="Helvetica,sans-Serif" font-size="10.00" fill="#000000">oneapi::vpl::extension</text>
<text text-anchor="middle" x="56" y="-459.5" font-family="Helvetica,sans-Serif" font-size="10.00" fill="#000000">_buffer_base::get_ID</text>
</g>
<!-- Node4 -->
<g id="node2" class="node">
<title>Node4</title>
<g id="a_node2"><a xlink:href="classoneapi_1_1vpl_1_1extension__buffer__base.html#a967ccde4fcac39b3a12620e5e09ff341" target="_top" xlink:title="Dtor. ">
<polygon fill="#ffffff" stroke="#000000" points="148,-712 148,-753 275,-753 275,-712 148,-712"/>
<text text-anchor="start" x="156" y="-741" font-family="Helvetica,sans-Serif" font-size="10.00" fill="#000000">oneapi::vpl::extension</text>
<text text-anchor="start" x="156" y="-730" font-family="Helvetica,sans-Serif" font-size="10.00" fill="#000000">_buffer_base::~extension</text>
<text text-anchor="middle" x="211.5" y="-719" font-family="Helvetica,sans-Serif" font-size="10.00" fill="#000000">_buffer_base</text>
</a>
</g>
</g>
<!-- Node3&#45;&gt;Node4 -->
<g id="edge1" class="edge">
<title>Node3&#45;&gt;Node4</title>
<path fill="none" stroke="#191970" d="M60.2366,-492.4248C69.1201,-538.0353 93.5542,-635.8938 148,-697.5 152.8349,-702.9707 158.7385,-707.7591 164.9783,-711.8935"/>
<polygon fill="#191970" stroke="#191970" points="63.6618,-491.6997 58.3924,-482.5082 56.7798,-492.9796 63.6618,-491.6997"/>
</g>
<!-- Node5 -->
<g id="node3" class="node">
<title>Node5</title>
<g id="a_node3"><a xlink:href="classoneapi_1_1vpl_1_1buffer__list.html#aa156fcbd0cd65808fb14ffc2a3ebda5a" target="_top" xlink:title="adds extension buffer pointer to the map ">
<polygon fill="#ffffff" stroke="#000000" points="164,-548.5 164,-578.5 259,-578.5 259,-548.5 164,-548.5"/>
<text text-anchor="start" x="172" y="-566.5" font-family="Helvetica,sans-Serif" font-size="10.00" fill="#000000">oneapi::vpl::buffer</text>
<text text-anchor="middle" x="211.5" y="-555.5" font-family="Helvetica,sans-Serif" font-size="10.00" fill="#000000">_list::add_buffer</text>
</a>
</g>
</g>
<!-- Node3&#45;&gt;Node5 -->
<g id="edge2" class="edge">
<title>Node3&#45;&gt;Node5</title>
<path fill="none" stroke="#191970" d="M89.2991,-488.0576C118.6173,-506.1576 160.6342,-532.0973 186.9758,-548.3597"/>
<polygon fill="#191970" stroke="#191970" points="90.9871,-484.9865 80.6394,-482.7115 87.3099,-490.9429 90.9871,-484.9865"/>
</g>
<!-- Node7 -->
<g id="node5" class="node">
<title>Node7</title>
<g id="a_node5"><a xlink:href="classoneapi_1_1vpl_1_1decoder__init__reset__list.html#a42700756569ce84e146b23b0d47e6ba1" target="_top" xlink:title="Add extension buffer to list. ">
<polygon fill="#ffffff" stroke="#000000" points="323.5,-1231 323.5,-1272 427.5,-1272 427.5,-1231 323.5,-1231"/>
<text text-anchor="start" x="331.5" y="-1260" font-family="Helvetica,sans-Serif" font-size="10.00" fill="#000000">oneapi::vpl::decoder</text>
<text text-anchor="start" x="331.5" y="-1249" font-family="Helvetica,sans-Serif" font-size="10.00" fill="#000000">_init_reset_list::add</text>
<text text-anchor="middle" x="375.5" y="-1238" font-family="Helvetica,sans-Serif" font-size="10.00" fill="#000000">_buffer</text>
</a>
</g>
</g>
<!-- Node3&#45;&gt;Node7 -->
<g id="edge27" class="edge">
<title>Node3&#45;&gt;Node7</title>
<path fill="none" stroke="#191970" d="M61.2767,-492.7302C71.1447,-533.7414 96.2474,-614.8634 148,-660.5 192.5903,-699.8207 238.534,-655.5463 275,-702.5 345.913,-793.8079 245.4976,-1126.2361 311,-1221.5 314.2887,-1226.2829 318.5439,-1230.3208 323.2999,-1233.726"/>
<polygon fill="#191970" stroke="#191970" points="64.6348,-491.7152 58.988,-482.7506 57.8119,-493.2799 64.6348,-491.7152"/>
</g>
<!-- Node10 -->
<g id="node8" class="node">
<title>Node10</title>
<g id="a_node8"><a xlink:href="classoneapi_1_1vpl_1_1decoder__init__header__list.html#abffafe126a823e1b59db1688bea1f2f0" target="_top" xlink:title="Add extension buffer to list. ">
<polygon fill="#ffffff" stroke="#000000" points="321,-1171 321,-1212 430,-1212 430,-1171 321,-1171"/>
<text text-anchor="start" x="329" y="-1200" font-family="Helvetica,sans-Serif" font-size="10.00" fill="#000000">oneapi::vpl::decoder</text>
<text text-anchor="start" x="329" y="-1189" font-family="Helvetica,sans-Serif" font-size="10.00" fill="#000000">_init_header_list::add</text>
<text text-anchor="middle" x="375.5" y="-1178" font-family="Helvetica,sans-Serif" font-size="10.00" fill="#000000">_buffer</text>
</a>
</g>
</g>
<!-- Node3&#45;&gt;Node10 -->
<g id="edge28" class="edge">
<title>Node3&#45;&gt;Node10</title>
<path fill="none" stroke="#191970" d="M64.5049,-492.383C77.3943,-526.5583 105.0236,-587.8324 148,-623.5 194.1957,-661.8394 238.7566,-621.6422 275,-669.5 341.1837,-756.8927 248.7175,-1071.2854 311,-1161.5 313.7364,-1165.4636 317.136,-1168.9158 320.9333,-1171.9205"/>
<polygon fill="#191970" stroke="#191970" points="67.6903,-490.9019 60.9773,-482.7052 61.1136,-493.2992 67.6903,-490.9019"/>
</g>
<!-- Node13 -->
<g id="node11" class="node">
<title>Node13</title>
<g id="a_node11"><a xlink:href="classoneapi_1_1vpl_1_1decoder__process__list.html#ad5a94ded300dacfbc0dd10385ac49730" target="_top" xlink:title="Add extension buffer to list. ">
<polygon fill="#ffffff" stroke="#000000" points="312.5,-1121.5 312.5,-1151.5 438.5,-1151.5 438.5,-1121.5 312.5,-1121.5"/>
<text text-anchor="start" x="320.5" y="-1139.5" font-family="Helvetica,sans-Serif" font-size="10.00" fill="#000000">oneapi::vpl::decoder</text>
<text text-anchor="middle" x="375.5" y="-1128.5" font-family="Helvetica,sans-Serif" font-size="10.00" fill="#000000">_process_list::add_buffer</text>
</a>
</g>
</g>
<!-- Node3&#45;&gt;Node13 -->
<g id="edge29" class="edge">
<title>Node3&#45;&gt;Node13</title>
<path fill="none" stroke="#191970" d="M68.5788,-491.7382C83.8801,-518.9692 112.1648,-562.7221 148,-588.5 196.376,-623.2991 238.4822,-584.4079 275,-631.5 340.5485,-716.0291 247.2968,-1025.5717 311,-1111.5 313.8609,-1115.359 317.4025,-1118.6225 321.3422,-1121.3822"/>
<polygon fill="#191970" stroke="#191970" points="71.5873,-489.9448 63.717,-482.8519 65.4463,-493.3047 71.5873,-489.9448"/>
</g>
<!-- Node16 -->
<g id="node14" class="node">
<title>Node16</title>
<g id="a_node14"><a xlink:href="classoneapi_1_1vpl_1_1encoder__init__list.html#af125474d512633a5d593461387c5778f" target="_top" xlink:title="Add extension buffer to list. ">
<polygon fill="#ffffff" stroke="#000000" points="323.5,-196.5 323.5,-226.5 427.5,-226.5 427.5,-196.5 323.5,-196.5"/>
<text text-anchor="start" x="331.5" y="-214.5" font-family="Helvetica,sans-Serif" font-size="10.00" fill="#000000">oneapi::vpl::encoder</text>
<text text-anchor="middle" x="375.5" y="-203.5" font-family="Helvetica,sans-Serif" font-size="10.00" fill="#000000">_init_list::add_buffer</text>
</a>
</g>
</g>
<!-- Node3&#45;&gt;Node16 -->
<g id="edge30" class="edge">
<title>Node3&#45;&gt;Node16</title>
<path fill="none" stroke="#191970" d="M83.6796,-446.169C126.5128,-412.6362 210.6269,-344.6734 275,-279.5 292.5151,-261.7671 290.7401,-251.018 311,-236.5 316.2715,-232.7225 322.189,-229.4263 328.2454,-226.5764"/>
<polygon fill="#191970" stroke="#191970" points="81.4153,-443.4963 75.6815,-452.4055 85.7197,-449.0165 81.4153,-443.4963"/>
</g>
<!-- Node19 -->
<g id="node17" class="node">
<title>Node19</title>
<g id="a_node17"><a xlink:href="classoneapi_1_1vpl_1_1encoder__reset__list.html#aecf0f701a98fb450fad8ae7cc9400c6a" target="_top" xlink:title="Add extension buffer to list. ">
<polygon fill="#ffffff" stroke="#000000" points="319,-147.5 319,-177.5 432,-177.5 432,-147.5 319,-147.5"/>
<text text-anchor="start" x="327" y="-165.5" font-family="Helvetica,sans-Serif" font-size="10.00" fill="#000000">oneapi::vpl::encoder</text>
<text text-anchor="middle" x="375.5" y="-154.5" font-family="Helvetica,sans-Serif" font-size="10.00" fill="#000000">_reset_list::add_buffer</text>
</a>
</g>
</g>
<!-- Node3&#45;&gt;Node19 -->
<g id="edge31" class="edge">
<title>Node3&#45;&gt;Node19</title>
<path fill="none" stroke="#191970" d="M61.5816,-442.6587C71.829,-402.6618 97.3911,-323.9844 148,-279.5 192.7591,-240.1575 226.9118,-271.6957 275,-236.5 296.8068,-220.5396 289.5438,-203.9287 311,-187.5 315.9584,-183.7034 321.5637,-180.4177 327.3486,-177.5919"/>
<polygon fill="#191970" stroke="#191970" points="58.1746,-441.8569 59.1944,-452.4026 64.9735,-443.5227 58.1746,-441.8569"/>
</g>
<!-- Node22 -->
<g id="node20" class="node">
<title>Node22</title>
<g id="a_node20"><a xlink:href="classoneapi_1_1vpl_1_1encoder__process__list.html#a7bda93fd88f78a74b96bc0f2aaed7e7c" target="_top" xlink:title="Add extension buffer to list. ">
<polygon fill="#ffffff" stroke="#000000" points="312.5,-98.5 312.5,-128.5 438.5,-128.5 438.5,-98.5 312.5,-98.5"/>
<text text-anchor="start" x="320.5" y="-116.5" font-family="Helvetica,sans-Serif" font-size="10.00" fill="#000000">oneapi::vpl::encoder</text>
<text text-anchor="middle" x="375.5" y="-105.5" font-family="Helvetica,sans-Serif" font-size="10.00" fill="#000000">_process_list::add_buffer</text>
</a>
</g>
</g>
<!-- Node3&#45;&gt;Node22 -->
<g id="edge32" class="edge">
<title>Node3&#45;&gt;Node22</title>
<path fill="none" stroke="#191970" d="M59.3224,-442.3655C66.7797,-395.6254 89.0658,-294.8021 148,-236.5 191.01,-193.9513 226.9358,-224.2435 275,-187.5 296.4688,-171.0878 289.5438,-154.9287 311,-138.5 315.9584,-134.7034 321.5637,-131.4177 327.3486,-128.5919"/>
<polygon fill="#191970" stroke="#191970" points="55.8608,-441.8494 57.8394,-452.2578 62.7834,-442.8873 55.8608,-441.8494"/>
</g>
<!-- Node25 -->
<g id="node23" class="node">
<title>Node25</title>
<g id="a_node23"><a xlink:href="classoneapi_1_1vpl_1_1vpp__init__reset__list.html#a9caffbc7519d3c048437a01873ffe1d5" target="_top" xlink:title="Add extension buffer to list. ">
<polygon fill="#ffffff" stroke="#000000" points="319,-49.5 319,-79.5 432,-79.5 432,-49.5 319,-49.5"/>
<text text-anchor="start" x="327" y="-67.5" font-family="Helvetica,sans-Serif" font-size="10.00" fill="#000000">oneapi::vpl::vpp_init</text>
<text text-anchor="middle" x="375.5" y="-56.5" font-family="Helvetica,sans-Serif" font-size="10.00" fill="#000000">_reset_list::add_buffer</text>
</a>
</g>
</g>
<!-- Node3&#45;&gt;Node25 -->
<g id="edge33" class="edge">
<title>Node3&#45;&gt;Node25</title>
<path fill="none" stroke="#191970" d="M57.7403,-442.1477C62.6772,-388.7133 81.1185,-263.2274 148,-187.5 189.3248,-140.7095 224.4434,-164.1212 275,-127.5 293.8409,-113.8524 291.6828,-102.4646 311,-89.5 316.5843,-85.7521 322.8119,-82.4477 329.1341,-79.572"/>
<polygon fill="#191970" stroke="#191970" points="54.2275,-442.155 56.8793,-452.4126 61.203,-442.7402 54.2275,-442.155"/>
</g>
<!-- Node28 -->
<g id="node26" class="node">
<title>Node28</title>
<g id="a_node26"><a xlink:href="classoneapi_1_1vpl_1_1vpp__process__list.html#a8748d973830fd86db8274d721a1d58b8" target="_top" xlink:title="Add extension buffer to list. ">
<polygon fill="#ffffff" stroke="#000000" points="313,-.5 313,-30.5 438,-30.5 438,-.5 313,-.5"/>
<text text-anchor="start" x="321" y="-18.5" font-family="Helvetica,sans-Serif" font-size="10.00" fill="#000000">oneapi::vpl::vpp_process</text>
<text text-anchor="middle" x="375.5" y="-7.5" font-family="Helvetica,sans-Serif" font-size="10.00" fill="#000000">_list::add_buffer</text>
</a>
</g>
</g>
<!-- Node3&#45;&gt;Node28 -->
<g id="edge34" class="edge">
<title>Node3&#45;&gt;Node28</title>
<path fill="none" stroke="#191970" d="M60.1691,-442.2098C72.1248,-372.1527 108.2307,-177.4519 148,-127.5 189.4047,-75.494 261.1156,-45.8723 312.9755,-30.3221"/>
<polygon fill="#191970" stroke="#191970" points="56.6721,-441.8994 58.4607,-452.3421 63.5747,-443.0632 56.6721,-441.8994"/>
</g>
<!-- Node6 -->
<g id="node4" class="node">
<title>Node6</title>
<g id="a_node4"><a xlink:href="classoneapi_1_1vpl_1_1decoder__init__reset__list.html#a19f3bf0d2b5e76a41c90e467eefa49a4" target="_top" xlink:title="ctor ">
<polygon fill="#ffffff" stroke="#000000" points="315.5,-633 315.5,-674 435.5,-674 435.5,-633 315.5,-633"/>
<text text-anchor="start" x="323.5" y="-662" font-family="Helvetica,sans-Serif" font-size="10.00" fill="#000000">oneapi::vpl::decoder</text>
<text text-anchor="start" x="323.5" y="-651" font-family="Helvetica,sans-Serif" font-size="10.00" fill="#000000">_init_reset_list::decoder</text>
<text text-anchor="middle" x="375.5" y="-640" font-family="Helvetica,sans-Serif" font-size="10.00" fill="#000000">_init_reset_list</text>
</a>
</g>
</g>
<!-- Node5&#45;&gt;Node6 -->
<g id="edge3" class="edge">
<title>Node5&#45;&gt;Node6</title>
<path fill="none" stroke="#191970" d="M256.7538,-583.1359C263.0208,-586.3542 269.2685,-589.842 275,-593.5 292.5565,-604.7049 293.41,-612.3479 311,-623.5 316.2151,-626.8064 321.8536,-629.9657 327.5511,-632.9091"/>
<polygon fill="#191970" stroke="#191970" points="258.1323,-579.9132 247.6161,-578.6252 255.0338,-586.1901 258.1323,-579.9132"/>
</g>
<!-- Node5&#45;&gt;Node7 -->
<g id="edge4" class="edge">
<title>Node5&#45;&gt;Node7</title>
<path fill="none" stroke="#191970" d="M229.8032,-586.6099C244.892,-607.099 265.3283,-638.5004 275,-669.5 311.6122,-786.8484 241.5612,-1120.0635 311,-1221.5 314.2788,-1226.2897 318.5277,-1230.3319 323.2801,-1233.7396"/>
<polygon fill="#191970" stroke="#191970" points="232.526,-584.4074 223.7109,-578.5299 226.9367,-588.6217 232.526,-584.4074"/>
</g>
<!-- Node8 -->
<g id="node6" class="node">
<title>Node8</title>
<g id="a_node6"><a xlink:href="classoneapi_1_1vpl_1_1decoder__init__reset__list.html#a5a2e44cf757eeb224329b9fcbd32d7c0" target="_top" xlink:title="Variadic length ctor helper. It adds extension buffers one by one to the map of buffers. ">
<polygon fill="#ffffff" stroke="#000000" points="323.5,-573 323.5,-614 427.5,-614 427.5,-573 323.5,-573"/>
<text text-anchor="start" x="331.5" y="-602" font-family="Helvetica,sans-Serif" font-size="10.00" fill="#000000">oneapi::vpl::decoder</text>
<text text-anchor="start" x="331.5" y="-591" font-family="Helvetica,sans-Serif" font-size="10.00" fill="#000000">_init_reset_list::ctor</text>
<text text-anchor="middle" x="375.5" y="-580" font-family="Helvetica,sans-Serif" font-size="10.00" fill="#000000">_helper</text>
</a>
</g>
</g>
<!-- Node5&#45;&gt;Node8 -->
<g id="edge5" class="edge">
<title>Node5&#45;&gt;Node8</title>
<path fill="none" stroke="#191970" d="M269.4816,-574.1064C287.0058,-577.312 306.1351,-580.8113 323.2607,-583.944"/>
<polygon fill="#191970" stroke="#191970" points="269.8431,-570.6145 259.3765,-572.2579 268.5834,-577.5002 269.8431,-570.6145"/>
</g>
<!-- Node9 -->
<g id="node7" class="node">
<title>Node9</title>
<g id="a_node7"><a xlink:href="classoneapi_1_1vpl_1_1decoder__init__header__list.html#a0402d3c4c42420b4cb52fc0af7990c7b" target="_top" xlink:title="ctor ">
<polygon fill="#ffffff" stroke="#000000" points="311.5,-513 311.5,-554 439.5,-554 439.5,-513 311.5,-513"/>
<text text-anchor="start" x="319.5" y="-542" font-family="Helvetica,sans-Serif" font-size="10.00" fill="#000000">oneapi::vpl::decoder</text>
<text text-anchor="start" x="319.5" y="-531" font-family="Helvetica,sans-Serif" font-size="10.00" fill="#000000">_init_header_list::decoder</text>
<text text-anchor="middle" x="375.5" y="-520" font-family="Helvetica,sans-Serif" font-size="10.00" fill="#000000">_init_header_list</text>
</a>
</g>
</g>
<!-- Node5&#45;&gt;Node9 -->
<g id="edge6" class="edge">
<title>Node5&#45;&gt;Node9</title>
<path fill="none" stroke="#191970" d="M269.528,-552.8851C283.0835,-550.4055 297.5973,-547.7505 311.3997,-545.2257"/>
<polygon fill="#191970" stroke="#191970" points="268.5834,-549.4998 259.3765,-554.7421 269.8431,-556.3855 268.5834,-549.4998"/>
</g>
<!-- Node5&#45;&gt;Node10 -->
<g id="edge7" class="edge">
<title>Node5&#45;&gt;Node10</title>
<path fill="none" stroke="#191970" d="M239.2905,-585.2658C252.5555,-597.343 267.2046,-613.5401 275,-631.5 322.002,-739.7886 244.1855,-1064.1787 311,-1161.5 313.7261,-1165.4708 317.1185,-1168.9279 320.911,-1171.9358"/>
<polygon fill="#191970" stroke="#191970" points="241.5396,-582.5833 231.7024,-578.6488 236.9389,-587.8591 241.5396,-582.5833"/>
</g>
<!-- Node11 -->
<g id="node9" class="node">
<title>Node11</title>
<g id="a_node9"><a xlink:href="classoneapi_1_1vpl_1_1decoder__init__header__list.html#a16d13861650c26a143af88e9deef194b" target="_top" xlink:title="Variadic length ctor helper. It adds extension buffers one by one to the map of buffers. ">
<polygon fill="#ffffff" stroke="#000000" points="320.5,-453 320.5,-494 430.5,-494 430.5,-453 320.5,-453"/>
<text text-anchor="start" x="328.5" y="-482" font-family="Helvetica,sans-Serif" font-size="10.00" fill="#000000">oneapi::vpl::decoder</text>
<text text-anchor="start" x="328.5" y="-471" font-family="Helvetica,sans-Serif" font-size="10.00" fill="#000000">_init_header_list::ctor</text>
<text text-anchor="middle" x="375.5" y="-460" font-family="Helvetica,sans-Serif" font-size="10.00" fill="#000000">_helper</text>
</a>
</g>
</g>
<!-- Node5&#45;&gt;Node11 -->
<g id="edge8" class="edge">
<title>Node5&#45;&gt;Node11</title>
<path fill="none" stroke="#191970" d="M243.486,-543.0138C262.7506,-530.9788 287.9401,-515.7701 311,-503.5 316.9964,-500.3093 323.3934,-497.1049 329.7421,-494.0399"/>
<polygon fill="#191970" stroke="#191970" points="241.4134,-540.1826 234.811,-548.4687 245.1396,-546.1085 241.4134,-540.1826"/>
</g>
<!-- Node12 -->
<g id="node10" class="node">
<title>Node12</title>
<g id="a_node10"><a xlink:href="classoneapi_1_1vpl_1_1decoder__process__list.html#a9e00e8f4babf896f8b8af0790d92368d" target="_top" xlink:title="ctor ">
<polygon fill="#ffffff" stroke="#000000" points="318,-393 318,-434 433,-434 433,-393 318,-393"/>
<text text-anchor="start" x="326" y="-422" font-family="Helvetica,sans-Serif" font-size="10.00" fill="#000000">oneapi::vpl::decoder</text>
<text text-anchor="start" x="326" y="-411" font-family="Helvetica,sans-Serif" font-size="10.00" fill="#000000">_process_list::decoder</text>
<text text-anchor="middle" x="375.5" y="-400" font-family="Helvetica,sans-Serif" font-size="10.00" fill="#000000">_process_list</text>
</a>
</g>
</g>
<!-- Node5&#45;&gt;Node12 -->
<g id="edge9" class="edge">
<title>Node5&#45;&gt;Node12</title>
<path fill="none" stroke="#191970" d="M226.4343,-539.7887C244.0053,-513.4425 275.3431,-470.9989 311,-443.5 315.4008,-440.1061 320.2474,-436.9784 325.2471,-434.1282"/>
<polygon fill="#191970" stroke="#191970" points="223.3558,-538.1013 220.8089,-548.3855 229.2132,-541.9343 223.3558,-538.1013"/>
</g>
<!-- Node5&#45;&gt;Node13 -->
<g id="edge10" class="edge">
<title>Node5&#45;&gt;Node13</title>
<path fill="none" stroke="#191970" d="M266.8394,-584.4842C269.9304,-587.1492 272.7053,-590.1417 275,-593.5 340.0974,-688.7727 242.5347,-1018.6179 311,-1111.5 313.8503,-1115.3669 317.3847,-1118.6357 321.3196,-1121.3989"/>
<polygon fill="#191970" stroke="#191970" points="268.7496,-581.5461 258.5983,-578.5125 264.6422,-587.2144 268.7496,-581.5461"/>
</g>
<!-- Node14 -->
<g id="node12" class="node">
<title>Node14</title>
<g id="a_node12"><a xlink:href="classoneapi_1_1vpl_1_1decoder__process__list.html#ad10c577bc6de7d342bce687757cf0393" target="_top" xlink:title="Variadic length ctor helper. It adds extension buffers one by one to the map of buffers. ">
<polygon fill="#ffffff" stroke="#000000" points="311.5,-343.5 311.5,-373.5 439.5,-373.5 439.5,-343.5 311.5,-343.5"/>
<text text-anchor="start" x="319.5" y="-361.5" font-family="Helvetica,sans-Serif" font-size="10.00" fill="#000000">oneapi::vpl::decoder</text>
<text text-anchor="middle" x="375.5" y="-350.5" font-family="Helvetica,sans-Serif" font-size="10.00" fill="#000000">_process_list::ctor_helper</text>
</a>
</g>
</g>
<!-- Node5&#45;&gt;Node14 -->
<g id="edge11" class="edge">
<title>Node5&#45;&gt;Node14</title>
<path fill="none" stroke="#191970" d="M219.0941,-538.5915C231.997,-500.2077 261.7073,-426.5412 311,-383.5 315.4327,-379.6295 320.5316,-376.3247 325.8792,-373.511"/>
<polygon fill="#191970" stroke="#191970" points="215.6598,-537.8351 215.8982,-548.4273 222.3171,-539.9983 215.6598,-537.8351"/>
</g>
<!-- Node15 -->
<g id="node13" class="node">
<title>Node15</title>
<g id="a_node13"><a xlink:href="classoneapi_1_1vpl_1_1encoder__init__list.html#aa7cbc795175073f63f42985ef5772f36" target="_top" xlink:title="ctor ">
<polygon fill="#ffffff" stroke="#000000" points="311,-294.5 311,-324.5 440,-324.5 440,-294.5 311,-294.5"/>
<text text-anchor="start" x="319" y="-312.5" font-family="Helvetica,sans-Serif" font-size="10.00" fill="#000000">oneapi::vpl::encoder</text>
<text text-anchor="middle" x="375.5" y="-301.5" font-family="Helvetica,sans-Serif" font-size="10.00" fill="#000000">_init_list::encoder_init_list</text>
</a>
</g>
</g>
<!-- Node5&#45;&gt;Node15 -->
<g id="edge12" class="edge">
<title>Node5&#45;&gt;Node15</title>
<path fill="none" stroke="#191970" d="M215.8458,-538.2658C225.12,-491.7635 251.0943,-392.0493 311,-334.5 314.9839,-330.6728 319.6187,-327.4138 324.5417,-324.6424"/>
<polygon fill="#191970" stroke="#191970" points="212.3533,-537.8977 213.9285,-548.3748 219.2307,-539.2022 212.3533,-537.8977"/>
</g>
<!-- Node5&#45;&gt;Node16 -->
<g id="edge13" class="edge">
<title>Node5&#45;&gt;Node16</title>
<path fill="none" stroke="#191970" d="M217.8752,-538.0496C236.3221,-465.1571 289.7842,-259.3558 311,-236.5 314.595,-232.6271 318.8596,-229.347 323.4574,-226.5703"/>
<polygon fill="#191970" stroke="#191970" points="214.3716,-537.6296 215.3202,-548.1819 221.1592,-539.3412 214.3716,-537.6296"/>
</g>
<!-- Node17 -->
<g id="node15" class="node">
<title>Node17</title>
<g id="a_node15"><a xlink:href="classoneapi_1_1vpl_1_1encoder__init__list.html#a5b24683c618072d856afbad20519292e" target="_top" xlink:title="Variadic length ctor helper. It adds extension buffers one by one to the map of buffers. ">
<polygon fill="#ffffff" stroke="#000000" points="322,-245.5 322,-275.5 429,-275.5 429,-245.5 322,-245.5"/>
<text text-anchor="start" x="330" y="-263.5" font-family="Helvetica,sans-Serif" font-size="10.00" fill="#000000">oneapi::vpl::encoder</text>
<text text-anchor="middle" x="375.5" y="-252.5" font-family="Helvetica,sans-Serif" font-size="10.00" fill="#000000">_init_list::ctor_helper</text>
</a>
</g>
</g>
<!-- Node5&#45;&gt;Node17 -->
<g id="edge14" class="edge">
<title>Node5&#45;&gt;Node17</title>
<path fill="none" stroke="#191970" d="M213.6123,-538.2443C219.4117,-484.5747 240.2178,-358.1513 311,-285.5 314.7713,-281.6291 319.2098,-278.3466 323.9643,-275.5652"/>
<polygon fill="#191970" stroke="#191970" points="210.1232,-537.9621 212.616,-548.2595 217.0888,-538.6551 210.1232,-537.9621"/>
</g>
<!-- Node18 -->
<g id="node16" class="node">
<title>Node18</title>
<g id="a_node16"><a xlink:href="classoneapi_1_1vpl_1_1encoder__reset__list.html#ab70a5f0fef677a1f03b4668e78524a84" target="_top" xlink:title="ctor ">
<polygon fill="#ffffff" stroke="#000000" points="323.5,-1061 323.5,-1102 427.5,-1102 427.5,-1061 323.5,-1061"/>
<text text-anchor="start" x="331.5" y="-1090" font-family="Helvetica,sans-Serif" font-size="10.00" fill="#000000">oneapi::vpl::encoder</text>
<text text-anchor="start" x="331.5" y="-1079" font-family="Helvetica,sans-Serif" font-size="10.00" fill="#000000">_reset_list::encoder</text>
<text text-anchor="middle" x="375.5" y="-1068" font-family="Helvetica,sans-Serif" font-size="10.00" fill="#000000">_reset_list</text>
</a>
</g>
</g>
<!-- Node5&#45;&gt;Node18 -->
<g id="edge15" class="edge">
<title>Node5&#45;&gt;Node18</title>
<path fill="none" stroke="#191970" d="M266.805,-584.5078C269.904,-587.1673 272.6902,-590.1521 275,-593.5 332.9768,-677.5322 252.7711,-967.6423 311,-1051.5 314.3106,-1056.2678 318.5797,-1060.296 323.3437,-1063.6957"/>
<polygon fill="#191970" stroke="#191970" points="268.706,-581.5634 258.55,-578.5457 264.6074,-587.2381 268.706,-581.5634"/>
</g>
<!-- Node5&#45;&gt;Node19 -->
<g id="edge16" class="edge">
<title>Node5&#45;&gt;Node19</title>
<path fill="none" stroke="#191970" d="M216.839,-538.0276C233.8356,-457.8464 286.9733,-214.3553 311,-187.5 314.4433,-183.6513 318.5496,-180.3903 322.9991,-177.6279"/>
<polygon fill="#191970" stroke="#191970" points="213.3289,-537.7108 214.6874,-548.2182 220.1779,-539.157 213.3289,-537.7108"/>
</g>
<!-- Node20 -->
<g id="node18" class="node">
<title>Node20</title>
<g id="a_node18"><a xlink:href="classoneapi_1_1vpl_1_1encoder__reset__list.html#a6abc5af189a28be88813b5de7827b31d" target="_top" xlink:title="Variadic length ctor helper. It adds extension buffers one by one to the map of buffers. ">
<polygon fill="#ffffff" stroke="#000000" points="317.5,-1011.5 317.5,-1041.5 433.5,-1041.5 433.5,-1011.5 317.5,-1011.5"/>
<text text-anchor="start" x="325.5" y="-1029.5" font-family="Helvetica,sans-Serif" font-size="10.00" fill="#000000">oneapi::vpl::encoder</text>
<text text-anchor="middle" x="375.5" y="-1018.5" font-family="Helvetica,sans-Serif" font-size="10.00" fill="#000000">_reset_list::ctor_helper</text>
</a>
</g>
</g>
<!-- Node5&#45;&gt;Node20 -->
<g id="edge17" class="edge">
<title>Node5&#45;&gt;Node20</title>
<path fill="none" stroke="#191970" d="M266.7687,-584.533C269.8762,-587.1866 272.6742,-590.1632 275,-593.5 327.0464,-668.17 256.3147,-928.7404 311,-1001.5 313.8862,-1005.3402 317.4452,-1008.5906 321.3962,-1011.3419"/>
<polygon fill="#191970" stroke="#191970" points="268.6601,-581.582 258.4991,-578.581 264.5709,-587.2634 268.6601,-581.582"/>
</g>
<!-- Node21 -->
<g id="node19" class="node">
<title>Node21</title>
<g id="a_node19"><a xlink:href="classoneapi_1_1vpl_1_1encoder__process__list.html#a30ae5772ab1d459e7642d68ef9af176d" target="_top" xlink:title="ctor ">
<polygon fill="#ffffff" stroke="#000000" points="318,-951 318,-992 433,-992 433,-951 318,-951"/>
<text text-anchor="start" x="326" y="-980" font-family="Helvetica,sans-Serif" font-size="10.00" fill="#000000">oneapi::vpl::encoder</text>
<text text-anchor="start" x="326" y="-969" font-family="Helvetica,sans-Serif" font-size="10.00" fill="#000000">_process_list::encoder</text>
<text text-anchor="middle" x="375.5" y="-958" font-family="Helvetica,sans-Serif" font-size="10.00" fill="#000000">_process_list</text>
</a>
</g>
</g>
<!-- Node5&#45;&gt;Node21 -->
<g id="edge18" class="edge">
<title>Node5&#45;&gt;Node21</title>
<path fill="none" stroke="#191970" d="M266.7118,-584.573C269.8326,-587.2172 272.6491,-590.1808 275,-593.5 364.8724,-720.3887 220.747,-814.8818 311,-941.5 313.5089,-945.0198 316.5374,-948.1379 319.8966,-950.8984"/>
<polygon fill="#191970" stroke="#191970" points="268.588,-581.6117 258.4193,-578.6371 264.5135,-587.3038 268.588,-581.6117"/>
</g>
<!-- Node5&#45;&gt;Node22 -->
<g id="edge19" class="edge">
<title>Node5&#45;&gt;Node22</title>
<path fill="none" stroke="#191970" d="M216.0077,-538.1797C231.654,-451.3694 284.1247,-169.4217 311,-138.5 314.3877,-134.6023 318.457,-131.3086 322.8836,-128.5261"/>
<polygon fill="#191970" stroke="#191970" points="212.5287,-537.7515 214.2071,-548.2126 219.4187,-538.9881 212.5287,-537.7515"/>
</g>
<!-- Node23 -->
<g id="node21" class="node">
<title>Node23</title>
<g id="a_node21"><a xlink:href="classoneapi_1_1vpl_1_1encoder__process__list.html#a4318a6956e48b7bcccfae49655f30e5a" target="_top" xlink:title="Variadic length ctor helper. It adds extension buffers one by one to the map of buffers. ">
<polygon fill="#ffffff" stroke="#000000" points="311.5,-901.5 311.5,-931.5 439.5,-931.5 439.5,-901.5 311.5,-901.5"/>
<text text-anchor="start" x="319.5" y="-919.5" font-family="Helvetica,sans-Serif" font-size="10.00" fill="#000000">oneapi::vpl::encoder</text>
<text text-anchor="middle" x="375.5" y="-908.5" font-family="Helvetica,sans-Serif" font-size="10.00" fill="#000000">_process_list::ctor_helper</text>
</a>
</g>
</g>
<!-- Node5&#45;&gt;Node23 -->
<g id="edge20" class="edge">
<title>Node5&#45;&gt;Node23</title>
<path fill="none" stroke="#191970" d="M266.2182,-584.262C269.5245,-586.9853 272.5126,-590.0512 275,-593.5 353.0379,-701.7017 229.1398,-786.1604 311,-891.5 314.0214,-895.388 317.7294,-898.6719 321.8266,-901.4454"/>
<polygon fill="#191970" stroke="#191970" points="268.2097,-581.3838 258.012,-578.5103 264.192,-587.116 268.2097,-581.3838"/>
</g>
<!-- Node24 -->
<g id="node22" class="node">
<title>Node24</title>
<g id="a_node22"><a xlink:href="classoneapi_1_1vpl_1_1vpp__init__reset__list.html#a5408301ff5a1f5fc7d76443bcfe31332" target="_top" xlink:title="ctor ">
<polygon fill="#ffffff" stroke="#000000" points="323.5,-841 323.5,-882 427.5,-882 427.5,-841 323.5,-841"/>
<text text-anchor="start" x="331.5" y="-870" font-family="Helvetica,sans-Serif" font-size="10.00" fill="#000000">oneapi::vpl::vpp_init</text>
<text text-anchor="start" x="331.5" y="-859" font-family="Helvetica,sans-Serif" font-size="10.00" fill="#000000">_reset_list::vpp_init</text>
<text text-anchor="middle" x="375.5" y="-848" font-family="Helvetica,sans-Serif" font-size="10.00" fill="#000000">_reset_list</text>
</a>
</g>
</g>
<!-- Node5&#45;&gt;Node24 -->
<g id="edge21" class="edge">
<title>Node5&#45;&gt;Node24</title>
<path fill="none" stroke="#191970" d="M266.1034,-584.3461C269.4359,-587.0502 272.4614,-590.0888 275,-593.5 338.8697,-679.3231 246.8729,-745.8691 311,-831.5 314.4053,-836.0472 318.6694,-839.9289 323.3737,-843.2374"/>
<polygon fill="#191970" stroke="#191970" points="268.0668,-581.4484 257.8549,-578.6254 264.0775,-587.2004 268.0668,-581.4484"/>
</g>
<!-- Node5&#45;&gt;Node25 -->
<g id="edge22" class="edge">
<title>Node5&#45;&gt;Node25</title>
<path fill="none" stroke="#191970" d="M215.3471,-538.3422C229.7609,-445.3401 281.2579,-124.5279 311,-89.5 314.2648,-85.655 318.1944,-82.3988 322.4828,-79.6416"/>
<polygon fill="#191970" stroke="#191970" points="211.8787,-537.8691 213.813,-548.2858 218.7969,-538.9364 211.8787,-537.8691"/>
</g>
<!-- Node26 -->
<g id="node24" class="node">
<title>Node26</title>
<g id="a_node24"><a xlink:href="classoneapi_1_1vpl_1_1vpp__init__reset__list.html#a3fc46ff3b7e2a90c62ac2f234f3910ec" target="_top" xlink:title="Variadic length ctor helper. It adds extension buffers one by one to the map of buffers. ">
<polygon fill="#ffffff" stroke="#000000" points="317.5,-791.5 317.5,-821.5 433.5,-821.5 433.5,-791.5 317.5,-791.5"/>
<text text-anchor="start" x="325.5" y="-809.5" font-family="Helvetica,sans-Serif" font-size="10.00" fill="#000000">oneapi::vpl::vpp_init</text>
<text text-anchor="middle" x="375.5" y="-798.5" font-family="Helvetica,sans-Serif" font-size="10.00" fill="#000000">_reset_list::ctor_helper</text>
</a>
</g>
</g>
<!-- Node5&#45;&gt;Node26 -->
<g id="edge23" class="edge">
<title>Node5&#45;&gt;Node26</title>
<path fill="none" stroke="#191970" d="M265.7959,-584.3263C269.2252,-587.038 272.3548,-590.0835 275,-593.5 327.3487,-661.1137 255.8213,-717.1753 311,-782.5 313.9298,-785.9685 317.4109,-788.936 321.2152,-791.475"/>
<polygon fill="#191970" stroke="#191970" points="267.5775,-581.3056 257.3374,-578.5871 263.6473,-587.0981 267.5775,-581.3056"/>
</g>
<!-- Node27 -->
<g id="node25" class="node">
<title>Node27</title>
<g id="a_node25"><a xlink:href="classoneapi_1_1vpl_1_1vpp__process__list.html#ab0860edefe20ab0150f62e092476da99" target="_top" xlink:title="ctor ">
<polygon fill="#ffffff" stroke="#000000" points="313,-742.5 313,-772.5 438,-772.5 438,-742.5 313,-742.5"/>
<text text-anchor="start" x="321" y="-760.5" font-family="Helvetica,sans-Serif" font-size="10.00" fill="#000000">oneapi::vpl::vpp_process</text>
<text text-anchor="middle" x="375.5" y="-749.5" font-family="Helvetica,sans-Serif" font-size="10.00" fill="#000000">_list::vpp_process_list</text>
</a>
</g>
</g>
<!-- Node5&#45;&gt;Node27 -->
<g id="edge24" class="edge">
<title>Node5&#45;&gt;Node27</title>
<path fill="none" stroke="#191970" d="M265.0952,-584.1659C268.757,-586.9232 272.1264,-590.0223 275,-593.5 315.9232,-643.0267 268.0062,-685.7597 311,-733.5 314.1183,-736.9625 317.7834,-739.9271 321.7564,-742.465"/>
<polygon fill="#191970" stroke="#191970" points="266.9736,-581.2123 256.6904,-578.6614 263.1384,-587.0682 266.9736,-581.2123"/>
</g>
<!-- Node5&#45;&gt;Node28 -->
<g id="edge25" class="edge">
<title>Node5&#45;&gt;Node28</title>
<path fill="none" stroke="#191970" d="M214.831,-538.3554C228.1454,-439.3139 278.3933,-79.6458 311,-40.5 314.2283,-36.6243 318.1334,-33.3475 322.4063,-30.5772"/>
<polygon fill="#191970" stroke="#191970" points="211.349,-537.9886 213.4923,-548.3644 218.2872,-538.9167 211.349,-537.9886"/>
</g>
<!-- Node29 -->
<g id="node27" class="node">
<title>Node29</title>
<g id="a_node27"><a xlink:href="classoneapi_1_1vpl_1_1vpp__process__list.html#ae191c7296dd6c66dae2f0bfc5838f1c7" target="_top" xlink:title="Variadic length ctor helper. It adds extension buffers one by one to the map of buffers. ">
<polygon fill="#ffffff" stroke="#000000" points="313,-693.5 313,-723.5 438,-723.5 438,-693.5 313,-693.5"/>
<text text-anchor="start" x="321" y="-711.5" font-family="Helvetica,sans-Serif" font-size="10.00" fill="#000000">oneapi::vpl::vpp_process</text>
<text text-anchor="middle" x="375.5" y="-700.5" font-family="Helvetica,sans-Serif" font-size="10.00" fill="#000000">_list::ctor_helper</text>
</a>
</g>
</g>
<!-- Node5&#45;&gt;Node29 -->
<g id="edge26" class="edge">
<title>Node5&#45;&gt;Node29</title>
<path fill="none" stroke="#191970" d="M263.5799,-583.8662C267.7377,-586.7142 271.6266,-589.9148 275,-593.5 304.5223,-624.8757 280.3738,-653.2009 311,-683.5 314.9273,-687.3853 319.5257,-690.6816 324.4274,-693.475"/>
<polygon fill="#191970" stroke="#191970" points="265.1114,-580.7015 254.7468,-578.5049 261.4794,-586.6855 265.1114,-580.7015"/>
</g>
</g>
</svg>
