<?xml version="1.0" encoding="UTF-8" standalone="no"?>
<!DOCTYPE svg PUBLIC "-//W3C//DTD SVG 1.1//EN"
 "http://www.w3.org/Graphics/SVG/1.1/DTD/svg11.dtd">
<!-- Generated by graphviz version 2.40.1 (20161225.0304)
 -->
<!-- Title: oneapi::vpl::frame_source_reader Pages: 1 -->
<svg width="107pt" height="106pt"
 viewBox="0.00 0.00 107.00 106.00" xmlns="http://www.w3.org/2000/svg" xmlns:xlink="http://www.w3.org/1999/xlink">
<g id="graph0" class="graph" transform="scale(1 1) rotate(0) translate(4 102)">
<title>oneapi::vpl::frame_source_reader</title>
<polygon fill="#ffffff" stroke="transparent" points="-4,4 -4,-102 103,-102 103,4 -4,4"/>
<!-- Node4 -->
<g id="node1" class="node">
<title>Node4</title>
<polygon fill="#bfbfbf" stroke="#000000" points="2,-.5 2,-30.5 97,-30.5 97,-.5 2,-.5"/>
<text text-anchor="start" x="10" y="-18.5" font-family="Helvetica,sans-Serif" font-size="10.00" fill="#000000">oneapi::vpl::frame</text>
<text text-anchor="middle" x="49.5" y="-7.5" font-family="Helvetica,sans-Serif" font-size="10.00" fill="#000000">_source_reader</text>
</g>
<!-- Node5 -->
<g id="node2" class="node">
<title>Node5</title>
<g id="a_node2"><a xlink:href="classoneapi_1_1vpl_1_1source__reader.html" target="_top" xlink:title="Interface for the source data reader. ">
<polygon fill="#ffffff" stroke="#000000" points="0,-67.5 0,-97.5 99,-97.5 99,-67.5 0,-67.5"/>
<text text-anchor="start" x="8" y="-85.5" font-family="Helvetica,sans-Serif" font-size="10.00" fill="#000000">oneapi::vpl::source</text>
<text text-anchor="middle" x="49.5" y="-74.5" font-family="Helvetica,sans-Serif" font-size="10.00" fill="#000000">_reader</text>
</a>
</g>
</g>
<!-- Node5&#45;&gt;Node4 -->
<g id="edge1" class="edge">
<title>Node5&#45;&gt;Node4</title>
<path fill="none" stroke="#191970" d="M49.5,-57.0249C49.5,-48.128 49.5,-38.4287 49.5,-30.6432"/>
<polygon fill="#191970" stroke="#191970" points="46.0001,-57.2966 49.5,-67.2967 53.0001,-57.2967 46.0001,-57.2966"/>
</g>
</g>
</svg>
