<?xml version="1.0" encoding="UTF-8" standalone="no"?>
<!DOCTYPE svg PUBLIC "-//W3C//DTD SVG 1.1//EN"
 "http://www.w3.org/Graphics/SVG/1.1/DTD/svg11.dtd">
<!-- Generated by graphviz version 2.40.1 (20161225.0304)
 -->
<!-- Title: oneapi::vpl::implementation_capabilities::decoder Pages: 1 -->
<svg width="144pt" height="362pt"
 viewBox="0.00 0.00 144.00 362.00" xmlns="http://www.w3.org/2000/svg" xmlns:xlink="http://www.w3.org/1999/xlink">
<g id="graph0" class="graph" transform="scale(1 1) rotate(0) translate(4 358)">
<title>oneapi::vpl::implementation_capabilities::decoder</title>
<polygon fill="#ffffff" stroke="transparent" points="-4,4 -4,-358 140,-358 140,4 -4,4"/>
<!-- Node1 -->
<g id="node1" class="node">
<title>Node1</title>
<polygon fill="#bfbfbf" stroke="#000000" points="0,-.5 0,-30.5 136,-30.5 136,-.5 0,-.5"/>
<text text-anchor="start" x="8" y="-18.5" font-family="Helvetica,sans-Serif" font-size="10.00" fill="#000000">oneapi::vpl::implementation</text>
<text text-anchor="middle" x="68" y="-7.5" font-family="Helvetica,sans-Serif" font-size="10.00" fill="#000000">_capabilities::decoder</text>
</g>
<!-- Node2 -->
<g id="node2" class="node">
<title>Node2</title>
<g id="a_node2"><a xlink:href="structmfxDecoderDescription_1_1decoder.html" target="_top" xlink:title="mfxDecoderDescription\l::decoder">
<polygon fill="#ffffff" stroke="#000000" points="8.5,-78.5 8.5,-108.5 127.5,-108.5 127.5,-78.5 8.5,-78.5"/>
<text text-anchor="start" x="16.5" y="-96.5" font-family="Helvetica,sans-Serif" font-size="10.00" fill="#000000">mfxDecoderDescription</text>
<text text-anchor="middle" x="68" y="-85.5" font-family="Helvetica,sans-Serif" font-size="10.00" fill="#000000">::decoder</text>
</a>
</g>
</g>
<!-- Node2&#45;&gt;Node1 -->
<g id="edge1" class="edge">
<title>Node2&#45;&gt;Node1</title>
<path fill="none" stroke="#9a32cd" stroke-dasharray="5,2" d="M68,-68.2875C68,-55.9187 68,-41.4264 68,-30.7592"/>
<polygon fill="#9a32cd" stroke="#9a32cd" points="64.5001,-68.4608 68,-78.4608 71.5001,-68.4608 64.5001,-68.4608"/>
<text text-anchor="middle" x="80.5" y="-52" font-family="Helvetica,sans-Serif" font-size="10.00" fill="#000000"> dec_</text>
</g>
<!-- Node3 -->
<g id="node3" class="node">
<title>Node3</title>
<g id="a_node3"><a xlink:href="structmfxDecoderDescription_1_1decoder_1_1decprofile.html" target="_top" xlink:title="mfxDecoderDescription\l::decoder::decprofile">
<polygon fill="#ffffff" stroke="#000000" points="8.5,-156.5 8.5,-186.5 127.5,-186.5 127.5,-156.5 8.5,-156.5"/>
<text text-anchor="start" x="16.5" y="-174.5" font-family="Helvetica,sans-Serif" font-size="10.00" fill="#000000">mfxDecoderDescription</text>
<text text-anchor="middle" x="68" y="-163.5" font-family="Helvetica,sans-Serif" font-size="10.00" fill="#000000">::decoder::decprofile</text>
</a>
</g>
</g>
<!-- Node3&#45;&gt;Node2 -->
<g id="edge2" class="edge">
<title>Node3&#45;&gt;Node2</title>
<path fill="none" stroke="#9a32cd" stroke-dasharray="5,2" d="M68,-146.2875C68,-133.9187 68,-119.4264 68,-108.7592"/>
<polygon fill="#9a32cd" stroke="#9a32cd" points="64.5001,-146.4608 68,-156.4608 71.5001,-146.4608 64.5001,-146.4608"/>
<text text-anchor="middle" x="86.5" y="-130" font-family="Helvetica,sans-Serif" font-size="10.00" fill="#000000"> Profiles</text>
</g>
<!-- Node4 -->
<g id="node4" class="node">
<title>Node4</title>
<g id="a_node4"><a xlink:href="structmfxDecoderDescription_1_1decoder_1_1decprofile_1_1decmemdesc.html" target="_top" xlink:title="mfxDecoderDescription\l::decoder::decprofile\l::decmemdesc">
<polygon fill="#ffffff" stroke="#000000" points="8.5,-234.5 8.5,-275.5 127.5,-275.5 127.5,-234.5 8.5,-234.5"/>
<text text-anchor="start" x="16.5" y="-263.5" font-family="Helvetica,sans-Serif" font-size="10.00" fill="#000000">mfxDecoderDescription</text>
<text text-anchor="start" x="16.5" y="-252.5" font-family="Helvetica,sans-Serif" font-size="10.00" fill="#000000">::decoder::decprofile</text>
<text text-anchor="middle" x="68" y="-241.5" font-family="Helvetica,sans-Serif" font-size="10.00" fill="#000000">::decmemdesc</text>
</a>
</g>
</g>
<!-- Node4&#45;&gt;Node3 -->
<g id="edge3" class="edge">
<title>Node4&#45;&gt;Node3</title>
<path fill="none" stroke="#9a32cd" stroke-dasharray="5,2" d="M68,-224.0892C68,-211.3184 68,-197.0939 68,-186.6621"/>
<polygon fill="#9a32cd" stroke="#9a32cd" points="64.5001,-224.3595 68,-234.3595 71.5001,-224.3596 64.5001,-224.3595"/>
<text text-anchor="middle" x="92.5" y="-208" font-family="Helvetica,sans-Serif" font-size="10.00" fill="#000000"> MemDesc</text>
</g>
<!-- Node5 -->
<g id="node5" class="node">
<title>Node5</title>
<g id="a_node5"><a xlink:href="structmfxRange32U.html" target="_top" xlink:title="mfxRange32U">
<polygon fill="#ffffff" stroke="#000000" points="28,-334.5 28,-353.5 108,-353.5 108,-334.5 28,-334.5"/>
<text text-anchor="middle" x="68" y="-341.5" font-family="Helvetica,sans-Serif" font-size="10.00" fill="#000000">mfxRange32U</text>
</a>
</g>
</g>
<!-- Node5&#45;&gt;Node4 -->
<g id="edge4" class="edge">
<title>Node5&#45;&gt;Node4</title>
<path fill="none" stroke="#9a32cd" stroke-dasharray="5,2" d="M68,-324.1498C68,-309.6776 68,-290.124 68,-275.5022"/>
<polygon fill="#9a32cd" stroke="#9a32cd" points="64.5001,-324.4754 68,-334.4754 71.5001,-324.4755 64.5001,-324.4754"/>
<text text-anchor="middle" x="82.5" y="-308" font-family="Helvetica,sans-Serif" font-size="10.00" fill="#000000"> Width</text>
<text text-anchor="middle" x="82.5" y="-297" font-family="Helvetica,sans-Serif" font-size="10.00" fill="#000000">Height</text>
</g>
</g>
</svg>
