<?xml version="1.0" encoding="UTF-8" standalone="no"?>
<!DOCTYPE svg PUBLIC "-//W3C//DTD SVG 1.1//EN"
 "http://www.w3.org/Graphics/SVG/1.1/DTD/svg11.dtd">
<!-- Generated by graphviz version 2.40.1 (20161225.0304)
 -->
<!-- Title: oneapi::vpl::extension_buffer_with_ptrs&lt; T, ID &gt; Pages: 1 -->
<svg width="174pt" height="185pt"
 viewBox="0.00 0.00 174.00 185.00" xmlns="http://www.w3.org/2000/svg" xmlns:xlink="http://www.w3.org/1999/xlink">
<g id="graph0" class="graph" transform="scale(1 1) rotate(0) translate(4 181)">
<title>oneapi::vpl::extension_buffer_with_ptrs&lt; T, ID &gt;</title>
<polygon fill="#ffffff" stroke="transparent" points="-4,4 -4,-181 170,-181 170,4 -4,4"/>
<!-- Node3 -->
<g id="node1" class="node">
<title>Node3</title>
<polygon fill="#bfbfbf" stroke="#000000" points="34,-.5 34,-30.5 166,-30.5 166,-.5 34,-.5"/>
<text text-anchor="start" x="42" y="-18.5" font-family="Helvetica,sans-Serif" font-size="10.00" fill="#000000">oneapi::vpl::extension</text>
<text text-anchor="middle" x="100" y="-7.5" font-family="Helvetica,sans-Serif" font-size="10.00" fill="#000000">_buffer_with_ptrs&lt; T, ID &gt;</text>
</g>
<!-- Node4 -->
<g id="node2" class="node">
<title>Node4</title>
<g id="a_node2"><a xlink:href="classoneapi_1_1vpl_1_1extension__buffer.html" target="_top" xlink:title="Utilitary intermediate class to typify extension buffer interface with assotiated ID and C structure...">
<polygon fill="#ffffff" stroke="#000000" points="44,-68.5 44,-98.5 156,-98.5 156,-68.5 44,-68.5"/>
<text text-anchor="start" x="52" y="-86.5" font-family="Helvetica,sans-Serif" font-size="10.00" fill="#000000">oneapi::vpl::extension</text>
<text text-anchor="middle" x="100" y="-75.5" font-family="Helvetica,sans-Serif" font-size="10.00" fill="#000000">_buffer&lt; T, ID &gt;</text>
</a>
</g>
</g>
<!-- Node4&#45;&gt;Node3 -->
<g id="edge1" class="edge">
<title>Node4&#45;&gt;Node3</title>
<path fill="none" stroke="#191970" d="M100,-58.1174C100,-48.8378 100,-38.6413 100,-30.5492"/>
<polygon fill="#191970" stroke="#191970" points="96.5001,-58.4086 100,-68.4086 103.5001,-58.4086 96.5001,-58.4086"/>
</g>
<!-- Node5 -->
<g id="node3" class="node">
<title>Node5</title>
<g id="a_node3"><a xlink:href="classoneapi_1_1vpl_1_1extension__buffer__base.html" target="_top" xlink:title="Interface definition for extension buffers. Extension buffers are used to provide additional data for...">
<polygon fill="#ffffff" stroke="#000000" points="0,-146.5 0,-176.5 112,-176.5 112,-146.5 0,-146.5"/>
<text text-anchor="start" x="8" y="-164.5" font-family="Helvetica,sans-Serif" font-size="10.00" fill="#000000">oneapi::vpl::extension</text>
<text text-anchor="middle" x="56" y="-153.5" font-family="Helvetica,sans-Serif" font-size="10.00" fill="#000000">_buffer_base</text>
</a>
</g>
</g>
<!-- Node5&#45;&gt;Node4 -->
<g id="edge2" class="edge">
<title>Node5&#45;&gt;Node4</title>
<path fill="none" stroke="#191970" d="M69.5916,-137.4059C76.7023,-124.8005 85.1925,-109.7497 91.3923,-98.7592"/>
<polygon fill="#191970" stroke="#191970" points="66.3485,-136.0314 64.4836,-146.4608 72.4453,-139.4707 66.3485,-136.0314"/>
</g>
<!-- Node6 -->
<g id="node4" class="node">
<title>Node6</title>
<polygon fill="#ffffff" stroke="#bfbfbf" points="130.5,-152 130.5,-171 159.5,-171 159.5,-152 130.5,-152"/>
<text text-anchor="middle" x="145" y="-159" font-family="Helvetica,sans-Serif" font-size="10.00" fill="#000000">T</text>
</g>
<!-- Node6&#45;&gt;Node4 -->
<g id="edge3" class="edge">
<title>Node6&#45;&gt;Node4</title>
<path fill="none" stroke="#9a32cd" stroke-dasharray="5,2" d="M134.3649,-143.0657C126.5795,-129.5711 116.1394,-111.4749 108.8168,-98.7824"/>
<polygon fill="#9a32cd" stroke="#9a32cd" points="131.4532,-145.0228 139.4821,-151.9357 137.5165,-141.5248 131.4532,-145.0228"/>
<text text-anchor="middle" x="142" y="-120" font-family="Helvetica,sans-Serif" font-size="10.00" fill="#000000"> buffer_</text>
</g>
</g>
</svg>
