<?xml version="1.0" encoding="UTF-8" standalone="no"?>
<!DOCTYPE svg PUBLIC "-//W3C//DTD SVG 1.1//EN"
 "http://www.w3.org/Graphics/SVG/1.1/DTD/svg11.dtd">
<!-- Generated by graphviz version 2.40.1 (20161225.0304)
 -->
<!-- Title: oneapi::vpl::ExtVPPDetail Pages: 1 -->
<svg width="232pt" height="253pt"
 viewBox="0.00 0.00 232.00 253.00" xmlns="http://www.w3.org/2000/svg" xmlns:xlink="http://www.w3.org/1999/xlink">
<g id="graph0" class="graph" transform="scale(1 1) rotate(0) translate(4 249)">
<title>oneapi::vpl::ExtVPPDetail</title>
<polygon fill="#ffffff" stroke="transparent" points="-4,4 -4,-249 228,-249 228,4 -4,4"/>
<!-- Node4 -->
<g id="node1" class="node">
<title>Node4</title>
<polygon fill="#bfbfbf" stroke="#000000" points="50.5,-.5 50.5,-19.5 181.5,-19.5 181.5,-.5 50.5,-.5"/>
<text text-anchor="middle" x="116" y="-7.5" font-family="Helvetica,sans-Serif" font-size="10.00" fill="#000000">oneapi::vpl::ExtVPPDetail</text>
</g>
<!-- Node5 -->
<g id="node2" class="node">
<title>Node5</title>
<g id="a_node2"><a xlink:href="classoneapi_1_1vpl_1_1extension__buffer__trival.html" target="_top" xlink:title="oneapi::vpl::extension\l_buffer_trival\&lt; mfxExtVPPDetail,\l MFX_EXTBUFF_VPP_DETAIL \&gt;">
<polygon fill="#ffffff" stroke="#000000" points="32.5,-57.5 32.5,-98.5 199.5,-98.5 199.5,-57.5 32.5,-57.5"/>
<text text-anchor="start" x="40.5" y="-86.5" font-family="Helvetica,sans-Serif" font-size="10.00" fill="#000000">oneapi::vpl::extension</text>
<text text-anchor="start" x="40.5" y="-75.5" font-family="Helvetica,sans-Serif" font-size="10.00" fill="#000000">_buffer_trival&lt; mfxExtVPPDetail,</text>
<text text-anchor="middle" x="116" y="-64.5" font-family="Helvetica,sans-Serif" font-size="10.00" fill="#000000"> MFX_EXTBUFF_VPP_DETAIL &gt;</text>
</a>
</g>
</g>
<!-- Node5&#45;&gt;Node4 -->
<g id="edge1" class="edge">
<title>Node5&#45;&gt;Node4</title>
<path fill="none" stroke="#191970" d="M116,-47.1423C116,-37.1999 116,-26.896 116,-19.6705"/>
<polygon fill="#191970" stroke="#191970" points="112.5001,-47.2282 116,-57.2283 119.5001,-47.2283 112.5001,-47.2282"/>
</g>
<!-- Node6 -->
<g id="node3" class="node">
<title>Node6</title>
<g id="a_node3"><a xlink:href="classoneapi_1_1vpl_1_1extension__buffer.html" target="_top" xlink:title="oneapi::vpl::extension\l_buffer\&lt; mfxExtVPPDetail, ID \&gt;">
<polygon fill="#ffffff" stroke="#000000" points="37,-136.5 37,-166.5 195,-166.5 195,-136.5 37,-136.5"/>
<text text-anchor="start" x="45" y="-154.5" font-family="Helvetica,sans-Serif" font-size="10.00" fill="#000000">oneapi::vpl::extension</text>
<text text-anchor="middle" x="116" y="-143.5" font-family="Helvetica,sans-Serif" font-size="10.00" fill="#000000">_buffer&lt; mfxExtVPPDetail, ID &gt;</text>
</a>
</g>
</g>
<!-- Node6&#45;&gt;Node5 -->
<g id="edge2" class="edge">
<title>Node6&#45;&gt;Node5</title>
<path fill="none" stroke="#191970" d="M116,-126.2668C116,-117.2098 116,-107.1146 116,-98.5074"/>
<polygon fill="#191970" stroke="#191970" points="112.5001,-126.2707 116,-136.2708 119.5001,-126.2708 112.5001,-126.2707"/>
</g>
<!-- Node7 -->
<g id="node4" class="node">
<title>Node7</title>
<g id="a_node4"><a xlink:href="classoneapi_1_1vpl_1_1extension__buffer__base.html" target="_top" xlink:title="Interface definition for extension buffers. Extension buffers are used to provide additional data for...">
<polygon fill="#ffffff" stroke="#000000" points="0,-214.5 0,-244.5 112,-244.5 112,-214.5 0,-214.5"/>
<text text-anchor="start" x="8" y="-232.5" font-family="Helvetica,sans-Serif" font-size="10.00" fill="#000000">oneapi::vpl::extension</text>
<text text-anchor="middle" x="56" y="-221.5" font-family="Helvetica,sans-Serif" font-size="10.00" fill="#000000">_buffer_base</text>
</a>
</g>
</g>
<!-- Node7&#45;&gt;Node6 -->
<g id="edge3" class="edge">
<title>Node7&#45;&gt;Node6</title>
<path fill="none" stroke="#191970" d="M73.6834,-206.5116C83.5466,-193.6894 95.5593,-178.0729 104.2622,-166.7592"/>
<polygon fill="#191970" stroke="#191970" points="70.8916,-204.4006 67.5686,-214.4608 76.4399,-208.6686 70.8916,-204.4006"/>
</g>
<!-- Node8 -->
<g id="node5" class="node">
<title>Node8</title>
<g id="a_node5"><a xlink:href="structmfxExtVPPDetail.html" target="_top" xlink:title="mfxExtVPPDetail">
<polygon fill="#ffffff" stroke="#000000" points="130,-220 130,-239 224,-239 224,-220 130,-220"/>
<text text-anchor="middle" x="177" y="-227" font-family="Helvetica,sans-Serif" font-size="10.00" fill="#000000">mfxExtVPPDetail</text>
</a>
</g>
</g>
<!-- Node8&#45;&gt;Node6 -->
<g id="edge4" class="edge">
<title>Node8&#45;&gt;Node6</title>
<path fill="none" stroke="#9a32cd" stroke-dasharray="5,2" d="M163.1941,-211.8466C152.5811,-198.2759 138.0706,-179.7214 127.9516,-166.7824"/>
<polygon fill="#9a32cd" stroke="#9a32cd" points="160.6028,-214.2146 169.5202,-219.9357 166.1168,-209.9023 160.6028,-214.2146"/>
<text text-anchor="middle" x="167" y="-188" font-family="Helvetica,sans-Serif" font-size="10.00" fill="#000000"> buffer_</text>
</g>
</g>
</svg>
