<?xml version="1.0" encoding="UTF-8" standalone="no"?>
<!DOCTYPE svg PUBLIC "-//W3C//DTD SVG 1.1//EN"
 "http://www.w3.org/Graphics/SVG/1.1/DTD/svg11.dtd">
<!-- Generated by graphviz version 2.40.1 (20161225.0304)
 -->
<!-- Title: oneapi::vpl::vpp_session Pages: 1 -->
<svg width="764pt" height="159pt"
 viewBox="0.00 0.00 764.00 159.00" xmlns="http://www.w3.org/2000/svg" xmlns:xlink="http://www.w3.org/1999/xlink">
<g id="graph0" class="graph" transform="scale(1 1) rotate(0) translate(4 155)">
<title>oneapi::vpl::vpp_session</title>
<polygon fill="#ffffff" stroke="transparent" points="-4,4 -4,-155 760,-155 760,4 -4,4"/>
<!-- Node2 -->
<g id="node1" class="node">
<title>Node2</title>
<polygon fill="#bfbfbf" stroke="#000000" points="631,-55 631,-74 756,-74 756,-55 631,-55"/>
<text text-anchor="middle" x="693.5" y="-62" font-family="Helvetica,sans-Serif" font-size="10.00" fill="#000000">oneapi::vpl::vpp_session</text>
</g>
<!-- Node3 -->
<g id="node2" class="node">
<title>Node3</title>
<g id="a_node2"><a xlink:href="classoneapi_1_1vpl_1_1session.html" target="_top" xlink:title="oneapi::vpl::session\l\&lt; vpp_video_param, vpp\l_init_reset_list, vpp_init\l_reset_list \&gt;">
<polygon fill="#ffffff" stroke="#000000" points="371,-98.5 371,-150.5 495,-150.5 495,-98.5 371,-98.5"/>
<text text-anchor="start" x="379" y="-138.5" font-family="Helvetica,sans-Serif" font-size="10.00" fill="#000000">oneapi::vpl::session</text>
<text text-anchor="start" x="379" y="-127.5" font-family="Helvetica,sans-Serif" font-size="10.00" fill="#000000">&lt; vpp_video_param, vpp</text>
<text text-anchor="start" x="379" y="-116.5" font-family="Helvetica,sans-Serif" font-size="10.00" fill="#000000">_init_reset_list, vpp_init</text>
<text text-anchor="middle" x="433" y="-105.5" font-family="Helvetica,sans-Serif" font-size="10.00" fill="#000000">_reset_list &gt;</text>
</a>
</g>
</g>
<!-- Node3&#45;&gt;Node2 -->
<g id="edge1" class="edge">
<title>Node3&#45;&gt;Node2</title>
<path fill="none" stroke="#191970" d="M504.9701,-107.9234C552.3668,-97.0067 612.7337,-83.1026 652.2146,-74.0091"/>
<polygon fill="#191970" stroke="#191970" points="504.0245,-104.5495 495.0653,-110.2047 505.5957,-111.3709 504.0245,-104.5495"/>
</g>
<!-- Node4 -->
<g id="node3" class="node">
<title>Node4</title>
<g id="a_node3"><a xlink:href="structoneapi_1_1vpl_1_1detail_1_1sdk__c__api.html" target="_top" xlink:title="Underlying C API Functions table. It is initialized either for encoder or foe decoder or forVPP...">
<polygon fill="#ffffff" stroke="#000000" points="160.5,-109.5 160.5,-139.5 253.5,-139.5 253.5,-109.5 160.5,-109.5"/>
<text text-anchor="start" x="168.5" y="-127.5" font-family="Helvetica,sans-Serif" font-size="10.00" fill="#000000">oneapi::vpl::detail</text>
<text text-anchor="middle" x="207" y="-116.5" font-family="Helvetica,sans-Serif" font-size="10.00" fill="#000000">::sdk_c_api</text>
</a>
</g>
</g>
<!-- Node4&#45;&gt;Node3 -->
<g id="edge2" class="edge">
<title>Node4&#45;&gt;Node3</title>
<path fill="none" stroke="#9a32cd" stroke-dasharray="5,2" d="M263.8047,-124.5C296.3432,-124.5 337.2209,-124.5 370.6451,-124.5"/>
<polygon fill="#9a32cd" stroke="#9a32cd" points="263.5534,-121.0001 253.5533,-124.5 263.5533,-128.0001 263.5534,-121.0001"/>
<text text-anchor="middle" x="318" y="-127.5" font-family="Helvetica,sans-Serif" font-size="10.00" fill="#000000"> c_api_callable_</text>
</g>
<!-- Node5 -->
<g id="node4" class="node">
<title>Node5</title>
<g id="a_node4"><a xlink:href="classoneapi_1_1vpl_1_1temporal__frame__allocator.html" target="_top" xlink:title="Temporal class to allocate and manage pool of the surfaces. ">
<polygon fill="#ffffff" stroke="#000000" points="379.5,-49.5 379.5,-79.5 486.5,-79.5 486.5,-49.5 379.5,-49.5"/>
<text text-anchor="start" x="387.5" y="-67.5" font-family="Helvetica,sans-Serif" font-size="10.00" fill="#000000">oneapi::vpl::temporal</text>
<text text-anchor="middle" x="433" y="-56.5" font-family="Helvetica,sans-Serif" font-size="10.00" fill="#000000">_frame_allocator</text>
</a>
</g>
</g>
<!-- Node5&#45;&gt;Node2 -->
<g id="edge3" class="edge">
<title>Node5&#45;&gt;Node2</title>
<path fill="none" stroke="#9a32cd" stroke-dasharray="5,2" d="M496.7541,-64.5C537.5219,-64.5 590.1664,-64.5 630.7392,-64.5"/>
<polygon fill="#9a32cd" stroke="#9a32cd" points="496.6599,-61.0001 486.6599,-64.5 496.6599,-68.0001 496.6599,-61.0001"/>
<text text-anchor="middle" x="563" y="-67.5" font-family="Helvetica,sans-Serif" font-size="10.00" fill="#000000"> out_frames_allocator_</text>
</g>
<!-- Node6 -->
<g id="node5" class="node">
<title>Node6</title>
<g id="a_node5"><a xlink:href="classoneapi_1_1vpl_1_1frame__info.html" target="_top" xlink:title="Holds general frame related params. ">
<polygon fill="#ffffff" stroke="#000000" points="149,-55 149,-74 265,-74 265,-55 149,-55"/>
<text text-anchor="middle" x="207" y="-62" font-family="Helvetica,sans-Serif" font-size="10.00" fill="#000000">oneapi::vpl::frame_info</text>
</a>
</g>
</g>
<!-- Node6&#45;&gt;Node5 -->
<g id="edge4" class="edge">
<title>Node6&#45;&gt;Node5</title>
<path fill="none" stroke="#9a32cd" stroke-dasharray="5,2" d="M275.3258,-64.5C308.6421,-64.5 348.1339,-64.5 379.2598,-64.5"/>
<polygon fill="#9a32cd" stroke="#9a32cd" points="275.2007,-61.0001 265.2006,-64.5 275.2006,-68.0001 275.2007,-61.0001"/>
<text text-anchor="middle" x="318" y="-67.5" font-family="Helvetica,sans-Serif" font-size="10.00" fill="#000000"> info_</text>
</g>
<!-- Node7 -->
<g id="node6" class="node">
<title>Node7</title>
<g id="a_node6"><a xlink:href="structmfxFrameInfo.html" target="_top" xlink:title="mfxFrameInfo">
<polygon fill="#ffffff" stroke="#000000" points="0,-55 0,-74 77,-74 77,-55 0,-55"/>
<text text-anchor="middle" x="38.5" y="-62" font-family="Helvetica,sans-Serif" font-size="10.00" fill="#000000">mfxFrameInfo</text>
</a>
</g>
</g>
<!-- Node7&#45;&gt;Node6 -->
<g id="edge5" class="edge">
<title>Node7&#45;&gt;Node6</title>
<path fill="none" stroke="#9a32cd" stroke-dasharray="5,2" d="M87.1908,-64.5C106.3985,-64.5 128.6263,-64.5 148.6818,-64.5"/>
<polygon fill="#9a32cd" stroke="#9a32cd" points="87.1573,-61.0001 77.1573,-64.5 87.1573,-68.0001 87.1573,-61.0001"/>
<text text-anchor="middle" x="113" y="-67.5" font-family="Helvetica,sans-Serif" font-size="10.00" fill="#000000"> param_</text>
</g>
<!-- Node8 -->
<g id="node7" class="node">
<title>Node8</title>
<g id="a_node7"><a xlink:href="classoneapi_1_1vpl_1_1frame__source__reader.html" target="_top" xlink:title="Interface for the frame source data reader. ">
<polygon fill="#ffffff" stroke="#000000" points="385.5,-.5 385.5,-30.5 480.5,-30.5 480.5,-.5 385.5,-.5"/>
<text text-anchor="start" x="393.5" y="-18.5" font-family="Helvetica,sans-Serif" font-size="10.00" fill="#000000">oneapi::vpl::frame</text>
<text text-anchor="middle" x="433" y="-7.5" font-family="Helvetica,sans-Serif" font-size="10.00" fill="#000000">_source_reader</text>
</a>
</g>
</g>
<!-- Node8&#45;&gt;Node2 -->
<g id="edge6" class="edge">
<title>Node8&#45;&gt;Node2</title>
<path fill="none" stroke="#9a32cd" stroke-dasharray="5,2" d="M490.807,-26.3735C536.3835,-34.9464 599.3132,-46.7835 642.9109,-54.9842"/>
<polygon fill="#9a32cd" stroke="#9a32cd" points="491.2544,-22.8963 480.7797,-24.4874 489.9603,-29.7757 491.2544,-22.8963"/>
<text text-anchor="middle" x="563" y="-52.5" font-family="Helvetica,sans-Serif" font-size="10.00" fill="#000000"> rdr_</text>
</g>
<!-- Node9 -->
<g id="node8" class="node">
<title>Node9</title>
<g id="a_node8"><a xlink:href="classoneapi_1_1vpl_1_1source__reader.html" target="_top" xlink:title="Interface for the source data reader. ">
<polygon fill="#ffffff" stroke="#000000" points="157.5,-.5 157.5,-30.5 256.5,-30.5 256.5,-.5 157.5,-.5"/>
<text text-anchor="start" x="165.5" y="-18.5" font-family="Helvetica,sans-Serif" font-size="10.00" fill="#000000">oneapi::vpl::source</text>
<text text-anchor="middle" x="207" y="-7.5" font-family="Helvetica,sans-Serif" font-size="10.00" fill="#000000">_reader</text>
</a>
</g>
</g>
<!-- Node9&#45;&gt;Node8 -->
<g id="edge7" class="edge">
<title>Node9&#45;&gt;Node8</title>
<path fill="none" stroke="#191970" d="M266.7791,-15.5C303.8789,-15.5 350.8982,-15.5 385.454,-15.5"/>
<polygon fill="#191970" stroke="#191970" points="266.5967,-12.0001 256.5967,-15.5 266.5966,-19.0001 266.5967,-12.0001"/>
</g>
</g>
</svg>
