<?xml version="1.0" encoding="UTF-8" standalone="no"?>
<!DOCTYPE svg PUBLIC "-//W3C//DTD SVG 1.1//EN"
 "http://www.w3.org/Graphics/SVG/1.1/DTD/svg11.dtd">
<!-- Generated by graphviz version 2.40.1 (20161225.0304)
 -->
<!-- Title: oneapi::vpl::ExtAvcTemporalLayers Pages: 1 -->
<svg width="781pt" height="61pt"
 viewBox="0.00 0.00 781.00 61.00" xmlns="http://www.w3.org/2000/svg" xmlns:xlink="http://www.w3.org/1999/xlink">
<g id="graph0" class="graph" transform="scale(1 1) rotate(0) translate(4 57)">
<title>oneapi::vpl::ExtAvcTemporalLayers</title>
<polygon fill="#ffffff" stroke="transparent" points="-4,4 -4,-57 777,-57 777,4 -4,4"/>
<!-- Node0 -->
<g id="node1" class="node">
<title>Node0</title>
<polygon fill="#bfbfbf" stroke="#000000" points="630,-11.5 630,-41.5 773,-41.5 773,-11.5 630,-11.5"/>
<text text-anchor="start" x="638" y="-29.5" font-family="Helvetica,sans-Serif" font-size="10.00" fill="#000000">oneapi::vpl::ExtAvcTemporal</text>
<text text-anchor="middle" x="701.5" y="-18.5" font-family="Helvetica,sans-Serif" font-size="10.00" fill="#000000">Layers</text>
</g>
<!-- Node1 -->
<g id="node2" class="node">
<title>Node1</title>
<g id="a_node2"><a xlink:href="classoneapi_1_1vpl_1_1extension__buffer__trival.html" target="_top" xlink:title="oneapi::vpl::extension\l_buffer_trival\&lt; mfxExtAvcTemporal\lLayers, MFX_EXTBUFF_AVC_TEMPORAL\l_LAYERS \&gt;">
<polygon fill="#ffffff" stroke="#000000" points="384,-.5 384,-52.5 594,-52.5 594,-.5 384,-.5"/>
<text text-anchor="start" x="392" y="-40.5" font-family="Helvetica,sans-Serif" font-size="10.00" fill="#000000">oneapi::vpl::extension</text>
<text text-anchor="start" x="392" y="-29.5" font-family="Helvetica,sans-Serif" font-size="10.00" fill="#000000">_buffer_trival&lt; mfxExtAvcTemporal</text>
<text text-anchor="start" x="392" y="-18.5" font-family="Helvetica,sans-Serif" font-size="10.00" fill="#000000">Layers, MFX_EXTBUFF_AVC_TEMPORAL</text>
<text text-anchor="middle" x="489" y="-7.5" font-family="Helvetica,sans-Serif" font-size="10.00" fill="#000000">_LAYERS &gt;</text>
</a>
</g>
</g>
<!-- Node1&#45;&gt;Node0 -->
<g id="edge1" class="edge">
<title>Node1&#45;&gt;Node0</title>
<path fill="none" stroke="#191970" d="M604.2302,-26.5C612.921,-26.5 621.5311,-26.5 629.8257,-26.5"/>
<polygon fill="#191970" stroke="#191970" points="604.0049,-23.0001 594.0049,-26.5 604.0049,-30.0001 604.0049,-23.0001"/>
</g>
<!-- Node2 -->
<g id="node3" class="node">
<title>Node2</title>
<g id="a_node3"><a xlink:href="classoneapi_1_1vpl_1_1extension__buffer.html" target="_top" xlink:title="oneapi::vpl::extension\l_buffer\&lt; mfxExtAvcTemporalLayers, ID \&gt;">
<polygon fill="#ffffff" stroke="#000000" points="148,-11.5 148,-41.5 348,-41.5 348,-11.5 148,-11.5"/>
<text text-anchor="start" x="156" y="-29.5" font-family="Helvetica,sans-Serif" font-size="10.00" fill="#000000">oneapi::vpl::extension</text>
<text text-anchor="middle" x="248" y="-18.5" font-family="Helvetica,sans-Serif" font-size="10.00" fill="#000000">_buffer&lt; mfxExtAvcTemporalLayers, ID &gt;</text>
</a>
</g>
</g>
<!-- Node2&#45;&gt;Node1 -->
<g id="edge2" class="edge">
<title>Node2&#45;&gt;Node1</title>
<path fill="none" stroke="#191970" d="M358.3733,-26.5C366.8221,-26.5 375.3378,-26.5 383.7527,-26.5"/>
<polygon fill="#191970" stroke="#191970" points="358.112,-23.0001 348.112,-26.5 358.112,-30.0001 358.112,-23.0001"/>
</g>
<!-- Node3 -->
<g id="node4" class="node">
<title>Node3</title>
<g id="a_node4"><a xlink:href="classoneapi_1_1vpl_1_1extension__buffer__base.html" target="_top" xlink:title="Interface definition for extension buffers. Extension buffers are used to provide additional data for...">
<polygon fill="#ffffff" stroke="#000000" points="0,-11.5 0,-41.5 112,-41.5 112,-11.5 0,-11.5"/>
<text text-anchor="start" x="8" y="-29.5" font-family="Helvetica,sans-Serif" font-size="10.00" fill="#000000">oneapi::vpl::extension</text>
<text text-anchor="middle" x="56" y="-18.5" font-family="Helvetica,sans-Serif" font-size="10.00" fill="#000000">_buffer_base</text>
</a>
</g>
</g>
<!-- Node3&#45;&gt;Node2 -->
<g id="edge3" class="edge">
<title>Node3&#45;&gt;Node2</title>
<path fill="none" stroke="#191970" d="M122.3218,-26.5C130.5847,-26.5 139.173,-26.5 147.8066,-26.5"/>
<polygon fill="#191970" stroke="#191970" points="122.0505,-23.0001 112.0505,-26.5 122.0505,-30.0001 122.0505,-23.0001"/>
</g>
</g>
</svg>
