<?xml version="1.0" encoding="UTF-8" standalone="no"?>
<!DOCTYPE svg PUBLIC "-//W3C//DTD SVG 1.1//EN"
 "http://www.w3.org/Graphics/SVG/1.1/DTD/svg11.dtd">
<!-- Generated by graphviz version 2.40.1 (20161225.0304)
 -->
<!-- Title: oneapi::vpl::ExtDecVideoProcessing Pages: 1 -->
<svg width="730pt" height="61pt"
 viewBox="0.00 0.00 730.00 61.00" xmlns="http://www.w3.org/2000/svg" xmlns:xlink="http://www.w3.org/1999/xlink">
<g id="graph0" class="graph" transform="scale(1 1) rotate(0) translate(4 57)">
<title>oneapi::vpl::ExtDecVideoProcessing</title>
<polygon fill="#ffffff" stroke="transparent" points="-4,4 -4,-57 726,-57 726,4 -4,4"/>
<!-- Node0 -->
<g id="node1" class="node">
<title>Node0</title>
<polygon fill="#bfbfbf" stroke="#000000" points="594,-11.5 594,-41.5 722,-41.5 722,-11.5 594,-11.5"/>
<text text-anchor="start" x="602" y="-29.5" font-family="Helvetica,sans-Serif" font-size="10.00" fill="#000000">oneapi::vpl::ExtDecVideo</text>
<text text-anchor="middle" x="658" y="-18.5" font-family="Helvetica,sans-Serif" font-size="10.00" fill="#000000">Processing</text>
</g>
<!-- Node1 -->
<g id="node2" class="node">
<title>Node1</title>
<g id="a_node2"><a xlink:href="classoneapi_1_1vpl_1_1extension__buffer__trival.html" target="_top" xlink:title="oneapi::vpl::extension\l_buffer_trival\&lt; mfxExtDecVideo\lProcessing, MFX_EXTBUFF_DEC\l_VIDEO_PROCESSING \&gt;">
<polygon fill="#ffffff" stroke="#000000" points="388,-.5 388,-52.5 558,-52.5 558,-.5 388,-.5"/>
<text text-anchor="start" x="396" y="-40.5" font-family="Helvetica,sans-Serif" font-size="10.00" fill="#000000">oneapi::vpl::extension</text>
<text text-anchor="start" x="396" y="-29.5" font-family="Helvetica,sans-Serif" font-size="10.00" fill="#000000">_buffer_trival&lt; mfxExtDecVideo</text>
<text text-anchor="start" x="396" y="-18.5" font-family="Helvetica,sans-Serif" font-size="10.00" fill="#000000">Processing, MFX_EXTBUFF_DEC</text>
<text text-anchor="middle" x="473" y="-7.5" font-family="Helvetica,sans-Serif" font-size="10.00" fill="#000000">_VIDEO_PROCESSING &gt;</text>
</a>
</g>
</g>
<!-- Node1&#45;&gt;Node0 -->
<g id="edge1" class="edge">
<title>Node1&#45;&gt;Node0</title>
<path fill="none" stroke="#191970" d="M568.3728,-26.5C577.0495,-26.5 585.6925,-26.5 593.996,-26.5"/>
<polygon fill="#191970" stroke="#191970" points="568.1899,-23.0001 558.1899,-26.5 568.1899,-30.0001 568.1899,-23.0001"/>
</g>
<!-- Node2 -->
<g id="node3" class="node">
<title>Node2</title>
<g id="a_node3"><a xlink:href="classoneapi_1_1vpl_1_1extension__buffer.html" target="_top" xlink:title="oneapi::vpl::extension\l_buffer\&lt; mfxExtDecVideoProcessing, ID \&gt;">
<polygon fill="#ffffff" stroke="#000000" points="148,-11.5 148,-41.5 352,-41.5 352,-11.5 148,-11.5"/>
<text text-anchor="start" x="156" y="-29.5" font-family="Helvetica,sans-Serif" font-size="10.00" fill="#000000">oneapi::vpl::extension</text>
<text text-anchor="middle" x="250" y="-18.5" font-family="Helvetica,sans-Serif" font-size="10.00" fill="#000000">_buffer&lt; mfxExtDecVideoProcessing, ID &gt;</text>
</a>
</g>
</g>
<!-- Node2&#45;&gt;Node1 -->
<g id="edge2" class="edge">
<title>Node2&#45;&gt;Node1</title>
<path fill="none" stroke="#191970" d="M362.1229,-26.5C370.723,-26.5 379.3183,-26.5 387.7039,-26.5"/>
<polygon fill="#191970" stroke="#191970" points="362.037,-23.0001 352.037,-26.5 362.037,-30.0001 362.037,-23.0001"/>
</g>
<!-- Node3 -->
<g id="node4" class="node">
<title>Node3</title>
<g id="a_node4"><a xlink:href="classoneapi_1_1vpl_1_1extension__buffer__base.html" target="_top" xlink:title="Interface definition for extension buffers. Extension buffers are used to provide additional data for...">
<polygon fill="#ffffff" stroke="#000000" points="0,-11.5 0,-41.5 112,-41.5 112,-11.5 0,-11.5"/>
<text text-anchor="start" x="8" y="-29.5" font-family="Helvetica,sans-Serif" font-size="10.00" fill="#000000">oneapi::vpl::extension</text>
<text text-anchor="middle" x="56" y="-18.5" font-family="Helvetica,sans-Serif" font-size="10.00" fill="#000000">_buffer_base</text>
</a>
</g>
</g>
<!-- Node3&#45;&gt;Node2 -->
<g id="edge3" class="edge">
<title>Node3&#45;&gt;Node2</title>
<path fill="none" stroke="#191970" d="M122.1222,-26.5C130.4827,-26.5 139.185,-26.5 147.9423,-26.5"/>
<polygon fill="#191970" stroke="#191970" points="122.1129,-23.0001 112.1128,-26.5 122.1128,-30.0001 122.1129,-23.0001"/>
</g>
</g>
</svg>
