<?xml version="1.0" encoding="UTF-8" standalone="no"?>
<!DOCTYPE svg PUBLIC "-//W3C//DTD SVG 1.1//EN"
 "http://www.w3.org/Graphics/SVG/1.1/DTD/svg11.dtd">
<!-- Generated by graphviz version 2.40.1 (20161225.0304)
 -->
<!-- Title: Graphical Class Hierarchy Pages: 1 -->
<svg width="241pt" height="66pt"
 viewBox="0.00 0.00 241.00 66.00" xmlns="http://www.w3.org/2000/svg" xmlns:xlink="http://www.w3.org/1999/xlink">
<g id="graph0" class="graph" transform="scale(1 1) rotate(0) translate(4 62)">
<title>Graphical Class Hierarchy</title>
<polygon fill="#ffffff" stroke="transparent" points="-4,4 -4,-62 237,-62 237,4 -4,4"/>
<!-- Node299 -->
<g id="node1" class="node">
<title>Node299</title>
<polygon fill="#ffffff" stroke="#bfbfbf" points="0,-19.5 0,-38.5 59,-38.5 59,-19.5 0,-19.5"/>
<text text-anchor="middle" x="29.5" y="-26.5" font-family="Helvetica,sans-Serif" font-size="10.00" fill="#000000">exception</text>
</g>
<!-- Node0 -->
<g id="node2" class="node">
<title>Node0</title>
<g id="a_node2"><a xlink:href="classoneapi_1_1vpl_1_1base__exception.html" target="_top" xlink:title="Base class to represents oneVPL exception (negative) C API error codes. ">
<polygon fill="#ffffff" stroke="#000000" points="95,-38.5 95,-57.5 233,-57.5 233,-38.5 95,-38.5"/>
<text text-anchor="middle" x="164" y="-45.5" font-family="Helvetica,sans-Serif" font-size="10.00" fill="#000000">oneapi::vpl::base_exception</text>
</a>
</g>
</g>
<!-- Node299&#45;&gt;Node0 -->
<g id="edge1" class="edge">
<title>Node299&#45;&gt;Node0</title>
<path fill="none" stroke="#191970" d="M69.1356,-34.5991C77.7703,-35.8189 87.1402,-37.1425 96.516,-38.4669"/>
<polygon fill="#191970" stroke="#191970" points="69.4079,-31.1029 59.0166,-33.1696 68.4287,-38.0341 69.4079,-31.1029"/>
</g>
<!-- Node301 -->
<g id="node3" class="node">
<title>Node301</title>
<g id="a_node3"><a xlink:href="classoneapi_1_1vpl_1_1file__exception.html" target="_top" xlink:title="File exception class to represent oneVPL exception (negative) C API error codes. ">
<polygon fill="#ffffff" stroke="#000000" points="99,-.5 99,-19.5 229,-19.5 229,-.5 99,-.5"/>
<text text-anchor="middle" x="164" y="-7.5" font-family="Helvetica,sans-Serif" font-size="10.00" fill="#000000">oneapi::vpl::file_exception</text>
</a>
</g>
</g>
<!-- Node299&#45;&gt;Node301 -->
<g id="edge2" class="edge">
<title>Node299&#45;&gt;Node301</title>
<path fill="none" stroke="#191970" d="M69.1889,-23.3934C78.5683,-22.0684 88.8126,-20.6213 98.9884,-19.1838"/>
<polygon fill="#191970" stroke="#191970" points="68.4287,-19.9659 59.0166,-24.8304 69.4079,-26.8971 68.4287,-19.9659"/>
</g>
</g>
</svg>
