<?xml version="1.0" encoding="UTF-8" standalone="no"?>
<!DOCTYPE svg PUBLIC "-//W3C//DTD SVG 1.1//EN"
 "http://www.w3.org/Graphics/SVG/1.1/DTD/svg11.dtd">
<!-- Generated by graphviz version 2.40.1 (20161225.0304)
 -->
<!-- Title: Graphical Class Hierarchy Pages: 1 -->
<svg width="435pt" height="66pt"
 viewBox="0.00 0.00 435.00 66.00" xmlns="http://www.w3.org/2000/svg" xmlns:xlink="http://www.w3.org/1999/xlink">
<g id="graph0" class="graph" transform="scale(1 1) rotate(0) translate(4 62)">
<title>Graphical Class Hierarchy</title>
<polygon fill="#ffffff" stroke="transparent" points="-4,4 -4,-62 431,-62 431,4 -4,4"/>
<!-- Node0 -->
<g id="node1" class="node">
<title>Node0</title>
<g id="a_node1"><a xlink:href="classoneapi_1_1vpl_1_1implemetation__selector.html" target="_top" xlink:title="Selects oneVPL implementation according to the specified properties. ">
<polygon fill="#ffffff" stroke="#000000" points="0,-14 0,-44 131,-44 131,-14 0,-14"/>
<text text-anchor="start" x="8" y="-32" font-family="Helvetica,sans-Serif" font-size="10.00" fill="#000000">oneapi::vpl::implemetation</text>
<text text-anchor="middle" x="65.5" y="-21" font-family="Helvetica,sans-Serif" font-size="10.00" fill="#000000">_selector</text>
</a>
</g>
</g>
<!-- Node1 -->
<g id="node2" class="node">
<title>Node1</title>
<g id="a_node2"><a xlink:href="classoneapi_1_1vpl_1_1default__selector.html" target="_top" xlink:title="Default implemetation selector. It accepts first implementation matching provided properties...">
<polygon fill="#ffffff" stroke="#000000" points="167,-14 167,-44 266,-44 266,-14 167,-14"/>
<text text-anchor="start" x="175" y="-32" font-family="Helvetica,sans-Serif" font-size="10.00" fill="#000000">oneapi::vpl::default</text>
<text text-anchor="middle" x="216.5" y="-21" font-family="Helvetica,sans-Serif" font-size="10.00" fill="#000000">_selector</text>
</a>
</g>
</g>
<!-- Node0&#45;&gt;Node1 -->
<g id="edge1" class="edge">
<title>Node0&#45;&gt;Node1</title>
<path fill="none" stroke="#191970" d="M141.401,-29C150.0331,-29 158.6582,-29 166.8249,-29"/>
<polygon fill="#191970" stroke="#191970" points="141.2916,-25.5001 131.2915,-29 141.2915,-32.5001 141.2916,-25.5001"/>
</g>
<!-- Node2 -->
<g id="node3" class="node">
<title>Node2</title>
<g id="a_node3"><a xlink:href="classoneapi_1_1vpl_1_1cpu__selector.html" target="_top" xlink:title="Default SW based implementation selector. It accepts first implementation with SW based acceleration...">
<polygon fill="#ffffff" stroke="#000000" points="302,-38.5 302,-57.5 427,-57.5 427,-38.5 302,-38.5"/>
<text text-anchor="middle" x="364.5" y="-45.5" font-family="Helvetica,sans-Serif" font-size="10.00" fill="#000000">oneapi::vpl::cpu_selector</text>
</a>
</g>
</g>
<!-- Node1&#45;&gt;Node2 -->
<g id="edge2" class="edge">
<title>Node1&#45;&gt;Node2</title>
<path fill="none" stroke="#191970" d="M276.2847,-36.6751C284.6859,-37.7536 293.3412,-38.8647 301.795,-39.95"/>
<polygon fill="#191970" stroke="#191970" points="276.5579,-33.1815 266.1936,-35.3796 275.6665,-40.1245 276.5579,-33.1815"/>
</g>
<!-- Node3 -->
<g id="node4" class="node">
<title>Node3</title>
<g id="a_node4"><a xlink:href="classoneapi_1_1vpl_1_1gpu__selector.html" target="_top" xlink:title="Default HW based implementation selector. It accepts first implementation with HW based acceleration...">
<polygon fill="#ffffff" stroke="#000000" points="302,-.5 302,-19.5 427,-19.5 427,-.5 302,-.5"/>
<text text-anchor="middle" x="364.5" y="-7.5" font-family="Helvetica,sans-Serif" font-size="10.00" fill="#000000">oneapi::vpl::gpu_selector</text>
</a>
</g>
</g>
<!-- Node1&#45;&gt;Node3 -->
<g id="edge3" class="edge">
<title>Node1&#45;&gt;Node3</title>
<path fill="none" stroke="#191970" d="M276.2847,-21.3249C284.6859,-20.2464 293.3412,-19.1353 301.795,-18.05"/>
<polygon fill="#191970" stroke="#191970" points="275.6665,-17.8755 266.1936,-22.6204 276.5579,-24.8185 275.6665,-17.8755"/>
</g>
</g>
</svg>
