<?xml version="1.0" encoding="UTF-8" standalone="no"?>
<!DOCTYPE svg PUBLIC "-//W3C//DTD SVG 1.1//EN"
 "http://www.w3.org/Graphics/SVG/1.1/DTD/svg11.dtd">
<!-- Generated by graphviz version 2.40.1 (20161225.0304)
 -->
<!-- Title: Graphical Class Hierarchy Pages: 1 -->
<svg width="253pt" height="104pt"
 viewBox="0.00 0.00 253.00 104.00" xmlns="http://www.w3.org/2000/svg" xmlns:xlink="http://www.w3.org/1999/xlink">
<g id="graph0" class="graph" transform="scale(1 1) rotate(0) translate(4 100)">
<title>Graphical Class Hierarchy</title>
<polygon fill="#ffffff" stroke="transparent" points="-4,4 -4,-100 249,-100 249,4 -4,4"/>
<!-- Node0 -->
<g id="node1" class="node">
<title>Node0</title>
<g id="a_node1"><a xlink:href="classoneapi_1_1vpl_1_1stat.html" target="_top" xlink:title="Interface for the component&#39;s (session) run&#45;time statistic. ">
<polygon fill="#ffffff" stroke="#000000" points="0,-38.5 0,-57.5 86,-57.5 86,-38.5 0,-38.5"/>
<text text-anchor="middle" x="43" y="-45.5" font-family="Helvetica,sans-Serif" font-size="10.00" fill="#000000">oneapi::vpl::stat</text>
</a>
</g>
</g>
<!-- Node1 -->
<g id="node2" class="node">
<title>Node1</title>
<g id="a_node2"><a xlink:href="classoneapi_1_1vpl_1_1decode__stat.html" target="_top" xlink:title="Decoder&#39;s session run&#45;time statistic. ">
<polygon fill="#ffffff" stroke="#000000" points="122,-76.5 122,-95.5 245,-95.5 245,-76.5 122,-76.5"/>
<text text-anchor="middle" x="183.5" y="-83.5" font-family="Helvetica,sans-Serif" font-size="10.00" fill="#000000">oneapi::vpl::decode_stat</text>
</a>
</g>
</g>
<!-- Node0&#45;&gt;Node1 -->
<g id="edge1" class="edge">
<title>Node0&#45;&gt;Node1</title>
<path fill="none" stroke="#191970" d="M88.2787,-60.2462C107.6449,-65.484 129.9218,-71.5091 148.0573,-76.4141"/>
<polygon fill="#191970" stroke="#191970" points="89.0211,-56.8213 78.4541,-57.589 87.1934,-63.5785 89.0211,-56.8213"/>
</g>
<!-- Node2 -->
<g id="node3" class="node">
<title>Node2</title>
<g id="a_node3"><a xlink:href="classoneapi_1_1vpl_1_1encode__stat.html" target="_top" xlink:title="Encoder&#39;s session run&#45;time statistic. ">
<polygon fill="#ffffff" stroke="#000000" points="122,-38.5 122,-57.5 245,-57.5 245,-38.5 122,-38.5"/>
<text text-anchor="middle" x="183.5" y="-45.5" font-family="Helvetica,sans-Serif" font-size="10.00" fill="#000000">oneapi::vpl::encode_stat</text>
</a>
</g>
</g>
<!-- Node0&#45;&gt;Node2 -->
<g id="edge2" class="edge">
<title>Node0&#45;&gt;Node2</title>
<path fill="none" stroke="#191970" d="M96.531,-48C104.7741,-48 113.3432,-48 121.7477,-48"/>
<polygon fill="#191970" stroke="#191970" points="96.3011,-44.5001 86.3011,-48 96.301,-51.5001 96.3011,-44.5001"/>
</g>
<!-- Node3 -->
<g id="node4" class="node">
<title>Node3</title>
<g id="a_node4"><a xlink:href="classoneapi_1_1vpl_1_1vpp__stat.html" target="_top" xlink:title="VPP&#39;s session run&#45;time statistic. ">
<polygon fill="#ffffff" stroke="#000000" points="130,-.5 130,-19.5 237,-19.5 237,-.5 130,-.5"/>
<text text-anchor="middle" x="183.5" y="-7.5" font-family="Helvetica,sans-Serif" font-size="10.00" fill="#000000">oneapi::vpl::vpp_stat</text>
</a>
</g>
</g>
<!-- Node0&#45;&gt;Node3 -->
<g id="edge3" class="edge">
<title>Node0&#45;&gt;Node3</title>
<path fill="none" stroke="#191970" d="M88.2787,-35.7538C107.6449,-30.516 129.9218,-24.4909 148.0573,-19.5859"/>
<polygon fill="#191970" stroke="#191970" points="87.1934,-32.4215 78.4541,-38.411 89.0211,-39.1787 87.1934,-32.4215"/>
</g>
</g>
</svg>
