<?xml version="1.0" encoding="UTF-8" standalone="no"?>
<!DOCTYPE svg PUBLIC "-//W3C//DTD SVG 1.1//EN"
 "http://www.w3.org/Graphics/SVG/1.1/DTD/svg11.dtd">
<!-- Generated by graphviz version 2.40.1 (20161225.0304)
 -->
<!-- Title: Graphical Class Hierarchy Pages: 1 -->
<svg width="415pt" height="186pt"
 viewBox="0.00 0.00 415.00 186.00" xmlns="http://www.w3.org/2000/svg" xmlns:xlink="http://www.w3.org/1999/xlink">
<g id="graph0" class="graph" transform="scale(1 1) rotate(0) translate(4 182)">
<title>Graphical Class Hierarchy</title>
<polygon fill="#ffffff" stroke="transparent" points="-4,4 -4,-182 411,-182 411,4 -4,4"/>
<!-- Node0 -->
<g id="node1" class="node">
<title>Node0</title>
<g id="a_node1"><a xlink:href="classoneapi_1_1vpl_1_1video__param.html" target="_top" xlink:title="Holds general video params applicable for all kind of sessions. ">
<polygon fill="#ffffff" stroke="#000000" points="0,-48.5 0,-78.5 93,-78.5 93,-48.5 0,-48.5"/>
<text text-anchor="start" x="8" y="-66.5" font-family="Helvetica,sans-Serif" font-size="10.00" fill="#000000">oneapi::vpl::video</text>
<text text-anchor="middle" x="46.5" y="-55.5" font-family="Helvetica,sans-Serif" font-size="10.00" fill="#000000">_param</text>
</a>
</g>
</g>
<!-- Node1 -->
<g id="node2" class="node">
<title>Node1</title>
<g id="a_node2"><a xlink:href="classoneapi_1_1vpl_1_1codec__video__param.html" target="_top" xlink:title="Holds general codec&#45;specific params applicable for any decoder and encoder. ">
<polygon fill="#ffffff" stroke="#000000" points="138,-73.5 138,-103.5 234,-103.5 234,-73.5 138,-73.5"/>
<text text-anchor="start" x="146" y="-91.5" font-family="Helvetica,sans-Serif" font-size="10.00" fill="#000000">oneapi::vpl::codec</text>
<text text-anchor="middle" x="186" y="-80.5" font-family="Helvetica,sans-Serif" font-size="10.00" fill="#000000">_video_param</text>
</a>
</g>
</g>
<!-- Node0&#45;&gt;Node1 -->
<g id="edge1" class="edge">
<title>Node0&#45;&gt;Node1</title>
<path fill="none" stroke="#191970" d="M103.2121,-73.6635C114.6245,-75.7087 126.5198,-77.8405 137.6165,-79.8291"/>
<polygon fill="#191970" stroke="#191970" points="103.8002,-70.2132 93.3396,-71.8942 102.5653,-77.1034 103.8002,-70.2132"/>
</g>
<!-- Node6 -->
<g id="node7" class="node">
<title>Node6</title>
<g id="a_node7"><a xlink:href="classoneapi_1_1vpl_1_1vpp__video__param.html" target="_top" xlink:title="Holds VPP specific params. ">
<polygon fill="#ffffff" stroke="#000000" points="129,-24.5 129,-54.5 243,-54.5 243,-24.5 129,-24.5"/>
<text text-anchor="start" x="137" y="-42.5" font-family="Helvetica,sans-Serif" font-size="10.00" fill="#000000">oneapi::vpl::vpp_video</text>
<text text-anchor="middle" x="186" y="-31.5" font-family="Helvetica,sans-Serif" font-size="10.00" fill="#000000">_param</text>
</a>
</g>
</g>
<!-- Node0&#45;&gt;Node6 -->
<g id="edge6" class="edge">
<title>Node0&#45;&gt;Node6</title>
<path fill="none" stroke="#191970" d="M103.4197,-53.7074C111.8161,-52.2628 120.4694,-50.7741 128.8701,-49.3288"/>
<polygon fill="#191970" stroke="#191970" points="102.6013,-50.2967 93.3396,-55.4416 103.7882,-57.1953 102.6013,-50.2967"/>
</g>
<!-- Node2 -->
<g id="node3" class="node">
<title>Node2</title>
<g id="a_node3"><a xlink:href="classoneapi_1_1vpl_1_1decoder__video__param.html" target="_top" xlink:title="Holds decoder specific params. ">
<polygon fill="#ffffff" stroke="#000000" points="291,-147.5 291,-177.5 395,-177.5 395,-147.5 291,-147.5"/>
<text text-anchor="start" x="299" y="-165.5" font-family="Helvetica,sans-Serif" font-size="10.00" fill="#000000">oneapi::vpl::decoder</text>
<text text-anchor="middle" x="343" y="-154.5" font-family="Helvetica,sans-Serif" font-size="10.00" fill="#000000">_video_param</text>
</a>
</g>
</g>
<!-- Node1&#45;&gt;Node2 -->
<g id="edge2" class="edge">
<title>Node1&#45;&gt;Node2</title>
<path fill="none" stroke="#191970" d="M221.082,-108.8065C238.264,-118.377 259.4225,-129.6151 279,-138.5 285.8077,-141.5896 293.1408,-144.612 300.3283,-147.4132"/>
<polygon fill="#191970" stroke="#191970" points="222.4125,-105.5392 211.9809,-103.6867 218.9804,-111.6401 222.4125,-105.5392"/>
</g>
<!-- Node3 -->
<g id="node4" class="node">
<title>Node3</title>
<g id="a_node4"><a xlink:href="classoneapi_1_1vpl_1_1encoder__video__param.html" target="_top" xlink:title="Holds encoder specific params. ">
<polygon fill="#ffffff" stroke="#000000" points="291,-98.5 291,-128.5 395,-128.5 395,-98.5 291,-98.5"/>
<text text-anchor="start" x="299" y="-116.5" font-family="Helvetica,sans-Serif" font-size="10.00" fill="#000000">oneapi::vpl::encoder</text>
<text text-anchor="middle" x="343" y="-105.5" font-family="Helvetica,sans-Serif" font-size="10.00" fill="#000000">_video_param</text>
</a>
</g>
</g>
<!-- Node1&#45;&gt;Node3 -->
<g id="edge3" class="edge">
<title>Node1&#45;&gt;Node3</title>
<path fill="none" stroke="#191970" d="M244.2638,-97.7777C259.5774,-100.2161 275.9935,-102.8302 290.9572,-105.2129"/>
<polygon fill="#191970" stroke="#191970" points="244.8122,-94.321 234.3862,-96.2048 243.7114,-101.2339 244.8122,-94.321"/>
</g>
<!-- Node4 -->
<g id="node5" class="node">
<title>Node4</title>
<g id="a_node5"><a xlink:href="classoneapi_1_1vpl_1_1jpeg__decoder__video__param.html" target="_top" xlink:title="Holds JPEG decoder specific params. ">
<polygon fill="#ffffff" stroke="#000000" points="279,-49.5 279,-79.5 407,-79.5 407,-49.5 279,-49.5"/>
<text text-anchor="start" x="287" y="-67.5" font-family="Helvetica,sans-Serif" font-size="10.00" fill="#000000">oneapi::vpl::jpeg_decoder</text>
<text text-anchor="middle" x="343" y="-56.5" font-family="Helvetica,sans-Serif" font-size="10.00" fill="#000000">_video_param</text>
</a>
</g>
</g>
<!-- Node1&#45;&gt;Node4 -->
<g id="edge4" class="edge">
<title>Node1&#45;&gt;Node4</title>
<path fill="none" stroke="#191970" d="M244.4904,-79.5588C255.7025,-77.8448 267.4983,-76.0417 278.8767,-74.3023"/>
<polygon fill="#191970" stroke="#191970" points="243.7425,-76.1324 234.3862,-81.1034 244.8003,-83.052 243.7425,-76.1324"/>
</g>
<!-- Node5 -->
<g id="node6" class="node">
<title>Node5</title>
<g id="a_node6"><a xlink:href="classoneapi_1_1vpl_1_1jpeg__encoder__video__param.html" target="_top" xlink:title="Holds JPEG encoder specific params. ">
<polygon fill="#ffffff" stroke="#000000" points="279,-.5 279,-30.5 407,-30.5 407,-.5 279,-.5"/>
<text text-anchor="start" x="287" y="-18.5" font-family="Helvetica,sans-Serif" font-size="10.00" fill="#000000">oneapi::vpl::jpeg_encoder</text>
<text text-anchor="middle" x="343" y="-7.5" font-family="Helvetica,sans-Serif" font-size="10.00" fill="#000000">_video_param</text>
</a>
</g>
</g>
<!-- Node1&#45;&gt;Node5 -->
<g id="edge5" class="edge">
<title>Node1&#45;&gt;Node5</title>
<path fill="none" stroke="#191970" d="M233.6091,-69.2635C236.8195,-67.719 239.9766,-66.1253 243,-64.5 259.9373,-55.3947 261.9452,-49.3833 279,-40.5 285.8768,-36.9181 293.3874,-33.5435 300.7667,-30.5017"/>
<polygon fill="#191970" stroke="#191970" points="232.1015,-66.1045 224.4875,-73.4719 235.034,-72.4606 232.1015,-66.1045"/>
</g>
</g>
</svg>
