<?xml version="1.0" encoding="UTF-8" standalone="no"?>
<!DOCTYPE svg PUBLIC "-//W3C//DTD SVG 1.1//EN"
 "http://www.w3.org/Graphics/SVG/1.1/DTD/svg11.dtd">
<!-- Generated by graphviz version 2.40.1 (20161225.0304)
 -->
<!-- Title: oneapi::vpl::detail::CAPI&lt; T &gt; Pages: 1 -->
<svg width="101pt" height="139pt"
 viewBox="0.00 0.00 101.00 139.00" xmlns="http://www.w3.org/2000/svg" xmlns:xlink="http://www.w3.org/1999/xlink">
<g id="graph0" class="graph" transform="scale(1 1) rotate(0) translate(4 135)">
<title>oneapi::vpl::detail::CAPI&lt; T &gt;</title>
<polygon fill="#ffffff" stroke="transparent" points="-4,4 -4,-135 97,-135 97,4 -4,4"/>
<!-- Node1 -->
<g id="node1" class="node">
<title>Node1</title>
<polygon fill="#bfbfbf" stroke="#000000" points="0,-.5 0,-30.5 93,-30.5 93,-.5 0,-.5"/>
<text text-anchor="start" x="8" y="-18.5" font-family="Helvetica,sans-Serif" font-size="10.00" fill="#000000">oneapi::vpl::detail</text>
<text text-anchor="middle" x="46.5" y="-7.5" font-family="Helvetica,sans-Serif" font-size="10.00" fill="#000000">::CAPI&lt; T &gt;</text>
</g>
<!-- Node2 -->
<g id="node2" class="node">
<title>Node2</title>
<g id="a_node2"><a xlink:href="structoneapi_1_1vpl_1_1detail_1_1sdk__c__api.html" target="_top" xlink:title="Underlying C API Functions table. It is initialized either for encoder or foe decoder or forVPP...">
<polygon fill="#ffffff" stroke="#000000" points="0,-100.5 0,-130.5 93,-130.5 93,-100.5 0,-100.5"/>
<text text-anchor="start" x="8" y="-118.5" font-family="Helvetica,sans-Serif" font-size="10.00" fill="#000000">oneapi::vpl::detail</text>
<text text-anchor="middle" x="46.5" y="-107.5" font-family="Helvetica,sans-Serif" font-size="10.00" fill="#000000">::sdk_c_api</text>
</a>
</g>
</g>
<!-- Node2&#45;&gt;Node1 -->
<g id="edge1" class="edge">
<title>Node2&#45;&gt;Node1</title>
<path fill="none" stroke="#9a32cd" stroke-dasharray="5,2" d="M46.5,-90.0599C46.5,-71.2363 46.5,-46.2342 46.5,-30.5031"/>
<polygon fill="#9a32cd" stroke="#9a32cd" points="43.0001,-90.3121 46.5,-100.3122 50.0001,-90.3122 43.0001,-90.3121"/>
<text text-anchor="middle" x="66.5" y="-74" font-family="Helvetica,sans-Serif" font-size="10.00" fill="#000000"> Encoder</text>
<text text-anchor="middle" x="66.5" y="-63" font-family="Helvetica,sans-Serif" font-size="10.00" fill="#000000">VPP</text>
<text text-anchor="middle" x="66.5" y="-52" font-family="Helvetica,sans-Serif" font-size="10.00" fill="#000000">Decoder</text>
</g>
</g>
</svg>
