<?xml version="1.0" encoding="UTF-8" standalone="no"?>
<!DOCTYPE svg PUBLIC "-//W3C//DTD SVG 1.1//EN"
 "http://www.w3.org/Graphics/SVG/1.1/DTD/svg11.dtd">
<!-- Generated by graphviz version 2.40.1 (20161225.0304)
 -->
<!-- Title: mfxDecoderDescription::decoder Pages: 1 -->
<svg width="127pt" height="284pt"
 viewBox="0.00 0.00 127.00 284.00" xmlns="http://www.w3.org/2000/svg" xmlns:xlink="http://www.w3.org/1999/xlink">
<g id="graph0" class="graph" transform="scale(1 1) rotate(0) translate(4 280)">
<title>mfxDecoderDescription::decoder</title>
<polygon fill="#ffffff" stroke="transparent" points="-4,4 -4,-280 123,-280 123,4 -4,4"/>
<!-- Node1 -->
<g id="node1" class="node">
<title>Node1</title>
<polygon fill="#bfbfbf" stroke="#000000" points="0,-.5 0,-30.5 119,-30.5 119,-.5 0,-.5"/>
<text text-anchor="start" x="8" y="-18.5" font-family="Helvetica,sans-Serif" font-size="10.00" fill="#000000">mfxDecoderDescription</text>
<text text-anchor="middle" x="59.5" y="-7.5" font-family="Helvetica,sans-Serif" font-size="10.00" fill="#000000">::decoder</text>
</g>
<!-- Node2 -->
<g id="node2" class="node">
<title>Node2</title>
<g id="a_node2"><a xlink:href="structmfxDecoderDescription_1_1decoder_1_1decprofile.html" target="_top" xlink:title="mfxDecoderDescription\l::decoder::decprofile">
<polygon fill="#ffffff" stroke="#000000" points="0,-78.5 0,-108.5 119,-108.5 119,-78.5 0,-78.5"/>
<text text-anchor="start" x="8" y="-96.5" font-family="Helvetica,sans-Serif" font-size="10.00" fill="#000000">mfxDecoderDescription</text>
<text text-anchor="middle" x="59.5" y="-85.5" font-family="Helvetica,sans-Serif" font-size="10.00" fill="#000000">::decoder::decprofile</text>
</a>
</g>
</g>
<!-- Node2&#45;&gt;Node1 -->
<g id="edge1" class="edge">
<title>Node2&#45;&gt;Node1</title>
<path fill="none" stroke="#9a32cd" stroke-dasharray="5,2" d="M59.5,-68.2875C59.5,-55.9187 59.5,-41.4264 59.5,-30.7592"/>
<polygon fill="#9a32cd" stroke="#9a32cd" points="56.0001,-68.4608 59.5,-78.4608 63.0001,-68.4608 56.0001,-68.4608"/>
<text text-anchor="middle" x="78" y="-52" font-family="Helvetica,sans-Serif" font-size="10.00" fill="#000000"> Profiles</text>
</g>
<!-- Node3 -->
<g id="node3" class="node">
<title>Node3</title>
<g id="a_node3"><a xlink:href="structmfxDecoderDescription_1_1decoder_1_1decprofile_1_1decmemdesc.html" target="_top" xlink:title="mfxDecoderDescription\l::decoder::decprofile\l::decmemdesc">
<polygon fill="#ffffff" stroke="#000000" points="0,-156.5 0,-197.5 119,-197.5 119,-156.5 0,-156.5"/>
<text text-anchor="start" x="8" y="-185.5" font-family="Helvetica,sans-Serif" font-size="10.00" fill="#000000">mfxDecoderDescription</text>
<text text-anchor="start" x="8" y="-174.5" font-family="Helvetica,sans-Serif" font-size="10.00" fill="#000000">::decoder::decprofile</text>
<text text-anchor="middle" x="59.5" y="-163.5" font-family="Helvetica,sans-Serif" font-size="10.00" fill="#000000">::decmemdesc</text>
</a>
</g>
</g>
<!-- Node3&#45;&gt;Node2 -->
<g id="edge2" class="edge">
<title>Node3&#45;&gt;Node2</title>
<path fill="none" stroke="#9a32cd" stroke-dasharray="5,2" d="M59.5,-146.0892C59.5,-133.3184 59.5,-119.0939 59.5,-108.6621"/>
<polygon fill="#9a32cd" stroke="#9a32cd" points="56.0001,-146.3595 59.5,-156.3595 63.0001,-146.3596 56.0001,-146.3595"/>
<text text-anchor="middle" x="84" y="-130" font-family="Helvetica,sans-Serif" font-size="10.00" fill="#000000"> MemDesc</text>
</g>
<!-- Node4 -->
<g id="node4" class="node">
<title>Node4</title>
<g id="a_node4"><a xlink:href="structmfxRange32U.html" target="_top" xlink:title="mfxRange32U">
<polygon fill="#ffffff" stroke="#000000" points="19.5,-256.5 19.5,-275.5 99.5,-275.5 99.5,-256.5 19.5,-256.5"/>
<text text-anchor="middle" x="59.5" y="-263.5" font-family="Helvetica,sans-Serif" font-size="10.00" fill="#000000">mfxRange32U</text>
</a>
</g>
</g>
<!-- Node4&#45;&gt;Node3 -->
<g id="edge3" class="edge">
<title>Node4&#45;&gt;Node3</title>
<path fill="none" stroke="#9a32cd" stroke-dasharray="5,2" d="M59.5,-246.1498C59.5,-231.6776 59.5,-212.124 59.5,-197.5022"/>
<polygon fill="#9a32cd" stroke="#9a32cd" points="56.0001,-246.4754 59.5,-256.4754 63.0001,-246.4755 56.0001,-246.4754"/>
<text text-anchor="middle" x="74" y="-230" font-family="Helvetica,sans-Serif" font-size="10.00" fill="#000000"> Width</text>
<text text-anchor="middle" x="74" y="-219" font-family="Helvetica,sans-Serif" font-size="10.00" fill="#000000">Height</text>
</g>
</g>
</svg>
