<?xml version="1.0" encoding="UTF-8" standalone="no"?>
<!DOCTYPE svg PUBLIC "-//W3C//DTD SVG 1.1//EN"
 "http://www.w3.org/Graphics/SVG/1.1/DTD/svg11.dtd">
<!-- Generated by graphviz version 2.40.1 (20161225.0304)
 -->
<!-- Title: mfxExtAVCRefLists Pages: 1 -->
<svg width="120pt" height="117pt"
 viewBox="0.00 0.00 120.00 117.00" xmlns="http://www.w3.org/2000/svg" xmlns:xlink="http://www.w3.org/1999/xlink">
<g id="graph0" class="graph" transform="scale(1 1) rotate(0) translate(4 113)">
<title>mfxExtAVCRefLists</title>
<polygon fill="#ffffff" stroke="transparent" points="-4,4 -4,-113 116,-113 116,4 -4,4"/>
<!-- Node1 -->
<g id="node1" class="node">
<title>Node1</title>
<polygon fill="#bfbfbf" stroke="#000000" points="3,-.5 3,-19.5 109,-19.5 109,-.5 3,-.5"/>
<text text-anchor="middle" x="56" y="-7.5" font-family="Helvetica,sans-Serif" font-size="10.00" fill="#000000">mfxExtAVCRefLists</text>
</g>
<!-- Node2 -->
<g id="node2" class="node">
<title>Node2</title>
<g id="a_node2"><a xlink:href="structmfxExtAVCRefLists_1_1mfxRefPic.html" target="_top" xlink:title="mfxExtAVCRefLists::\lmfxRefPic">
<polygon fill="#ffffff" stroke="#000000" points="0,-78.5 0,-108.5 112,-108.5 112,-78.5 0,-78.5"/>
<text text-anchor="start" x="8" y="-96.5" font-family="Helvetica,sans-Serif" font-size="10.00" fill="#000000">mfxExtAVCRefLists::</text>
<text text-anchor="middle" x="56" y="-85.5" font-family="Helvetica,sans-Serif" font-size="10.00" fill="#000000">mfxRefPic</text>
</a>
</g>
</g>
<!-- Node2&#45;&gt;Node1 -->
<g id="edge1" class="edge">
<title>Node2&#45;&gt;Node1</title>
<path fill="none" stroke="#9a32cd" stroke-dasharray="5,2" d="M56,-68.1022C56,-51.6775 56,-31.2426 56,-19.5023"/>
<polygon fill="#9a32cd" stroke="#9a32cd" points="52.5001,-68.1848 56,-78.1848 59.5001,-68.1848 52.5001,-68.1848"/>
<text text-anchor="middle" x="83.5" y="-52" font-family="Helvetica,sans-Serif" font-size="10.00" fill="#000000"> RefPicList0</text>
<text text-anchor="middle" x="83.5" y="-41" font-family="Helvetica,sans-Serif" font-size="10.00" fill="#000000">RefPicList1</text>
</g>
</g>
</svg>
