<?xml version="1.0" encoding="UTF-8" standalone="no"?>
<!DOCTYPE svg PUBLIC "-//W3C//DTD SVG 1.1//EN"
 "http://www.w3.org/Graphics/SVG/1.1/DTD/svg11.dtd">
<!-- Generated by graphviz version 2.40.1 (20161225.0304)
 -->
<!-- Title: mfxDecoderDescription Pages: 1 -->
<svg width="127pt" height="351pt"
 viewBox="0.00 0.00 127.00 351.00" xmlns="http://www.w3.org/2000/svg" xmlns:xlink="http://www.w3.org/1999/xlink">
<g id="graph0" class="graph" transform="scale(1 1) rotate(0) translate(4 347)">
<title>mfxDecoderDescription</title>
<polygon fill="#ffffff" stroke="transparent" points="-4,4 -4,-347 123,-347 123,4 -4,4"/>
<!-- Node1 -->
<g id="node1" class="node">
<title>Node1</title>
<polygon fill="#bfbfbf" stroke="#000000" points="0,-.5 0,-19.5 119,-19.5 119,-.5 0,-.5"/>
<text text-anchor="middle" x="59.5" y="-7.5" font-family="Helvetica,sans-Serif" font-size="10.00" fill="#000000">mfxDecoderDescription</text>
</g>
<!-- Node2 -->
<g id="node2" class="node">
<title>Node2</title>
<g id="a_node2"><a xlink:href="structmfxDecoderDescription_1_1decoder.html" target="_top" xlink:title="mfxDecoderDescription\l::decoder">
<polygon fill="#ffffff" stroke="#000000" points="0,-67.5 0,-97.5 119,-97.5 119,-67.5 0,-67.5"/>
<text text-anchor="start" x="8" y="-85.5" font-family="Helvetica,sans-Serif" font-size="10.00" fill="#000000">mfxDecoderDescription</text>
<text text-anchor="middle" x="59.5" y="-74.5" font-family="Helvetica,sans-Serif" font-size="10.00" fill="#000000">::decoder</text>
</a>
</g>
</g>
<!-- Node2&#45;&gt;Node1 -->
<g id="edge1" class="edge">
<title>Node2&#45;&gt;Node1</title>
<path fill="none" stroke="#9a32cd" stroke-dasharray="5,2" d="M59.5,-57.305C59.5,-44.424 59.5,-29.4836 59.5,-19.8957"/>
<polygon fill="#9a32cd" stroke="#9a32cd" points="56.0001,-57.4779 59.5,-67.478 63.0001,-57.478 56.0001,-57.4779"/>
<text text-anchor="middle" x="78" y="-41" font-family="Helvetica,sans-Serif" font-size="10.00" fill="#000000"> Codecs</text>
</g>
<!-- Node3 -->
<g id="node3" class="node">
<title>Node3</title>
<g id="a_node3"><a xlink:href="structmfxDecoderDescription_1_1decoder_1_1decprofile.html" target="_top" xlink:title="mfxDecoderDescription\l::decoder::decprofile">
<polygon fill="#ffffff" stroke="#000000" points="0,-145.5 0,-175.5 119,-175.5 119,-145.5 0,-145.5"/>
<text text-anchor="start" x="8" y="-163.5" font-family="Helvetica,sans-Serif" font-size="10.00" fill="#000000">mfxDecoderDescription</text>
<text text-anchor="middle" x="59.5" y="-152.5" font-family="Helvetica,sans-Serif" font-size="10.00" fill="#000000">::decoder::decprofile</text>
</a>
</g>
</g>
<!-- Node3&#45;&gt;Node2 -->
<g id="edge2" class="edge">
<title>Node3&#45;&gt;Node2</title>
<path fill="none" stroke="#9a32cd" stroke-dasharray="5,2" d="M59.5,-135.2875C59.5,-122.9187 59.5,-108.4264 59.5,-97.7592"/>
<polygon fill="#9a32cd" stroke="#9a32cd" points="56.0001,-135.4608 59.5,-145.4608 63.0001,-135.4608 56.0001,-135.4608"/>
<text text-anchor="middle" x="78" y="-119" font-family="Helvetica,sans-Serif" font-size="10.00" fill="#000000"> Profiles</text>
</g>
<!-- Node4 -->
<g id="node4" class="node">
<title>Node4</title>
<g id="a_node4"><a xlink:href="structmfxDecoderDescription_1_1decoder_1_1decprofile_1_1decmemdesc.html" target="_top" xlink:title="mfxDecoderDescription\l::decoder::decprofile\l::decmemdesc">
<polygon fill="#ffffff" stroke="#000000" points="0,-223.5 0,-264.5 119,-264.5 119,-223.5 0,-223.5"/>
<text text-anchor="start" x="8" y="-252.5" font-family="Helvetica,sans-Serif" font-size="10.00" fill="#000000">mfxDecoderDescription</text>
<text text-anchor="start" x="8" y="-241.5" font-family="Helvetica,sans-Serif" font-size="10.00" fill="#000000">::decoder::decprofile</text>
<text text-anchor="middle" x="59.5" y="-230.5" font-family="Helvetica,sans-Serif" font-size="10.00" fill="#000000">::decmemdesc</text>
</a>
</g>
</g>
<!-- Node4&#45;&gt;Node3 -->
<g id="edge3" class="edge">
<title>Node4&#45;&gt;Node3</title>
<path fill="none" stroke="#9a32cd" stroke-dasharray="5,2" d="M59.5,-213.0892C59.5,-200.3184 59.5,-186.0939 59.5,-175.6621"/>
<polygon fill="#9a32cd" stroke="#9a32cd" points="56.0001,-213.3595 59.5,-223.3595 63.0001,-213.3596 56.0001,-213.3595"/>
<text text-anchor="middle" x="84" y="-197" font-family="Helvetica,sans-Serif" font-size="10.00" fill="#000000"> MemDesc</text>
</g>
<!-- Node5 -->
<g id="node5" class="node">
<title>Node5</title>
<g id="a_node5"><a xlink:href="structmfxRange32U.html" target="_top" xlink:title="mfxRange32U">
<polygon fill="#ffffff" stroke="#000000" points="19.5,-323.5 19.5,-342.5 99.5,-342.5 99.5,-323.5 19.5,-323.5"/>
<text text-anchor="middle" x="59.5" y="-330.5" font-family="Helvetica,sans-Serif" font-size="10.00" fill="#000000">mfxRange32U</text>
</a>
</g>
</g>
<!-- Node5&#45;&gt;Node4 -->
<g id="edge4" class="edge">
<title>Node5&#45;&gt;Node4</title>
<path fill="none" stroke="#9a32cd" stroke-dasharray="5,2" d="M59.5,-313.1498C59.5,-298.6776 59.5,-279.124 59.5,-264.5022"/>
<polygon fill="#9a32cd" stroke="#9a32cd" points="56.0001,-313.4754 59.5,-323.4754 63.0001,-313.4755 56.0001,-313.4754"/>
<text text-anchor="middle" x="74" y="-297" font-family="Helvetica,sans-Serif" font-size="10.00" fill="#000000"> Width</text>
<text text-anchor="middle" x="74" y="-286" font-family="Helvetica,sans-Serif" font-size="10.00" fill="#000000">Height</text>
</g>
</g>
</svg>
