<?xml version="1.0" encoding="UTF-8" standalone="no"?>
<!DOCTYPE svg PUBLIC "-//W3C//DTD SVG 1.1//EN"
 "http://www.w3.org/Graphics/SVG/1.1/DTD/svg11.dtd">
<!-- Generated by graphviz version 2.40.1 (20161225.0304)
 -->
<!-- Title: mfxExtVPP3DLut Pages: 1 -->
<svg width="256pt" height="162pt"
 viewBox="0.00 0.00 255.50 162.00" xmlns="http://www.w3.org/2000/svg" xmlns:xlink="http://www.w3.org/1999/xlink">
<g id="graph0" class="graph" transform="scale(1 1) rotate(0) translate(4 158)">
<title>mfxExtVPP3DLut</title>
<polygon fill="#ffffff" stroke="transparent" points="-4,4 -4,-158 251.5,-158 251.5,4 -4,4"/>
<!-- Node1 -->
<g id="node1" class="node">
<title>Node1</title>
<polygon fill="#bfbfbf" stroke="#000000" points="78,-.5 78,-19.5 173,-19.5 173,-.5 78,-.5"/>
<text text-anchor="middle" x="125.5" y="-7.5" font-family="Helvetica,sans-Serif" font-size="10.00" fill="#000000">mfxExtVPP3DLut</text>
</g>
<!-- Node2 -->
<g id="node2" class="node">
<title>Node2</title>
<g id="a_node2"><a xlink:href="structmfx3DLutSystemBuffer.html" target="_top" xlink:title="mfx3DLutSystemBuffer">
<polygon fill="#ffffff" stroke="#000000" points="0,-67.5 0,-86.5 119,-86.5 119,-67.5 0,-67.5"/>
<text text-anchor="middle" x="59.5" y="-74.5" font-family="Helvetica,sans-Serif" font-size="10.00" fill="#000000">mfx3DLutSystemBuffer</text>
</a>
</g>
</g>
<!-- Node2&#45;&gt;Node1 -->
<g id="edge1" class="edge">
<title>Node2&#45;&gt;Node1</title>
<path fill="none" stroke="#9a32cd" stroke-dasharray="5,2" d="M76.1689,-60.0785C88.7923,-47.2639 105.6785,-30.1218 116.0614,-19.5817"/>
<polygon fill="#9a32cd" stroke="#9a32cd" points="73.4805,-57.8203 68.9562,-67.4005 78.4673,-62.7327 73.4805,-57.8203"/>
<text text-anchor="middle" x="128.5" y="-41" font-family="Helvetica,sans-Serif" font-size="10.00" fill="#000000"> SystemBuffer</text>
</g>
<!-- Node3 -->
<g id="node3" class="node">
<title>Node3</title>
<g id="a_node3"><a xlink:href="structmfxChannel.html" target="_top" xlink:title="mfxChannel">
<polygon fill="#ffffff" stroke="#000000" points="25,-134.5 25,-153.5 94,-153.5 94,-134.5 25,-134.5"/>
<text text-anchor="middle" x="59.5" y="-141.5" font-family="Helvetica,sans-Serif" font-size="10.00" fill="#000000">mfxChannel</text>
</a>
</g>
</g>
<!-- Node3&#45;&gt;Node2 -->
<g id="edge2" class="edge">
<title>Node3&#45;&gt;Node2</title>
<path fill="none" stroke="#9a32cd" stroke-dasharray="5,2" d="M59.5,-124.1079C59.5,-111.714 59.5,-96.3263 59.5,-86.5817"/>
<polygon fill="#9a32cd" stroke="#9a32cd" points="56.0001,-124.4005 59.5,-134.4005 63.0001,-124.4006 56.0001,-124.4005"/>
<text text-anchor="middle" x="79.5" y="-108" font-family="Helvetica,sans-Serif" font-size="10.00" fill="#000000"> Channel</text>
</g>
<!-- Node4 -->
<g id="node4" class="node">
<title>Node4</title>
<g id="a_node4"><a xlink:href="structmfx3DLutVideoBuffer.html" target="_top" xlink:title="mfx3DLutVideoBuffer">
<polygon fill="#ffffff" stroke="#000000" points="137.5,-67.5 137.5,-86.5 247.5,-86.5 247.5,-67.5 137.5,-67.5"/>
<text text-anchor="middle" x="192.5" y="-74.5" font-family="Helvetica,sans-Serif" font-size="10.00" fill="#000000">mfx3DLutVideoBuffer</text>
</a>
</g>
</g>
<!-- Node4&#45;&gt;Node1 -->
<g id="edge3" class="edge">
<title>Node4&#45;&gt;Node1</title>
<path fill="none" stroke="#9a32cd" stroke-dasharray="5,2" d="M181.159,-58.6614C176.4555,-51.7884 170.6591,-44.1591 164.5,-38 157.5453,-31.0453 148.7159,-24.553 141.2176,-19.5744"/>
<polygon fill="#9a32cd" stroke="#9a32cd" points="178.4337,-60.89 186.8269,-67.3557 184.2977,-57.0671 178.4337,-60.89"/>
<text text-anchor="middle" x="201" y="-41" font-family="Helvetica,sans-Serif" font-size="10.00" fill="#000000"> VideoBuffer</text>
</g>
</g>
</svg>
