<?xml version="1.0" encoding="UTF-8" standalone="no"?>
<!DOCTYPE svg PUBLIC "-//W3C//DTD SVG 1.1//EN"
 "http://www.w3.org/Graphics/SVG/1.1/DTD/svg11.dtd">
<!-- Generated by graphviz version 2.40.1 (20161225.0304)
 -->
<!-- Title: mfxExtDecVideoProcessing Pages: 1 -->
<svg width="306pt" height="106pt"
 viewBox="0.00 0.00 306.00 106.00" xmlns="http://www.w3.org/2000/svg" xmlns:xlink="http://www.w3.org/1999/xlink">
<g id="graph0" class="graph" transform="scale(1 1) rotate(0) translate(4 102)">
<title>mfxExtDecVideoProcessing</title>
<polygon fill="#ffffff" stroke="transparent" points="-4,4 -4,-102 302,-102 302,4 -4,4"/>
<!-- Node1 -->
<g id="node1" class="node">
<title>Node1</title>
<polygon fill="#bfbfbf" stroke="#000000" points="79,-.5 79,-19.5 219,-19.5 219,-.5 79,-.5"/>
<text text-anchor="middle" x="149" y="-7.5" font-family="Helvetica,sans-Serif" font-size="10.00" fill="#000000">mfxExtDecVideoProcessing</text>
</g>
<!-- Node2 -->
<g id="node2" class="node">
<title>Node2</title>
<g id="a_node2"><a xlink:href="structmfxExtDecVideoProcessing_1_1mfxOut.html" target="_top" xlink:title="mfxExtDecVideoProcessing\l::mfxOut">
<polygon fill="#ffffff" stroke="#000000" points="0,-67.5 0,-97.5 140,-97.5 140,-67.5 0,-67.5"/>
<text text-anchor="start" x="8" y="-85.5" font-family="Helvetica,sans-Serif" font-size="10.00" fill="#000000">mfxExtDecVideoProcessing</text>
<text text-anchor="middle" x="70" y="-74.5" font-family="Helvetica,sans-Serif" font-size="10.00" fill="#000000">::mfxOut</text>
</a>
</g>
</g>
<!-- Node2&#45;&gt;Node1 -->
<g id="edge1" class="edge">
<title>Node2&#45;&gt;Node1</title>
<path fill="none" stroke="#9a32cd" stroke-dasharray="5,2" d="M94.1325,-60.3531C108.8476,-46.8487 126.9337,-30.2507 138.2171,-19.8957"/>
<polygon fill="#9a32cd" stroke="#9a32cd" points="91.37,-58.1378 86.3689,-67.478 96.1031,-63.2951 91.37,-58.1378"/>
<text text-anchor="middle" x="126.5" y="-41" font-family="Helvetica,sans-Serif" font-size="10.00" fill="#000000"> Out</text>
</g>
<!-- Node3 -->
<g id="node3" class="node">
<title>Node3</title>
<g id="a_node3"><a xlink:href="structmfxExtDecVideoProcessing_1_1mfxIn.html" target="_top" xlink:title="mfxExtDecVideoProcessing\l::mfxIn">
<polygon fill="#ffffff" stroke="#000000" points="158,-67.5 158,-97.5 298,-97.5 298,-67.5 158,-67.5"/>
<text text-anchor="start" x="166" y="-85.5" font-family="Helvetica,sans-Serif" font-size="10.00" fill="#000000">mfxExtDecVideoProcessing</text>
<text text-anchor="middle" x="228" y="-74.5" font-family="Helvetica,sans-Serif" font-size="10.00" fill="#000000">::mfxIn</text>
</a>
</g>
</g>
<!-- Node3&#45;&gt;Node1 -->
<g id="edge2" class="edge">
<title>Node3&#45;&gt;Node1</title>
<path fill="none" stroke="#9a32cd" stroke-dasharray="5,2" d="M203.8675,-60.3531C189.1524,-46.8487 171.0663,-30.2507 159.7829,-19.8957"/>
<polygon fill="#9a32cd" stroke="#9a32cd" points="201.8969,-63.2951 211.6311,-67.478 206.63,-58.1378 201.8969,-63.2951"/>
<text text-anchor="middle" x="196" y="-41" font-family="Helvetica,sans-Serif" font-size="10.00" fill="#000000"> In</text>
</g>
</g>
</svg>
