<?xml version="1.0" encoding="UTF-8" standalone="no"?>
<!DOCTYPE svg PUBLIC "-//W3C//DTD SVG 1.1//EN"
 "http://www.w3.org/Graphics/SVG/1.1/DTD/svg11.dtd">
<!-- Generated by graphviz version 2.40.1 (20161225.0304)
 -->
<!-- Title: mfxDecoderDescription::decoder::decprofile Pages: 1 -->
<svg width="127pt" height="206pt"
 viewBox="0.00 0.00 127.00 206.00" xmlns="http://www.w3.org/2000/svg" xmlns:xlink="http://www.w3.org/1999/xlink">
<g id="graph0" class="graph" transform="scale(1 1) rotate(0) translate(4 202)">
<title>mfxDecoderDescription::decoder::decprofile</title>
<polygon fill="#ffffff" stroke="transparent" points="-4,4 -4,-202 123,-202 123,4 -4,4"/>
<!-- Node1 -->
<g id="node1" class="node">
<title>Node1</title>
<polygon fill="#bfbfbf" stroke="#000000" points="0,-.5 0,-30.5 119,-30.5 119,-.5 0,-.5"/>
<text text-anchor="start" x="8" y="-18.5" font-family="Helvetica,sans-Serif" font-size="10.00" fill="#000000">mfxDecoderDescription</text>
<text text-anchor="middle" x="59.5" y="-7.5" font-family="Helvetica,sans-Serif" font-size="10.00" fill="#000000">::decoder::decprofile</text>
</g>
<!-- Node2 -->
<g id="node2" class="node">
<title>Node2</title>
<g id="a_node2"><a xlink:href="structmfxDecoderDescription_1_1decoder_1_1decprofile_1_1decmemdesc.html" target="_top" xlink:title="mfxDecoderDescription\l::decoder::decprofile\l::decmemdesc">
<polygon fill="#ffffff" stroke="#000000" points="0,-78.5 0,-119.5 119,-119.5 119,-78.5 0,-78.5"/>
<text text-anchor="start" x="8" y="-107.5" font-family="Helvetica,sans-Serif" font-size="10.00" fill="#000000">mfxDecoderDescription</text>
<text text-anchor="start" x="8" y="-96.5" font-family="Helvetica,sans-Serif" font-size="10.00" fill="#000000">::decoder::decprofile</text>
<text text-anchor="middle" x="59.5" y="-85.5" font-family="Helvetica,sans-Serif" font-size="10.00" fill="#000000">::decmemdesc</text>
</a>
</g>
</g>
<!-- Node2&#45;&gt;Node1 -->
<g id="edge1" class="edge">
<title>Node2&#45;&gt;Node1</title>
<path fill="none" stroke="#9a32cd" stroke-dasharray="5,2" d="M59.5,-68.0892C59.5,-55.3184 59.5,-41.0939 59.5,-30.6621"/>
<polygon fill="#9a32cd" stroke="#9a32cd" points="56.0001,-68.3595 59.5,-78.3595 63.0001,-68.3596 56.0001,-68.3595"/>
<text text-anchor="middle" x="84" y="-52" font-family="Helvetica,sans-Serif" font-size="10.00" fill="#000000"> MemDesc</text>
</g>
<!-- Node3 -->
<g id="node3" class="node">
<title>Node3</title>
<g id="a_node3"><a xlink:href="structmfxRange32U.html" target="_top" xlink:title="mfxRange32U">
<polygon fill="#ffffff" stroke="#000000" points="19.5,-178.5 19.5,-197.5 99.5,-197.5 99.5,-178.5 19.5,-178.5"/>
<text text-anchor="middle" x="59.5" y="-185.5" font-family="Helvetica,sans-Serif" font-size="10.00" fill="#000000">mfxRange32U</text>
</a>
</g>
</g>
<!-- Node3&#45;&gt;Node2 -->
<g id="edge2" class="edge">
<title>Node3&#45;&gt;Node2</title>
<path fill="none" stroke="#9a32cd" stroke-dasharray="5,2" d="M59.5,-168.1498C59.5,-153.6776 59.5,-134.124 59.5,-119.5022"/>
<polygon fill="#9a32cd" stroke="#9a32cd" points="56.0001,-168.4754 59.5,-178.4754 63.0001,-168.4755 56.0001,-168.4754"/>
<text text-anchor="middle" x="74" y="-152" font-family="Helvetica,sans-Serif" font-size="10.00" fill="#000000"> Width</text>
<text text-anchor="middle" x="74" y="-141" font-family="Helvetica,sans-Serif" font-size="10.00" fill="#000000">Height</text>
</g>
</g>
</svg>
